G04 (created by PCBNEW (2013-mar-13)-testing) date Thu 04 Jul 2013 15:31:34 EST*
%MOIN*%
G04 Gerber Fmt 3.4, Leading zero omitted, Abs format*
%FSLAX34Y34*%
G01*
G70*
G90*
G04 APERTURE LIST*
%ADD10C,0.003937*%
%ADD11R,0.060748X0.040748*%
%ADD12R,0.040748X0.060748*%
%ADD13R,0.051181X0.035433*%
%ADD14R,0.023748X0.074803*%
%ADD15R,0.094448X0.070848*%
%ADD16R,0.047244X0.047244*%
%ADD17R,0.055118X0.094488*%
%ADD18R,0.125984X0.043307*%
%ADD19R,0.059055X0.090551*%
%ADD20R,0.055118X0.027559*%
%ADD21R,0.075748X0.075748*%
%ADD22C,0.075748*%
%ADD23R,0.055118X0.153543*%
%ADD24O,0.027548X0.049248*%
%ADD25O,0.049248X0.027548*%
%ADD26R,0.236220X0.236220*%
%ADD27R,0.035433X0.051181*%
%ADD28R,0.074803X0.023748*%
G04 APERTURE END LIST*
G54D10*
G54D11*
X2362Y9152D03*
X2362Y9752D03*
X4688Y9410D03*
X4688Y8810D03*
X4078Y9410D03*
X4078Y8810D03*
X2972Y9152D03*
X2972Y9752D03*
X5720Y3516D03*
X5720Y2916D03*
G54D12*
X7629Y8267D03*
X8229Y8267D03*
G54D11*
X7437Y3516D03*
X7437Y2916D03*
X7062Y5906D03*
X7062Y5306D03*
X7062Y6314D03*
X7062Y6914D03*
G54D13*
X4606Y3472D03*
X4606Y2960D03*
G54D14*
X4606Y3216D03*
G54D15*
X4763Y700D03*
X4763Y2300D03*
X6763Y700D03*
X6763Y2300D03*
G54D11*
X6330Y3516D03*
X6330Y2916D03*
X5110Y3516D03*
X5110Y2916D03*
G54D16*
X6885Y3511D03*
X6885Y2921D03*
G54D17*
X7692Y9925D03*
X5645Y9925D03*
G54D18*
X6669Y9584D03*
X6669Y10265D03*
G54D19*
X2145Y8488D03*
X3129Y8488D03*
G54D20*
X4061Y10299D03*
X4061Y10043D03*
X4061Y9787D03*
X4710Y9787D03*
X4710Y10043D03*
X4710Y10299D03*
G54D21*
X1929Y3169D03*
G54D22*
X2929Y3169D03*
X1929Y2169D03*
X2929Y2169D03*
X1929Y1169D03*
X2929Y1169D03*
G54D23*
X8185Y5027D03*
X8185Y7192D03*
G54D16*
X8066Y3511D03*
X8066Y2921D03*
G54D11*
X8610Y2916D03*
X8610Y3516D03*
G54D24*
X5468Y7665D03*
X5271Y7665D03*
X5074Y7665D03*
X4877Y7665D03*
X4680Y7665D03*
X4483Y7665D03*
X4287Y7665D03*
X4090Y7665D03*
X3893Y7665D03*
X3696Y7665D03*
X3499Y7665D03*
X3302Y7665D03*
X3302Y4949D03*
X3499Y4949D03*
X3696Y4949D03*
X3893Y4949D03*
X4090Y4949D03*
X4287Y4949D03*
X4483Y4949D03*
X4680Y4949D03*
X4877Y4949D03*
X5074Y4949D03*
X5271Y4949D03*
X5468Y4949D03*
G54D25*
X3027Y7390D03*
X3027Y7193D03*
X3027Y6996D03*
X3027Y6799D03*
X3027Y6602D03*
X3027Y6405D03*
X3027Y6209D03*
X3027Y6012D03*
X3027Y5815D03*
X3027Y5618D03*
X3027Y5421D03*
X3027Y5224D03*
X5743Y5224D03*
X5743Y5421D03*
X5743Y5618D03*
X5743Y5815D03*
X5743Y6012D03*
X5743Y6209D03*
X5743Y6405D03*
X5743Y6602D03*
X5743Y6799D03*
X5743Y6996D03*
X5743Y7193D03*
X5743Y7390D03*
G54D26*
X4385Y6307D03*
G54D21*
X4385Y6307D03*
X3785Y5707D03*
X4985Y5707D03*
X4985Y6907D03*
X3785Y6907D03*
G54D27*
X8759Y2425D03*
X8248Y2425D03*
G54D28*
X8503Y2425D03*
G54D22*
X9441Y8314D03*
X9441Y5164D03*
X9441Y3590D03*
X9441Y4377D03*
X9441Y6739D03*
X9441Y5952D03*
X9441Y7527D03*
X9441Y2015D03*
X9441Y1227D03*
X9441Y2802D03*
X779Y2802D03*
X779Y1227D03*
X779Y2015D03*
X779Y7527D03*
X779Y5952D03*
X779Y6739D03*
X779Y4377D03*
X779Y3590D03*
X779Y5164D03*
X779Y8314D03*
M02*
