M48
;DRILL file {Pcbnew (2013-mar-13)-testing} date Thu 04 Jul 2013 13:06:20 EST
;FORMAT={-:-/ absolute / metric / decimal}
FMAT,2
METRIC,TZ
T1C0.635
T2C0.813
T3C1.016
%
G90
G05
M71
T1
X4.095Y18.742
X4.54Y13.97
X5.Y16.98
X5.431Y18.082
X5.48Y13.04
X8.71Y27.08
X9.13Y26.28
X9.13Y24.5
X9.13Y22.72
X9.39Y20.573
X9.453Y9.683
X9.61Y27.05
X9.67Y6.45
X10.11Y21.41
X10.708Y8.05
X10.772Y10.319
X11.643Y11.039
X12.18Y21.4
X12.799Y11.483
X13.13Y22.63
X14.74Y20.71
X14.93Y22.63
X14.941Y12.138
X15.65Y19.94
X16.33Y20.85
X16.38Y16.99
X16.62Y14.52
X16.73Y22.63
X16.83Y19.84
X17.43Y20.84
X17.94Y10.34
X17.96Y19.87
X18.53Y22.63
X18.89Y3.488
X19.06Y2.25
X19.43Y12.17
X20.33Y22.63
X22.13Y22.63
T2
X1.979Y21.12
X1.979Y19.121
X1.979Y17.119
X1.979Y15.121
X1.979Y13.119
X1.979Y11.12
X1.979Y9.121
X1.979Y7.12
X1.979Y5.121
X1.979Y3.119
X9.616Y17.544
X9.616Y14.496
X11.14Y16.02
X12.664Y17.544
X12.664Y14.496
X23.981Y21.12
X23.981Y19.121
X23.981Y17.119
X23.981Y15.121
X23.981Y13.119
X23.981Y11.12
X23.981Y9.121
X23.981Y7.12
X23.981Y5.121
X23.981Y3.119
T3
X4.9Y8.05
X4.9Y5.51
X4.9Y2.97
X7.44Y8.05
X7.44Y5.51
X7.44Y2.97
T0
M30
