%FSLAX34Y34*%
G04 Gerber Fmt 3.4, Leading zero omitted, Abs format*
G04 (created by PCBNEW (2013-12-14 BZR 4555)-product) date Wed 05 Mar 2014 18:38:52 EST*
%MOIN*%
G01*
G70*
G90*
G04 APERTURE LIST*
%ADD10C,0.005906*%
%ADD11R,0.064961X0.064961*%
%ADD12C,0.064961*%
%ADD13R,0.043307X0.043307*%
%ADD14C,0.075748*%
%ADD15R,0.045248X0.074848*%
%ADD16R,0.070848X0.090548*%
%ADD17R,0.086648X0.070848*%
%ADD18R,0.078774X0.062974*%
G04 APERTURE END LIST*
G54D10*
G54D11*
X-1000Y-507D03*
G54D12*
X-1000Y-1507D03*
X0Y-507D03*
X0Y-1507D03*
X1000Y-507D03*
X1000Y-1507D03*
G54D13*
X0Y-8031D03*
X-3Y-7322D03*
G54D14*
X4331Y0D03*
X4331Y-3150D03*
X4331Y-4724D03*
X4331Y-3937D03*
X4331Y-1575D03*
X4331Y-2362D03*
X4331Y-787D03*
X4331Y-6299D03*
X4331Y-7087D03*
X4331Y-5512D03*
X-4331Y-5512D03*
X-4331Y-7087D03*
X-4331Y-6299D03*
X-4331Y-787D03*
X-4331Y-2362D03*
X-4331Y-1575D03*
X-4331Y-3937D03*
X-4331Y-4724D03*
X-4331Y-3150D03*
X-4331Y0D03*
G54D15*
X1844Y-6240D03*
X2277Y-6240D03*
X1411Y-6319D03*
X978Y-6240D03*
X-753Y-6240D03*
X-320Y-6083D03*
X112Y-6240D03*
X545Y-6319D03*
G54D16*
X2553Y-7362D03*
X-2662Y-7795D03*
G54D17*
X1943Y-2185D03*
G54D18*
X-340Y-2185D03*
M02*
