%FSLAX34Y34*%
G04 Gerber Fmt 3.4, Leading zero omitted, Abs format*
G04 (created by PCBNEW (2013-12-14 BZR 4555)-product) date Wed 05 Mar 2014 18:38:52 EST*
%MOIN*%
G01*
G70*
G90*
G04 APERTURE LIST*
%ADD10C,0.005906*%
%ADD11R,0.025197X0.025197*%
%ADD12R,0.036000X0.020000*%
%ADD13R,0.028346X0.040945*%
%ADD14R,0.022047X0.044094*%
%ADD15R,0.044094X0.022047*%
G04 APERTURE END LIST*
G54D10*
G54D11*
X2952Y-7381D03*
X2952Y-7972D03*
X-2952Y-7381D03*
X-2952Y-7972D03*
G54D12*
X2362Y-7977D03*
X2362Y-7377D03*
X-2362Y-7977D03*
X-2362Y-7377D03*
G54D13*
X-807Y-7677D03*
X807Y-7677D03*
G54D14*
X2750Y-6781D03*
X2250Y-6781D03*
G54D15*
X-3622Y-566D03*
G54D10*
G36*
X-3842Y-5677D02*
X-3842Y-5456D01*
X-3401Y-5456D01*
X-3401Y-5677D01*
X-3842Y-5677D01*
X-3842Y-5677D01*
G37*
G54D15*
X-3622Y-1066D03*
G54D10*
G36*
X-3842Y-1677D02*
X-3842Y-1456D01*
X-3401Y-1456D01*
X-3401Y-1677D01*
X-3842Y-1677D01*
X-3842Y-1677D01*
G37*
G36*
X-3842Y-2177D02*
X-3842Y-1956D01*
X-3401Y-1956D01*
X-3401Y-2177D01*
X-3842Y-2177D01*
X-3842Y-2177D01*
G37*
G36*
X-3842Y-2677D02*
X-3842Y-2456D01*
X-3401Y-2456D01*
X-3401Y-2677D01*
X-3842Y-2677D01*
X-3842Y-2677D01*
G37*
G36*
X-3842Y-3177D02*
X-3842Y-2956D01*
X-3401Y-2956D01*
X-3401Y-3177D01*
X-3842Y-3177D01*
X-3842Y-3177D01*
G37*
G36*
X-3842Y-3677D02*
X-3842Y-3456D01*
X-3401Y-3456D01*
X-3401Y-3677D01*
X-3842Y-3677D01*
X-3842Y-3677D01*
G37*
G36*
X-3842Y-4177D02*
X-3842Y-3956D01*
X-3401Y-3956D01*
X-3401Y-4177D01*
X-3842Y-4177D01*
X-3842Y-4177D01*
G37*
G36*
X-3842Y-4677D02*
X-3842Y-4456D01*
X-3401Y-4456D01*
X-3401Y-4677D01*
X-3842Y-4677D01*
X-3842Y-4677D01*
G37*
G36*
X-3842Y-5177D02*
X-3842Y-4956D01*
X-3401Y-4956D01*
X-3401Y-5177D01*
X-3842Y-5177D01*
X-3842Y-5177D01*
G37*
G54D14*
X-2750Y-6781D03*
X-2250Y-6781D03*
X-1750Y-6781D03*
X-1250Y-6781D03*
X-750Y-6781D03*
X-250Y-6781D03*
X250Y-6781D03*
X750Y-6781D03*
X1250Y-6781D03*
X1750Y-6781D03*
G54D15*
X3622Y-566D03*
X3622Y-5566D03*
X3622Y-5066D03*
X3622Y-4566D03*
X3622Y-4066D03*
X3622Y-3566D03*
X3622Y-3066D03*
X3622Y-2566D03*
X3622Y-2066D03*
X3622Y-1566D03*
X3622Y-1066D03*
M02*
