M48
;DRILL file {Pcbnew (2013-12-14 BZR 4555)-product} date Wed 15 Jan 2014 15:50:06 EST
;FORMAT={-:-/ absolute / metric / decimal}
FMAT,2
METRIC,TZ
T1C0.635
T2C0.700
T3C0.813
%
G90
G05
M71
T1
X-7.836Y-9.164
X-7.818Y-4.548
X-6.24Y-6.45
X-6.24Y-11.51
X-6.17Y-12.89
X-4.964Y-15.464
X-3.872Y-15.855
X-3.703Y-14.588
X-3.53Y-19.5
X-2.79Y-5.41
X-0.76Y-7.82
X3.149Y-19.5
X3.502Y-12.414
X5.506Y-13.164
X7.81Y-5.728
X7.831Y-6.978
X10.44Y-19.92
T2
X-0.01Y-18.6
X0.Y-20.4
T3
X-11.001Y0.
X-11.001Y-1.999
X-11.001Y-4.
X-11.001Y-5.999
X-11.001Y-8.001
X-11.001Y-10.
X-11.001Y-11.999
X-11.001Y-14.
X-11.001Y-15.999
X-11.001Y-18.001
X11.001Y0.
X11.001Y-1.999
X11.001Y-4.
X11.001Y-5.999
X11.001Y-8.001
X11.001Y-10.
X11.001Y-11.999
X11.001Y-14.
X11.001Y-15.999
X11.001Y-18.001
T0
M30
