%FSLAX34Y34*%
G04 Gerber Fmt 3.4, Leading zero omitted, Abs format*
G04 (created by PCBNEW (2013-12-14 BZR 4555)-product) date Tue 24 Dec 2013 01:38:29 EST*
%MOIN*%
G01*
G70*
G90*
G04 APERTURE LIST*
%ADD10C,0.005906*%
%ADD11R,0.045248X0.074848*%
%ADD12R,0.070848X0.090548*%
%ADD13R,0.086648X0.070848*%
%ADD14R,0.078774X0.062974*%
%ADD15R,0.047244X0.047244*%
%ADD16R,0.060748X0.040748*%
%ADD17R,0.036220X0.020472*%
%ADD18R,0.008787X0.059843*%
%ADD19R,0.051181X0.066929*%
%ADD20R,0.043307X0.043307*%
%ADD21R,0.064961X0.064961*%
%ADD22C,0.064961*%
%ADD23C,0.075748*%
G04 APERTURE END LIST*
G54D10*
G54D11*
X-2769Y-6259D03*
X-3202Y-6259D03*
X-2336Y-6338D03*
X-1903Y-6259D03*
X-171Y-6259D03*
X-604Y-6102D03*
X-1037Y-6259D03*
X-1470Y-6338D03*
G54D12*
X-3478Y-7381D03*
X1737Y-7814D03*
G54D13*
X-2868Y-2204D03*
G54D14*
X-584Y-2204D03*
G54D15*
X3011Y-767D03*
X3011Y-1358D03*
X-2850Y-767D03*
X-2850Y-1358D03*
G54D16*
X2519Y-1362D03*
X2519Y-762D03*
X-2358Y-1362D03*
X-2358Y-762D03*
G54D17*
X2007Y-807D03*
X2007Y-1318D03*
G54D18*
X2007Y-1062D03*
G54D17*
X-1846Y-1318D03*
X-1846Y-807D03*
G54D18*
X-1846Y-1062D03*
G54D19*
X-807Y-1062D03*
X807Y-1062D03*
G54D20*
X0Y-1417D03*
X-3Y-708D03*
G54D21*
X2492Y-2543D03*
G54D22*
X3492Y-2543D03*
X2492Y-3543D03*
X3492Y-3543D03*
X2492Y-4543D03*
X3492Y-4543D03*
G54D23*
X4331Y0D03*
X4331Y-3150D03*
X4331Y-4724D03*
X4331Y-3937D03*
X4331Y-1575D03*
X4331Y-2362D03*
X4331Y-787D03*
X4331Y-6299D03*
X4331Y-7087D03*
X4331Y-5512D03*
X-4331Y-5512D03*
X-4331Y-7087D03*
X-4331Y-6299D03*
X-4331Y-787D03*
X-4331Y-2362D03*
X-4331Y-1575D03*
X-4331Y-3937D03*
X-4331Y-4724D03*
X-4331Y-3150D03*
X-4331Y0D03*
M02*
