%FSLAX34Y34*%
G04 Gerber Fmt 3.4, Leading zero omitted, Abs format*
G04 (created by PCBNEW (2013-12-14 BZR 4555)-product) date Tue 24 Dec 2013 01:38:29 EST*
%MOIN*%
G01*
G70*
G90*
G04 APERTURE LIST*
%ADD10C,0.005906*%
%ADD11C,0.007382*%
G04 APERTURE END LIST*
G54D10*
G54D11*
X1993Y2410D02*
X2021Y2424D01*
X2077Y2424D01*
X2106Y2410D01*
X2134Y2382D01*
X2148Y2354D01*
X2148Y2297D01*
X2134Y2269D01*
X2106Y2241D01*
X2077Y2227D01*
X2021Y2227D01*
X1993Y2241D01*
X2049Y2522D02*
X2120Y2508D01*
X2190Y2466D01*
X2232Y2396D01*
X2246Y2325D01*
X2232Y2255D01*
X2190Y2185D01*
X2120Y2143D01*
X2049Y2129D01*
X1979Y2143D01*
X1909Y2185D01*
X1866Y2255D01*
X1852Y2325D01*
X1866Y2396D01*
X1909Y2466D01*
X1979Y2508D01*
X2049Y2522D01*
X1726Y2185D02*
X1726Y2480D01*
X1627Y2269D01*
X1529Y2480D01*
X1529Y2185D01*
X1374Y2185D02*
X1318Y2185D01*
X1290Y2199D01*
X1276Y2213D01*
X1248Y2255D01*
X1234Y2311D01*
X1234Y2424D01*
X1248Y2452D01*
X1262Y2466D01*
X1290Y2480D01*
X1346Y2480D01*
X1374Y2466D01*
X1388Y2452D01*
X1402Y2424D01*
X1402Y2354D01*
X1388Y2325D01*
X1374Y2311D01*
X1346Y2297D01*
X1290Y2297D01*
X1262Y2311D01*
X1248Y2325D01*
X1234Y2354D01*
X1107Y2185D02*
X1107Y2480D01*
X1037Y2480D01*
X995Y2466D01*
X967Y2438D01*
X953Y2410D01*
X938Y2354D01*
X938Y2311D01*
X953Y2255D01*
X967Y2227D01*
X995Y2199D01*
X1037Y2185D01*
X1107Y2185D01*
X699Y2199D02*
X728Y2185D01*
X784Y2185D01*
X812Y2199D01*
X826Y2227D01*
X826Y2339D01*
X812Y2368D01*
X784Y2382D01*
X728Y2382D01*
X699Y2368D01*
X685Y2339D01*
X685Y2311D01*
X826Y2283D01*
X573Y2199D02*
X545Y2185D01*
X489Y2185D01*
X460Y2199D01*
X446Y2227D01*
X446Y2241D01*
X460Y2269D01*
X489Y2283D01*
X531Y2283D01*
X559Y2297D01*
X573Y2325D01*
X573Y2339D01*
X559Y2368D01*
X531Y2382D01*
X489Y2382D01*
X460Y2368D01*
X320Y2185D02*
X320Y2382D01*
X320Y2480D02*
X334Y2466D01*
X320Y2452D01*
X306Y2466D01*
X320Y2480D01*
X320Y2452D01*
X53Y2382D02*
X53Y2143D01*
X67Y2115D01*
X81Y2100D01*
X109Y2086D01*
X151Y2086D01*
X179Y2100D01*
X53Y2199D02*
X81Y2185D01*
X137Y2185D01*
X165Y2199D01*
X179Y2213D01*
X193Y2241D01*
X193Y2325D01*
X179Y2354D01*
X165Y2368D01*
X137Y2382D01*
X81Y2382D01*
X53Y2368D01*
X-87Y2382D02*
X-87Y2185D01*
X-87Y2354D02*
X-101Y2368D01*
X-129Y2382D01*
X-171Y2382D01*
X-199Y2368D01*
X-214Y2339D01*
X-214Y2185D01*
X-354Y2213D02*
X-368Y2199D01*
X-354Y2185D01*
X-340Y2199D01*
X-354Y2213D01*
X-354Y2185D01*
X-621Y2199D02*
X-593Y2185D01*
X-537Y2185D01*
X-509Y2199D01*
X-495Y2213D01*
X-481Y2241D01*
X-481Y2325D01*
X-495Y2354D01*
X-509Y2368D01*
X-537Y2382D01*
X-593Y2382D01*
X-621Y2368D01*
X-790Y2185D02*
X-762Y2199D01*
X-748Y2213D01*
X-734Y2241D01*
X-734Y2325D01*
X-748Y2354D01*
X-762Y2368D01*
X-790Y2382D01*
X-832Y2382D01*
X-860Y2368D01*
X-874Y2354D01*
X-888Y2325D01*
X-888Y2241D01*
X-874Y2213D01*
X-860Y2199D01*
X-832Y2185D01*
X-790Y2185D01*
X-1226Y2452D02*
X-1240Y2466D01*
X-1268Y2480D01*
X-1338Y2480D01*
X-1366Y2466D01*
X-1381Y2452D01*
X-1395Y2424D01*
X-1395Y2396D01*
X-1381Y2354D01*
X-1212Y2185D01*
X-1395Y2185D01*
X-1577Y2480D02*
X-1606Y2480D01*
X-1634Y2466D01*
X-1648Y2452D01*
X-1662Y2424D01*
X-1676Y2368D01*
X-1676Y2297D01*
X-1662Y2241D01*
X-1648Y2213D01*
X-1634Y2199D01*
X-1606Y2185D01*
X-1577Y2185D01*
X-1549Y2199D01*
X-1535Y2213D01*
X-1521Y2241D01*
X-1507Y2297D01*
X-1507Y2368D01*
X-1521Y2424D01*
X-1535Y2452D01*
X-1549Y2466D01*
X-1577Y2480D01*
X-1957Y2185D02*
X-1788Y2185D01*
X-1873Y2185D02*
X-1873Y2480D01*
X-1845Y2438D01*
X-1816Y2410D01*
X-1788Y2396D01*
X-2055Y2480D02*
X-2238Y2480D01*
X-2140Y2368D01*
X-2182Y2368D01*
X-2210Y2354D01*
X-2224Y2339D01*
X-2238Y2311D01*
X-2238Y2241D01*
X-2224Y2213D01*
X-2210Y2199D01*
X-2182Y2185D01*
X-2098Y2185D01*
X-2070Y2199D01*
X-2055Y2213D01*
M02*
