%FSLAX34Y34*%
G04 Gerber Fmt 3.4, Leading zero omitted, Abs format*
G04 (created by PCBNEW (2013-12-14 BZR 4555)-product) date Wed 15 Jan 2014 15:50:06 EST*
%MOIN*%
G01*
G70*
G90*
G04 APERTURE LIST*
%ADD10C,0.005000*%
%ADD11C,0.003937*%
%ADD12C,0.007874*%
%ADD13C,0.011811*%
G04 APERTURE END LIST*
G54D10*
G54D11*
X2125Y2767D02*
X5074Y232D01*
X-2129Y2771D02*
X2125Y2767D01*
X-2129Y2771D02*
X-5070Y232D01*
X5074Y-8271D02*
X5074Y232D01*
X-5070Y-8271D02*
X-5070Y232D01*
X-5070Y-8271D02*
X5074Y-8271D01*
G54D12*
X-3210Y-3482D02*
X-2960Y-3732D01*
X-2960Y-3482D02*
X-3210Y-3732D01*
X-3203Y-1665D02*
X-2953Y-1915D01*
X-2953Y-1665D02*
X-3203Y-1915D01*
X-2581Y-2414D02*
X-2331Y-2664D01*
X-2331Y-2414D02*
X-2581Y-2664D01*
X-2581Y-4406D02*
X-2331Y-4656D01*
X-2331Y-4406D02*
X-2581Y-4656D01*
X-2554Y-4949D02*
X-2304Y-5199D01*
X-2304Y-4949D02*
X-2554Y-5199D01*
X-2079Y-5963D02*
X-1829Y-6213D01*
X-1829Y-5963D02*
X-2079Y-6213D01*
X-1649Y-6117D02*
X-1399Y-6367D01*
X-1399Y-6117D02*
X-1649Y-6367D01*
X-1582Y-5618D02*
X-1332Y-5868D01*
X-1332Y-5618D02*
X-1582Y-5868D01*
X-1514Y-7552D02*
X-1264Y-7802D01*
X-1264Y-7552D02*
X-1514Y-7802D01*
X-1223Y-2004D02*
X-973Y-2254D01*
X-973Y-2004D02*
X-1223Y-2254D01*
X-424Y-2953D02*
X-174Y-3203D01*
X-174Y-2953D02*
X-424Y-3203D01*
X1114Y-7552D02*
X1364Y-7802D01*
X1364Y-7552D02*
X1114Y-7802D01*
X1253Y-4762D02*
X1503Y-5012D01*
X1503Y-4762D02*
X1253Y-5012D01*
X2042Y-5057D02*
X2292Y-5307D01*
X2292Y-5057D02*
X2042Y-5307D01*
X2949Y-2130D02*
X3199Y-2380D01*
X3199Y-2130D02*
X2949Y-2380D01*
X2957Y-2622D02*
X3207Y-2872D01*
X3207Y-2622D02*
X2957Y-2872D01*
X3985Y-7717D02*
X4235Y-7967D01*
X4235Y-7717D02*
X3985Y-7967D01*
X133Y-7322D02*
G75*
G03X133Y-7322I-137J0D01*
G74*
G01*
X137Y-8031D02*
G75*
G03X137Y-8031I-137J0D01*
G74*
G01*
X-4331Y160D02*
X-4331Y-160D01*
X-4491Y0D02*
X-4171Y0D01*
X-4331Y-627D02*
X-4331Y-947D01*
X-4491Y-787D02*
X-4171Y-787D01*
X-4331Y-1415D02*
X-4331Y-1735D01*
X-4491Y-1575D02*
X-4171Y-1575D01*
X-4331Y-2202D02*
X-4331Y-2522D01*
X-4491Y-2362D02*
X-4171Y-2362D01*
X-4331Y-2990D02*
X-4331Y-3310D01*
X-4491Y-3150D02*
X-4171Y-3150D01*
X-4331Y-3777D02*
X-4331Y-4097D01*
X-4491Y-3937D02*
X-4171Y-3937D01*
X-4331Y-4564D02*
X-4331Y-4884D01*
X-4491Y-4724D02*
X-4171Y-4724D01*
X-4331Y-5352D02*
X-4331Y-5672D01*
X-4491Y-5512D02*
X-4171Y-5512D01*
X-4331Y-6139D02*
X-4331Y-6459D01*
X-4491Y-6299D02*
X-4171Y-6299D01*
X-4331Y-6927D02*
X-4331Y-7247D01*
X-4491Y-7087D02*
X-4171Y-7087D01*
X4331Y160D02*
X4331Y-160D01*
X4171Y0D02*
X4491Y0D01*
X4331Y-627D02*
X4331Y-947D01*
X4171Y-787D02*
X4491Y-787D01*
X4331Y-1415D02*
X4331Y-1735D01*
X4171Y-1575D02*
X4491Y-1575D01*
X4331Y-2202D02*
X4331Y-2522D01*
X4171Y-2362D02*
X4491Y-2362D01*
X4331Y-2990D02*
X4331Y-3310D01*
X4171Y-3150D02*
X4491Y-3150D01*
X4331Y-3777D02*
X4331Y-4097D01*
X4171Y-3937D02*
X4491Y-3937D01*
X4331Y-4564D02*
X4331Y-4884D01*
X4171Y-4724D02*
X4491Y-4724D01*
X4331Y-5352D02*
X4331Y-5672D01*
X4171Y-5512D02*
X4491Y-5512D01*
X4331Y-6139D02*
X4331Y-6459D01*
X4171Y-6299D02*
X4491Y-6299D01*
X4331Y-6927D02*
X4331Y-7247D01*
X4171Y-7087D02*
X4491Y-7087D01*
G54D13*
X-4021Y-10124D02*
X-4021Y-8943D01*
X-3740Y-8943D01*
X-3571Y-9000D01*
X-3459Y-9112D01*
X-3403Y-9224D01*
X-3347Y-9449D01*
X-3347Y-9618D01*
X-3403Y-9843D01*
X-3459Y-9956D01*
X-3571Y-10068D01*
X-3740Y-10124D01*
X-4021Y-10124D01*
X-2840Y-10124D02*
X-2840Y-9337D01*
X-2840Y-9562D02*
X-2784Y-9449D01*
X-2728Y-9393D01*
X-2615Y-9337D01*
X-2503Y-9337D01*
X-2109Y-10124D02*
X-2109Y-9337D01*
X-2109Y-8943D02*
X-2165Y-9000D01*
X-2109Y-9056D01*
X-2053Y-9000D01*
X-2109Y-8943D01*
X-2109Y-9056D01*
X-1378Y-10124D02*
X-1491Y-10068D01*
X-1547Y-9956D01*
X-1547Y-8943D01*
X-759Y-10124D02*
X-872Y-10068D01*
X-928Y-9956D01*
X-928Y-8943D01*
X589Y-10124D02*
X589Y-8943D01*
X983Y-9787D01*
X1377Y-8943D01*
X1377Y-10124D01*
X2446Y-10124D02*
X2446Y-9506D01*
X2389Y-9393D01*
X2277Y-9337D01*
X2052Y-9337D01*
X1939Y-9393D01*
X2446Y-10068D02*
X2333Y-10124D01*
X2052Y-10124D01*
X1939Y-10068D01*
X1883Y-9956D01*
X1883Y-9843D01*
X1939Y-9731D01*
X2052Y-9674D01*
X2333Y-9674D01*
X2446Y-9618D01*
X3008Y-9337D02*
X3008Y-10518D01*
X3008Y-9393D02*
X3120Y-9337D01*
X3345Y-9337D01*
X3458Y-9393D01*
X3514Y-9449D01*
X3570Y-9562D01*
X3570Y-9899D01*
X3514Y-10012D01*
X3458Y-10068D01*
X3345Y-10124D01*
X3120Y-10124D01*
X3008Y-10068D01*
X4077Y-10012D02*
X4133Y-10068D01*
X4077Y-10124D01*
X4020Y-10068D01*
X4077Y-10012D01*
X4077Y-10124D01*
X4077Y-9393D02*
X4133Y-9449D01*
X4077Y-9506D01*
X4020Y-9449D01*
X4077Y-9393D01*
X4077Y-9506D01*
X-5340Y-11945D02*
X-5090Y-12195D01*
X-5090Y-11945D02*
X-5340Y-12195D01*
X-3796Y-11424D02*
X-3684Y-11424D01*
X-3571Y-11480D01*
X-3515Y-11536D01*
X-3459Y-11649D01*
X-3403Y-11874D01*
X-3403Y-12155D01*
X-3459Y-12380D01*
X-3515Y-12492D01*
X-3571Y-12548D01*
X-3684Y-12605D01*
X-3796Y-12605D01*
X-3909Y-12548D01*
X-3965Y-12492D01*
X-4021Y-12380D01*
X-4078Y-12155D01*
X-4078Y-11874D01*
X-4021Y-11649D01*
X-3965Y-11536D01*
X-3909Y-11480D01*
X-3796Y-11424D01*
X-2897Y-12492D02*
X-2840Y-12548D01*
X-2897Y-12605D01*
X-2953Y-12548D01*
X-2897Y-12492D01*
X-2897Y-12605D01*
X-1828Y-11424D02*
X-2053Y-11424D01*
X-2165Y-11480D01*
X-2222Y-11536D01*
X-2334Y-11705D01*
X-2390Y-11930D01*
X-2390Y-12380D01*
X-2334Y-12492D01*
X-2278Y-12548D01*
X-2165Y-12605D01*
X-1940Y-12605D01*
X-1828Y-12548D01*
X-1772Y-12492D01*
X-1715Y-12380D01*
X-1715Y-12098D01*
X-1772Y-11986D01*
X-1828Y-11930D01*
X-1940Y-11874D01*
X-2165Y-11874D01*
X-2278Y-11930D01*
X-2334Y-11986D01*
X-2390Y-12098D01*
X-703Y-11817D02*
X-703Y-12605D01*
X-984Y-11367D02*
X-1266Y-12211D01*
X-534Y-12211D01*
X-84Y-12605D02*
X-84Y-11817D01*
X-84Y-11930D02*
X-28Y-11874D01*
X83Y-11817D01*
X252Y-11817D01*
X365Y-11874D01*
X421Y-11986D01*
X421Y-12605D01*
X421Y-11986D02*
X477Y-11874D01*
X589Y-11817D01*
X758Y-11817D01*
X871Y-11874D01*
X927Y-11986D01*
X927Y-12605D01*
X1489Y-12605D02*
X1489Y-11817D01*
X1489Y-11930D02*
X1546Y-11874D01*
X1658Y-11817D01*
X1827Y-11817D01*
X1939Y-11874D01*
X1996Y-11986D01*
X1996Y-12605D01*
X1996Y-11986D02*
X2052Y-11874D01*
X2164Y-11817D01*
X2333Y-11817D01*
X2446Y-11874D01*
X2502Y-11986D01*
X2502Y-12605D01*
X4808Y-11367D02*
X3795Y-12886D01*
X6326Y-11424D02*
X6439Y-11424D01*
X6551Y-11480D01*
X6607Y-11536D01*
X6664Y-11649D01*
X6720Y-11874D01*
X6720Y-12155D01*
X6664Y-12380D01*
X6607Y-12492D01*
X6551Y-12548D01*
X6439Y-12605D01*
X6326Y-12605D01*
X6214Y-12548D01*
X6158Y-12492D01*
X6101Y-12380D01*
X6045Y-12155D01*
X6045Y-11874D01*
X6101Y-11649D01*
X6158Y-11536D01*
X6214Y-11480D01*
X6326Y-11424D01*
X7226Y-12492D02*
X7282Y-12548D01*
X7226Y-12605D01*
X7170Y-12548D01*
X7226Y-12492D01*
X7226Y-12605D01*
X8014Y-11424D02*
X8126Y-11424D01*
X8239Y-11480D01*
X8295Y-11536D01*
X8351Y-11649D01*
X8407Y-11874D01*
X8407Y-12155D01*
X8351Y-12380D01*
X8295Y-12492D01*
X8239Y-12548D01*
X8126Y-12605D01*
X8014Y-12605D01*
X7901Y-12548D01*
X7845Y-12492D01*
X7789Y-12380D01*
X7732Y-12155D01*
X7732Y-11874D01*
X7789Y-11649D01*
X7845Y-11536D01*
X7901Y-11480D01*
X8014Y-11424D01*
X8857Y-11536D02*
X8913Y-11480D01*
X9026Y-11424D01*
X9307Y-11424D01*
X9420Y-11480D01*
X9476Y-11536D01*
X9532Y-11649D01*
X9532Y-11761D01*
X9476Y-11930D01*
X8801Y-12605D01*
X9532Y-12605D01*
X10601Y-11424D02*
X10038Y-11424D01*
X9982Y-11986D01*
X10038Y-11930D01*
X10151Y-11874D01*
X10432Y-11874D01*
X10544Y-11930D01*
X10601Y-11986D01*
X10657Y-12098D01*
X10657Y-12380D01*
X10601Y-12492D01*
X10544Y-12548D01*
X10432Y-12605D01*
X10151Y-12605D01*
X10038Y-12548D01*
X9982Y-12492D01*
X11107Y-11424D02*
X11107Y-11649D01*
X11557Y-11424D02*
X11557Y-11649D01*
X13300Y-13055D02*
X13244Y-12998D01*
X13132Y-12830D01*
X13075Y-12717D01*
X13019Y-12548D01*
X12963Y-12267D01*
X12963Y-12042D01*
X13019Y-11761D01*
X13075Y-11592D01*
X13132Y-11480D01*
X13244Y-11311D01*
X13300Y-11255D01*
X14369Y-12605D02*
X13694Y-12605D01*
X14032Y-12605D02*
X14032Y-11424D01*
X13919Y-11592D01*
X13807Y-11705D01*
X13694Y-11761D01*
X14763Y-11424D02*
X15550Y-11424D01*
X15044Y-12605D01*
X16900Y-12605D02*
X16900Y-11424D01*
X17406Y-12605D02*
X17406Y-11986D01*
X17350Y-11874D01*
X17237Y-11817D01*
X17069Y-11817D01*
X16956Y-11874D01*
X16900Y-11930D01*
X18137Y-12605D02*
X18025Y-12548D01*
X17969Y-12492D01*
X17912Y-12380D01*
X17912Y-12042D01*
X17969Y-11930D01*
X18025Y-11874D01*
X18137Y-11817D01*
X18306Y-11817D01*
X18419Y-11874D01*
X18475Y-11930D01*
X18531Y-12042D01*
X18531Y-12380D01*
X18475Y-12492D01*
X18419Y-12548D01*
X18306Y-12605D01*
X18137Y-12605D01*
X19206Y-12605D02*
X19093Y-12548D01*
X19037Y-12436D01*
X19037Y-11424D01*
X20106Y-12548D02*
X19993Y-12605D01*
X19768Y-12605D01*
X19656Y-12548D01*
X19600Y-12436D01*
X19600Y-11986D01*
X19656Y-11874D01*
X19768Y-11817D01*
X19993Y-11817D01*
X20106Y-11874D01*
X20162Y-11986D01*
X20162Y-12098D01*
X19600Y-12211D01*
X20612Y-12548D02*
X20724Y-12605D01*
X20949Y-12605D01*
X21062Y-12548D01*
X21118Y-12436D01*
X21118Y-12380D01*
X21062Y-12267D01*
X20949Y-12211D01*
X20781Y-12211D01*
X20668Y-12155D01*
X20612Y-12042D01*
X20612Y-11986D01*
X20668Y-11874D01*
X20781Y-11817D01*
X20949Y-11817D01*
X21062Y-11874D01*
X21512Y-13055D02*
X21568Y-12998D01*
X21681Y-12830D01*
X21737Y-12717D01*
X21793Y-12548D01*
X21849Y-12267D01*
X21849Y-12042D01*
X21793Y-11761D01*
X21737Y-11592D01*
X21681Y-11480D01*
X21568Y-11311D01*
X21512Y-11255D01*
G54D12*
X-5090Y-13629D02*
G75*
G03X-5090Y-13629I-137J0D01*
G74*
G01*
G54D13*
X-3796Y-12983D02*
X-3684Y-12983D01*
X-3571Y-13039D01*
X-3515Y-13095D01*
X-3459Y-13208D01*
X-3403Y-13433D01*
X-3403Y-13714D01*
X-3459Y-13939D01*
X-3515Y-14051D01*
X-3571Y-14107D01*
X-3684Y-14164D01*
X-3796Y-14164D01*
X-3909Y-14107D01*
X-3965Y-14051D01*
X-4021Y-13939D01*
X-4078Y-13714D01*
X-4078Y-13433D01*
X-4021Y-13208D01*
X-3965Y-13095D01*
X-3909Y-13039D01*
X-3796Y-12983D01*
X-2897Y-14051D02*
X-2840Y-14107D01*
X-2897Y-14164D01*
X-2953Y-14107D01*
X-2897Y-14051D01*
X-2897Y-14164D01*
X-2447Y-12983D02*
X-1659Y-12983D01*
X-2165Y-14164D01*
X-984Y-12983D02*
X-872Y-12983D01*
X-759Y-13039D01*
X-703Y-13095D01*
X-647Y-13208D01*
X-591Y-13433D01*
X-591Y-13714D01*
X-647Y-13939D01*
X-703Y-14051D01*
X-759Y-14107D01*
X-872Y-14164D01*
X-984Y-14164D01*
X-1097Y-14107D01*
X-1153Y-14051D01*
X-1209Y-13939D01*
X-1266Y-13714D01*
X-1266Y-13433D01*
X-1209Y-13208D01*
X-1153Y-13095D01*
X-1097Y-13039D01*
X-984Y-12983D01*
X-84Y-14164D02*
X-84Y-13376D01*
X-84Y-13489D02*
X-28Y-13433D01*
X83Y-13376D01*
X252Y-13376D01*
X365Y-13433D01*
X421Y-13545D01*
X421Y-14164D01*
X421Y-13545D02*
X477Y-13433D01*
X589Y-13376D01*
X758Y-13376D01*
X871Y-13433D01*
X927Y-13545D01*
X927Y-14164D01*
X1489Y-14164D02*
X1489Y-13376D01*
X1489Y-13489D02*
X1546Y-13433D01*
X1658Y-13376D01*
X1827Y-13376D01*
X1939Y-13433D01*
X1996Y-13545D01*
X1996Y-14164D01*
X1996Y-13545D02*
X2052Y-13433D01*
X2164Y-13376D01*
X2333Y-13376D01*
X2446Y-13433D01*
X2502Y-13545D01*
X2502Y-14164D01*
X4808Y-12926D02*
X3795Y-14445D01*
X6326Y-12983D02*
X6439Y-12983D01*
X6551Y-13039D01*
X6607Y-13095D01*
X6664Y-13208D01*
X6720Y-13433D01*
X6720Y-13714D01*
X6664Y-13939D01*
X6607Y-14051D01*
X6551Y-14107D01*
X6439Y-14164D01*
X6326Y-14164D01*
X6214Y-14107D01*
X6158Y-14051D01*
X6101Y-13939D01*
X6045Y-13714D01*
X6045Y-13433D01*
X6101Y-13208D01*
X6158Y-13095D01*
X6214Y-13039D01*
X6326Y-12983D01*
X7226Y-14051D02*
X7282Y-14107D01*
X7226Y-14164D01*
X7170Y-14107D01*
X7226Y-14051D01*
X7226Y-14164D01*
X8014Y-12983D02*
X8126Y-12983D01*
X8239Y-13039D01*
X8295Y-13095D01*
X8351Y-13208D01*
X8407Y-13433D01*
X8407Y-13714D01*
X8351Y-13939D01*
X8295Y-14051D01*
X8239Y-14107D01*
X8126Y-14164D01*
X8014Y-14164D01*
X7901Y-14107D01*
X7845Y-14051D01*
X7789Y-13939D01*
X7732Y-13714D01*
X7732Y-13433D01*
X7789Y-13208D01*
X7845Y-13095D01*
X7901Y-13039D01*
X8014Y-12983D01*
X8857Y-13095D02*
X8913Y-13039D01*
X9026Y-12983D01*
X9307Y-12983D01*
X9420Y-13039D01*
X9476Y-13095D01*
X9532Y-13208D01*
X9532Y-13320D01*
X9476Y-13489D01*
X8801Y-14164D01*
X9532Y-14164D01*
X10207Y-13489D02*
X10095Y-13433D01*
X10038Y-13376D01*
X9982Y-13264D01*
X9982Y-13208D01*
X10038Y-13095D01*
X10095Y-13039D01*
X10207Y-12983D01*
X10432Y-12983D01*
X10544Y-13039D01*
X10601Y-13095D01*
X10657Y-13208D01*
X10657Y-13264D01*
X10601Y-13376D01*
X10544Y-13433D01*
X10432Y-13489D01*
X10207Y-13489D01*
X10095Y-13545D01*
X10038Y-13601D01*
X9982Y-13714D01*
X9982Y-13939D01*
X10038Y-14051D01*
X10095Y-14107D01*
X10207Y-14164D01*
X10432Y-14164D01*
X10544Y-14107D01*
X10601Y-14051D01*
X10657Y-13939D01*
X10657Y-13714D01*
X10601Y-13601D01*
X10544Y-13545D01*
X10432Y-13489D01*
X11107Y-12983D02*
X11107Y-13208D01*
X11557Y-12983D02*
X11557Y-13208D01*
X13300Y-14614D02*
X13244Y-14557D01*
X13132Y-14389D01*
X13075Y-14276D01*
X13019Y-14107D01*
X12963Y-13826D01*
X12963Y-13601D01*
X13019Y-13320D01*
X13075Y-13151D01*
X13132Y-13039D01*
X13244Y-12870D01*
X13300Y-12814D01*
X13694Y-13095D02*
X13750Y-13039D01*
X13863Y-12983D01*
X14144Y-12983D01*
X14257Y-13039D01*
X14313Y-13095D01*
X14369Y-13208D01*
X14369Y-13320D01*
X14313Y-13489D01*
X13638Y-14164D01*
X14369Y-14164D01*
X15775Y-14164D02*
X15775Y-12983D01*
X16281Y-14164D02*
X16281Y-13545D01*
X16225Y-13433D01*
X16113Y-13376D01*
X15944Y-13376D01*
X15831Y-13433D01*
X15775Y-13489D01*
X17012Y-14164D02*
X16900Y-14107D01*
X16844Y-14051D01*
X16787Y-13939D01*
X16787Y-13601D01*
X16844Y-13489D01*
X16900Y-13433D01*
X17012Y-13376D01*
X17181Y-13376D01*
X17294Y-13433D01*
X17350Y-13489D01*
X17406Y-13601D01*
X17406Y-13939D01*
X17350Y-14051D01*
X17294Y-14107D01*
X17181Y-14164D01*
X17012Y-14164D01*
X18081Y-14164D02*
X17969Y-14107D01*
X17912Y-13995D01*
X17912Y-12983D01*
X18981Y-14107D02*
X18868Y-14164D01*
X18643Y-14164D01*
X18531Y-14107D01*
X18475Y-13995D01*
X18475Y-13545D01*
X18531Y-13433D01*
X18643Y-13376D01*
X18868Y-13376D01*
X18981Y-13433D01*
X19037Y-13545D01*
X19037Y-13658D01*
X18475Y-13770D01*
X19487Y-14107D02*
X19600Y-14164D01*
X19825Y-14164D01*
X19937Y-14107D01*
X19993Y-13995D01*
X19993Y-13939D01*
X19937Y-13826D01*
X19825Y-13770D01*
X19656Y-13770D01*
X19543Y-13714D01*
X19487Y-13601D01*
X19487Y-13545D01*
X19543Y-13433D01*
X19656Y-13376D01*
X19825Y-13376D01*
X19937Y-13433D01*
X20387Y-14614D02*
X20443Y-14557D01*
X20556Y-14389D01*
X20612Y-14276D01*
X20668Y-14107D01*
X20724Y-13826D01*
X20724Y-13601D01*
X20668Y-13320D01*
X20612Y-13151D01*
X20556Y-13039D01*
X20443Y-12870D01*
X20387Y-12814D01*
X-5250Y-15028D02*
X-5250Y-15348D01*
X-5410Y-15188D02*
X-5090Y-15188D01*
X-3796Y-14542D02*
X-3684Y-14542D01*
X-3571Y-14598D01*
X-3515Y-14654D01*
X-3459Y-14767D01*
X-3403Y-14992D01*
X-3403Y-15273D01*
X-3459Y-15498D01*
X-3515Y-15610D01*
X-3571Y-15667D01*
X-3684Y-15723D01*
X-3796Y-15723D01*
X-3909Y-15667D01*
X-3965Y-15610D01*
X-4021Y-15498D01*
X-4078Y-15273D01*
X-4078Y-14992D01*
X-4021Y-14767D01*
X-3965Y-14654D01*
X-3909Y-14598D01*
X-3796Y-14542D01*
X-2897Y-15610D02*
X-2840Y-15667D01*
X-2897Y-15723D01*
X-2953Y-15667D01*
X-2897Y-15610D01*
X-2897Y-15723D01*
X-2165Y-15048D02*
X-2278Y-14992D01*
X-2334Y-14935D01*
X-2390Y-14823D01*
X-2390Y-14767D01*
X-2334Y-14654D01*
X-2278Y-14598D01*
X-2165Y-14542D01*
X-1940Y-14542D01*
X-1828Y-14598D01*
X-1772Y-14654D01*
X-1715Y-14767D01*
X-1715Y-14823D01*
X-1772Y-14935D01*
X-1828Y-14992D01*
X-1940Y-15048D01*
X-2165Y-15048D01*
X-2278Y-15104D01*
X-2334Y-15160D01*
X-2390Y-15273D01*
X-2390Y-15498D01*
X-2334Y-15610D01*
X-2278Y-15667D01*
X-2165Y-15723D01*
X-1940Y-15723D01*
X-1828Y-15667D01*
X-1772Y-15610D01*
X-1715Y-15498D01*
X-1715Y-15273D01*
X-1772Y-15160D01*
X-1828Y-15104D01*
X-1940Y-15048D01*
X-591Y-15723D02*
X-1266Y-15723D01*
X-928Y-15723D02*
X-928Y-14542D01*
X-1041Y-14710D01*
X-1153Y-14823D01*
X-1266Y-14879D01*
X-84Y-15723D02*
X-84Y-14935D01*
X-84Y-15048D02*
X-28Y-14992D01*
X83Y-14935D01*
X252Y-14935D01*
X365Y-14992D01*
X421Y-15104D01*
X421Y-15723D01*
X421Y-15104D02*
X477Y-14992D01*
X589Y-14935D01*
X758Y-14935D01*
X871Y-14992D01*
X927Y-15104D01*
X927Y-15723D01*
X1489Y-15723D02*
X1489Y-14935D01*
X1489Y-15048D02*
X1546Y-14992D01*
X1658Y-14935D01*
X1827Y-14935D01*
X1939Y-14992D01*
X1996Y-15104D01*
X1996Y-15723D01*
X1996Y-15104D02*
X2052Y-14992D01*
X2164Y-14935D01*
X2333Y-14935D01*
X2446Y-14992D01*
X2502Y-15104D01*
X2502Y-15723D01*
X4808Y-14485D02*
X3795Y-16004D01*
X6326Y-14542D02*
X6439Y-14542D01*
X6551Y-14598D01*
X6607Y-14654D01*
X6664Y-14767D01*
X6720Y-14992D01*
X6720Y-15273D01*
X6664Y-15498D01*
X6607Y-15610D01*
X6551Y-15667D01*
X6439Y-15723D01*
X6326Y-15723D01*
X6214Y-15667D01*
X6158Y-15610D01*
X6101Y-15498D01*
X6045Y-15273D01*
X6045Y-14992D01*
X6101Y-14767D01*
X6158Y-14654D01*
X6214Y-14598D01*
X6326Y-14542D01*
X7226Y-15610D02*
X7282Y-15667D01*
X7226Y-15723D01*
X7170Y-15667D01*
X7226Y-15610D01*
X7226Y-15723D01*
X8014Y-14542D02*
X8126Y-14542D01*
X8239Y-14598D01*
X8295Y-14654D01*
X8351Y-14767D01*
X8407Y-14992D01*
X8407Y-15273D01*
X8351Y-15498D01*
X8295Y-15610D01*
X8239Y-15667D01*
X8126Y-15723D01*
X8014Y-15723D01*
X7901Y-15667D01*
X7845Y-15610D01*
X7789Y-15498D01*
X7732Y-15273D01*
X7732Y-14992D01*
X7789Y-14767D01*
X7845Y-14654D01*
X7901Y-14598D01*
X8014Y-14542D01*
X8801Y-14542D02*
X9532Y-14542D01*
X9138Y-14992D01*
X9307Y-14992D01*
X9420Y-15048D01*
X9476Y-15104D01*
X9532Y-15217D01*
X9532Y-15498D01*
X9476Y-15610D01*
X9420Y-15667D01*
X9307Y-15723D01*
X8970Y-15723D01*
X8857Y-15667D01*
X8801Y-15610D01*
X9982Y-14654D02*
X10038Y-14598D01*
X10151Y-14542D01*
X10432Y-14542D01*
X10544Y-14598D01*
X10601Y-14654D01*
X10657Y-14767D01*
X10657Y-14879D01*
X10601Y-15048D01*
X9926Y-15723D01*
X10657Y-15723D01*
X11107Y-14542D02*
X11107Y-14767D01*
X11557Y-14542D02*
X11557Y-14767D01*
X13300Y-16173D02*
X13244Y-16116D01*
X13132Y-15948D01*
X13075Y-15835D01*
X13019Y-15667D01*
X12963Y-15385D01*
X12963Y-15160D01*
X13019Y-14879D01*
X13075Y-14710D01*
X13132Y-14598D01*
X13244Y-14429D01*
X13300Y-14373D01*
X13694Y-14654D02*
X13750Y-14598D01*
X13863Y-14542D01*
X14144Y-14542D01*
X14257Y-14598D01*
X14313Y-14654D01*
X14369Y-14767D01*
X14369Y-14879D01*
X14313Y-15048D01*
X13638Y-15723D01*
X14369Y-15723D01*
X15100Y-14542D02*
X15213Y-14542D01*
X15325Y-14598D01*
X15381Y-14654D01*
X15438Y-14767D01*
X15494Y-14992D01*
X15494Y-15273D01*
X15438Y-15498D01*
X15381Y-15610D01*
X15325Y-15667D01*
X15213Y-15723D01*
X15100Y-15723D01*
X14988Y-15667D01*
X14931Y-15610D01*
X14875Y-15498D01*
X14819Y-15273D01*
X14819Y-14992D01*
X14875Y-14767D01*
X14931Y-14654D01*
X14988Y-14598D01*
X15100Y-14542D01*
X16900Y-15723D02*
X16900Y-14542D01*
X17406Y-15723D02*
X17406Y-15104D01*
X17350Y-14992D01*
X17237Y-14935D01*
X17069Y-14935D01*
X16956Y-14992D01*
X16900Y-15048D01*
X18137Y-15723D02*
X18025Y-15667D01*
X17969Y-15610D01*
X17912Y-15498D01*
X17912Y-15160D01*
X17969Y-15048D01*
X18025Y-14992D01*
X18137Y-14935D01*
X18306Y-14935D01*
X18419Y-14992D01*
X18475Y-15048D01*
X18531Y-15160D01*
X18531Y-15498D01*
X18475Y-15610D01*
X18419Y-15667D01*
X18306Y-15723D01*
X18137Y-15723D01*
X19206Y-15723D02*
X19093Y-15667D01*
X19037Y-15554D01*
X19037Y-14542D01*
X20106Y-15667D02*
X19993Y-15723D01*
X19768Y-15723D01*
X19656Y-15667D01*
X19600Y-15554D01*
X19600Y-15104D01*
X19656Y-14992D01*
X19768Y-14935D01*
X19993Y-14935D01*
X20106Y-14992D01*
X20162Y-15104D01*
X20162Y-15217D01*
X19600Y-15329D01*
X20612Y-15667D02*
X20724Y-15723D01*
X20949Y-15723D01*
X21062Y-15667D01*
X21118Y-15554D01*
X21118Y-15498D01*
X21062Y-15385D01*
X20949Y-15329D01*
X20781Y-15329D01*
X20668Y-15273D01*
X20612Y-15160D01*
X20612Y-15104D01*
X20668Y-14992D01*
X20781Y-14935D01*
X20949Y-14935D01*
X21062Y-14992D01*
X21512Y-16173D02*
X21568Y-16116D01*
X21681Y-15948D01*
X21737Y-15835D01*
X21793Y-15667D01*
X21849Y-15385D01*
X21849Y-15160D01*
X21793Y-14879D01*
X21737Y-14710D01*
X21681Y-14598D01*
X21568Y-14429D01*
X21512Y-14373D01*
M02*
