%FSLAX34Y34*%
G04 Gerber Fmt 3.4, Leading zero omitted, Abs format*
G04 (created by PCBNEW (2013-12-14 BZR 4555)-product) date Wed 05 Mar 2014 18:38:52 EST*
%MOIN*%
G01*
G70*
G90*
G04 APERTURE LIST*
%ADD10C,0.005906*%
%ADD11C,0.006398*%
%ADD12C,0.009350*%
%ADD13C,0.007382*%
%ADD14C,0.004000*%
%ADD15C,0.002600*%
%ADD16C,0.005000*%
%ADD17C,0.002953*%
%ADD18C,0.003445*%
%ADD19C,0.004921*%
%ADD20C,0.004429*%
G04 APERTURE END LIST*
G54D10*
G54D11*
X-1006Y-7997D02*
X-1128Y-8083D01*
X-1006Y-8144D02*
X-1262Y-8144D01*
X-1262Y-8046D01*
X-1250Y-8022D01*
X-1237Y-8010D01*
X-1213Y-7997D01*
X-1176Y-7997D01*
X-1152Y-8010D01*
X-1140Y-8022D01*
X-1128Y-8046D01*
X-1128Y-8144D01*
X-1018Y-7790D02*
X-1006Y-7815D01*
X-1006Y-7863D01*
X-1018Y-7888D01*
X-1042Y-7900D01*
X-1140Y-7900D01*
X-1164Y-7888D01*
X-1176Y-7863D01*
X-1176Y-7815D01*
X-1164Y-7790D01*
X-1140Y-7778D01*
X-1115Y-7778D01*
X-1091Y-7900D01*
X-1018Y-7681D02*
X-1006Y-7656D01*
X-1006Y-7607D01*
X-1018Y-7583D01*
X-1042Y-7571D01*
X-1055Y-7571D01*
X-1079Y-7583D01*
X-1091Y-7607D01*
X-1091Y-7644D01*
X-1103Y-7668D01*
X-1128Y-7681D01*
X-1140Y-7681D01*
X-1164Y-7668D01*
X-1176Y-7644D01*
X-1176Y-7607D01*
X-1164Y-7583D01*
X-1018Y-7364D02*
X-1006Y-7388D01*
X-1006Y-7437D01*
X-1018Y-7461D01*
X-1042Y-7473D01*
X-1140Y-7473D01*
X-1164Y-7461D01*
X-1176Y-7437D01*
X-1176Y-7388D01*
X-1164Y-7364D01*
X-1140Y-7352D01*
X-1115Y-7352D01*
X-1091Y-7473D01*
X-1176Y-7278D02*
X-1176Y-7181D01*
X-1262Y-7242D02*
X-1042Y-7242D01*
X-1018Y-7230D01*
X-1006Y-7205D01*
X-1006Y-7181D01*
G54D12*
X3712Y-8175D02*
X3338Y-8175D01*
X3338Y-8033D01*
X3356Y-7997D01*
X3374Y-7979D01*
X3409Y-7962D01*
X3463Y-7962D01*
X3498Y-7979D01*
X3516Y-7997D01*
X3534Y-8033D01*
X3534Y-8175D01*
X3338Y-7837D02*
X3712Y-7748D01*
X3445Y-7677D01*
X3712Y-7605D01*
X3338Y-7516D01*
X3712Y-7160D02*
X3534Y-7285D01*
X3712Y-7374D02*
X3338Y-7374D01*
X3338Y-7231D01*
X3356Y-7196D01*
X3374Y-7178D01*
X3409Y-7160D01*
X3463Y-7160D01*
X3498Y-7178D01*
X3516Y-7196D01*
X3534Y-7231D01*
X3534Y-7374D01*
X-3391Y-8158D02*
X-3374Y-8104D01*
X-3374Y-8015D01*
X-3391Y-7979D01*
X-3409Y-7962D01*
X-3445Y-7944D01*
X-3480Y-7944D01*
X-3516Y-7962D01*
X-3534Y-7979D01*
X-3552Y-8015D01*
X-3570Y-8086D01*
X-3587Y-8122D01*
X-3605Y-8140D01*
X-3641Y-8158D01*
X-3676Y-8158D01*
X-3712Y-8140D01*
X-3730Y-8122D01*
X-3748Y-8086D01*
X-3748Y-7997D01*
X-3730Y-7944D01*
X-3409Y-7570D02*
X-3391Y-7588D01*
X-3374Y-7641D01*
X-3374Y-7677D01*
X-3391Y-7730D01*
X-3427Y-7766D01*
X-3463Y-7784D01*
X-3534Y-7801D01*
X-3587Y-7801D01*
X-3659Y-7784D01*
X-3694Y-7766D01*
X-3730Y-7730D01*
X-3748Y-7677D01*
X-3748Y-7641D01*
X-3730Y-7588D01*
X-3712Y-7570D01*
X-3374Y-7410D02*
X-3748Y-7410D01*
X-3374Y-7196D02*
X-3587Y-7356D01*
X-3748Y-7196D02*
X-3534Y-7410D01*
G54D13*
X-2142Y2021D02*
X-2142Y2415D01*
X-2011Y2134D01*
X-1880Y2415D01*
X-1880Y2021D01*
X-1542Y2040D02*
X-1580Y2021D01*
X-1655Y2021D01*
X-1692Y2040D01*
X-1711Y2077D01*
X-1711Y2227D01*
X-1692Y2265D01*
X-1655Y2284D01*
X-1580Y2284D01*
X-1542Y2265D01*
X-1523Y2227D01*
X-1523Y2190D01*
X-1711Y2152D01*
X-1374Y2040D02*
X-1336Y2021D01*
X-1261Y2021D01*
X-1224Y2040D01*
X-1205Y2077D01*
X-1205Y2096D01*
X-1224Y2134D01*
X-1261Y2152D01*
X-1317Y2152D01*
X-1355Y2171D01*
X-1374Y2209D01*
X-1374Y2227D01*
X-1355Y2265D01*
X-1317Y2284D01*
X-1261Y2284D01*
X-1224Y2265D01*
X-1036Y2021D02*
X-1036Y2415D01*
X-867Y2021D02*
X-867Y2227D01*
X-886Y2265D01*
X-924Y2284D01*
X-980Y2284D01*
X-1017Y2265D01*
X-1036Y2246D01*
X-717Y2415D02*
X-624Y2021D01*
X-549Y2302D01*
X-474Y2021D01*
X-380Y2415D01*
X-61Y2021D02*
X-61Y2227D01*
X-80Y2265D01*
X-117Y2284D01*
X-192Y2284D01*
X-230Y2265D01*
X-61Y2040D02*
X-99Y2021D01*
X-192Y2021D01*
X-230Y2040D01*
X-249Y2077D01*
X-249Y2115D01*
X-230Y2152D01*
X-192Y2171D01*
X-99Y2171D01*
X-61Y2190D01*
X107Y2040D02*
X144Y2021D01*
X219Y2021D01*
X257Y2040D01*
X275Y2077D01*
X275Y2096D01*
X257Y2134D01*
X219Y2152D01*
X163Y2152D01*
X125Y2171D01*
X107Y2209D01*
X107Y2227D01*
X125Y2265D01*
X163Y2284D01*
X219Y2284D01*
X257Y2265D01*
X444Y2284D02*
X444Y1890D01*
X444Y2265D02*
X482Y2284D01*
X556Y2284D01*
X594Y2265D01*
X613Y2246D01*
X631Y2209D01*
X631Y2096D01*
X613Y2059D01*
X594Y2040D01*
X556Y2021D01*
X482Y2021D01*
X444Y2040D01*
X1063Y2284D02*
X1156Y2021D01*
X1250Y2284D01*
X1606Y2021D02*
X1381Y2021D01*
X1494Y2021D02*
X1494Y2415D01*
X1456Y2359D01*
X1419Y2321D01*
X1381Y2302D01*
X1775Y2059D02*
X1794Y2040D01*
X1775Y2021D01*
X1756Y2040D01*
X1775Y2059D01*
X1775Y2021D01*
X2038Y2415D02*
X2075Y2415D01*
X2113Y2396D01*
X2131Y2377D01*
X2150Y2340D01*
X2169Y2265D01*
X2169Y2171D01*
X2150Y2096D01*
X2131Y2059D01*
X2113Y2040D01*
X2075Y2021D01*
X2038Y2021D01*
X2000Y2040D01*
X1981Y2059D01*
X1963Y2096D01*
X1944Y2171D01*
X1944Y2265D01*
X1963Y2340D01*
X1981Y2377D01*
X2000Y2396D01*
X2038Y2415D01*
X-1898Y1696D02*
X-1936Y1715D01*
X-2011Y1715D01*
X-2048Y1696D01*
X-2086Y1659D01*
X-2105Y1621D01*
X-2105Y1546D01*
X-2086Y1509D01*
X-2048Y1471D01*
X-2011Y1452D01*
X-1936Y1452D01*
X-1898Y1471D01*
X-1973Y1846D02*
X-2067Y1827D01*
X-2161Y1771D01*
X-2217Y1677D01*
X-2236Y1584D01*
X-2217Y1490D01*
X-2161Y1396D01*
X-2067Y1340D01*
X-1973Y1321D01*
X-1880Y1340D01*
X-1786Y1396D01*
X-1730Y1490D01*
X-1711Y1584D01*
X-1730Y1677D01*
X-1786Y1771D01*
X-1880Y1827D01*
X-1973Y1846D01*
X-1542Y1396D02*
X-1542Y1790D01*
X-1411Y1509D01*
X-1280Y1790D01*
X-1280Y1396D01*
X-1074Y1396D02*
X-999Y1396D01*
X-961Y1415D01*
X-942Y1434D01*
X-905Y1490D01*
X-886Y1565D01*
X-886Y1715D01*
X-905Y1752D01*
X-924Y1771D01*
X-961Y1790D01*
X-1036Y1790D01*
X-1074Y1771D01*
X-1092Y1752D01*
X-1111Y1715D01*
X-1111Y1621D01*
X-1092Y1584D01*
X-1074Y1565D01*
X-1036Y1546D01*
X-961Y1546D01*
X-924Y1565D01*
X-905Y1584D01*
X-886Y1621D01*
X-717Y1396D02*
X-717Y1790D01*
X-624Y1790D01*
X-567Y1771D01*
X-530Y1734D01*
X-511Y1696D01*
X-492Y1621D01*
X-492Y1565D01*
X-511Y1490D01*
X-530Y1452D01*
X-567Y1415D01*
X-624Y1396D01*
X-717Y1396D01*
X-174Y1415D02*
X-211Y1396D01*
X-286Y1396D01*
X-324Y1415D01*
X-342Y1452D01*
X-342Y1602D01*
X-324Y1640D01*
X-286Y1659D01*
X-211Y1659D01*
X-174Y1640D01*
X-155Y1602D01*
X-155Y1565D01*
X-342Y1527D01*
X-5Y1415D02*
X32Y1396D01*
X107Y1396D01*
X144Y1415D01*
X163Y1452D01*
X163Y1471D01*
X144Y1509D01*
X107Y1527D01*
X50Y1527D01*
X13Y1546D01*
X-5Y1584D01*
X-5Y1602D01*
X13Y1640D01*
X50Y1659D01*
X107Y1659D01*
X144Y1640D01*
X332Y1396D02*
X332Y1659D01*
X332Y1790D02*
X313Y1771D01*
X332Y1752D01*
X350Y1771D01*
X332Y1790D01*
X332Y1752D01*
X688Y1659D02*
X688Y1340D01*
X669Y1302D01*
X650Y1284D01*
X613Y1265D01*
X556Y1265D01*
X519Y1284D01*
X688Y1415D02*
X650Y1396D01*
X575Y1396D01*
X538Y1415D01*
X519Y1434D01*
X500Y1471D01*
X500Y1584D01*
X519Y1621D01*
X538Y1640D01*
X575Y1659D01*
X650Y1659D01*
X688Y1640D01*
X875Y1659D02*
X875Y1396D01*
X875Y1621D02*
X894Y1640D01*
X931Y1659D01*
X988Y1659D01*
X1025Y1640D01*
X1044Y1602D01*
X1044Y1396D01*
X1231Y1434D02*
X1250Y1415D01*
X1231Y1396D01*
X1213Y1415D01*
X1231Y1434D01*
X1231Y1396D01*
X1588Y1415D02*
X1550Y1396D01*
X1475Y1396D01*
X1438Y1415D01*
X1419Y1434D01*
X1400Y1471D01*
X1400Y1584D01*
X1419Y1621D01*
X1438Y1640D01*
X1475Y1659D01*
X1550Y1659D01*
X1588Y1640D01*
X1813Y1396D02*
X1775Y1415D01*
X1756Y1434D01*
X1738Y1471D01*
X1738Y1584D01*
X1756Y1621D01*
X1775Y1640D01*
X1813Y1659D01*
X1869Y1659D01*
X1906Y1640D01*
X1925Y1621D01*
X1944Y1584D01*
X1944Y1471D01*
X1925Y1434D01*
X1906Y1415D01*
X1869Y1396D01*
X1813Y1396D01*
X-670Y1127D02*
X-652Y1146D01*
X-614Y1165D01*
X-520Y1165D01*
X-483Y1146D01*
X-464Y1127D01*
X-446Y1090D01*
X-446Y1052D01*
X-464Y996D01*
X-689Y771D01*
X-446Y771D01*
X-202Y1165D02*
X-164Y1165D01*
X-127Y1146D01*
X-108Y1127D01*
X-89Y1090D01*
X-71Y1015D01*
X-71Y921D01*
X-89Y846D01*
X-108Y809D01*
X-127Y790D01*
X-164Y771D01*
X-202Y771D01*
X-239Y790D01*
X-258Y809D01*
X-277Y846D01*
X-296Y921D01*
X-296Y1015D01*
X-277Y1090D01*
X-258Y1127D01*
X-239Y1146D01*
X-202Y1165D01*
X303Y771D02*
X78Y771D01*
X191Y771D02*
X191Y1165D01*
X153Y1109D01*
X116Y1071D01*
X78Y1052D01*
X435Y1165D02*
X678Y1165D01*
X547Y1015D01*
X603Y1015D01*
X641Y996D01*
X660Y977D01*
X678Y940D01*
X678Y846D01*
X660Y809D01*
X641Y790D01*
X603Y771D01*
X491Y771D01*
X453Y790D01*
X435Y809D01*
G54D10*
X2984Y-7720D02*
X2925Y-7720D01*
X2925Y-7720D02*
X2921Y-7704D01*
X2921Y-7767D02*
X2980Y-7767D01*
X3102Y-7779D02*
X3102Y-7708D01*
X2807Y-7779D02*
X2807Y-7708D01*
G54D14*
X2795Y-7791D02*
X2795Y-7566D01*
X3110Y-7787D02*
X3110Y-7570D01*
G54D15*
X3129Y-7500D02*
X3129Y-7343D01*
X2775Y-7500D02*
X2775Y-7343D01*
X3129Y-8011D02*
X3129Y-7854D01*
X2775Y-8011D02*
X2775Y-7854D01*
X2775Y-7677D02*
X2834Y-7677D01*
X2834Y-7799D02*
X2834Y-7681D01*
X2775Y-7799D02*
X2834Y-7799D01*
X2775Y-7799D02*
X2775Y-7681D01*
X3070Y-7677D02*
X3129Y-7677D01*
X3129Y-7799D02*
X3129Y-7681D01*
X3070Y-7799D02*
X3129Y-7799D01*
X3070Y-7799D02*
X3070Y-7681D01*
X2893Y-7799D02*
X3011Y-7799D01*
X3011Y-7799D02*
X3011Y-7681D01*
X2893Y-7681D02*
X3011Y-7681D01*
X2893Y-7799D02*
X2893Y-7681D01*
G54D10*
X-2921Y-7720D02*
X-2980Y-7720D01*
X-2980Y-7720D02*
X-2984Y-7704D01*
X-2984Y-7767D02*
X-2925Y-7767D01*
X-2803Y-7779D02*
X-2803Y-7708D01*
X-3098Y-7779D02*
X-3098Y-7708D01*
G54D14*
X-3110Y-7791D02*
X-3110Y-7566D01*
X-2795Y-7787D02*
X-2795Y-7570D01*
G54D15*
X-2775Y-7500D02*
X-2775Y-7343D01*
X-3129Y-7500D02*
X-3129Y-7343D01*
X-2775Y-8011D02*
X-2775Y-7854D01*
X-3129Y-8011D02*
X-3129Y-7854D01*
X-3129Y-7677D02*
X-3070Y-7677D01*
X-3070Y-7799D02*
X-3070Y-7681D01*
X-3129Y-7799D02*
X-3070Y-7799D01*
X-3129Y-7799D02*
X-3129Y-7681D01*
X-2834Y-7677D02*
X-2775Y-7677D01*
X-2775Y-7799D02*
X-2775Y-7681D01*
X-2834Y-7799D02*
X-2775Y-7799D01*
X-2834Y-7799D02*
X-2834Y-7681D01*
X-3011Y-7799D02*
X-2893Y-7799D01*
X-2893Y-7799D02*
X-2893Y-7681D01*
X-3011Y-7681D02*
X-2893Y-7681D01*
X-3011Y-7799D02*
X-3011Y-7681D01*
G54D16*
X2087Y-7874D02*
X2087Y-8152D01*
X2087Y-8152D02*
X2637Y-8152D01*
X2637Y-8152D02*
X2637Y-7874D01*
X2087Y-7202D02*
X2087Y-7480D01*
X2087Y-7202D02*
X2637Y-7202D01*
X2637Y-7202D02*
X2637Y-7480D01*
X-2637Y-7874D02*
X-2637Y-8152D01*
X-2637Y-8152D02*
X-2087Y-8152D01*
X-2087Y-8152D02*
X-2087Y-7874D01*
X-2637Y-7202D02*
X-2637Y-7480D01*
X-2637Y-7202D02*
X-2087Y-7202D01*
X-2087Y-7202D02*
X-2087Y-7480D01*
G54D10*
X-767Y-8248D02*
X-767Y-7964D01*
X767Y-8248D02*
X767Y-7964D01*
X-767Y-8248D02*
X767Y-8248D01*
X-767Y-7110D02*
X-767Y-7389D01*
X-767Y-7106D02*
X767Y-7106D01*
X767Y-7106D02*
X767Y-7389D01*
G54D17*
X4826Y-1098D02*
X4826Y-976D01*
X4899Y-1122D02*
X4643Y-1037D01*
X4899Y-951D01*
X4899Y-866D02*
X4643Y-866D01*
X4643Y-805D01*
X4655Y-769D01*
X4679Y-744D01*
X4704Y-732D01*
X4752Y-720D01*
X4789Y-720D01*
X4838Y-732D01*
X4862Y-744D01*
X4887Y-769D01*
X4899Y-805D01*
X4899Y-866D01*
X4899Y-476D02*
X4899Y-622D01*
X4899Y-549D02*
X4643Y-549D01*
X4679Y-574D01*
X4704Y-598D01*
X4716Y-622D01*
X4826Y-1885D02*
X4826Y-1763D01*
X4899Y-1909D02*
X4643Y-1824D01*
X4899Y-1739D01*
X4899Y-1654D02*
X4643Y-1654D01*
X4643Y-1593D01*
X4655Y-1556D01*
X4679Y-1532D01*
X4704Y-1519D01*
X4752Y-1507D01*
X4789Y-1507D01*
X4838Y-1519D01*
X4862Y-1532D01*
X4887Y-1556D01*
X4899Y-1593D01*
X4899Y-1654D01*
X4667Y-1410D02*
X4655Y-1398D01*
X4643Y-1373D01*
X4643Y-1312D01*
X4655Y-1288D01*
X4667Y-1276D01*
X4692Y-1264D01*
X4716Y-1264D01*
X4752Y-1276D01*
X4899Y-1422D01*
X4899Y-1264D01*
X4826Y-2672D02*
X4826Y-2551D01*
X4899Y-2697D02*
X4643Y-2612D01*
X4899Y-2526D01*
X4899Y-2441D02*
X4643Y-2441D01*
X4643Y-2380D01*
X4655Y-2343D01*
X4679Y-2319D01*
X4704Y-2307D01*
X4752Y-2295D01*
X4789Y-2295D01*
X4838Y-2307D01*
X4862Y-2319D01*
X4887Y-2343D01*
X4899Y-2380D01*
X4899Y-2441D01*
X4643Y-2209D02*
X4643Y-2051D01*
X4740Y-2136D01*
X4740Y-2100D01*
X4752Y-2075D01*
X4765Y-2063D01*
X4789Y-2051D01*
X4850Y-2051D01*
X4874Y-2063D01*
X4887Y-2075D01*
X4899Y-2100D01*
X4899Y-2173D01*
X4887Y-2197D01*
X4874Y-2209D01*
X4890Y-3520D02*
X4654Y-3520D01*
X4822Y-3442D01*
X4654Y-3363D01*
X4890Y-3363D01*
X4890Y-3250D02*
X4654Y-3250D01*
X4879Y-3149D02*
X4890Y-3115D01*
X4890Y-3059D01*
X4879Y-3037D01*
X4867Y-3025D01*
X4845Y-3014D01*
X4822Y-3014D01*
X4800Y-3025D01*
X4789Y-3037D01*
X4777Y-3059D01*
X4766Y-3104D01*
X4755Y-3127D01*
X4744Y-3138D01*
X4721Y-3149D01*
X4699Y-3149D01*
X4676Y-3138D01*
X4665Y-3127D01*
X4654Y-3104D01*
X4654Y-3048D01*
X4665Y-3014D01*
X4654Y-2868D02*
X4654Y-2823D01*
X4665Y-2800D01*
X4687Y-2778D01*
X4732Y-2767D01*
X4811Y-2767D01*
X4856Y-2778D01*
X4879Y-2800D01*
X4890Y-2823D01*
X4890Y-2868D01*
X4879Y-2890D01*
X4856Y-2913D01*
X4811Y-2924D01*
X4732Y-2924D01*
X4687Y-2913D01*
X4665Y-2890D01*
X4654Y-2868D01*
G54D18*
X4899Y-5028D02*
X4643Y-5028D01*
X4643Y-4931D01*
X4655Y-4906D01*
X4667Y-4894D01*
X4692Y-4882D01*
X4728Y-4882D01*
X4752Y-4894D01*
X4765Y-4906D01*
X4777Y-4931D01*
X4777Y-5028D01*
X4765Y-4772D02*
X4765Y-4687D01*
X4899Y-4650D02*
X4899Y-4772D01*
X4643Y-4772D01*
X4643Y-4650D01*
X4643Y-4419D02*
X4643Y-4541D01*
X4765Y-4553D01*
X4752Y-4541D01*
X4740Y-4516D01*
X4740Y-4455D01*
X4752Y-4431D01*
X4765Y-4419D01*
X4789Y-4407D01*
X4850Y-4407D01*
X4874Y-4419D01*
X4887Y-4431D01*
X4899Y-4455D01*
X4899Y-4516D01*
X4887Y-4541D01*
X4874Y-4553D01*
X4826Y-7397D02*
X4826Y-7275D01*
X4899Y-7422D02*
X4643Y-7336D01*
X4899Y-7251D01*
X4899Y-7166D02*
X4643Y-7166D01*
X4643Y-7105D01*
X4655Y-7068D01*
X4679Y-7044D01*
X4704Y-7032D01*
X4752Y-7019D01*
X4789Y-7019D01*
X4838Y-7032D01*
X4862Y-7044D01*
X4887Y-7068D01*
X4899Y-7105D01*
X4899Y-7166D01*
X4728Y-6800D02*
X4899Y-6800D01*
X4631Y-6861D02*
X4813Y-6922D01*
X4813Y-6764D01*
X4887Y-6628D02*
X4899Y-6591D01*
X4899Y-6530D01*
X4887Y-6506D01*
X4874Y-6493D01*
X4850Y-6481D01*
X4826Y-6481D01*
X4801Y-6493D01*
X4789Y-6506D01*
X4777Y-6530D01*
X4765Y-6579D01*
X4752Y-6603D01*
X4740Y-6615D01*
X4716Y-6628D01*
X4692Y-6628D01*
X4667Y-6615D01*
X4655Y-6603D01*
X4643Y-6579D01*
X4643Y-6518D01*
X4655Y-6481D01*
X4874Y-6225D02*
X4887Y-6238D01*
X4899Y-6274D01*
X4899Y-6299D01*
X4887Y-6335D01*
X4862Y-6359D01*
X4838Y-6372D01*
X4789Y-6384D01*
X4752Y-6384D01*
X4704Y-6372D01*
X4679Y-6359D01*
X4655Y-6335D01*
X4643Y-6299D01*
X4643Y-6274D01*
X4655Y-6238D01*
X4667Y-6225D01*
X4899Y-6116D02*
X4643Y-6116D01*
X4899Y-5969D02*
X4752Y-6079D01*
X4643Y-5969D02*
X4789Y-6116D01*
X4887Y-5816D02*
X4899Y-5780D01*
X4899Y-5719D01*
X4887Y-5694D01*
X4874Y-5682D01*
X4850Y-5670D01*
X4826Y-5670D01*
X4801Y-5682D01*
X4789Y-5694D01*
X4777Y-5719D01*
X4765Y-5767D01*
X4752Y-5792D01*
X4740Y-5804D01*
X4716Y-5816D01*
X4692Y-5816D01*
X4667Y-5804D01*
X4655Y-5792D01*
X4643Y-5767D01*
X4643Y-5706D01*
X4655Y-5670D01*
X4874Y-5414D02*
X4887Y-5426D01*
X4899Y-5463D01*
X4899Y-5487D01*
X4887Y-5524D01*
X4862Y-5548D01*
X4838Y-5560D01*
X4789Y-5572D01*
X4752Y-5572D01*
X4704Y-5560D01*
X4679Y-5548D01*
X4655Y-5524D01*
X4643Y-5487D01*
X4643Y-5463D01*
X4655Y-5426D01*
X4667Y-5414D01*
X4899Y-5182D02*
X4899Y-5304D01*
X4643Y-5304D01*
G54D17*
X4890Y-4308D02*
X4654Y-4308D01*
X4822Y-4229D01*
X4654Y-4150D01*
X4890Y-4150D01*
X4654Y-3993D02*
X4654Y-3948D01*
X4665Y-3925D01*
X4687Y-3903D01*
X4732Y-3892D01*
X4811Y-3892D01*
X4856Y-3903D01*
X4879Y-3925D01*
X4890Y-3948D01*
X4890Y-3993D01*
X4879Y-4015D01*
X4856Y-4038D01*
X4811Y-4049D01*
X4732Y-4049D01*
X4687Y-4038D01*
X4665Y-4015D01*
X4654Y-3993D01*
X4879Y-3802D02*
X4890Y-3768D01*
X4890Y-3712D01*
X4879Y-3689D01*
X4867Y-3678D01*
X4845Y-3667D01*
X4822Y-3667D01*
X4800Y-3678D01*
X4789Y-3689D01*
X4777Y-3712D01*
X4766Y-3757D01*
X4755Y-3779D01*
X4744Y-3790D01*
X4721Y-3802D01*
X4699Y-3802D01*
X4676Y-3790D01*
X4665Y-3779D01*
X4654Y-3757D01*
X4654Y-3700D01*
X4665Y-3667D01*
X4890Y-3565D02*
X4654Y-3565D01*
X4826Y-310D02*
X4826Y-188D01*
X4899Y-335D02*
X4643Y-249D01*
X4899Y-164D01*
X4899Y-79D02*
X4643Y-79D01*
X4643Y-18D01*
X4655Y18D01*
X4679Y42D01*
X4704Y54D01*
X4752Y67D01*
X4789Y67D01*
X4838Y54D01*
X4862Y42D01*
X4887Y18D01*
X4899Y-18D01*
X4899Y-79D01*
X4643Y225D02*
X4643Y249D01*
X4655Y274D01*
X4667Y286D01*
X4692Y298D01*
X4740Y310D01*
X4801Y310D01*
X4850Y298D01*
X4874Y286D01*
X4887Y274D01*
X4899Y249D01*
X4899Y225D01*
X4887Y201D01*
X4874Y188D01*
X4850Y176D01*
X4801Y164D01*
X4740Y164D01*
X4692Y176D01*
X4667Y188D01*
X4655Y201D01*
X4643Y225D01*
G54D19*
X-4923Y-316D02*
X-4923Y-158D01*
X-4826Y-243D01*
X-4826Y-207D01*
X-4813Y-182D01*
X-4801Y-170D01*
X-4777Y-158D01*
X-4716Y-158D01*
X-4692Y-170D01*
X-4679Y-182D01*
X-4667Y-207D01*
X-4667Y-280D01*
X-4679Y-304D01*
X-4692Y-316D01*
X-4923Y-85D02*
X-4667Y0D01*
X-4923Y85D01*
X-4923Y146D02*
X-4923Y304D01*
X-4826Y219D01*
X-4826Y255D01*
X-4813Y280D01*
X-4801Y292D01*
X-4777Y304D01*
X-4716Y304D01*
X-4692Y292D01*
X-4679Y280D01*
X-4667Y255D01*
X-4667Y182D01*
X-4679Y158D01*
X-4692Y146D01*
G54D18*
X-4923Y-1103D02*
X-4923Y-957D01*
X-4667Y-1030D02*
X-4923Y-1030D01*
X-4923Y-896D02*
X-4667Y-726D01*
X-4923Y-726D02*
X-4667Y-896D01*
X-4923Y-579D02*
X-4923Y-555D01*
X-4911Y-531D01*
X-4899Y-518D01*
X-4874Y-506D01*
X-4826Y-494D01*
X-4765Y-494D01*
X-4716Y-506D01*
X-4692Y-518D01*
X-4679Y-531D01*
X-4667Y-555D01*
X-4667Y-579D01*
X-4679Y-604D01*
X-4692Y-616D01*
X-4716Y-628D01*
X-4765Y-640D01*
X-4826Y-640D01*
X-4874Y-628D01*
X-4899Y-616D01*
X-4911Y-604D01*
X-4923Y-579D01*
X-4667Y-1739D02*
X-4789Y-1824D01*
X-4667Y-1885D02*
X-4923Y-1885D01*
X-4923Y-1788D01*
X-4911Y-1763D01*
X-4899Y-1751D01*
X-4874Y-1739D01*
X-4838Y-1739D01*
X-4813Y-1751D01*
X-4801Y-1763D01*
X-4789Y-1788D01*
X-4789Y-1885D01*
X-4923Y-1654D02*
X-4667Y-1483D01*
X-4923Y-1483D02*
X-4667Y-1654D01*
X-4923Y-1337D02*
X-4923Y-1313D01*
X-4911Y-1288D01*
X-4899Y-1276D01*
X-4874Y-1264D01*
X-4826Y-1252D01*
X-4765Y-1252D01*
X-4716Y-1264D01*
X-4692Y-1276D01*
X-4679Y-1288D01*
X-4667Y-1313D01*
X-4667Y-1337D01*
X-4679Y-1361D01*
X-4692Y-1373D01*
X-4716Y-1386D01*
X-4765Y-1398D01*
X-4826Y-1398D01*
X-4874Y-1386D01*
X-4899Y-1373D01*
X-4911Y-1361D01*
X-4923Y-1337D01*
X-4923Y-2678D02*
X-4923Y-2532D01*
X-4667Y-2605D02*
X-4923Y-2605D01*
X-4923Y-2471D02*
X-4667Y-2301D01*
X-4923Y-2301D02*
X-4667Y-2471D01*
X-4667Y-2069D02*
X-4667Y-2215D01*
X-4667Y-2142D02*
X-4923Y-2142D01*
X-4887Y-2167D01*
X-4862Y-2191D01*
X-4850Y-2215D01*
X-4667Y-3290D02*
X-4789Y-3375D01*
X-4667Y-3436D02*
X-4923Y-3436D01*
X-4923Y-3338D01*
X-4911Y-3314D01*
X-4899Y-3302D01*
X-4874Y-3290D01*
X-4838Y-3290D01*
X-4813Y-3302D01*
X-4801Y-3314D01*
X-4789Y-3338D01*
X-4789Y-3436D01*
X-4679Y-3192D02*
X-4667Y-3156D01*
X-4667Y-3095D01*
X-4679Y-3070D01*
X-4692Y-3058D01*
X-4716Y-3046D01*
X-4740Y-3046D01*
X-4765Y-3058D01*
X-4777Y-3070D01*
X-4789Y-3095D01*
X-4801Y-3143D01*
X-4813Y-3168D01*
X-4826Y-3180D01*
X-4850Y-3192D01*
X-4874Y-3192D01*
X-4899Y-3180D01*
X-4911Y-3168D01*
X-4923Y-3143D01*
X-4923Y-3082D01*
X-4911Y-3046D01*
X-4923Y-2973D02*
X-4923Y-2827D01*
X-4667Y-2900D02*
X-4923Y-2900D01*
X-4967Y-3497D02*
X-4967Y-2802D01*
X-4667Y-4162D02*
X-4789Y-4247D01*
X-4667Y-4308D02*
X-4923Y-4308D01*
X-4923Y-4211D01*
X-4911Y-4186D01*
X-4899Y-4174D01*
X-4874Y-4162D01*
X-4838Y-4162D01*
X-4813Y-4174D01*
X-4801Y-4186D01*
X-4789Y-4211D01*
X-4789Y-4308D01*
X-4679Y-4064D02*
X-4667Y-4028D01*
X-4667Y-3967D01*
X-4679Y-3943D01*
X-4692Y-3930D01*
X-4716Y-3918D01*
X-4740Y-3918D01*
X-4765Y-3930D01*
X-4777Y-3943D01*
X-4789Y-3967D01*
X-4801Y-4016D01*
X-4813Y-4040D01*
X-4826Y-4052D01*
X-4850Y-4064D01*
X-4874Y-4064D01*
X-4899Y-4052D01*
X-4911Y-4040D01*
X-4923Y-4016D01*
X-4923Y-3955D01*
X-4911Y-3918D01*
X-4679Y-3821D02*
X-4667Y-3784D01*
X-4667Y-3723D01*
X-4679Y-3699D01*
X-4692Y-3687D01*
X-4716Y-3675D01*
X-4740Y-3675D01*
X-4765Y-3687D01*
X-4777Y-3699D01*
X-4789Y-3723D01*
X-4801Y-3772D01*
X-4813Y-3796D01*
X-4826Y-3809D01*
X-4850Y-3821D01*
X-4874Y-3821D01*
X-4899Y-3809D01*
X-4911Y-3796D01*
X-4923Y-3772D01*
X-4923Y-3711D01*
X-4911Y-3675D01*
X-4667Y-3565D02*
X-4923Y-3565D01*
X-4667Y-5040D02*
X-4923Y-5040D01*
X-4923Y-4943D01*
X-4911Y-4918D01*
X-4899Y-4906D01*
X-4874Y-4894D01*
X-4838Y-4894D01*
X-4813Y-4906D01*
X-4801Y-4918D01*
X-4789Y-4943D01*
X-4789Y-5040D01*
X-4801Y-4699D02*
X-4789Y-4663D01*
X-4777Y-4650D01*
X-4752Y-4638D01*
X-4716Y-4638D01*
X-4692Y-4650D01*
X-4679Y-4663D01*
X-4667Y-4687D01*
X-4667Y-4784D01*
X-4923Y-4784D01*
X-4923Y-4699D01*
X-4911Y-4675D01*
X-4899Y-4663D01*
X-4874Y-4650D01*
X-4850Y-4650D01*
X-4826Y-4663D01*
X-4813Y-4675D01*
X-4801Y-4699D01*
X-4801Y-4784D01*
X-4838Y-4419D02*
X-4667Y-4419D01*
X-4935Y-4480D02*
X-4752Y-4541D01*
X-4752Y-4382D01*
G54D20*
X-4667Y-5676D02*
X-4789Y-5761D01*
X-4667Y-5822D02*
X-4923Y-5822D01*
X-4923Y-5725D01*
X-4911Y-5700D01*
X-4899Y-5688D01*
X-4874Y-5676D01*
X-4838Y-5676D01*
X-4813Y-5688D01*
X-4801Y-5700D01*
X-4789Y-5725D01*
X-4789Y-5822D01*
X-4923Y-5591D02*
X-4667Y-5420D01*
X-4923Y-5420D02*
X-4667Y-5591D01*
X-4667Y-5189D02*
X-4667Y-5335D01*
X-4667Y-5262D02*
X-4923Y-5262D01*
X-4887Y-5286D01*
X-4862Y-5310D01*
X-4850Y-5335D01*
G54D18*
X-4679Y-6609D02*
X-4667Y-6573D01*
X-4667Y-6512D01*
X-4679Y-6487D01*
X-4692Y-6475D01*
X-4716Y-6463D01*
X-4740Y-6463D01*
X-4765Y-6475D01*
X-4777Y-6487D01*
X-4789Y-6512D01*
X-4801Y-6560D01*
X-4813Y-6585D01*
X-4826Y-6597D01*
X-4850Y-6609D01*
X-4874Y-6609D01*
X-4899Y-6597D01*
X-4911Y-6585D01*
X-4923Y-6560D01*
X-4923Y-6500D01*
X-4911Y-6463D01*
X-4667Y-6353D02*
X-4923Y-6353D01*
X-4923Y-6292D01*
X-4911Y-6256D01*
X-4887Y-6231D01*
X-4862Y-6219D01*
X-4813Y-6207D01*
X-4777Y-6207D01*
X-4728Y-6219D01*
X-4704Y-6231D01*
X-4679Y-6256D01*
X-4667Y-6292D01*
X-4667Y-6353D01*
X-4740Y-6110D02*
X-4740Y-5988D01*
X-4667Y-6134D02*
X-4923Y-6049D01*
X-4667Y-5963D01*
G54D19*
X-4911Y-7281D02*
X-4923Y-7306D01*
X-4923Y-7342D01*
X-4911Y-7379D01*
X-4887Y-7403D01*
X-4862Y-7416D01*
X-4813Y-7428D01*
X-4777Y-7428D01*
X-4728Y-7416D01*
X-4704Y-7403D01*
X-4679Y-7379D01*
X-4667Y-7342D01*
X-4667Y-7318D01*
X-4679Y-7281D01*
X-4692Y-7269D01*
X-4777Y-7269D01*
X-4777Y-7318D01*
X-4667Y-7160D02*
X-4923Y-7160D01*
X-4667Y-7013D01*
X-4923Y-7013D01*
X-4667Y-6892D02*
X-4923Y-6892D01*
X-4923Y-6831D01*
X-4911Y-6794D01*
X-4887Y-6770D01*
X-4862Y-6757D01*
X-4813Y-6745D01*
X-4777Y-6745D01*
X-4728Y-6757D01*
X-4704Y-6770D01*
X-4679Y-6794D01*
X-4667Y-6831D01*
X-4667Y-6892D01*
M02*
