%FSLAX34Y34*%
G04 Gerber Fmt 3.4, Leading zero omitted, Abs format*
G04 (created by PCBNEW (2013-12-14 BZR 4555)-product) date Tue 24 Dec 2013 01:38:29 EST*
%MOIN*%
G01*
G70*
G90*
G04 APERTURE LIST*
%ADD10C,0.005906*%
%ADD11R,0.027559X0.055118*%
%ADD12R,0.055118X0.027559*%
%ADD13R,0.027559X0.027559*%
%ADD14C,0.060000*%
%ADD15C,0.035000*%
%ADD16C,0.010000*%
%ADD17C,0.008000*%
G04 APERTURE END LIST*
G54D10*
G54D11*
X-2750Y-7899D03*
X-2250Y-7899D03*
G54D12*
X3622Y-1685D03*
G54D10*
G36*
X3897Y-6547D02*
X3897Y-6822D01*
X3346Y-6822D01*
X3346Y-6547D01*
X3897Y-6547D01*
X3897Y-6547D01*
G37*
G54D12*
X3622Y-2185D03*
G54D10*
G36*
X3897Y-2547D02*
X3897Y-2822D01*
X3346Y-2822D01*
X3346Y-2547D01*
X3897Y-2547D01*
X3897Y-2547D01*
G37*
G36*
X3897Y-3047D02*
X3897Y-3322D01*
X3346Y-3322D01*
X3346Y-3047D01*
X3897Y-3047D01*
X3897Y-3047D01*
G37*
G36*
X3897Y-3547D02*
X3897Y-3822D01*
X3346Y-3822D01*
X3346Y-3547D01*
X3897Y-3547D01*
X3897Y-3547D01*
G37*
G36*
X3897Y-4047D02*
X3897Y-4322D01*
X3346Y-4322D01*
X3346Y-4047D01*
X3897Y-4047D01*
X3897Y-4047D01*
G37*
G36*
X3897Y-4547D02*
X3897Y-4822D01*
X3346Y-4822D01*
X3346Y-4547D01*
X3897Y-4547D01*
X3897Y-4547D01*
G37*
G36*
X3897Y-5047D02*
X3897Y-5322D01*
X3346Y-5322D01*
X3346Y-5047D01*
X3897Y-5047D01*
X3897Y-5047D01*
G37*
G36*
X3897Y-5547D02*
X3897Y-5822D01*
X3346Y-5822D01*
X3346Y-5547D01*
X3897Y-5547D01*
X3897Y-5547D01*
G37*
G36*
X3897Y-6047D02*
X3897Y-6322D01*
X3346Y-6322D01*
X3346Y-6047D01*
X3897Y-6047D01*
X3897Y-6047D01*
G37*
G54D11*
X2750Y-7899D03*
X2250Y-7899D03*
X1750Y-7899D03*
X1250Y-7899D03*
X750Y-7899D03*
X250Y-7899D03*
X-250Y-7899D03*
X-750Y-7899D03*
X-1250Y-7899D03*
X-1750Y-7899D03*
G54D12*
X-3622Y-1685D03*
X-3622Y-6685D03*
X-3622Y-6185D03*
X-3622Y-5685D03*
X-3622Y-5185D03*
X-3622Y-4685D03*
X-3622Y-4185D03*
X-3622Y-3685D03*
X-3622Y-3185D03*
X-3622Y-2685D03*
X-3622Y-2185D03*
G54D13*
X0Y-1417D03*
X-3Y-708D03*
G54D14*
X4331Y0D03*
X4331Y-3150D03*
X4331Y-4724D03*
X4331Y-3937D03*
X4331Y-1575D03*
X4331Y-2362D03*
X4331Y-787D03*
X4331Y-6299D03*
X4331Y-7087D03*
X4331Y-5512D03*
X-4331Y-5512D03*
X-4331Y-7087D03*
X-4331Y-6299D03*
X-4331Y-787D03*
X-4331Y-2362D03*
X-4331Y-1575D03*
X-4331Y-3937D03*
X-4331Y-4724D03*
X-4331Y-3150D03*
X-4331Y0D03*
G54D15*
X1377Y-826D03*
X3087Y-2059D03*
X-87Y-4540D03*
X-2228Y-1943D03*
X1291Y-1943D03*
X-2228Y-5062D03*
X3007Y-2870D03*
X-2769Y-6817D03*
X1256Y-7024D03*
X3067Y-4047D03*
X804Y-5325D03*
X804Y-6867D03*
X-1465Y-7116D03*
X-645Y-7362D03*
X3057Y-4934D03*
X1971Y-5755D03*
X-583Y-4184D03*
X-1276Y-4037D03*
X-608Y-2992D03*
X3117Y-7209D03*
X-1318Y-2743D03*
X525Y-2977D03*
X-3081Y-5063D03*
X-2702Y-4633D03*
X1693Y-3609D03*
X2244Y-7299D03*
X2098Y-4167D03*
X-2678Y-5290D03*
X1812Y-5165D03*
X241Y-3594D03*
X-2759Y-3598D03*
G54D16*
X3759Y-1685D02*
X3462Y-1685D01*
X3462Y-1685D02*
X3087Y-2059D01*
G54D17*
X965Y-993D02*
X1211Y-993D01*
X965Y-993D02*
X-3363Y-993D01*
X-3363Y-993D02*
X-4330Y-25D01*
X-4330Y-25D02*
X-4330Y0D01*
X1211Y-993D02*
X1377Y-826D01*
X330Y-4540D02*
X-87Y-4540D01*
X2812Y-2059D02*
X330Y-4540D01*
X3087Y-2059D02*
X2812Y-2059D01*
G54D16*
X-2228Y-1943D02*
X1291Y-1943D01*
X-2228Y-1943D02*
X-2967Y-1943D01*
X-2967Y-1943D02*
X-3226Y-1685D01*
X-3226Y-1685D02*
X-3759Y-1685D01*
G54D17*
X-3759Y-1685D02*
X-3226Y-1685D01*
X-3226Y-1685D02*
X-2967Y-1943D01*
X-2133Y-5070D02*
X-2220Y-5070D01*
X1232Y-4185D02*
X346Y-5070D01*
X346Y-5070D02*
X-2133Y-5070D01*
X1429Y-4185D02*
X1232Y-4185D01*
X-2220Y-5070D02*
X-2228Y-5062D01*
X1574Y-4185D02*
X1429Y-4185D01*
X1429Y-4185D02*
X1425Y-4185D01*
X1893Y-3866D02*
X1574Y-4185D01*
X2011Y-3866D02*
X1893Y-3866D01*
X3007Y-2870D02*
X2011Y-3866D01*
X-2769Y-6817D02*
X337Y-6817D01*
X337Y-6817D02*
X1023Y-7503D01*
X1023Y-7503D02*
X1250Y-7503D01*
X1250Y-8037D02*
X1250Y-7503D01*
X1735Y-7503D02*
X1256Y-7024D01*
X1750Y-7503D02*
X1735Y-7503D01*
X1750Y-8037D02*
X1750Y-7503D01*
X1506Y-4623D02*
X804Y-5325D01*
X2363Y-4623D02*
X1506Y-4623D01*
X2939Y-4047D02*
X2363Y-4623D01*
X3067Y-4047D02*
X2939Y-4047D01*
X2750Y-8037D02*
X2750Y-7503D01*
X943Y-6728D02*
X804Y-6867D01*
X2129Y-6728D02*
X943Y-6728D01*
X2750Y-7348D02*
X2129Y-6728D01*
X2750Y-7503D02*
X2750Y-7348D01*
X302Y-7056D02*
X750Y-7503D01*
X-1405Y-7056D02*
X302Y-7056D01*
X-1465Y-7116D02*
X-1405Y-7056D01*
X750Y-8037D02*
X750Y-7503D01*
X250Y-8037D02*
X250Y-7503D01*
X-503Y-7503D02*
X-645Y-7362D01*
X250Y-7503D02*
X-503Y-7503D01*
X-3759Y-6685D02*
X-3226Y-6685D01*
X-3061Y-6520D02*
X-3226Y-6685D01*
X2846Y-6520D02*
X-3061Y-6520D01*
X3412Y-7087D02*
X2846Y-6520D01*
X4330Y-7087D02*
X3412Y-7087D01*
X-3759Y-6185D02*
X-3226Y-6185D01*
X3057Y-4934D02*
X3057Y-4934D01*
X3057Y-5086D02*
X3057Y-4934D01*
X1959Y-6185D02*
X3057Y-5086D01*
X-3226Y-6185D02*
X1959Y-6185D01*
X1946Y-5780D02*
X1971Y-5755D01*
X-2927Y-5780D02*
X1946Y-5780D01*
X-3522Y-5185D02*
X-2927Y-5780D01*
X-3759Y-5185D02*
X-3522Y-5185D01*
X-3759Y-4685D02*
X-3226Y-4685D01*
X-2874Y-4332D02*
X-3226Y-4685D01*
X-1149Y-4332D02*
X-2874Y-4332D01*
X-706Y-3889D02*
X-1149Y-4332D01*
X499Y-3889D02*
X-706Y-3889D01*
X3178Y-1210D02*
X499Y-3889D01*
X3907Y-1210D02*
X3178Y-1210D01*
X4330Y-787D02*
X3907Y-1210D01*
X-3759Y-4185D02*
X-3226Y-4185D01*
X-3079Y-4037D02*
X-1276Y-4037D01*
X-3226Y-4185D02*
X-3079Y-4037D01*
X431Y-4184D02*
X-583Y-4184D01*
X3200Y-1414D02*
X431Y-4184D01*
X4170Y-1414D02*
X3200Y-1414D01*
X4330Y-1575D02*
X4170Y-1414D01*
X-3759Y-3685D02*
X-3226Y-3685D01*
X-3226Y-3616D02*
X-3226Y-3685D01*
X-2904Y-3294D02*
X-3226Y-3616D01*
X754Y-3294D02*
X-2904Y-3294D01*
X2999Y-1050D02*
X754Y-3294D01*
X3285Y-1050D02*
X2999Y-1050D01*
X3908Y-427D02*
X3285Y-1050D01*
X3908Y200D02*
X3908Y-427D01*
X4145Y436D02*
X3908Y200D01*
X4512Y436D02*
X4145Y436D01*
X4755Y193D02*
X4512Y436D01*
X4755Y-1937D02*
X4755Y193D01*
X4330Y-2362D02*
X4755Y-1937D01*
X-675Y-3059D02*
X-608Y-2992D01*
X-3100Y-3059D02*
X-675Y-3059D01*
X-3226Y-3185D02*
X-3100Y-3059D01*
X-3759Y-3185D02*
X-3226Y-3185D01*
X3427Y-7519D02*
X3117Y-7209D01*
X4500Y-7519D02*
X3427Y-7519D01*
X4751Y-7269D02*
X4500Y-7519D01*
X4751Y-3570D02*
X4751Y-7269D01*
X4330Y-3150D02*
X4751Y-3570D01*
X-1376Y-2685D02*
X-3759Y-2685D01*
X-1318Y-2743D02*
X-1376Y-2685D01*
X-3759Y-2185D02*
X-3226Y-2185D01*
X-25Y-2427D02*
X525Y-2977D01*
X-2984Y-2427D02*
X-25Y-2427D01*
X-3226Y-2185D02*
X-2984Y-2427D01*
X-1250Y-8037D02*
X-1250Y-7503D01*
X-1495Y-7503D02*
X-1250Y-7503D01*
X-1662Y-7336D02*
X-1495Y-7503D01*
X-3231Y-7336D02*
X-1662Y-7336D01*
X-3420Y-7526D02*
X-3231Y-7336D01*
X-4509Y-7526D02*
X-3420Y-7526D01*
X-4770Y-7264D02*
X-4509Y-7526D01*
X-4770Y-2014D02*
X-4770Y-7264D01*
X-4330Y-1575D02*
X-4770Y-2014D01*
X3481Y-4185D02*
X3759Y-4185D01*
X3207Y-4458D02*
X3481Y-4185D01*
X2754Y-4458D02*
X3207Y-4458D01*
X2395Y-4817D02*
X2754Y-4458D01*
X1743Y-4817D02*
X2395Y-4817D01*
X940Y-5620D02*
X1743Y-4817D01*
X-2779Y-5620D02*
X940Y-5620D01*
X-3081Y-5318D02*
X-2779Y-5620D01*
X-3081Y-5063D02*
X-3081Y-5318D01*
X-2702Y-4633D02*
X-496Y-4633D01*
X-496Y-4633D02*
X-294Y-4835D01*
X3577Y-2367D02*
X3759Y-2185D01*
X2935Y-2367D02*
X3577Y-2367D01*
X1693Y-3609D02*
X2935Y-2367D01*
X262Y-4835D02*
X-294Y-4835D01*
X1693Y-3609D02*
X1488Y-3609D01*
X1488Y-3609D02*
X262Y-4835D01*
X2244Y-7498D02*
X2250Y-7503D01*
X2244Y-7299D02*
X2244Y-7498D01*
X2250Y-8037D02*
X2250Y-7503D01*
X3081Y-3185D02*
X2098Y-4167D01*
X3759Y-3185D02*
X3081Y-3185D01*
X-2678Y-5290D02*
X-2508Y-5460D01*
X220Y-5460D02*
X390Y-5290D01*
X-2508Y-5460D02*
X220Y-5460D01*
X390Y-5290D02*
X1218Y-4462D01*
X2221Y-4462D02*
X1218Y-4462D01*
X3759Y-3685D02*
X2999Y-3685D01*
X2999Y-3685D02*
X2221Y-4462D01*
X-3081Y-7503D02*
X-1750Y-7503D01*
X-3264Y-7686D02*
X-3081Y-7503D01*
X-4575Y-7686D02*
X-3264Y-7686D01*
X-4930Y-7331D02*
X-4575Y-7686D01*
X-4930Y-1387D02*
X-4930Y-7331D01*
X-4330Y-787D02*
X-4930Y-1387D01*
X-1750Y-8037D02*
X-1750Y-7503D01*
X3759Y-4685D02*
X3226Y-4685D01*
X236Y-3598D02*
X241Y-3594D01*
X-2759Y-3598D02*
X236Y-3598D01*
X2274Y-5165D02*
X1812Y-5165D01*
X2800Y-4639D02*
X2274Y-5165D01*
X3180Y-4639D02*
X2800Y-4639D01*
X3226Y-4685D02*
X3180Y-4639D01*
M02*
