M48
;DRILL file {Pcbnew (2013-12-14 BZR 4555)-product} date Tue 24 Dec 2013 01:38:30 EST
;FORMAT={-:-/ absolute / metric / decimal}
FMAT,2
METRIC,TZ
T1C0.635
T2C0.700
T3C0.813
%
G90
G05
M71
T1
X-7.826Y-12.862
X-7.034Y-17.318
X-7.009Y-9.141
X-6.864Y-11.77
X-6.802Y-13.439
X-5.66Y-4.937
X-5.66Y-12.86
X-3.723Y-18.077
X-3.349Y-6.968
X-3.242Y-10.256
X-1.638Y-18.7
X-1.546Y-7.601
X-1.483Y-10.629
X-0.222Y-11.533
X0.613Y-9.129
X1.334Y-7.563
X2.043Y-13.527
X2.043Y-17.443
X3.192Y-17.843
X3.281Y-4.937
X3.5Y-2.1
X4.302Y-9.168
X4.604Y-13.121
X5.007Y-14.62
X5.331Y-10.586
X5.701Y-18.54
X7.64Y-7.29
X7.767Y-12.534
X7.791Y-10.282
X7.843Y-5.23
X7.918Y-18.311
T2
X-0.01Y-1.8
X0.Y-3.6
T3
X-11.001Y0.
X-11.001Y-1.999
X-11.001Y-4.
X-11.001Y-5.999
X-11.001Y-8.001
X-11.001Y-10.
X-11.001Y-11.999
X-11.001Y-14.
X-11.001Y-15.999
X-11.001Y-18.001
X11.001Y0.
X11.001Y-1.999
X11.001Y-4.
X11.001Y-5.999
X11.001Y-8.001
X11.001Y-10.
X11.001Y-11.999
X11.001Y-14.
X11.001Y-15.999
X11.001Y-18.001
T0
M30
