%FSLAX34Y34*%
G04 Gerber Fmt 3.4, Leading zero omitted, Abs format*
G04 (created by PCBNEW (2013-12-14 BZR 4555)-product) date Wed 05 Mar 2014 16:54:14 EST*
%MOIN*%
G01*
G70*
G90*
G04 APERTURE LIST*
%ADD10C,0.003937*%
%ADD11O,0.011614X0.033500*%
%ADD12O,0.033500X0.011614*%
%ADD13R,0.060000X0.060000*%
%ADD14C,0.060000*%
%ADD15R,0.039370X0.011811*%
%ADD16R,0.015700X0.023600*%
%ADD17R,0.023600X0.015700*%
%ADD18C,0.029134*%
%ADD19R,0.045276X0.055118*%
%ADD20R,0.149606X0.039370*%
%ADD21R,0.039370X0.149606*%
%ADD22R,0.039370X0.179134*%
%ADD23R,0.179134X0.039370*%
%ADD24R,0.039370X0.070866*%
%ADD25R,0.019685X0.103937*%
%ADD26R,0.106299X0.019685*%
%ADD27R,0.078740X0.019685*%
%ADD28R,0.019685X0.155118*%
%ADD29R,0.196850X0.019685*%
%ADD30R,0.019685X0.192913*%
%ADD31R,0.035433X0.192913*%
%ADD32R,0.027559X0.039370*%
%ADD33R,0.039370X0.027559*%
%ADD34C,0.035000*%
%ADD35C,0.008000*%
%ADD36C,0.010000*%
%ADD37C,0.014000*%
%ADD38C,0.012000*%
G04 APERTURE END LIST*
G54D10*
G54D11*
X649Y-236D03*
X452Y-236D03*
X255Y-236D03*
X59Y-236D03*
X-137Y-236D03*
X-334Y-236D03*
X-531Y-236D03*
X-728Y-236D03*
X-925Y-236D03*
X-1122Y-236D03*
X-1318Y-236D03*
X-1515Y-236D03*
X-1515Y-2952D03*
X-1318Y-2952D03*
X-1122Y-2952D03*
X-925Y-2952D03*
X-728Y-2952D03*
X-531Y-2952D03*
X-334Y-2952D03*
X-137Y-2952D03*
X59Y-2952D03*
X255Y-2952D03*
X452Y-2952D03*
X649Y-2952D03*
G54D12*
X-1791Y-511D03*
X-1791Y-708D03*
X-1791Y-905D03*
X-1791Y-1102D03*
X-1791Y-1299D03*
X-1791Y-1496D03*
X-1791Y-1692D03*
X-1791Y-1889D03*
X-1791Y-2086D03*
X-1791Y-2283D03*
X-1791Y-2480D03*
X-1791Y-2677D03*
X924Y-2677D03*
X924Y-2480D03*
X924Y-2283D03*
X924Y-2086D03*
X924Y-1889D03*
X924Y-1692D03*
X924Y-1496D03*
X924Y-1299D03*
X924Y-1102D03*
X924Y-905D03*
X924Y-708D03*
X924Y-511D03*
G54D13*
X-433Y-1594D03*
G54D14*
X-1033Y-2194D03*
X166Y-2194D03*
X166Y-994D03*
X-1033Y-994D03*
X-433Y-905D03*
X-433Y-2283D03*
X-1122Y-1594D03*
X255Y-1594D03*
G54D15*
X-757Y1582D03*
X-757Y1326D03*
X-757Y1070D03*
X-108Y1070D03*
X-108Y1326D03*
X-108Y1582D03*
G54D16*
X2417Y1137D03*
X2771Y1137D03*
X2417Y775D03*
X2771Y775D03*
X2362Y-992D03*
X2716Y-992D03*
X2716Y-2811D03*
X2362Y-2811D03*
G54D17*
X-255Y763D03*
X-255Y409D03*
X-610Y763D03*
X-610Y409D03*
G54D16*
X-1960Y1618D03*
X-1606Y1618D03*
X-2417Y1622D03*
X-2771Y1622D03*
X2771Y1535D03*
X2417Y1535D03*
G54D18*
X2559Y-3822D03*
X-2559Y-3822D03*
G54D19*
X2047Y-1468D03*
X2047Y-2334D03*
X2677Y-2334D03*
X2677Y-1468D03*
G54D20*
X0Y2098D03*
X0Y-4318D03*
G54D21*
X-3208Y-1110D03*
X3208Y-1110D03*
G54D22*
X-3208Y1399D03*
X-3208Y-3620D03*
X3208Y-3620D03*
X3208Y1399D03*
G54D23*
X-2509Y2098D03*
X2509Y2098D03*
X2509Y-4318D03*
X-2509Y-4318D03*
G54D24*
X-1724Y1062D03*
X-2708Y1062D03*
G54D18*
X3362Y2610D03*
G54D16*
X736Y1535D03*
X382Y1535D03*
G54D25*
X59Y3990D03*
X925Y3990D03*
X1909Y3990D03*
X-925Y3990D03*
G54D26*
X492Y4608D03*
X2342Y4608D03*
G54D27*
X1417Y3568D03*
X-433Y3568D03*
G54D28*
X2775Y3734D03*
G54D29*
X-1811Y4608D03*
G54D30*
X-1791Y3545D03*
G54D31*
X-2618Y3545D03*
G54D32*
X2750Y-4793D03*
X2250Y-4793D03*
G54D10*
G36*
X-3897Y1362D02*
X-3897Y1637D01*
X-3503Y1637D01*
X-3503Y1362D01*
X-3897Y1362D01*
X-3897Y1362D01*
G37*
G36*
X-3897Y-3637D02*
X-3897Y-3362D01*
X-3503Y-3362D01*
X-3503Y-3637D01*
X-3897Y-3637D01*
X-3897Y-3637D01*
G37*
G36*
X-3897Y862D02*
X-3897Y1137D01*
X-3503Y1137D01*
X-3503Y862D01*
X-3897Y862D01*
X-3897Y862D01*
G37*
G36*
X-3897Y362D02*
X-3897Y637D01*
X-3503Y637D01*
X-3503Y362D01*
X-3897Y362D01*
X-3897Y362D01*
G37*
G36*
X-3897Y-137D02*
X-3897Y137D01*
X-3503Y137D01*
X-3503Y-137D01*
X-3897Y-137D01*
X-3897Y-137D01*
G37*
G36*
X-3897Y-637D02*
X-3897Y-362D01*
X-3503Y-362D01*
X-3503Y-637D01*
X-3897Y-637D01*
X-3897Y-637D01*
G37*
G36*
X-3897Y-1137D02*
X-3897Y-862D01*
X-3503Y-862D01*
X-3503Y-1137D01*
X-3897Y-1137D01*
X-3897Y-1137D01*
G37*
G36*
X-3897Y-1637D02*
X-3897Y-1362D01*
X-3503Y-1362D01*
X-3503Y-1637D01*
X-3897Y-1637D01*
X-3897Y-1637D01*
G37*
G36*
X-3897Y-2137D02*
X-3897Y-1862D01*
X-3503Y-1862D01*
X-3503Y-2137D01*
X-3897Y-2137D01*
X-3897Y-2137D01*
G37*
G36*
X-3897Y-2637D02*
X-3897Y-2362D01*
X-3503Y-2362D01*
X-3503Y-2637D01*
X-3897Y-2637D01*
X-3897Y-2637D01*
G37*
G36*
X-3897Y-3137D02*
X-3897Y-2862D01*
X-3503Y-2862D01*
X-3503Y-3137D01*
X-3897Y-3137D01*
X-3897Y-3137D01*
G37*
G54D32*
X-2750Y-4793D03*
X-2250Y-4793D03*
X-1750Y-4793D03*
X-1250Y-4793D03*
X-750Y-4793D03*
X-250Y-4793D03*
X250Y-4793D03*
X750Y-4793D03*
X1250Y-4793D03*
X1750Y-4793D03*
G54D33*
X3700Y1500D03*
X3700Y-3500D03*
X3700Y-3000D03*
X3700Y-2500D03*
X3700Y-2000D03*
X3700Y-1500D03*
X3700Y-1000D03*
X3700Y-500D03*
X3700Y0D03*
X3700Y500D03*
X3700Y1000D03*
G54D34*
X-2377Y267D03*
X1964Y-937D03*
X1355Y1778D03*
X1897Y2555D03*
X-1196Y2555D03*
X-1224Y1321D03*
X-421Y2555D03*
X354Y2555D03*
X1137Y2555D03*
X2677Y2555D03*
X-3460Y2555D03*
X-3027Y2555D03*
X-2149Y2555D03*
X-2618Y2763D03*
X2024Y-2909D03*
X2755Y-617D03*
X-1228Y-3677D03*
X1011Y1196D03*
X-2078Y-242D03*
X1643Y879D03*
X1969Y-484D03*
X-2192Y-3523D03*
X-338Y-3852D03*
X173Y-3862D03*
X-2755Y-2830D03*
X-2751Y-3314D03*
X963Y-3364D03*
X1381Y-3636D03*
X2751Y-3362D03*
X2358Y-3185D03*
X1562Y-2193D03*
X2540Y-187D03*
X1378Y-461D03*
X1399Y128D03*
X969Y-1D03*
X459Y1077D03*
X-1270Y612D03*
X-2690Y-1437D03*
X-1026Y192D03*
X1699Y1483D03*
X-1834Y-3866D03*
X-2956Y-64D03*
X1760Y-3866D03*
X-2684Y-1875D03*
G54D35*
X1355Y1778D02*
X979Y1778D01*
X979Y1778D02*
X736Y1535D01*
X-2429Y216D02*
X-2377Y267D01*
X-2429Y-679D02*
X-2429Y216D01*
X1506Y-1299D02*
X1868Y-937D01*
X1868Y-937D02*
X1964Y-937D01*
X924Y-1299D02*
X1506Y-1299D01*
X2771Y1535D02*
X2771Y1773D01*
X-2110Y-1102D02*
X-1791Y-1102D01*
X-2429Y-783D02*
X-2110Y-1102D01*
X-2429Y-679D02*
X-2429Y-783D01*
X1355Y1778D02*
X1355Y1778D01*
X2766Y1778D02*
X1355Y1778D01*
X2771Y1773D02*
X2766Y1778D01*
X-822Y-524D02*
X-822Y-784D01*
X-822Y-784D02*
X-1033Y-994D01*
X-1033Y-994D02*
X-1033Y-966D01*
X-1791Y-708D02*
X-1291Y-708D01*
X-1033Y-966D02*
X-1291Y-708D01*
X382Y1535D02*
X173Y1326D01*
X173Y1326D02*
X-108Y1326D01*
G54D36*
X1897Y2555D02*
X2677Y2555D01*
X1897Y2555D02*
X2677Y2555D01*
X354Y2555D02*
X-31Y2555D01*
X-421Y2555D02*
X-811Y2555D01*
G54D37*
X-1196Y2555D02*
X1893Y2555D01*
G54D36*
X1893Y2555D02*
X1897Y2555D01*
X-811Y2555D02*
X-1196Y2555D01*
X-31Y2555D02*
X-421Y2555D01*
X748Y2555D02*
X354Y2555D01*
X1137Y2555D02*
X748Y2555D01*
X1897Y2555D02*
X2283Y2555D01*
X2283Y2555D02*
X2677Y2555D01*
G54D37*
X3750Y1500D02*
X3309Y1500D01*
X3309Y1500D02*
X3208Y1399D01*
G54D36*
X-3027Y2555D02*
X-3460Y2555D01*
X-3460Y2555D02*
X-2618Y2555D01*
X-2618Y2555D02*
X-2149Y2555D01*
G54D35*
X-1606Y1618D02*
X-1520Y1618D01*
X-1074Y1326D02*
X-1079Y1321D01*
X-1079Y1321D02*
X-1224Y1321D01*
X-1074Y1326D02*
X-757Y1326D01*
X-1520Y1618D02*
X-1224Y1321D01*
X2716Y-1429D02*
X2677Y-1468D01*
X2716Y-992D02*
X2716Y-1429D01*
X2047Y-2377D02*
X2047Y-2334D01*
X2362Y-2692D02*
X2047Y-2377D01*
X2362Y-2811D02*
X2362Y-2692D01*
G54D36*
X-2618Y3545D02*
X-2618Y2763D01*
G54D35*
X-2618Y2206D02*
X-2509Y2098D01*
X-2618Y2763D02*
X-2618Y2555D01*
X-2618Y2555D02*
X-2618Y2206D01*
X3316Y1507D02*
X3208Y1399D01*
G54D38*
X-393Y-1594D02*
X-393Y-2283D01*
X-1082Y-1083D02*
X-1082Y-1594D01*
X-1082Y-1594D02*
X-1082Y-2105D01*
X295Y-2105D02*
X295Y-1594D01*
X295Y-1594D02*
X295Y-1083D01*
X-393Y-905D02*
X-393Y-1594D01*
X-393Y-1594D02*
X255Y-1594D01*
X255Y-1594D02*
X295Y-1594D01*
X-393Y-2283D02*
X117Y-2283D01*
X-393Y-1594D02*
X-433Y-1594D01*
G54D35*
X964Y-1496D02*
X924Y-1496D01*
X393Y-1496D02*
X295Y-1594D01*
X924Y-1496D02*
X393Y-1496D01*
X3316Y1507D02*
X3208Y1399D01*
X3759Y1507D02*
X3750Y1507D01*
X3750Y1507D02*
X3316Y1507D01*
G54D38*
X-433Y-2283D02*
X-393Y-2283D01*
X-393Y-905D02*
X-433Y-905D01*
G54D35*
X2716Y-992D02*
X2716Y-992D01*
X-1606Y1618D02*
X-1606Y1736D01*
X-2503Y2102D02*
X-2509Y2098D01*
X-1854Y2102D02*
X-2503Y2102D01*
X-1606Y1854D02*
X-1854Y2102D01*
X-1606Y1736D02*
X-1606Y1854D01*
X-1606Y1736D02*
X-1606Y1618D01*
X-1606Y1736D02*
X-1606Y1736D01*
X2362Y-2811D02*
X2362Y-2811D01*
X2362Y-2811D02*
X2163Y-2811D01*
X2716Y-992D02*
X2716Y-754D01*
X2771Y956D02*
X2771Y775D01*
X2771Y956D02*
X2771Y775D01*
X2771Y956D02*
X2771Y956D01*
X2859Y1137D02*
X2771Y1137D01*
X2946Y1137D02*
X2859Y1137D01*
X3208Y1399D02*
X2946Y1137D01*
X2771Y1137D02*
X2771Y956D01*
X2859Y1137D02*
X2771Y1137D01*
X-757Y1326D02*
X-108Y1326D01*
G54D38*
X-433Y-1594D02*
X-1082Y-1594D01*
G54D35*
X-1082Y-1594D02*
X-1122Y-1594D01*
G54D38*
X-393Y-1594D02*
X-693Y-1294D01*
X-693Y-1294D02*
X-993Y-994D01*
G54D35*
X-733Y-1294D02*
X-1033Y-994D01*
X-693Y-1294D02*
X-733Y-1294D01*
G54D38*
X-393Y-1594D02*
X166Y-1033D01*
X166Y-1033D02*
X206Y-994D01*
G54D35*
X166Y-1033D02*
X166Y-994D01*
G54D38*
X-393Y-1594D02*
X166Y-2155D01*
X166Y-2155D02*
X206Y-2194D01*
G54D35*
X166Y-2155D02*
X166Y-2194D01*
G54D38*
X-393Y-1594D02*
X-693Y-1894D01*
X-693Y-1894D02*
X-993Y-2194D01*
G54D35*
X-733Y-1894D02*
X-1033Y-2194D01*
X-693Y-1894D02*
X-733Y-1894D01*
G54D38*
X-433Y-905D02*
X-574Y-905D01*
X-574Y-905D02*
X-904Y-905D01*
X-904Y-2283D02*
X-433Y-2283D01*
G54D35*
X-1515Y-2775D02*
X-1515Y-2952D01*
X-1023Y-2283D02*
X-1515Y-2775D01*
X-904Y-2283D02*
X-1023Y-2283D01*
X-728Y-236D02*
X-728Y-524D01*
X-925Y-236D02*
X-925Y-524D01*
X-728Y-524D02*
X-822Y-524D01*
X-822Y-524D02*
X-857Y-524D01*
X-857Y-524D02*
X-925Y-524D01*
X-137Y-905D02*
X-137Y-236D01*
G54D38*
X117Y-905D02*
X-137Y-905D01*
X-137Y-905D02*
X-393Y-905D01*
G54D35*
X2716Y-657D02*
X2755Y-617D01*
X2716Y-754D02*
X2716Y-657D01*
X2065Y-2909D02*
X2024Y-2909D01*
X2163Y-2811D02*
X2065Y-2909D01*
X-2771Y1622D02*
X-2771Y1729D01*
X-2771Y1836D02*
X-2509Y2098D01*
X-2771Y1729D02*
X-2771Y1836D01*
X-2771Y1729D02*
X-2771Y1622D01*
X-2771Y1729D02*
X-2771Y1729D01*
X-1250Y-4844D02*
X-1250Y-4468D01*
X-728Y-2952D02*
X-728Y-3240D01*
X-1043Y-4262D02*
X-1250Y-4468D01*
X-1043Y-3913D02*
X-1043Y-4262D01*
X-728Y-3598D02*
X-1043Y-3913D01*
X-728Y-3240D02*
X-728Y-3598D01*
X-1228Y-3523D02*
X-925Y-3220D01*
X-1228Y-3677D02*
X-1228Y-3523D01*
X-925Y-2952D02*
X-925Y-3220D01*
G54D37*
X-757Y1582D02*
X-933Y1582D01*
X-1220Y1870D02*
X-1220Y2118D01*
X-933Y1582D02*
X-1220Y1870D01*
X-1791Y3545D02*
X-1791Y2688D01*
X-1791Y2688D02*
X-1220Y2118D01*
G54D35*
X-757Y1582D02*
X-724Y1582D01*
X-724Y1582D02*
X-718Y1582D01*
X-649Y962D02*
X-757Y1070D01*
X-610Y962D02*
X-649Y962D01*
X-610Y763D02*
X-610Y962D01*
X-216Y962D02*
X-108Y1070D01*
X-255Y962D02*
X-216Y962D01*
X-255Y763D02*
X-255Y962D01*
X-1791Y-905D02*
X-2078Y-905D01*
X2417Y1137D02*
X2218Y1137D01*
X-2078Y-905D02*
X-2078Y-242D01*
X1019Y1188D02*
X1011Y1196D01*
X2168Y1188D02*
X1019Y1188D01*
X2218Y1137D02*
X2168Y1188D01*
X924Y-1102D02*
X1212Y-1102D01*
X1212Y-1102D02*
X1381Y-1102D01*
X1381Y-1102D02*
X1969Y-515D01*
X1969Y-515D02*
X1969Y-484D01*
X2417Y775D02*
X2218Y775D01*
X1747Y775D02*
X1643Y879D01*
X2218Y775D02*
X1747Y775D01*
X2362Y-992D02*
X2346Y-1007D01*
X2330Y-1185D02*
X2047Y-1468D01*
X2330Y-1023D02*
X2330Y-1185D01*
X2346Y-1007D02*
X2330Y-1023D01*
X2346Y-1007D02*
X2362Y-992D01*
X2346Y-1007D02*
X2346Y-1007D01*
X2047Y-1640D02*
X2047Y-1468D01*
X1994Y-1692D02*
X2047Y-1640D01*
X964Y-1692D02*
X1994Y-1692D01*
X964Y-1692D02*
X924Y-1692D01*
X2716Y-2811D02*
X2716Y-2592D01*
X2716Y-2374D02*
X2677Y-2334D01*
X2716Y-2592D02*
X2716Y-2374D01*
X2716Y-2592D02*
X2716Y-2811D01*
X2716Y-2592D02*
X2716Y-2592D01*
X2677Y-2279D02*
X2677Y-2334D01*
X2287Y-1889D02*
X2677Y-2279D01*
X964Y-1889D02*
X2287Y-1889D01*
X964Y-1889D02*
X924Y-1889D01*
X-334Y132D02*
X-334Y-236D01*
X-255Y210D02*
X-334Y132D01*
X-255Y409D02*
X-255Y210D01*
X-531Y132D02*
X-531Y-236D01*
X-610Y210D02*
X-531Y132D01*
X-610Y409D02*
X-610Y210D01*
X-1515Y-236D02*
X-1515Y51D01*
X-1960Y1299D02*
X-1960Y1618D01*
X-1724Y1062D02*
X-1960Y1299D01*
X-1724Y1062D02*
X-1724Y588D01*
X-1515Y379D02*
X-1724Y588D01*
X-1515Y51D02*
X-1515Y379D01*
X-2417Y1354D02*
X-2417Y1622D01*
X-2708Y1062D02*
X-2417Y1354D01*
X-1766Y-487D02*
X-1791Y-511D01*
X-1766Y121D02*
X-1766Y-487D01*
X-2391Y746D02*
X-1766Y121D01*
X-2391Y1062D02*
X-2391Y746D01*
X-2708Y1062D02*
X-2391Y1062D01*
X-1633Y-3240D02*
X-1909Y-3240D01*
X-1909Y-3240D02*
X-2192Y-3523D01*
X-1318Y-3157D02*
X-1401Y-3240D01*
X-1633Y-3240D02*
X-1574Y-3240D01*
X-1318Y-3145D02*
X-1318Y-3157D01*
X-1401Y-3240D02*
X-1574Y-3240D01*
X-1318Y-3145D02*
X-1318Y-3145D01*
X-1318Y-2952D02*
X-1318Y-3145D01*
X-868Y-4726D02*
X-750Y-4844D01*
X-868Y-3964D02*
X-868Y-4726D01*
X-531Y-3627D02*
X-868Y-3964D01*
X-531Y-2952D02*
X-531Y-3627D01*
X-334Y-2952D02*
X-334Y-3240D01*
X-334Y-3848D02*
X-338Y-3852D01*
X-334Y-3240D02*
X-334Y-3848D01*
X-137Y-3550D02*
X-137Y-2952D01*
X173Y-3862D02*
X-137Y-3550D01*
X59Y-3330D02*
X59Y-3240D01*
X708Y-3980D02*
X59Y-3330D01*
X783Y-3980D02*
X708Y-3980D01*
X872Y-4068D02*
X783Y-3980D01*
X872Y-4722D02*
X872Y-4068D01*
X750Y-4844D02*
X872Y-4722D01*
X59Y-2952D02*
X59Y-3240D01*
X-3759Y-1992D02*
X-3383Y-1992D01*
X-3191Y-2183D02*
X-3383Y-1992D01*
X-2335Y-2183D02*
X-3191Y-2183D01*
X-2237Y-2086D02*
X-2335Y-2183D01*
X-1791Y-2086D02*
X-2237Y-2086D01*
X-3759Y-2492D02*
X-3383Y-2492D01*
X-2416Y-2492D02*
X-3383Y-2492D01*
X-2208Y-2283D02*
X-2416Y-2492D01*
X-1791Y-2283D02*
X-2208Y-2283D01*
X-1791Y-2480D02*
X-2177Y-2480D01*
X-2527Y-2830D02*
X-2755Y-2830D01*
X-2177Y-2480D02*
X-2527Y-2830D01*
X-2751Y-3314D02*
X-2736Y-3314D01*
X-2736Y-3314D02*
X-2098Y-2677D01*
X-2098Y-2677D02*
X-1791Y-2677D01*
X649Y-2952D02*
X649Y-3240D01*
X839Y-3240D02*
X963Y-3364D01*
X649Y-3240D02*
X839Y-3240D01*
X1381Y-3636D02*
X1381Y-3364D01*
X1381Y-3364D02*
X1120Y-3103D01*
X1120Y-3103D02*
X1120Y-2677D01*
X993Y-2677D02*
X1120Y-2677D01*
X924Y-2677D02*
X993Y-2677D01*
X1280Y-2813D02*
X1280Y-2812D01*
X1951Y-3484D02*
X1280Y-2813D01*
X2629Y-3484D02*
X1951Y-3484D01*
X2751Y-3362D02*
X2629Y-3484D01*
X1280Y-2813D02*
X1280Y-2812D01*
X1280Y-2587D02*
X1280Y-2813D01*
X1173Y-2480D02*
X1280Y-2587D01*
X924Y-2480D02*
X1173Y-2480D01*
X1941Y-3243D02*
X2299Y-3243D01*
X2299Y-3243D02*
X2358Y-3185D01*
X924Y-2283D02*
X1212Y-2283D01*
X1212Y-2283D02*
X1460Y-2530D01*
X1460Y-2530D02*
X1460Y-2762D01*
X1460Y-2762D02*
X1941Y-3243D01*
X1941Y-3243D02*
X1943Y-3246D01*
X924Y-2283D02*
X1212Y-2283D01*
X1461Y-2532D02*
X1212Y-2283D01*
X1461Y-2764D02*
X1461Y-2532D01*
X1943Y-3246D02*
X1461Y-2764D01*
X1455Y-2086D02*
X1562Y-2193D01*
X924Y-2086D02*
X1455Y-2086D01*
X924Y-905D02*
X1212Y-905D01*
X1842Y-187D02*
X2540Y-187D01*
X1673Y-355D02*
X1842Y-187D01*
X1673Y-583D02*
X1673Y-355D01*
X1352Y-905D02*
X1673Y-583D01*
X1212Y-905D02*
X1352Y-905D01*
X924Y-708D02*
X1212Y-708D01*
X1212Y-627D02*
X1378Y-461D01*
X1212Y-708D02*
X1212Y-627D01*
X1399Y7D02*
X1399Y128D01*
X924Y-467D02*
X1399Y7D01*
X924Y-511D02*
X924Y-467D01*
X649Y-236D02*
X649Y51D01*
X916Y51D02*
X969Y-1D01*
X649Y51D02*
X916Y51D01*
X3759Y7D02*
X3383Y7D01*
X3205Y185D02*
X3383Y7D01*
X1810Y185D02*
X3205Y185D01*
X1572Y423D02*
X1810Y185D01*
X791Y423D02*
X1572Y423D01*
X452Y85D02*
X791Y423D01*
X452Y-236D02*
X452Y85D01*
X3635Y383D02*
X3759Y507D01*
X1839Y383D02*
X3635Y383D01*
X1638Y584D02*
X1839Y383D01*
X706Y584D02*
X1638Y584D01*
X255Y133D02*
X706Y584D01*
X255Y-236D02*
X255Y133D01*
X59Y528D02*
X59Y677D01*
X59Y677D02*
X459Y1077D01*
X59Y-236D02*
X59Y528D01*
X-1318Y-236D02*
X-1318Y51D01*
X-1341Y542D02*
X-1270Y612D01*
X-1341Y73D02*
X-1341Y542D01*
X-1318Y51D02*
X-1341Y73D01*
X255Y-2952D02*
X255Y-3240D01*
X1250Y-4844D02*
X1250Y-4468D01*
X255Y-3300D02*
X255Y-3240D01*
X775Y-3820D02*
X255Y-3300D01*
X849Y-3820D02*
X775Y-3820D01*
X1250Y-4220D02*
X849Y-3820D01*
X1250Y-4468D02*
X1250Y-4220D01*
X-1791Y-1692D02*
X-2078Y-1692D01*
X-2434Y-1692D02*
X-2690Y-1437D01*
X-2078Y-1692D02*
X-2434Y-1692D01*
X2417Y1535D02*
X2218Y1535D01*
X-1122Y97D02*
X-1026Y192D01*
X-1122Y-236D02*
X-1122Y97D01*
X2167Y1483D02*
X1699Y1483D01*
X2218Y1535D02*
X2167Y1483D01*
X-1333Y-3400D02*
X-1368Y-3400D01*
X-1368Y-3400D02*
X-1523Y-3555D01*
X-1834Y-3866D02*
X-1523Y-3555D01*
X-1122Y-3188D02*
X-1122Y-2952D01*
X-1333Y-3400D02*
X-1122Y-3188D01*
X-3759Y7D02*
X-3383Y7D01*
X-2142Y-1299D02*
X-1791Y-1299D01*
X-2467Y-974D02*
X-2142Y-1299D01*
X-2551Y-974D02*
X-2467Y-974D01*
X-2724Y-801D02*
X-2551Y-974D01*
X-2724Y-556D02*
X-2724Y-801D01*
X-2658Y-490D02*
X-2724Y-556D01*
X-2658Y57D02*
X-2658Y-490D01*
X-2830Y230D02*
X-2658Y57D01*
X-3161Y230D02*
X-2830Y230D01*
X-3383Y7D02*
X-3161Y230D01*
X-2884Y-136D02*
X-2956Y-64D01*
X-2884Y-867D02*
X-2884Y-136D01*
X-2617Y-1134D02*
X-2884Y-867D01*
X-2533Y-1134D02*
X-2617Y-1134D01*
X-2171Y-1496D02*
X-2533Y-1134D01*
X-1791Y-1496D02*
X-2171Y-1496D01*
X452Y-2952D02*
X452Y-3240D01*
X452Y-3271D02*
X452Y-3240D01*
X841Y-3659D02*
X452Y-3271D01*
X987Y-3659D02*
X841Y-3659D01*
X1259Y-3931D02*
X987Y-3659D01*
X1694Y-3931D02*
X1259Y-3931D01*
X1760Y-3866D02*
X1694Y-3931D01*
X-1791Y-1889D02*
X-2078Y-1889D01*
X-2092Y-1875D02*
X-2684Y-1875D01*
X-2078Y-1889D02*
X-2092Y-1875D01*
M02*
