M48
;DRILL file {Pcbnew (2013-12-14 BZR 4555)-product} date Wed 15 Jan 2014 15:39:05 EST
;FORMAT={-:-/ absolute / metric / decimal}
FMAT,2
METRIC,TZ
T1C0.635
T2C0.700
%
G90
G05
M71
T1
X-9.55Y3.81
X-9.55Y2.54
X-9.55Y1.27
X-9.55Y0.
X-9.55Y-1.27
X-9.55Y-2.54
X-9.55Y-3.81
X-9.55Y-5.08
X-9.55Y-6.35
X-9.55Y-7.62
X-9.55Y-8.89
X-8.79Y6.49
X-7.69Y6.49
X-7.509Y-0.164
X-7.Y-7.19
X-6.99Y-8.42
X-6.985Y-12.325
X-6.833Y-3.651
X-6.819Y-4.765
X-6.65Y7.02
X-6.04Y0.68
X-5.715Y-12.325
X-5.57Y-8.95
X-5.46Y6.49
X-5.28Y-0.616
X-4.66Y-9.82
X-4.445Y-12.325
X-3.227Y1.557
X-3.175Y-12.325
X-3.12Y-9.34
X-3.11Y3.357
X-3.04Y6.49
X-2.607Y0.49
X-1.905Y-12.325
X-1.07Y6.49
X-0.861Y-9.785
X-0.635Y-12.325
X0.441Y-9.81
X0.635Y-12.325
X0.9Y6.49
X1.166Y2.736
X1.905Y-12.325
X2.448Y-8.547
X2.462Y-0.005
X2.57Y3.039
X2.89Y6.49
X3.175Y-12.325
X3.443Y4.517
X3.502Y-1.172
X3.509Y-9.237
X3.555Y0.327
X3.969Y-5.572
X4.176Y2.233
X4.317Y3.768
X4.445Y-12.325
X4.471Y-9.82
X4.82Y6.49
X4.989Y-2.38
X5.001Y-1.23
X5.142Y-7.39
X5.715Y-12.325
X5.99Y-8.09
X6.454Y-0.477
X6.8Y6.49
X6.985Y-12.325
X6.99Y-8.54
X6.999Y-1.569
X9.55Y3.81
X9.55Y2.54
X9.55Y1.27
X9.55Y0.
X9.55Y-1.27
X9.55Y-2.54
X9.55Y-3.81
X9.55Y-5.08
X9.55Y-6.35
X9.55Y-7.62
X9.55Y-8.89
T2
X-1.1Y-4.05
T0
M30
