G04 (created by PCBNEW (2013-mar-13)-testing) date Fri 18 Oct 2013 15:59:19 EST*
%MOIN*%
G04 Gerber Fmt 3.4, Leading zero omitted, Abs format*
%FSLAX34Y34*%
G01*
G70*
G90*
G04 APERTURE LIST*
%ADD10C,0.003937*%
%ADD11C,0.060000*%
%ADD12R,0.027559X0.027559*%
%ADD13R,0.060000X0.060000*%
%ADD14R,0.029500X0.059100*%
%ADD15R,0.055100X0.074800*%
%ADD16R,0.070900X0.055100*%
%ADD17C,0.029528*%
%ADD18C,0.035000*%
%ADD19C,0.010000*%
%ADD20C,0.012000*%
%ADD21C,0.014000*%
%ADD22C,0.008000*%
G04 APERTURE END LIST*
G54D10*
G54D11*
X9441Y8314D03*
X9441Y5164D03*
X9441Y3590D03*
X9441Y4377D03*
X9441Y6739D03*
X9441Y5952D03*
X9441Y7527D03*
X9441Y2015D03*
X9441Y1227D03*
X9441Y2802D03*
X779Y2802D03*
X779Y1227D03*
X779Y2015D03*
X779Y7527D03*
X779Y5952D03*
X779Y6739D03*
X779Y4377D03*
X779Y3590D03*
X779Y5164D03*
X779Y8314D03*
G54D12*
X5110Y1145D03*
X5114Y437D03*
G54D13*
X4385Y6307D03*
G54D14*
X8066Y2208D03*
X8499Y2208D03*
X7633Y2129D03*
X7200Y2208D03*
X5468Y2208D03*
X5901Y2365D03*
X6334Y2208D03*
X6767Y2129D03*
G54D15*
X8775Y1086D03*
X3559Y653D03*
G54D16*
X8165Y6263D03*
X5881Y6263D03*
G54D13*
X1929Y3169D03*
G54D11*
X2929Y3169D03*
X1929Y2169D03*
X2929Y2169D03*
X1929Y1169D03*
X2929Y1169D03*
G54D17*
X1362Y9133D03*
X1114Y452D03*
X8956Y9007D03*
G54D18*
X6448Y6688D03*
X6287Y4775D03*
X4215Y3169D03*
X2138Y7119D03*
X3594Y9645D03*
X7649Y4791D03*
X7437Y1373D03*
X5169Y8909D03*
X5877Y8909D03*
X6586Y8909D03*
X7295Y8909D03*
X3594Y8944D03*
X8003Y8909D03*
X3783Y10649D03*
X3594Y10346D03*
X3429Y10661D03*
X6543Y5716D03*
X3980Y8429D03*
X3846Y3531D03*
X6673Y4318D03*
X1612Y7378D03*
X2645Y3649D03*
X4157Y3830D03*
X4688Y3964D03*
X7429Y779D03*
X6862Y8204D03*
X7070Y7822D03*
X6625Y7811D03*
X6161Y7850D03*
X5803Y8153D03*
X6429Y8208D03*
X4944Y4346D03*
X1744Y3811D03*
X3696Y8099D03*
X9551Y578D03*
X1968Y6685D03*
X5409Y3984D03*
X1929Y4582D03*
G54D19*
X6448Y6688D02*
X6448Y6677D01*
X6448Y6677D02*
X7110Y6015D01*
X7110Y6015D02*
X7110Y5417D01*
X7110Y5417D02*
X6471Y4778D01*
X6287Y4775D02*
X6468Y4775D01*
X6468Y4775D02*
X6471Y4778D01*
X6287Y4775D02*
X5885Y4775D01*
X5885Y4775D02*
X5495Y5165D01*
X6287Y4775D02*
X6287Y4778D01*
X6287Y4778D02*
X6287Y4775D01*
X6287Y4775D02*
X6287Y4778D01*
G54D20*
X6767Y2129D02*
X6767Y2452D01*
X2929Y3169D02*
X4215Y3169D01*
G54D19*
X2138Y7119D02*
X2138Y6952D01*
X2138Y6952D02*
X2318Y6771D01*
X2318Y6771D02*
X2318Y6397D01*
X2318Y6397D02*
X2819Y5896D01*
X2819Y5896D02*
X2819Y5224D01*
X2819Y5224D02*
X2877Y5165D01*
X2877Y5165D02*
X5495Y5165D01*
X5495Y5165D02*
X5882Y4778D01*
X6471Y4778D02*
X6287Y4778D01*
X6287Y4778D02*
X5882Y4778D01*
G54D20*
X1269Y8198D02*
X1153Y8314D01*
X1153Y8314D02*
X779Y8314D01*
G54D19*
X6767Y2452D02*
X6051Y3169D01*
X6051Y3169D02*
X4215Y3169D01*
X2138Y7119D02*
X2138Y7330D01*
X2138Y7330D02*
X1269Y8198D01*
G54D20*
X7633Y2129D02*
X7633Y1569D01*
X7633Y1569D02*
X7437Y1373D01*
G54D19*
X5881Y6263D02*
X5996Y6263D01*
X5996Y6263D02*
X6543Y5716D01*
X3594Y9645D02*
X3610Y9645D01*
X8429Y4590D02*
X8429Y3940D01*
X8228Y4791D02*
X8429Y4590D01*
X7649Y4791D02*
X8228Y4791D01*
X8779Y2078D02*
X8779Y1850D01*
X8302Y1373D02*
X7437Y1373D01*
X8779Y1850D02*
X8302Y1373D01*
X8779Y1771D02*
X8779Y1090D01*
X8779Y1090D02*
X8775Y1086D01*
X7633Y1569D02*
X7437Y1373D01*
X5173Y8913D02*
X5169Y8909D01*
X5169Y8909D02*
X5169Y8909D01*
X3598Y8940D02*
X3602Y8940D01*
X3594Y8944D02*
X3598Y8940D01*
G54D21*
X8003Y8909D02*
X8007Y8909D01*
G54D19*
X3598Y10342D02*
X3614Y10342D01*
X3594Y10346D02*
X3598Y10342D01*
G54D20*
X779Y1227D02*
X1189Y1637D01*
X2929Y1169D02*
X3444Y653D01*
X3444Y653D02*
X3559Y653D01*
X2629Y1468D02*
X2929Y1169D01*
G54D19*
X2629Y1468D02*
X2460Y1637D01*
X2460Y1637D02*
X1189Y1637D01*
X6543Y5716D02*
X5996Y6263D01*
X8429Y3570D02*
X8429Y3940D01*
X8779Y3220D02*
X8429Y3570D01*
X8779Y3208D02*
X8779Y3220D01*
X8779Y2078D02*
X8779Y3208D01*
X8779Y1771D02*
X8779Y2078D01*
X8429Y3940D02*
X8429Y3956D01*
G54D20*
X8066Y2208D02*
X8066Y2756D01*
X7937Y2885D02*
X7578Y2885D01*
X8066Y2756D02*
X7937Y2885D01*
X1929Y3169D02*
X1929Y3350D01*
X1929Y3350D02*
X2255Y3677D01*
G54D22*
X3185Y3531D02*
X3846Y3531D01*
X2771Y3944D02*
X3185Y3531D01*
X2523Y3944D02*
X2771Y3944D01*
X2255Y3677D02*
X2523Y3944D01*
X6866Y2885D02*
X6582Y2885D01*
X5937Y3531D02*
X3846Y3531D01*
X6582Y2885D02*
X5937Y3531D01*
X6866Y2885D02*
X7578Y2885D01*
G54D20*
X6334Y2208D02*
X6334Y1830D01*
G54D22*
X3740Y2169D02*
X4283Y1625D01*
X6129Y1625D02*
X6334Y1830D01*
X4283Y1625D02*
X6129Y1625D01*
G54D20*
X2929Y2169D02*
X3740Y2169D01*
G54D22*
X5573Y4404D02*
X5657Y4320D01*
X6671Y4320D02*
X6673Y4318D01*
X5657Y4320D02*
X6671Y4320D01*
X1612Y7002D02*
X1612Y6435D01*
X1612Y6435D02*
X2476Y5570D01*
X5573Y4404D02*
X5142Y4835D01*
X2566Y4835D02*
X2476Y4925D01*
X2476Y4925D02*
X2476Y5570D01*
X5142Y4835D02*
X2566Y4835D01*
X1612Y7002D02*
X1612Y7378D01*
X2507Y3511D02*
X2507Y2811D01*
X2507Y2811D02*
X2649Y2669D01*
X2649Y2669D02*
X2507Y2811D01*
X2645Y3649D02*
X2507Y3511D01*
X3500Y2669D02*
X4381Y1787D01*
X2649Y2669D02*
X3500Y2669D01*
G54D20*
X5901Y2365D02*
X5901Y2003D01*
G54D22*
X4381Y1787D02*
X4381Y1787D01*
X4381Y1787D02*
X5685Y1787D01*
X5685Y1787D02*
X5901Y2003D01*
G54D20*
X779Y3590D02*
X1081Y3893D01*
X1081Y3893D02*
X1405Y3893D01*
G54D22*
X4153Y3826D02*
X4157Y3830D01*
X3224Y3826D02*
X4153Y3826D01*
X2944Y4106D02*
X3224Y3826D01*
X1618Y4106D02*
X2944Y4106D01*
X1405Y3893D02*
X1618Y4106D01*
G54D20*
X779Y4377D02*
X1514Y4377D01*
G54D22*
X4527Y4125D02*
X4688Y3964D01*
X3732Y4125D02*
X4527Y4125D01*
X3591Y4266D02*
X3732Y4125D01*
X1625Y4266D02*
X3591Y4266D01*
X1514Y4377D02*
X1625Y4266D01*
X9704Y248D02*
X9956Y500D01*
X9956Y500D02*
X9956Y996D01*
G54D20*
X9441Y1227D02*
X9724Y1227D01*
X9724Y1227D02*
X9956Y996D01*
G54D22*
X9181Y248D02*
X9704Y248D01*
X7429Y779D02*
X7429Y381D01*
X7562Y248D02*
X9181Y248D01*
X7429Y381D02*
X7562Y248D01*
X8751Y7692D02*
X8818Y7692D01*
X8929Y7803D02*
X8929Y7802D01*
X8818Y7692D02*
X8929Y7803D01*
G54D20*
X9098Y7972D02*
X9441Y8314D01*
G54D22*
X9098Y7972D02*
X8929Y7802D01*
X8929Y7802D02*
X8819Y7692D01*
X8819Y7692D02*
X8819Y7692D01*
X6862Y8204D02*
X6944Y8122D01*
X6944Y8122D02*
X7196Y8122D01*
X7196Y8122D02*
X7625Y7692D01*
X7625Y7692D02*
X8751Y7692D01*
X8751Y7692D02*
X8811Y7692D01*
X8811Y7692D02*
X8819Y7692D01*
G54D20*
X9441Y7527D02*
X8968Y7527D01*
G54D22*
X8968Y7527D02*
X7389Y7527D01*
X7389Y7527D02*
X7070Y7822D01*
X7086Y7350D02*
X8830Y7350D01*
X8830Y7350D02*
X9096Y7084D01*
X7086Y7350D02*
X6625Y7811D01*
G54D20*
X9096Y7084D02*
X9441Y6739D01*
X9134Y6260D02*
X9134Y6260D01*
X9134Y6260D02*
X9441Y5952D01*
G54D22*
X8880Y6513D02*
X8880Y6945D01*
X8688Y7137D02*
X6874Y7137D01*
X8880Y6945D02*
X8688Y7137D01*
X6874Y7137D02*
X6161Y7850D01*
X8880Y6513D02*
X9134Y6260D01*
X6625Y6940D02*
X5803Y7763D01*
X5803Y7763D02*
X5803Y8153D01*
X9067Y4752D02*
X8939Y4879D01*
X8939Y4879D02*
X8939Y6007D01*
X8939Y6007D02*
X8701Y6245D01*
X8701Y6691D02*
X8452Y6940D01*
X8452Y6940D02*
X6625Y6940D01*
X8701Y6245D02*
X8701Y6691D01*
G54D20*
X9067Y4752D02*
X9441Y4377D01*
X9067Y4752D02*
X9067Y4752D01*
G54D22*
X6429Y8208D02*
X6440Y8208D01*
X6440Y8208D02*
X6734Y8501D01*
X9295Y8763D02*
X9279Y8763D01*
X9279Y8763D02*
X9007Y8492D01*
X6734Y8501D02*
X7043Y8501D01*
X9007Y8145D02*
X9007Y8492D01*
X8715Y7852D02*
X9007Y8145D01*
X7692Y7852D02*
X8715Y7852D01*
X7043Y8501D02*
X7692Y7852D01*
X9862Y5585D02*
X9793Y5517D01*
X9295Y8763D02*
X9602Y8763D01*
X9602Y8763D02*
X9862Y8503D01*
X9862Y8503D02*
X9862Y5585D01*
G54D20*
X9793Y5517D02*
X9441Y5164D01*
X1204Y6314D02*
X779Y6739D01*
G54D22*
X2156Y4803D02*
X2156Y5362D01*
X2156Y5362D02*
X1204Y6314D01*
X2156Y4803D02*
X2156Y4788D01*
X4944Y4346D02*
X4779Y4511D01*
X4779Y4511D02*
X2433Y4511D01*
X2433Y4511D02*
X2156Y4788D01*
G54D20*
X779Y2802D02*
X779Y2846D01*
X779Y2846D02*
X1744Y3811D01*
G54D22*
X1736Y3811D02*
X1744Y3811D01*
G54D19*
X1736Y3811D02*
X1744Y3811D01*
G54D20*
X1929Y1169D02*
X1318Y1169D01*
G54D22*
X1318Y1169D02*
X953Y804D01*
G54D20*
X359Y5585D02*
X779Y5164D01*
G54D22*
X359Y5585D02*
X359Y8489D01*
X359Y8489D02*
X624Y8754D01*
X624Y8754D02*
X3041Y8754D01*
X3041Y8754D02*
X3696Y8099D01*
G54D20*
X779Y5164D02*
X779Y5164D01*
X357Y4743D02*
X779Y5164D01*
X779Y5164D02*
X779Y5164D01*
G54D22*
X602Y804D02*
X953Y804D01*
X357Y1049D02*
X602Y804D01*
X357Y4743D02*
X357Y1049D01*
G54D20*
X779Y5164D02*
X779Y5164D01*
G54D22*
X7559Y1074D02*
X8055Y578D01*
X8055Y578D02*
X9551Y578D01*
X6930Y1465D02*
X6930Y1443D01*
X7299Y1074D02*
X7559Y1074D01*
X6930Y1443D02*
X7299Y1074D01*
X6196Y1465D02*
X6930Y1465D01*
X6930Y1465D02*
X7200Y1735D01*
X4211Y1465D02*
X6196Y1465D01*
X3377Y1633D02*
X4043Y1633D01*
X3374Y1637D02*
X2751Y1637D01*
X2751Y1637D02*
X2366Y2023D01*
X3377Y1633D02*
X3374Y1637D01*
X4043Y1633D02*
X4211Y1465D01*
G54D20*
X7200Y2208D02*
X7200Y1735D01*
X2220Y2169D02*
X1929Y2169D01*
X2366Y2023D02*
X2220Y2169D01*
G54D22*
X8763Y3476D02*
X8602Y3638D01*
X8173Y5094D02*
X7027Y5094D01*
X8602Y4665D02*
X8173Y5094D01*
X8602Y3638D02*
X8602Y4665D01*
X9019Y3220D02*
X8763Y3476D01*
X5763Y4480D02*
X6413Y4480D01*
X6413Y4480D02*
X7027Y5094D01*
X5247Y4995D02*
X5763Y4480D01*
X1968Y6503D02*
X1968Y6685D01*
X5247Y4995D02*
X2763Y4995D01*
X2649Y5110D02*
X2649Y5822D01*
X2763Y4995D02*
X2649Y5110D01*
X2649Y5822D02*
X1968Y6503D01*
X9023Y3220D02*
X9019Y3220D01*
G54D20*
X9023Y3220D02*
X9023Y3220D01*
X9023Y3220D02*
X9441Y2802D01*
X1322Y6984D02*
X779Y7527D01*
X1322Y6984D02*
X779Y7527D01*
G54D22*
X1449Y6355D02*
X1322Y6481D01*
X5409Y3984D02*
X5409Y4341D01*
X5409Y4341D02*
X5076Y4675D01*
X5076Y4675D02*
X2497Y4675D01*
X2497Y4675D02*
X2316Y4856D01*
X2316Y4856D02*
X2316Y5488D01*
X2316Y5488D02*
X1449Y6355D01*
X1322Y6481D02*
X1322Y6978D01*
G54D20*
X779Y5952D02*
X1027Y5952D01*
X1929Y5051D02*
X1929Y4582D01*
X1027Y5952D02*
X1929Y5051D01*
G54D10*
G36*
X9011Y8692D02*
X8909Y8590D01*
X8878Y8545D01*
X8868Y8492D01*
X8868Y8203D01*
X8657Y7992D01*
X7750Y7992D01*
X7141Y8600D01*
X7096Y8631D01*
X7043Y8641D01*
X6734Y8641D01*
X6680Y8631D01*
X6635Y8600D01*
X6508Y8473D01*
X6484Y8483D01*
X6374Y8483D01*
X6273Y8441D01*
X6269Y8437D01*
X5680Y8437D01*
X5543Y8299D01*
X5543Y8244D01*
X5528Y8208D01*
X5528Y8099D01*
X5543Y8063D01*
X5543Y7842D01*
X5673Y7711D01*
X5674Y7709D01*
X5704Y7664D01*
X6232Y7136D01*
X6232Y6860D01*
X6216Y6844D01*
X6174Y6743D01*
X6174Y6634D01*
X6215Y6533D01*
X6232Y6517D01*
X6232Y6440D01*
X6329Y6440D01*
X6393Y6414D01*
X6500Y6414D01*
X6933Y5981D01*
X6933Y5480D01*
X6451Y4999D01*
X6443Y5008D01*
X6342Y5050D01*
X6233Y5050D01*
X6132Y5008D01*
X6103Y4980D01*
X5892Y4980D01*
X5601Y5271D01*
X5552Y5304D01*
X5495Y5315D01*
X2969Y5315D01*
X2969Y5896D01*
X2957Y5954D01*
X2937Y5985D01*
X2937Y6012D01*
X2488Y6460D01*
X2488Y6842D01*
X2385Y6945D01*
X2385Y6998D01*
X2412Y7064D01*
X2413Y7173D01*
X2385Y7239D01*
X2385Y7323D01*
X1271Y8437D01*
X1271Y8615D01*
X2971Y8615D01*
X3425Y8161D01*
X3422Y8154D01*
X3422Y8045D01*
X3437Y8008D01*
X3437Y7858D01*
X3561Y7858D01*
X3641Y7824D01*
X3751Y7824D01*
X3832Y7858D01*
X3964Y7858D01*
X3964Y8027D01*
X3971Y8044D01*
X3971Y8153D01*
X3964Y8170D01*
X3964Y8224D01*
X3838Y8350D01*
X3808Y8350D01*
X3751Y8374D01*
X3642Y8374D01*
X3626Y8367D01*
X3140Y8853D01*
X3094Y8883D01*
X3041Y8894D01*
X1568Y8894D01*
X1629Y8955D01*
X1677Y9070D01*
X1677Y9196D01*
X1629Y9312D01*
X1540Y9400D01*
X1513Y9412D01*
X3125Y10800D01*
X3125Y10842D01*
X3149Y10818D01*
X4885Y10818D01*
X4885Y9066D01*
X8641Y9066D01*
X8641Y8945D01*
X8689Y8829D01*
X8778Y8741D01*
X8893Y8692D01*
X9011Y8692D01*
X9011Y8692D01*
G37*
X9011Y8692D02*
X8909Y8590D01*
X8878Y8545D01*
X8868Y8492D01*
X8868Y8203D01*
X8657Y7992D01*
X7750Y7992D01*
X7141Y8600D01*
X7096Y8631D01*
X7043Y8641D01*
X6734Y8641D01*
X6680Y8631D01*
X6635Y8600D01*
X6508Y8473D01*
X6484Y8483D01*
X6374Y8483D01*
X6273Y8441D01*
X6269Y8437D01*
X5680Y8437D01*
X5543Y8299D01*
X5543Y8244D01*
X5528Y8208D01*
X5528Y8099D01*
X5543Y8063D01*
X5543Y7842D01*
X5673Y7711D01*
X5674Y7709D01*
X5704Y7664D01*
X6232Y7136D01*
X6232Y6860D01*
X6216Y6844D01*
X6174Y6743D01*
X6174Y6634D01*
X6215Y6533D01*
X6232Y6517D01*
X6232Y6440D01*
X6329Y6440D01*
X6393Y6414D01*
X6500Y6414D01*
X6933Y5981D01*
X6933Y5480D01*
X6451Y4999D01*
X6443Y5008D01*
X6342Y5050D01*
X6233Y5050D01*
X6132Y5008D01*
X6103Y4980D01*
X5892Y4980D01*
X5601Y5271D01*
X5552Y5304D01*
X5495Y5315D01*
X2969Y5315D01*
X2969Y5896D01*
X2957Y5954D01*
X2937Y5985D01*
X2937Y6012D01*
X2488Y6460D01*
X2488Y6842D01*
X2385Y6945D01*
X2385Y6998D01*
X2412Y7064D01*
X2413Y7173D01*
X2385Y7239D01*
X2385Y7323D01*
X1271Y8437D01*
X1271Y8615D01*
X2971Y8615D01*
X3425Y8161D01*
X3422Y8154D01*
X3422Y8045D01*
X3437Y8008D01*
X3437Y7858D01*
X3561Y7858D01*
X3641Y7824D01*
X3751Y7824D01*
X3832Y7858D01*
X3964Y7858D01*
X3964Y8027D01*
X3971Y8044D01*
X3971Y8153D01*
X3964Y8170D01*
X3964Y8224D01*
X3838Y8350D01*
X3808Y8350D01*
X3751Y8374D01*
X3642Y8374D01*
X3626Y8367D01*
X3140Y8853D01*
X3094Y8883D01*
X3041Y8894D01*
X1568Y8894D01*
X1629Y8955D01*
X1677Y9070D01*
X1677Y9196D01*
X1629Y9312D01*
X1540Y9400D01*
X1513Y9412D01*
X3125Y10800D01*
X3125Y10842D01*
X3149Y10818D01*
X4885Y10818D01*
X4885Y9066D01*
X8641Y9066D01*
X8641Y8945D01*
X8689Y8829D01*
X8778Y8741D01*
X8893Y8692D01*
X9011Y8692D01*
M02*
