%FSLAX34Y34*%
G04 Gerber Fmt 3.4, Leading zero omitted, Abs format*
G04 (created by PCBNEW (2013-12-14 BZR 4555)-product) date Tue 24 Dec 2013 00:35:11 EST*
%MOIN*%
G01*
G70*
G90*
G04 APERTURE LIST*
%ADD10C,0.003937*%
%ADD11C,0.007874*%
%ADD12C,0.009843*%
%ADD13C,0.008000*%
%ADD14C,0.010000*%
%ADD15C,0.004921*%
G04 APERTURE END LIST*
G54D10*
G54D11*
X3089Y-284D02*
X3029Y-284D01*
X2999Y-299D01*
X2969Y-329D01*
X2954Y-389D01*
X2954Y-494D01*
X2969Y-554D01*
X2999Y-584D01*
X3029Y-599D01*
X3089Y-599D01*
X3119Y-584D01*
X3149Y-554D01*
X3164Y-494D01*
X3164Y-389D01*
X3149Y-329D01*
X3119Y-299D01*
X3089Y-284D01*
X2819Y-389D02*
X2819Y-704D01*
X2819Y-404D02*
X2789Y-389D01*
X2729Y-389D01*
X2699Y-404D01*
X2684Y-419D01*
X2669Y-449D01*
X2669Y-539D01*
X2684Y-569D01*
X2699Y-584D01*
X2729Y-599D01*
X2789Y-599D01*
X2819Y-584D01*
X2414Y-584D02*
X2444Y-599D01*
X2504Y-599D01*
X2534Y-584D01*
X2549Y-554D01*
X2549Y-434D01*
X2534Y-404D01*
X2504Y-389D01*
X2444Y-389D01*
X2414Y-404D01*
X2399Y-434D01*
X2399Y-464D01*
X2549Y-494D01*
X2264Y-389D02*
X2264Y-599D01*
X2264Y-419D02*
X2249Y-404D01*
X2219Y-389D01*
X2174Y-389D01*
X2144Y-404D01*
X2129Y-434D01*
X2129Y-599D01*
X1979Y-599D02*
X1979Y-284D01*
X1979Y-434D02*
X1799Y-434D01*
X1799Y-599D02*
X1799Y-284D01*
X1514Y-599D02*
X1514Y-434D01*
X1529Y-404D01*
X1559Y-389D01*
X1619Y-389D01*
X1649Y-404D01*
X1514Y-584D02*
X1544Y-599D01*
X1619Y-599D01*
X1649Y-584D01*
X1664Y-554D01*
X1664Y-524D01*
X1649Y-494D01*
X1619Y-479D01*
X1544Y-479D01*
X1514Y-464D01*
X1364Y-599D02*
X1364Y-389D01*
X1364Y-449D02*
X1349Y-419D01*
X1334Y-404D01*
X1304Y-389D01*
X1274Y-389D01*
X1034Y-599D02*
X1034Y-284D01*
X1034Y-584D02*
X1064Y-599D01*
X1124Y-599D01*
X1154Y-584D01*
X1169Y-569D01*
X1184Y-539D01*
X1184Y-449D01*
X1169Y-419D01*
X1154Y-404D01*
X1124Y-389D01*
X1064Y-389D01*
X1034Y-404D01*
X914Y-389D02*
X854Y-599D01*
X794Y-449D01*
X734Y-599D01*
X674Y-389D01*
X419Y-599D02*
X419Y-434D01*
X434Y-404D01*
X464Y-389D01*
X524Y-389D01*
X554Y-404D01*
X419Y-584D02*
X449Y-599D01*
X524Y-599D01*
X554Y-584D01*
X569Y-554D01*
X569Y-524D01*
X554Y-494D01*
X524Y-479D01*
X449Y-479D01*
X419Y-464D01*
X269Y-599D02*
X269Y-389D01*
X269Y-449D02*
X254Y-419D01*
X239Y-404D01*
X209Y-389D01*
X179Y-389D01*
X-45Y-584D02*
X-15Y-599D01*
X44Y-599D01*
X74Y-584D01*
X89Y-554D01*
X89Y-434D01*
X74Y-404D01*
X44Y-389D01*
X-15Y-389D01*
X-45Y-404D01*
X-60Y-434D01*
X-60Y-464D01*
X89Y-494D01*
X3149Y-803D02*
X3149Y-1058D01*
X3134Y-1088D01*
X3119Y-1103D01*
X3089Y-1118D01*
X3029Y-1118D01*
X2999Y-1103D01*
X2984Y-1088D01*
X2969Y-1058D01*
X2969Y-803D01*
X2819Y-908D02*
X2819Y-1118D01*
X2819Y-938D02*
X2804Y-923D01*
X2774Y-908D01*
X2729Y-908D01*
X2699Y-923D01*
X2684Y-953D01*
X2684Y-1118D01*
X2399Y-1118D02*
X2399Y-803D01*
X2399Y-1103D02*
X2429Y-1118D01*
X2489Y-1118D01*
X2519Y-1103D01*
X2534Y-1088D01*
X2549Y-1058D01*
X2549Y-968D01*
X2534Y-938D01*
X2519Y-923D01*
X2489Y-908D01*
X2429Y-908D01*
X2399Y-923D01*
X2129Y-1103D02*
X2159Y-1118D01*
X2219Y-1118D01*
X2249Y-1103D01*
X2264Y-1073D01*
X2264Y-953D01*
X2249Y-923D01*
X2219Y-908D01*
X2159Y-908D01*
X2129Y-923D01*
X2114Y-953D01*
X2114Y-983D01*
X2264Y-1013D01*
X1979Y-1118D02*
X1979Y-908D01*
X1979Y-968D02*
X1964Y-938D01*
X1949Y-923D01*
X1919Y-908D01*
X1889Y-908D01*
X3194Y-1323D02*
X3014Y-1323D01*
X3104Y-1638D02*
X3104Y-1323D01*
X2924Y-1548D02*
X2774Y-1548D01*
X2954Y-1638D02*
X2849Y-1323D01*
X2744Y-1638D01*
X2639Y-1638D02*
X2639Y-1323D01*
X2519Y-1323D01*
X2489Y-1338D01*
X2474Y-1353D01*
X2459Y-1383D01*
X2459Y-1428D01*
X2474Y-1458D01*
X2489Y-1473D01*
X2519Y-1488D01*
X2639Y-1488D01*
X2144Y-1638D02*
X2249Y-1488D01*
X2324Y-1638D02*
X2324Y-1323D01*
X2204Y-1323D01*
X2174Y-1338D01*
X2159Y-1353D01*
X2144Y-1383D01*
X2144Y-1428D01*
X2159Y-1458D01*
X2174Y-1473D01*
X2204Y-1488D01*
X2324Y-1488D01*
X1709Y-1323D02*
X1649Y-1323D01*
X1619Y-1338D01*
X1589Y-1368D01*
X1574Y-1428D01*
X1574Y-1533D01*
X1589Y-1593D01*
X1619Y-1623D01*
X1649Y-1638D01*
X1709Y-1638D01*
X1739Y-1623D01*
X1769Y-1593D01*
X1784Y-1533D01*
X1784Y-1428D01*
X1769Y-1368D01*
X1739Y-1338D01*
X1709Y-1323D01*
X1439Y-1638D02*
X1439Y-1323D01*
X1439Y-1473D02*
X1259Y-1473D01*
X1259Y-1638D02*
X1259Y-1323D01*
X959Y-1638D02*
X1109Y-1638D01*
X1109Y-1323D01*
X3194Y-1948D02*
X3074Y-1948D01*
X3149Y-1843D02*
X3149Y-2113D01*
X3134Y-2143D01*
X3104Y-2158D01*
X3074Y-2158D01*
X2834Y-2158D02*
X2834Y-1993D01*
X2849Y-1963D01*
X2879Y-1948D01*
X2939Y-1948D01*
X2969Y-1963D01*
X2834Y-2143D02*
X2864Y-2158D01*
X2939Y-2158D01*
X2969Y-2143D01*
X2984Y-2113D01*
X2984Y-2083D01*
X2969Y-2053D01*
X2939Y-2038D01*
X2864Y-2038D01*
X2834Y-2023D01*
X2684Y-1948D02*
X2684Y-2263D01*
X2684Y-1963D02*
X2654Y-1948D01*
X2594Y-1948D01*
X2564Y-1963D01*
X2549Y-1978D01*
X2534Y-2008D01*
X2534Y-2098D01*
X2549Y-2128D01*
X2564Y-2143D01*
X2594Y-2158D01*
X2654Y-2158D01*
X2684Y-2143D01*
X2399Y-2158D02*
X2399Y-1948D01*
X2399Y-2008D02*
X2384Y-1978D01*
X2369Y-1963D01*
X2339Y-1948D01*
X2309Y-1948D01*
X2204Y-2128D02*
X2189Y-2143D01*
X2204Y-2158D01*
X2219Y-2143D01*
X2204Y-2128D01*
X2204Y-2158D01*
X2009Y-2158D02*
X2039Y-2143D01*
X2054Y-2128D01*
X2069Y-2098D01*
X2069Y-2008D01*
X2054Y-1978D01*
X2039Y-1963D01*
X2009Y-1948D01*
X1964Y-1948D01*
X1934Y-1963D01*
X1919Y-1978D01*
X1904Y-2008D01*
X1904Y-2098D01*
X1919Y-2128D01*
X1934Y-2143D01*
X1964Y-2158D01*
X2009Y-2158D01*
X1769Y-2158D02*
X1769Y-1948D01*
X1769Y-2008D02*
X1754Y-1978D01*
X1739Y-1963D01*
X1709Y-1948D01*
X1679Y-1948D01*
X1439Y-1948D02*
X1439Y-2203D01*
X1454Y-2233D01*
X1469Y-2248D01*
X1499Y-2263D01*
X1544Y-2263D01*
X1574Y-2248D01*
X1439Y-2143D02*
X1469Y-2158D01*
X1529Y-2158D01*
X1559Y-2143D01*
X1574Y-2128D01*
X1589Y-2098D01*
X1589Y-2008D01*
X1574Y-1978D01*
X1559Y-1963D01*
X1529Y-1948D01*
X1469Y-1948D01*
X1439Y-1963D01*
X1064Y-1828D02*
X1334Y-2233D01*
X899Y-1843D02*
X839Y-1843D01*
X809Y-1858D01*
X779Y-1888D01*
X764Y-1948D01*
X764Y-2053D01*
X779Y-2113D01*
X809Y-2143D01*
X839Y-2158D01*
X899Y-2158D01*
X929Y-2143D01*
X959Y-2113D01*
X974Y-2053D01*
X974Y-1948D01*
X959Y-1888D01*
X929Y-1858D01*
X899Y-1843D01*
X629Y-2158D02*
X629Y-1843D01*
X629Y-1993D02*
X449Y-1993D01*
X449Y-2158D02*
X449Y-1843D01*
X149Y-2158D02*
X299Y-2158D01*
X299Y-1843D01*
G54D12*
X3130Y1914D02*
X3130Y2308D01*
X2999Y2026D01*
X2868Y2308D01*
X2868Y1914D01*
X2530Y1933D02*
X2568Y1914D01*
X2643Y1914D01*
X2680Y1933D01*
X2699Y1970D01*
X2699Y2120D01*
X2680Y2158D01*
X2643Y2176D01*
X2568Y2176D01*
X2530Y2158D01*
X2511Y2120D01*
X2511Y2083D01*
X2699Y2045D01*
X2362Y1933D02*
X2324Y1914D01*
X2249Y1914D01*
X2212Y1933D01*
X2193Y1970D01*
X2193Y1989D01*
X2212Y2026D01*
X2249Y2045D01*
X2305Y2045D01*
X2343Y2064D01*
X2362Y2101D01*
X2362Y2120D01*
X2343Y2158D01*
X2305Y2176D01*
X2249Y2176D01*
X2212Y2158D01*
X2024Y1914D02*
X2024Y2308D01*
X1855Y1914D02*
X1855Y2120D01*
X1874Y2158D01*
X1912Y2176D01*
X1968Y2176D01*
X2005Y2158D01*
X2024Y2139D01*
X1724Y2308D02*
X1499Y2308D01*
X1612Y1914D02*
X1612Y2308D01*
X1368Y1914D02*
X1368Y2308D01*
X1199Y1914D02*
X1199Y2120D01*
X1218Y2158D01*
X1255Y2176D01*
X1312Y2176D01*
X1349Y2158D01*
X1368Y2139D01*
X1012Y1914D02*
X1012Y2176D01*
X1012Y2308D02*
X1030Y2289D01*
X1012Y2270D01*
X993Y2289D01*
X1012Y2308D01*
X1012Y2270D01*
X824Y2176D02*
X824Y1914D01*
X824Y2139D02*
X805Y2158D01*
X768Y2176D01*
X712Y2176D01*
X674Y2158D01*
X655Y2120D01*
X655Y1914D01*
X299Y2176D02*
X299Y1858D01*
X318Y1820D01*
X337Y1801D01*
X374Y1783D01*
X431Y1783D01*
X468Y1801D01*
X299Y1933D02*
X337Y1914D01*
X412Y1914D01*
X449Y1933D01*
X468Y1951D01*
X487Y1989D01*
X487Y2101D01*
X468Y2139D01*
X449Y2158D01*
X412Y2176D01*
X337Y2176D01*
X299Y2158D01*
X-150Y2176D02*
X-243Y1914D01*
X-337Y2176D01*
X-468Y2270D02*
X-487Y2289D01*
X-525Y2308D01*
X-618Y2308D01*
X-656Y2289D01*
X-675Y2270D01*
X-693Y2233D01*
X-693Y2195D01*
X-675Y2139D01*
X-450Y1914D01*
X-693Y1914D01*
X-862Y1951D02*
X-881Y1933D01*
X-862Y1914D01*
X-843Y1933D01*
X-862Y1951D01*
X-862Y1914D01*
X-1125Y2308D02*
X-1162Y2308D01*
X-1200Y2289D01*
X-1218Y2270D01*
X-1237Y2233D01*
X-1256Y2158D01*
X-1256Y2064D01*
X-1237Y1989D01*
X-1218Y1951D01*
X-1200Y1933D01*
X-1162Y1914D01*
X-1125Y1914D01*
X-1087Y1933D01*
X-1068Y1951D01*
X-1050Y1989D01*
X-1031Y2064D01*
X-1031Y2158D01*
X-1050Y2233D01*
X-1068Y2270D01*
X-1087Y2289D01*
X-1125Y2308D01*
X2811Y1564D02*
X2849Y1583D01*
X2924Y1583D01*
X2961Y1564D01*
X2999Y1527D01*
X3018Y1489D01*
X3018Y1414D01*
X2999Y1377D01*
X2961Y1339D01*
X2924Y1321D01*
X2849Y1321D01*
X2811Y1339D01*
X2886Y1714D02*
X2980Y1696D01*
X3074Y1639D01*
X3130Y1546D01*
X3149Y1452D01*
X3130Y1358D01*
X3074Y1264D01*
X2980Y1208D01*
X2886Y1189D01*
X2793Y1208D01*
X2699Y1264D01*
X2643Y1358D01*
X2624Y1452D01*
X2643Y1546D01*
X2699Y1639D01*
X2793Y1696D01*
X2886Y1714D01*
X2155Y1264D02*
X2155Y1658D01*
X2024Y1377D01*
X1893Y1658D01*
X1893Y1264D01*
X1687Y1264D02*
X1612Y1264D01*
X1574Y1283D01*
X1555Y1302D01*
X1518Y1358D01*
X1499Y1433D01*
X1499Y1583D01*
X1518Y1621D01*
X1537Y1639D01*
X1574Y1658D01*
X1649Y1658D01*
X1687Y1639D01*
X1705Y1621D01*
X1724Y1583D01*
X1724Y1489D01*
X1705Y1452D01*
X1687Y1433D01*
X1649Y1414D01*
X1574Y1414D01*
X1537Y1433D01*
X1518Y1452D01*
X1499Y1489D01*
X1330Y1264D02*
X1330Y1658D01*
X1237Y1658D01*
X1180Y1639D01*
X1143Y1602D01*
X1124Y1564D01*
X1105Y1489D01*
X1105Y1433D01*
X1124Y1358D01*
X1143Y1321D01*
X1180Y1283D01*
X1237Y1264D01*
X1330Y1264D01*
X787Y1283D02*
X824Y1264D01*
X899Y1264D01*
X937Y1283D01*
X955Y1321D01*
X955Y1471D01*
X937Y1508D01*
X899Y1527D01*
X824Y1527D01*
X787Y1508D01*
X768Y1471D01*
X768Y1433D01*
X955Y1396D01*
X618Y1283D02*
X580Y1264D01*
X505Y1264D01*
X468Y1283D01*
X449Y1321D01*
X449Y1339D01*
X468Y1377D01*
X505Y1396D01*
X562Y1396D01*
X599Y1414D01*
X618Y1452D01*
X618Y1471D01*
X599Y1508D01*
X562Y1527D01*
X505Y1527D01*
X468Y1508D01*
X281Y1264D02*
X281Y1527D01*
X281Y1658D02*
X299Y1639D01*
X281Y1621D01*
X262Y1639D01*
X281Y1658D01*
X281Y1621D01*
X-75Y1527D02*
X-75Y1208D01*
X-56Y1171D01*
X-37Y1152D01*
X0Y1133D01*
X56Y1133D01*
X93Y1152D01*
X-75Y1283D02*
X-37Y1264D01*
X37Y1264D01*
X74Y1283D01*
X93Y1302D01*
X112Y1339D01*
X112Y1452D01*
X93Y1489D01*
X74Y1508D01*
X37Y1527D01*
X-37Y1527D01*
X-75Y1508D01*
X-262Y1527D02*
X-262Y1264D01*
X-262Y1489D02*
X-281Y1508D01*
X-318Y1527D01*
X-375Y1527D01*
X-412Y1508D01*
X-431Y1471D01*
X-431Y1264D01*
X-618Y1302D02*
X-637Y1283D01*
X-618Y1264D01*
X-600Y1283D01*
X-618Y1302D01*
X-618Y1264D01*
X-975Y1283D02*
X-937Y1264D01*
X-862Y1264D01*
X-825Y1283D01*
X-806Y1302D01*
X-787Y1339D01*
X-787Y1452D01*
X-806Y1489D01*
X-825Y1508D01*
X-862Y1527D01*
X-937Y1527D01*
X-975Y1508D01*
X-1200Y1264D02*
X-1162Y1283D01*
X-1143Y1302D01*
X-1125Y1339D01*
X-1125Y1452D01*
X-1143Y1489D01*
X-1162Y1508D01*
X-1200Y1527D01*
X-1256Y1527D01*
X-1293Y1508D01*
X-1312Y1489D01*
X-1331Y1452D01*
X-1331Y1339D01*
X-1312Y1302D01*
X-1293Y1283D01*
X-1256Y1264D01*
X-1200Y1264D01*
X-1781Y1621D02*
X-1799Y1639D01*
X-1837Y1658D01*
X-1931Y1658D01*
X-1968Y1639D01*
X-1987Y1621D01*
X-2006Y1583D01*
X-2006Y1546D01*
X-1987Y1489D01*
X-1762Y1264D01*
X-2006Y1264D01*
X-2249Y1658D02*
X-2287Y1658D01*
X-2324Y1639D01*
X-2343Y1621D01*
X-2362Y1583D01*
X-2381Y1508D01*
X-2381Y1414D01*
X-2362Y1339D01*
X-2343Y1302D01*
X-2324Y1283D01*
X-2287Y1264D01*
X-2249Y1264D01*
X-2212Y1283D01*
X-2193Y1302D01*
X-2174Y1339D01*
X-2156Y1414D01*
X-2156Y1508D01*
X-2174Y1583D01*
X-2193Y1621D01*
X-2212Y1639D01*
X-2249Y1658D01*
X-2756Y1264D02*
X-2531Y1264D01*
X-2643Y1264D02*
X-2643Y1658D01*
X-2606Y1602D01*
X-2568Y1564D01*
X-2531Y1546D01*
X-2887Y1658D02*
X-3131Y1658D01*
X-2999Y1508D01*
X-3056Y1508D01*
X-3093Y1489D01*
X-3112Y1471D01*
X-3131Y1433D01*
X-3131Y1339D01*
X-3112Y1302D01*
X-3093Y1283D01*
X-3056Y1264D01*
X-2943Y1264D01*
X-2906Y1283D01*
X-2887Y1302D01*
X3130Y615D02*
X3130Y1008D01*
X3036Y1008D01*
X2980Y990D01*
X2943Y952D01*
X2924Y915D01*
X2905Y840D01*
X2905Y783D01*
X2924Y708D01*
X2943Y671D01*
X2980Y633D01*
X3036Y615D01*
X3130Y615D01*
X2586Y633D02*
X2624Y615D01*
X2699Y615D01*
X2736Y633D01*
X2755Y671D01*
X2755Y821D01*
X2736Y858D01*
X2699Y877D01*
X2624Y877D01*
X2586Y858D01*
X2568Y821D01*
X2568Y783D01*
X2755Y746D01*
X2418Y633D02*
X2380Y615D01*
X2305Y615D01*
X2268Y633D01*
X2249Y671D01*
X2249Y690D01*
X2268Y727D01*
X2305Y746D01*
X2362Y746D01*
X2399Y765D01*
X2418Y802D01*
X2418Y821D01*
X2399Y858D01*
X2362Y877D01*
X2305Y877D01*
X2268Y858D01*
X2080Y615D02*
X2080Y877D01*
X2080Y1008D02*
X2099Y990D01*
X2080Y971D01*
X2062Y990D01*
X2080Y1008D01*
X2080Y971D01*
X1724Y877D02*
X1724Y558D01*
X1743Y521D01*
X1762Y502D01*
X1799Y483D01*
X1855Y483D01*
X1893Y502D01*
X1724Y633D02*
X1762Y615D01*
X1837Y615D01*
X1874Y633D01*
X1893Y652D01*
X1912Y690D01*
X1912Y802D01*
X1893Y840D01*
X1874Y858D01*
X1837Y877D01*
X1762Y877D01*
X1724Y858D01*
X1537Y877D02*
X1537Y615D01*
X1537Y840D02*
X1518Y858D01*
X1480Y877D01*
X1424Y877D01*
X1387Y858D01*
X1368Y821D01*
X1368Y615D01*
X1030Y633D02*
X1068Y615D01*
X1143Y615D01*
X1180Y633D01*
X1199Y671D01*
X1199Y821D01*
X1180Y858D01*
X1143Y877D01*
X1068Y877D01*
X1030Y858D01*
X1012Y821D01*
X1012Y783D01*
X1199Y746D01*
X674Y615D02*
X674Y1008D01*
X674Y633D02*
X712Y615D01*
X787Y615D01*
X824Y633D01*
X843Y652D01*
X862Y690D01*
X862Y802D01*
X843Y840D01*
X824Y858D01*
X787Y877D01*
X712Y877D01*
X674Y858D01*
X187Y615D02*
X187Y1008D01*
X187Y858D02*
X149Y877D01*
X74Y877D01*
X37Y858D01*
X18Y840D01*
X0Y802D01*
X0Y690D01*
X18Y652D01*
X37Y633D01*
X74Y615D01*
X149Y615D01*
X187Y633D01*
X-131Y877D02*
X-225Y615D01*
X-318Y877D02*
X-225Y615D01*
X-187Y521D01*
X-168Y502D01*
X-131Y483D01*
X2905Y-34D02*
X3036Y153D01*
X3130Y-34D02*
X3130Y359D01*
X2980Y359D01*
X2943Y340D01*
X2924Y321D01*
X2905Y284D01*
X2905Y228D01*
X2924Y190D01*
X2943Y171D01*
X2980Y153D01*
X3130Y153D01*
X2680Y-34D02*
X2718Y-15D01*
X2736Y3D01*
X2755Y40D01*
X2755Y153D01*
X2736Y190D01*
X2718Y209D01*
X2680Y228D01*
X2624Y228D01*
X2586Y209D01*
X2568Y190D01*
X2549Y153D01*
X2549Y40D01*
X2568Y3D01*
X2586Y-15D01*
X2624Y-34D01*
X2680Y-34D01*
X2380Y-34D02*
X2380Y359D01*
X2380Y209D02*
X2343Y228D01*
X2268Y228D01*
X2230Y209D01*
X2212Y190D01*
X2193Y153D01*
X2193Y40D01*
X2212Y3D01*
X2230Y-15D01*
X2268Y-34D01*
X2343Y-34D01*
X2380Y-15D01*
X1874Y-15D02*
X1912Y-34D01*
X1987Y-34D01*
X2024Y-15D01*
X2043Y21D01*
X2043Y171D01*
X2024Y209D01*
X1987Y228D01*
X1912Y228D01*
X1874Y209D01*
X1855Y171D01*
X1855Y134D01*
X2043Y96D01*
X1687Y-34D02*
X1687Y228D01*
X1687Y153D02*
X1668Y190D01*
X1649Y209D01*
X1612Y228D01*
X1574Y228D01*
X1499Y228D02*
X1349Y228D01*
X1443Y359D02*
X1443Y21D01*
X1424Y-15D01*
X1387Y-34D01*
X1349Y-34D01*
X918Y-34D02*
X918Y359D01*
X768Y359D01*
X730Y340D01*
X712Y321D01*
X693Y284D01*
X693Y228D01*
X712Y190D01*
X730Y171D01*
X768Y153D01*
X918Y153D01*
X468Y-34D02*
X505Y-15D01*
X524Y3D01*
X543Y40D01*
X543Y153D01*
X524Y190D01*
X505Y209D01*
X468Y228D01*
X412Y228D01*
X374Y209D01*
X356Y190D01*
X337Y153D01*
X337Y40D01*
X356Y3D01*
X374Y-15D01*
X412Y-34D01*
X468Y-34D01*
X206Y228D02*
X131Y-34D01*
X56Y153D01*
X-18Y-34D01*
X-93Y228D01*
X-393Y-15D02*
X-356Y-34D01*
X-281Y-34D01*
X-243Y-15D01*
X-225Y21D01*
X-225Y171D01*
X-243Y209D01*
X-281Y228D01*
X-356Y228D01*
X-393Y209D01*
X-412Y171D01*
X-412Y134D01*
X-225Y96D01*
X-581Y-34D02*
X-581Y228D01*
X-581Y153D02*
X-600Y190D01*
X-618Y209D01*
X-656Y228D01*
X-693Y228D01*
X-806Y-15D02*
X-843Y-34D01*
X-918Y-34D01*
X-956Y-15D01*
X-975Y21D01*
X-975Y40D01*
X-956Y78D01*
X-918Y96D01*
X-862Y96D01*
X-825Y115D01*
X-806Y153D01*
X-806Y171D01*
X-825Y209D01*
X-862Y228D01*
X-918Y228D01*
X-956Y209D01*
G54D10*
X2834Y-3807D02*
G75*
G03X2834Y-3807I-295J0D01*
G74*
G01*
X-2346Y-3799D02*
G75*
G03X-2346Y-3799I-295J0D01*
G74*
G01*
X3657Y2610D02*
G75*
G03X3657Y2610I-295J0D01*
G74*
G01*
G54D13*
X-574Y-3255D02*
X-2251Y-3255D01*
X-2566Y-255D02*
X-2570Y-2937D01*
X-2566Y-2940D02*
X-2251Y-3255D01*
G54D14*
X-2442Y-3248D02*
G75*
G03X-2442Y-3248I-98J0D01*
G74*
G01*
G54D13*
X-566Y-3255D02*
X-566Y-255D01*
X-566Y-255D02*
X-2566Y-255D01*
G54D15*
X-1276Y-3655D02*
X-1276Y-3459D01*
X-1482Y-3637D02*
X-1473Y-3646D01*
X-1445Y-3655D01*
X-1426Y-3655D01*
X-1398Y-3646D01*
X-1379Y-3627D01*
X-1370Y-3609D01*
X-1360Y-3571D01*
X-1360Y-3543D01*
X-1370Y-3505D01*
X-1379Y-3487D01*
X-1398Y-3468D01*
X-1426Y-3459D01*
X-1445Y-3459D01*
X-1473Y-3468D01*
X-1482Y-3477D01*
X-1557Y-3646D02*
X-1585Y-3655D01*
X-1632Y-3655D01*
X-1651Y-3646D01*
X-1660Y-3637D01*
X-1670Y-3618D01*
X-1670Y-3599D01*
X-1660Y-3580D01*
X-1651Y-3571D01*
X-1632Y-3562D01*
X-1595Y-3552D01*
X-1576Y-3543D01*
X-1566Y-3534D01*
X-1557Y-3515D01*
X-1557Y-3496D01*
X-1566Y-3477D01*
X-1576Y-3468D01*
X-1595Y-3459D01*
X-1641Y-3459D01*
X-1670Y-3468D01*
X-1754Y-3655D02*
X-1754Y-3459D01*
X-1829Y-3459D01*
X-1848Y-3468D01*
X-1857Y-3477D01*
X-1866Y-3496D01*
X-1866Y-3524D01*
X-1857Y-3543D01*
X-1848Y-3552D01*
X-1829Y-3562D01*
X-1754Y-3562D01*
M02*
