G04 (created by PCBNEW (2013-mar-13)-testing) date Thu 17 Oct 2013 16:03:04 EST*
%MOIN*%
G04 Gerber Fmt 3.4, Leading zero omitted, Abs format*
%FSLAX34Y34*%
G01*
G70*
G90*
G04 APERTURE LIST*
%ADD10C,0.003937*%
%ADD11C,0.000100*%
%ADD12C,0.007000*%
%ADD13C,0.003445*%
%ADD14C,0.002953*%
%ADD15C,0.004921*%
%ADD16C,0.008000*%
G04 APERTURE END LIST*
G54D10*
X7378Y10580D02*
X7401Y10592D01*
X7446Y10592D01*
X7468Y10580D01*
X7491Y10558D01*
X7502Y10535D01*
X7502Y10491D01*
X7491Y10468D01*
X7468Y10446D01*
X7446Y10434D01*
X7401Y10434D01*
X7378Y10446D01*
X7423Y10670D02*
X7479Y10659D01*
X7535Y10625D01*
X7569Y10569D01*
X7580Y10513D01*
X7569Y10457D01*
X7535Y10401D01*
X7479Y10367D01*
X7423Y10356D01*
X7367Y10367D01*
X7311Y10401D01*
X7277Y10457D01*
X7266Y10513D01*
X7277Y10569D01*
X7311Y10625D01*
X7367Y10659D01*
X7423Y10670D01*
X7086Y10524D02*
X7052Y10513D01*
X7041Y10502D01*
X7029Y10479D01*
X7029Y10446D01*
X7041Y10423D01*
X7052Y10412D01*
X7074Y10401D01*
X7164Y10401D01*
X7164Y10637D01*
X7086Y10637D01*
X7063Y10625D01*
X7052Y10614D01*
X7041Y10592D01*
X7041Y10569D01*
X7052Y10547D01*
X7063Y10535D01*
X7086Y10524D01*
X7164Y10524D01*
X6894Y10401D02*
X6917Y10412D01*
X6928Y10423D01*
X6939Y10446D01*
X6939Y10513D01*
X6928Y10535D01*
X6917Y10547D01*
X6894Y10558D01*
X6861Y10558D01*
X6838Y10547D01*
X6827Y10535D01*
X6816Y10513D01*
X6816Y10446D01*
X6827Y10423D01*
X6838Y10412D01*
X6861Y10401D01*
X6894Y10401D01*
X6714Y10401D02*
X6714Y10637D01*
X6714Y10547D02*
X6692Y10558D01*
X6647Y10558D01*
X6624Y10547D01*
X6613Y10535D01*
X6602Y10513D01*
X6602Y10446D01*
X6613Y10423D01*
X6624Y10412D01*
X6647Y10401D01*
X6692Y10401D01*
X6714Y10412D01*
X6501Y10401D02*
X6501Y10637D01*
X6411Y10637D01*
X6388Y10625D01*
X6377Y10614D01*
X6366Y10592D01*
X6366Y10558D01*
X6377Y10535D01*
X6388Y10524D01*
X6411Y10513D01*
X6501Y10513D01*
X6231Y10401D02*
X6253Y10412D01*
X6264Y10423D01*
X6276Y10446D01*
X6276Y10513D01*
X6264Y10535D01*
X6253Y10547D01*
X6231Y10558D01*
X6197Y10558D01*
X6174Y10547D01*
X6163Y10535D01*
X6152Y10513D01*
X6152Y10446D01*
X6163Y10423D01*
X6174Y10412D01*
X6197Y10401D01*
X6231Y10401D01*
X6073Y10558D02*
X6028Y10401D01*
X5983Y10513D01*
X5938Y10401D01*
X5893Y10558D01*
X5713Y10412D02*
X5736Y10401D01*
X5781Y10401D01*
X5803Y10412D01*
X5814Y10434D01*
X5814Y10524D01*
X5803Y10547D01*
X5781Y10558D01*
X5736Y10558D01*
X5713Y10547D01*
X5702Y10524D01*
X5702Y10502D01*
X5814Y10479D01*
X5601Y10401D02*
X5601Y10558D01*
X5601Y10513D02*
X5589Y10535D01*
X5578Y10547D01*
X5556Y10558D01*
X5533Y10558D01*
X5466Y10412D02*
X5443Y10401D01*
X5398Y10401D01*
X5376Y10412D01*
X5365Y10434D01*
X5365Y10446D01*
X5376Y10468D01*
X5398Y10479D01*
X5432Y10479D01*
X5455Y10491D01*
X5466Y10513D01*
X5466Y10524D01*
X5455Y10547D01*
X5432Y10558D01*
X5398Y10558D01*
X5376Y10547D01*
X5095Y10614D02*
X5083Y10625D01*
X5061Y10637D01*
X5005Y10637D01*
X4982Y10625D01*
X4971Y10614D01*
X4960Y10592D01*
X4960Y10569D01*
X4971Y10535D01*
X5106Y10401D01*
X4960Y10401D01*
X4813Y10637D02*
X4791Y10637D01*
X4768Y10625D01*
X4757Y10614D01*
X4746Y10592D01*
X4735Y10547D01*
X4735Y10491D01*
X4746Y10446D01*
X4757Y10423D01*
X4768Y10412D01*
X4791Y10401D01*
X4813Y10401D01*
X4836Y10412D01*
X4847Y10423D01*
X4858Y10446D01*
X4870Y10491D01*
X4870Y10547D01*
X4858Y10592D01*
X4847Y10614D01*
X4836Y10625D01*
X4813Y10637D01*
X4510Y10401D02*
X4645Y10401D01*
X4577Y10401D02*
X4577Y10637D01*
X4600Y10603D01*
X4622Y10580D01*
X4645Y10569D01*
X4431Y10637D02*
X4285Y10637D01*
X4363Y10547D01*
X4330Y10547D01*
X4307Y10535D01*
X4296Y10524D01*
X4285Y10502D01*
X4285Y10446D01*
X4296Y10423D01*
X4307Y10412D01*
X4330Y10401D01*
X4397Y10401D01*
X4420Y10412D01*
X4431Y10423D01*
X7884Y10267D02*
X7839Y10267D01*
X7817Y10255D01*
X7794Y10233D01*
X7783Y10188D01*
X7783Y10109D01*
X7794Y10064D01*
X7817Y10042D01*
X7839Y10030D01*
X7884Y10030D01*
X7907Y10042D01*
X7929Y10064D01*
X7940Y10109D01*
X7940Y10188D01*
X7929Y10233D01*
X7907Y10255D01*
X7884Y10267D01*
X7682Y10188D02*
X7682Y9952D01*
X7682Y10177D02*
X7659Y10188D01*
X7614Y10188D01*
X7592Y10177D01*
X7580Y10165D01*
X7569Y10143D01*
X7569Y10075D01*
X7580Y10053D01*
X7592Y10042D01*
X7614Y10030D01*
X7659Y10030D01*
X7682Y10042D01*
X7378Y10042D02*
X7401Y10030D01*
X7446Y10030D01*
X7468Y10042D01*
X7479Y10064D01*
X7479Y10154D01*
X7468Y10177D01*
X7446Y10188D01*
X7401Y10188D01*
X7378Y10177D01*
X7367Y10154D01*
X7367Y10132D01*
X7479Y10109D01*
X7266Y10188D02*
X7266Y10030D01*
X7266Y10165D02*
X7254Y10177D01*
X7232Y10188D01*
X7198Y10188D01*
X7176Y10177D01*
X7164Y10154D01*
X7164Y10030D01*
X7052Y10030D02*
X7052Y10267D01*
X7052Y10154D02*
X6917Y10154D01*
X6917Y10030D02*
X6917Y10267D01*
X6703Y10030D02*
X6703Y10154D01*
X6714Y10177D01*
X6737Y10188D01*
X6782Y10188D01*
X6804Y10177D01*
X6703Y10042D02*
X6726Y10030D01*
X6782Y10030D01*
X6804Y10042D01*
X6816Y10064D01*
X6816Y10087D01*
X6804Y10109D01*
X6782Y10120D01*
X6726Y10120D01*
X6703Y10132D01*
X6591Y10030D02*
X6591Y10188D01*
X6591Y10143D02*
X6579Y10165D01*
X6568Y10177D01*
X6546Y10188D01*
X6523Y10188D01*
X6343Y10030D02*
X6343Y10267D01*
X6343Y10042D02*
X6366Y10030D01*
X6411Y10030D01*
X6433Y10042D01*
X6444Y10053D01*
X6456Y10075D01*
X6456Y10143D01*
X6444Y10165D01*
X6433Y10177D01*
X6411Y10188D01*
X6366Y10188D01*
X6343Y10177D01*
X6253Y10188D02*
X6208Y10030D01*
X6163Y10143D01*
X6118Y10030D01*
X6073Y10188D01*
X5882Y10030D02*
X5882Y10154D01*
X5893Y10177D01*
X5916Y10188D01*
X5961Y10188D01*
X5983Y10177D01*
X5882Y10042D02*
X5904Y10030D01*
X5961Y10030D01*
X5983Y10042D01*
X5994Y10064D01*
X5994Y10087D01*
X5983Y10109D01*
X5961Y10120D01*
X5904Y10120D01*
X5882Y10132D01*
X5769Y10030D02*
X5769Y10188D01*
X5769Y10143D02*
X5758Y10165D01*
X5747Y10177D01*
X5724Y10188D01*
X5702Y10188D01*
X5533Y10042D02*
X5556Y10030D01*
X5601Y10030D01*
X5623Y10042D01*
X5634Y10064D01*
X5634Y10154D01*
X5623Y10177D01*
X5601Y10188D01*
X5556Y10188D01*
X5533Y10177D01*
X5522Y10154D01*
X5522Y10132D01*
X5634Y10109D01*
X8289Y9897D02*
X8289Y9705D01*
X8278Y9683D01*
X8267Y9672D01*
X8244Y9660D01*
X8199Y9660D01*
X8177Y9672D01*
X8165Y9683D01*
X8154Y9705D01*
X8154Y9897D01*
X8042Y9818D02*
X8042Y9660D01*
X8042Y9795D02*
X8030Y9807D01*
X8008Y9818D01*
X7974Y9818D01*
X7952Y9807D01*
X7940Y9784D01*
X7940Y9660D01*
X7727Y9660D02*
X7727Y9897D01*
X7727Y9672D02*
X7749Y9660D01*
X7794Y9660D01*
X7817Y9672D01*
X7828Y9683D01*
X7839Y9705D01*
X7839Y9773D01*
X7828Y9795D01*
X7817Y9807D01*
X7794Y9818D01*
X7749Y9818D01*
X7727Y9807D01*
X7524Y9672D02*
X7547Y9660D01*
X7592Y9660D01*
X7614Y9672D01*
X7625Y9694D01*
X7625Y9784D01*
X7614Y9807D01*
X7592Y9818D01*
X7547Y9818D01*
X7524Y9807D01*
X7513Y9784D01*
X7513Y9762D01*
X7625Y9739D01*
X7412Y9660D02*
X7412Y9818D01*
X7412Y9773D02*
X7401Y9795D01*
X7389Y9807D01*
X7367Y9818D01*
X7344Y9818D01*
X7119Y9897D02*
X6984Y9897D01*
X7052Y9660D02*
X7052Y9897D01*
X6917Y9728D02*
X6804Y9728D01*
X6939Y9660D02*
X6861Y9897D01*
X6782Y9660D01*
X6703Y9660D02*
X6703Y9897D01*
X6613Y9897D01*
X6591Y9885D01*
X6579Y9874D01*
X6568Y9852D01*
X6568Y9818D01*
X6579Y9795D01*
X6591Y9784D01*
X6613Y9773D01*
X6703Y9773D01*
X6332Y9660D02*
X6411Y9773D01*
X6467Y9660D02*
X6467Y9897D01*
X6377Y9897D01*
X6354Y9885D01*
X6343Y9874D01*
X6332Y9852D01*
X6332Y9818D01*
X6343Y9795D01*
X6354Y9784D01*
X6377Y9773D01*
X6467Y9773D01*
X6006Y9897D02*
X5961Y9897D01*
X5938Y9885D01*
X5916Y9863D01*
X5904Y9818D01*
X5904Y9739D01*
X5916Y9694D01*
X5938Y9672D01*
X5961Y9660D01*
X6006Y9660D01*
X6028Y9672D01*
X6051Y9694D01*
X6062Y9739D01*
X6062Y9818D01*
X6051Y9863D01*
X6028Y9885D01*
X6006Y9897D01*
X5803Y9660D02*
X5803Y9897D01*
X5803Y9784D02*
X5668Y9784D01*
X5668Y9660D02*
X5668Y9897D01*
X5443Y9660D02*
X5556Y9660D01*
X5556Y9897D01*
X8683Y9448D02*
X8593Y9448D01*
X8649Y9526D02*
X8649Y9324D01*
X8638Y9302D01*
X8615Y9290D01*
X8593Y9290D01*
X8413Y9290D02*
X8413Y9414D01*
X8424Y9437D01*
X8447Y9448D01*
X8492Y9448D01*
X8514Y9437D01*
X8413Y9302D02*
X8435Y9290D01*
X8492Y9290D01*
X8514Y9302D01*
X8525Y9324D01*
X8525Y9347D01*
X8514Y9369D01*
X8492Y9380D01*
X8435Y9380D01*
X8413Y9392D01*
X8300Y9448D02*
X8300Y9212D01*
X8300Y9437D02*
X8278Y9448D01*
X8233Y9448D01*
X8210Y9437D01*
X8199Y9425D01*
X8188Y9403D01*
X8188Y9335D01*
X8199Y9313D01*
X8210Y9302D01*
X8233Y9290D01*
X8278Y9290D01*
X8300Y9302D01*
X8087Y9290D02*
X8087Y9448D01*
X8087Y9403D02*
X8075Y9425D01*
X8064Y9437D01*
X8042Y9448D01*
X8019Y9448D01*
X7940Y9313D02*
X7929Y9302D01*
X7940Y9290D01*
X7952Y9302D01*
X7940Y9313D01*
X7940Y9290D01*
X7794Y9290D02*
X7817Y9302D01*
X7828Y9313D01*
X7839Y9335D01*
X7839Y9403D01*
X7828Y9425D01*
X7817Y9437D01*
X7794Y9448D01*
X7760Y9448D01*
X7738Y9437D01*
X7727Y9425D01*
X7715Y9403D01*
X7715Y9335D01*
X7727Y9313D01*
X7738Y9302D01*
X7760Y9290D01*
X7794Y9290D01*
X7614Y9290D02*
X7614Y9448D01*
X7614Y9403D02*
X7603Y9425D01*
X7592Y9437D01*
X7569Y9448D01*
X7547Y9448D01*
X7367Y9448D02*
X7367Y9257D01*
X7378Y9234D01*
X7389Y9223D01*
X7412Y9212D01*
X7446Y9212D01*
X7468Y9223D01*
X7367Y9302D02*
X7389Y9290D01*
X7434Y9290D01*
X7457Y9302D01*
X7468Y9313D01*
X7479Y9335D01*
X7479Y9403D01*
X7468Y9425D01*
X7457Y9437D01*
X7434Y9448D01*
X7389Y9448D01*
X7367Y9437D01*
X7086Y9538D02*
X7288Y9234D01*
X6962Y9526D02*
X6917Y9526D01*
X6894Y9515D01*
X6872Y9493D01*
X6861Y9448D01*
X6861Y9369D01*
X6872Y9324D01*
X6894Y9302D01*
X6917Y9290D01*
X6962Y9290D01*
X6984Y9302D01*
X7007Y9324D01*
X7018Y9369D01*
X7018Y9448D01*
X7007Y9493D01*
X6984Y9515D01*
X6962Y9526D01*
X6759Y9290D02*
X6759Y9526D01*
X6759Y9414D02*
X6624Y9414D01*
X6624Y9290D02*
X6624Y9526D01*
X6399Y9290D02*
X6512Y9290D01*
X6512Y9526D01*
G54D11*
G36*
X3856Y8586D02*
X3866Y8590D01*
X3886Y8604D01*
X3916Y8623D01*
X3951Y8646D01*
X3986Y8670D01*
X4015Y8689D01*
X4035Y8702D01*
X4043Y8707D01*
X4048Y8705D01*
X4065Y8697D01*
X4089Y8685D01*
X4103Y8677D01*
X4125Y8668D01*
X4136Y8666D01*
X4138Y8669D01*
X4146Y8686D01*
X4159Y8715D01*
X4176Y8753D01*
X4195Y8798D01*
X4215Y8847D01*
X4236Y8896D01*
X4255Y8943D01*
X4273Y8986D01*
X4287Y9020D01*
X4296Y9044D01*
X4299Y9055D01*
X4298Y9057D01*
X4287Y9068D01*
X4268Y9082D01*
X4226Y9116D01*
X4184Y9168D01*
X4159Y9226D01*
X4151Y9292D01*
X4158Y9352D01*
X4182Y9410D01*
X4222Y9462D01*
X4271Y9501D01*
X4329Y9525D01*
X4393Y9533D01*
X4454Y9526D01*
X4514Y9503D01*
X4566Y9463D01*
X4588Y9438D01*
X4618Y9385D01*
X4636Y9329D01*
X4638Y9314D01*
X4635Y9252D01*
X4617Y9192D01*
X4584Y9139D01*
X4538Y9095D01*
X4533Y9091D01*
X4511Y9075D01*
X4497Y9064D01*
X4486Y9055D01*
X4565Y8865D01*
X4578Y8834D01*
X4600Y8782D01*
X4619Y8737D01*
X4634Y8702D01*
X4645Y8678D01*
X4649Y8668D01*
X4650Y8668D01*
X4657Y8666D01*
X4671Y8672D01*
X4698Y8685D01*
X4716Y8694D01*
X4736Y8703D01*
X4745Y8707D01*
X4753Y8703D01*
X4772Y8690D01*
X4800Y8671D01*
X4835Y8648D01*
X4867Y8626D01*
X4897Y8606D01*
X4919Y8592D01*
X4929Y8587D01*
X4931Y8587D01*
X4940Y8592D01*
X4957Y8606D01*
X4983Y8631D01*
X5020Y8667D01*
X5026Y8673D01*
X5056Y8703D01*
X5080Y8729D01*
X5097Y8747D01*
X5103Y8756D01*
X5103Y8756D01*
X5097Y8766D01*
X5084Y8788D01*
X5064Y8818D01*
X5040Y8854D01*
X4977Y8945D01*
X5011Y9032D01*
X5022Y9058D01*
X5035Y9091D01*
X5046Y9114D01*
X5051Y9124D01*
X5060Y9127D01*
X5084Y9133D01*
X5118Y9140D01*
X5159Y9147D01*
X5198Y9155D01*
X5233Y9161D01*
X5259Y9166D01*
X5270Y9168D01*
X5273Y9170D01*
X5275Y9176D01*
X5277Y9188D01*
X5278Y9209D01*
X5278Y9243D01*
X5278Y9292D01*
X5278Y9297D01*
X5278Y9344D01*
X5277Y9381D01*
X5276Y9404D01*
X5274Y9414D01*
X5274Y9414D01*
X5263Y9417D01*
X5238Y9422D01*
X5203Y9429D01*
X5161Y9437D01*
X5158Y9437D01*
X5116Y9446D01*
X5081Y9453D01*
X5057Y9458D01*
X5046Y9462D01*
X5044Y9465D01*
X5036Y9481D01*
X5024Y9507D01*
X5010Y9539D01*
X4996Y9572D01*
X4984Y9601D01*
X4976Y9623D01*
X4974Y9633D01*
X4974Y9634D01*
X4980Y9644D01*
X4995Y9665D01*
X5015Y9695D01*
X5039Y9731D01*
X5041Y9734D01*
X5065Y9769D01*
X5085Y9799D01*
X5098Y9821D01*
X5103Y9830D01*
X5103Y9831D01*
X5095Y9841D01*
X5077Y9861D01*
X5051Y9888D01*
X5020Y9920D01*
X5010Y9929D01*
X4976Y9963D01*
X4952Y9985D01*
X4937Y9997D01*
X4930Y9999D01*
X4929Y9999D01*
X4919Y9993D01*
X4896Y9978D01*
X4866Y9958D01*
X4830Y9933D01*
X4828Y9931D01*
X4792Y9907D01*
X4763Y9887D01*
X4742Y9874D01*
X4733Y9868D01*
X4731Y9868D01*
X4717Y9872D01*
X4691Y9881D01*
X4660Y9893D01*
X4628Y9906D01*
X4598Y9919D01*
X4576Y9929D01*
X4565Y9935D01*
X4565Y9935D01*
X4561Y9948D01*
X4555Y9975D01*
X4547Y10011D01*
X4539Y10054D01*
X4538Y10061D01*
X4530Y10104D01*
X4523Y10139D01*
X4518Y10163D01*
X4516Y10173D01*
X4510Y10174D01*
X4489Y10175D01*
X4458Y10176D01*
X4419Y10177D01*
X4380Y10176D01*
X4341Y10176D01*
X4307Y10174D01*
X4283Y10173D01*
X4273Y10171D01*
X4273Y10170D01*
X4269Y10157D01*
X4264Y10131D01*
X4256Y10094D01*
X4248Y10050D01*
X4246Y10043D01*
X4238Y10001D01*
X4231Y9966D01*
X4226Y9942D01*
X4224Y9933D01*
X4220Y9931D01*
X4202Y9923D01*
X4174Y9912D01*
X4139Y9898D01*
X4058Y9865D01*
X3959Y9933D01*
X3950Y9939D01*
X3914Y9963D01*
X3884Y9983D01*
X3864Y9996D01*
X3856Y10001D01*
X3855Y10001D01*
X3845Y9992D01*
X3825Y9974D01*
X3798Y9947D01*
X3767Y9916D01*
X3744Y9893D01*
X3716Y9865D01*
X3699Y9846D01*
X3690Y9834D01*
X3686Y9827D01*
X3687Y9822D01*
X3693Y9812D01*
X3708Y9790D01*
X3729Y9760D01*
X3753Y9725D01*
X3773Y9695D01*
X3794Y9662D01*
X3808Y9638D01*
X3813Y9627D01*
X3812Y9622D01*
X3805Y9602D01*
X3793Y9573D01*
X3778Y9538D01*
X3744Y9459D01*
X3692Y9449D01*
X3661Y9443D01*
X3617Y9435D01*
X3575Y9427D01*
X3510Y9414D01*
X3508Y9175D01*
X3518Y9170D01*
X3527Y9168D01*
X3552Y9162D01*
X3586Y9155D01*
X3627Y9148D01*
X3662Y9141D01*
X3697Y9135D01*
X3722Y9130D01*
X3733Y9127D01*
X3736Y9124D01*
X3744Y9107D01*
X3757Y9080D01*
X3771Y9047D01*
X3785Y9014D01*
X3797Y8983D01*
X3806Y8959D01*
X3809Y8947D01*
X3804Y8938D01*
X3791Y8917D01*
X3772Y8888D01*
X3748Y8853D01*
X3724Y8818D01*
X3704Y8788D01*
X3690Y8767D01*
X3684Y8757D01*
X3687Y8751D01*
X3701Y8734D01*
X3727Y8707D01*
X3766Y8668D01*
X3773Y8662D01*
X3804Y8632D01*
X3830Y8608D01*
X3848Y8592D01*
X3856Y8586D01*
X3856Y8586D01*
G37*
G54D12*
X8854Y6401D02*
X8854Y1499D01*
X8893Y1480D02*
X8893Y6421D01*
X8992Y6401D02*
X8992Y1499D01*
X9051Y6421D02*
X8952Y6421D01*
X9051Y1480D02*
X9051Y6421D01*
X8814Y1480D02*
X8814Y6421D01*
X9051Y1480D02*
X8814Y1480D01*
X3874Y6421D02*
X3874Y6263D01*
X3381Y1047D02*
X3381Y6263D01*
X3381Y6263D02*
X3874Y6263D01*
X8480Y869D02*
X4543Y869D01*
X4543Y869D02*
X4208Y535D01*
X4208Y535D02*
X3874Y535D01*
X5507Y6421D02*
X3874Y6421D01*
X7791Y6421D02*
X6255Y6421D01*
X8952Y6421D02*
X8539Y6421D01*
X8952Y1480D02*
X8952Y6421D01*
G54D13*
X9011Y1395D02*
X9011Y1329D01*
X9050Y1408D02*
X8912Y1362D01*
X9050Y1316D01*
X9050Y1270D02*
X8912Y1270D01*
X8912Y1237D01*
X8919Y1218D01*
X8932Y1204D01*
X8945Y1198D01*
X8971Y1191D01*
X8991Y1191D01*
X9017Y1198D01*
X9030Y1204D01*
X9043Y1218D01*
X9050Y1237D01*
X9050Y1270D01*
X8958Y1073D02*
X9050Y1073D01*
X8906Y1106D02*
X9004Y1139D01*
X9004Y1054D01*
X9011Y6907D02*
X9011Y6841D01*
X9050Y6920D02*
X8912Y6874D01*
X9050Y6828D01*
X9050Y6782D02*
X8912Y6782D01*
X8912Y6749D01*
X8919Y6730D01*
X8932Y6716D01*
X8945Y6710D01*
X8971Y6703D01*
X8991Y6703D01*
X9017Y6710D01*
X9030Y6716D01*
X9043Y6730D01*
X9050Y6749D01*
X9050Y6782D01*
X8925Y6651D02*
X8919Y6644D01*
X8912Y6631D01*
X8912Y6598D01*
X8919Y6585D01*
X8925Y6579D01*
X8938Y6572D01*
X8952Y6572D01*
X8971Y6579D01*
X9050Y6657D01*
X9050Y6572D01*
G54D14*
X9011Y7695D02*
X9011Y7629D01*
X9050Y7708D02*
X8912Y7662D01*
X9050Y7616D01*
X9050Y7570D02*
X8912Y7570D01*
X8912Y7537D01*
X8919Y7518D01*
X8932Y7504D01*
X8945Y7498D01*
X8971Y7491D01*
X8991Y7491D01*
X9017Y7498D01*
X9030Y7504D01*
X9043Y7518D01*
X9050Y7537D01*
X9050Y7570D01*
X9050Y7360D02*
X9050Y7439D01*
X9050Y7400D02*
X8912Y7400D01*
X8932Y7413D01*
X8945Y7426D01*
X8952Y7439D01*
X9011Y8482D02*
X9011Y8416D01*
X9050Y8495D02*
X8912Y8449D01*
X9050Y8403D01*
X9050Y8357D02*
X8912Y8357D01*
X8912Y8324D01*
X8919Y8305D01*
X8932Y8291D01*
X8945Y8285D01*
X8971Y8278D01*
X8991Y8278D01*
X9017Y8285D01*
X9030Y8291D01*
X9043Y8305D01*
X9050Y8324D01*
X9050Y8357D01*
X8912Y8193D02*
X8912Y8180D01*
X8919Y8167D01*
X8925Y8160D01*
X8938Y8154D01*
X8965Y8147D01*
X8998Y8147D01*
X9024Y8154D01*
X9037Y8160D01*
X9043Y8167D01*
X9050Y8180D01*
X9050Y8193D01*
X9043Y8206D01*
X9037Y8213D01*
X9024Y8219D01*
X8998Y8226D01*
X8965Y8226D01*
X8938Y8219D01*
X8925Y8213D01*
X8919Y8206D01*
X8912Y8193D01*
G54D15*
X1124Y8605D02*
X1124Y8483D01*
X1199Y8549D01*
X1199Y8521D01*
X1208Y8502D01*
X1218Y8493D01*
X1236Y8483D01*
X1283Y8483D01*
X1302Y8493D01*
X1311Y8502D01*
X1321Y8521D01*
X1321Y8577D01*
X1311Y8596D01*
X1302Y8605D01*
X1302Y8399D02*
X1311Y8389D01*
X1321Y8399D01*
X1311Y8408D01*
X1302Y8399D01*
X1321Y8399D01*
X1124Y8324D02*
X1124Y8202D01*
X1199Y8268D01*
X1199Y8239D01*
X1208Y8221D01*
X1218Y8211D01*
X1236Y8202D01*
X1283Y8202D01*
X1302Y8211D01*
X1311Y8221D01*
X1321Y8239D01*
X1321Y8296D01*
X1311Y8314D01*
X1302Y8324D01*
X1124Y8146D02*
X1321Y8080D01*
X1124Y8014D01*
G54D13*
X1135Y7747D02*
X1135Y7646D01*
X1312Y7696D02*
X1135Y7696D01*
X1135Y7603D02*
X1312Y7485D01*
X1135Y7485D02*
X1312Y7603D01*
X1135Y7384D02*
X1135Y7367D01*
X1143Y7350D01*
X1152Y7342D01*
X1169Y7333D01*
X1202Y7325D01*
X1244Y7325D01*
X1278Y7333D01*
X1295Y7342D01*
X1303Y7350D01*
X1312Y7367D01*
X1312Y7384D01*
X1303Y7401D01*
X1295Y7409D01*
X1278Y7418D01*
X1244Y7426D01*
X1202Y7426D01*
X1169Y7418D01*
X1152Y7409D01*
X1143Y7401D01*
X1135Y7384D01*
X1312Y6853D02*
X1228Y6912D01*
X1312Y6955D02*
X1135Y6955D01*
X1135Y6887D01*
X1143Y6870D01*
X1152Y6862D01*
X1169Y6853D01*
X1194Y6853D01*
X1211Y6862D01*
X1219Y6870D01*
X1228Y6887D01*
X1228Y6955D01*
X1135Y6794D02*
X1312Y6676D01*
X1135Y6676D02*
X1312Y6794D01*
X1135Y6575D02*
X1135Y6558D01*
X1143Y6541D01*
X1152Y6533D01*
X1169Y6524D01*
X1202Y6516D01*
X1244Y6516D01*
X1278Y6524D01*
X1295Y6533D01*
X1303Y6541D01*
X1312Y6558D01*
X1312Y6575D01*
X1303Y6592D01*
X1295Y6600D01*
X1278Y6609D01*
X1244Y6617D01*
X1202Y6617D01*
X1169Y6609D01*
X1152Y6600D01*
X1143Y6592D01*
X1135Y6575D01*
X1135Y6172D02*
X1135Y6071D01*
X1312Y6121D02*
X1135Y6121D01*
X1135Y6028D02*
X1312Y5910D01*
X1135Y5910D02*
X1312Y6028D01*
X1312Y5750D02*
X1312Y5851D01*
X1312Y5801D02*
X1135Y5801D01*
X1160Y5817D01*
X1177Y5834D01*
X1185Y5851D01*
X1351Y5261D02*
X1267Y5321D01*
X1351Y5363D02*
X1174Y5363D01*
X1174Y5295D01*
X1183Y5278D01*
X1191Y5270D01*
X1208Y5261D01*
X1233Y5261D01*
X1250Y5270D01*
X1258Y5278D01*
X1267Y5295D01*
X1267Y5363D01*
X1343Y5194D02*
X1351Y5169D01*
X1351Y5126D01*
X1343Y5110D01*
X1334Y5101D01*
X1318Y5093D01*
X1301Y5093D01*
X1284Y5101D01*
X1275Y5110D01*
X1267Y5126D01*
X1258Y5160D01*
X1250Y5177D01*
X1242Y5186D01*
X1225Y5194D01*
X1208Y5194D01*
X1191Y5186D01*
X1183Y5177D01*
X1174Y5160D01*
X1174Y5118D01*
X1183Y5093D01*
X1174Y5042D02*
X1174Y4941D01*
X1351Y4992D02*
X1174Y4992D01*
X1144Y5405D02*
X1144Y4924D01*
X1312Y4534D02*
X1228Y4593D01*
X1312Y4635D02*
X1135Y4635D01*
X1135Y4567D01*
X1143Y4550D01*
X1152Y4542D01*
X1169Y4534D01*
X1194Y4534D01*
X1211Y4542D01*
X1219Y4550D01*
X1228Y4567D01*
X1228Y4635D01*
X1303Y4466D02*
X1312Y4441D01*
X1312Y4399D01*
X1303Y4382D01*
X1295Y4373D01*
X1278Y4365D01*
X1261Y4365D01*
X1244Y4373D01*
X1236Y4382D01*
X1228Y4399D01*
X1219Y4432D01*
X1211Y4449D01*
X1202Y4458D01*
X1185Y4466D01*
X1169Y4466D01*
X1152Y4458D01*
X1143Y4449D01*
X1135Y4432D01*
X1135Y4390D01*
X1143Y4365D01*
X1303Y4297D02*
X1312Y4272D01*
X1312Y4230D01*
X1303Y4213D01*
X1295Y4205D01*
X1278Y4196D01*
X1261Y4196D01*
X1244Y4205D01*
X1236Y4213D01*
X1228Y4230D01*
X1219Y4264D01*
X1211Y4280D01*
X1202Y4289D01*
X1185Y4297D01*
X1169Y4297D01*
X1152Y4289D01*
X1143Y4280D01*
X1135Y4264D01*
X1135Y4221D01*
X1143Y4196D01*
X1312Y4120D02*
X1135Y4120D01*
X1294Y3850D02*
X1156Y3850D01*
X1156Y3797D01*
X1163Y3784D01*
X1169Y3777D01*
X1183Y3771D01*
X1202Y3771D01*
X1215Y3777D01*
X1222Y3784D01*
X1229Y3797D01*
X1229Y3850D01*
X1156Y3725D02*
X1294Y3692D01*
X1196Y3666D01*
X1294Y3640D01*
X1156Y3607D01*
X1294Y3554D02*
X1156Y3554D01*
X1255Y3508D01*
X1156Y3463D01*
X1294Y3463D01*
X1294Y3325D02*
X1294Y3403D01*
X1294Y3364D02*
X1156Y3364D01*
X1176Y3377D01*
X1189Y3390D01*
X1196Y3403D01*
G54D15*
X1321Y2929D02*
X1227Y2995D01*
X1321Y3041D02*
X1124Y3041D01*
X1124Y2967D01*
X1133Y2948D01*
X1143Y2938D01*
X1161Y2929D01*
X1190Y2929D01*
X1208Y2938D01*
X1218Y2948D01*
X1227Y2967D01*
X1227Y3041D01*
X1124Y2863D02*
X1321Y2732D01*
X1124Y2732D02*
X1321Y2863D01*
X1321Y2554D02*
X1321Y2667D01*
X1321Y2610D02*
X1124Y2610D01*
X1152Y2629D01*
X1171Y2648D01*
X1180Y2667D01*
G54D13*
X1294Y2439D02*
X1156Y2439D01*
X1156Y2406D01*
X1163Y2386D01*
X1176Y2373D01*
X1189Y2367D01*
X1215Y2360D01*
X1235Y2360D01*
X1261Y2367D01*
X1274Y2373D01*
X1288Y2386D01*
X1294Y2406D01*
X1294Y2439D01*
X1156Y2321D02*
X1156Y2242D01*
X1294Y2281D02*
X1156Y2281D01*
X1294Y2117D02*
X1229Y2163D01*
X1294Y2196D02*
X1156Y2196D01*
X1156Y2143D01*
X1163Y2130D01*
X1169Y2124D01*
X1183Y2117D01*
X1202Y2117D01*
X1215Y2124D01*
X1222Y2130D01*
X1229Y2143D01*
X1229Y2196D01*
X1150Y1960D02*
X1327Y2078D01*
X1288Y1920D02*
X1294Y1901D01*
X1294Y1868D01*
X1288Y1855D01*
X1281Y1848D01*
X1268Y1842D01*
X1255Y1842D01*
X1242Y1848D01*
X1235Y1855D01*
X1229Y1868D01*
X1222Y1894D01*
X1215Y1907D01*
X1209Y1914D01*
X1196Y1920D01*
X1183Y1920D01*
X1169Y1914D01*
X1163Y1907D01*
X1156Y1894D01*
X1156Y1861D01*
X1163Y1842D01*
X1294Y1783D02*
X1156Y1783D01*
X1156Y1750D01*
X1163Y1730D01*
X1176Y1717D01*
X1189Y1710D01*
X1215Y1704D01*
X1235Y1704D01*
X1261Y1710D01*
X1274Y1717D01*
X1288Y1730D01*
X1294Y1750D01*
X1294Y1783D01*
X1255Y1651D02*
X1255Y1586D01*
X1294Y1664D02*
X1156Y1618D01*
X1294Y1573D01*
G54D15*
X1133Y1377D02*
X1124Y1396D01*
X1124Y1424D01*
X1133Y1452D01*
X1152Y1471D01*
X1171Y1481D01*
X1208Y1490D01*
X1236Y1490D01*
X1274Y1481D01*
X1293Y1471D01*
X1311Y1452D01*
X1321Y1424D01*
X1321Y1406D01*
X1311Y1377D01*
X1302Y1368D01*
X1236Y1368D01*
X1236Y1406D01*
X1321Y1284D02*
X1124Y1284D01*
X1321Y1171D01*
X1124Y1171D01*
X1321Y1077D02*
X1124Y1077D01*
X1124Y1031D01*
X1133Y1002D01*
X1152Y984D01*
X1171Y974D01*
X1208Y965D01*
X1236Y965D01*
X1274Y974D01*
X1293Y984D01*
X1311Y1002D01*
X1321Y1031D01*
X1321Y1077D01*
G54D16*
X7840Y2679D02*
X7856Y2663D01*
X7904Y2647D01*
X7935Y2647D01*
X7983Y2663D01*
X8015Y2695D01*
X8031Y2727D01*
X8047Y2791D01*
X8047Y2839D01*
X8031Y2902D01*
X8015Y2934D01*
X7983Y2966D01*
X7935Y2982D01*
X7904Y2982D01*
X7856Y2966D01*
X7840Y2950D01*
X7553Y2647D02*
X7553Y2823D01*
X7569Y2854D01*
X7601Y2870D01*
X7665Y2870D01*
X7696Y2854D01*
X7553Y2663D02*
X7585Y2647D01*
X7665Y2647D01*
X7696Y2663D01*
X7712Y2695D01*
X7712Y2727D01*
X7696Y2759D01*
X7665Y2775D01*
X7585Y2775D01*
X7553Y2791D01*
X7394Y2647D02*
X7394Y2870D01*
X7394Y2807D02*
X7378Y2839D01*
X7362Y2854D01*
X7330Y2870D01*
X7298Y2870D01*
X7043Y2647D02*
X7043Y2982D01*
X7043Y2663D02*
X7075Y2647D01*
X7139Y2647D01*
X7171Y2663D01*
X7186Y2679D01*
X7202Y2711D01*
X7202Y2807D01*
X7186Y2839D01*
X7171Y2854D01*
X7139Y2870D01*
X7075Y2870D01*
X7043Y2854D01*
X6629Y2823D02*
X6517Y2823D01*
X6469Y2647D02*
X6629Y2647D01*
X6629Y2982D01*
X6469Y2982D01*
X6326Y2870D02*
X6326Y2647D01*
X6326Y2839D02*
X6310Y2854D01*
X6278Y2870D01*
X6230Y2870D01*
X6198Y2854D01*
X6183Y2823D01*
X6183Y2647D01*
X6071Y2870D02*
X5944Y2870D01*
X6023Y2982D02*
X6023Y2695D01*
X6007Y2663D01*
X5975Y2647D01*
X5944Y2647D01*
X5832Y2647D02*
X5832Y2870D01*
X5832Y2807D02*
X5816Y2839D01*
X5800Y2854D01*
X5768Y2870D01*
X5736Y2870D01*
X5481Y2647D02*
X5481Y2823D01*
X5497Y2854D01*
X5529Y2870D01*
X5593Y2870D01*
X5625Y2854D01*
X5481Y2663D02*
X5513Y2647D01*
X5593Y2647D01*
X5625Y2663D01*
X5641Y2695D01*
X5641Y2727D01*
X5625Y2759D01*
X5593Y2775D01*
X5513Y2775D01*
X5481Y2791D01*
X5322Y2870D02*
X5322Y2647D01*
X5322Y2839D02*
X5306Y2854D01*
X5274Y2870D01*
X5226Y2870D01*
X5195Y2854D01*
X5179Y2823D01*
X5179Y2647D01*
X4876Y2663D02*
X4908Y2647D01*
X4971Y2647D01*
X5003Y2663D01*
X5019Y2679D01*
X5035Y2711D01*
X5035Y2807D01*
X5019Y2839D01*
X5003Y2854D01*
X4971Y2870D01*
X4908Y2870D01*
X4876Y2854D01*
X4605Y2663D02*
X4637Y2647D01*
X4701Y2647D01*
X4732Y2663D01*
X4748Y2695D01*
X4748Y2823D01*
X4732Y2854D01*
X4701Y2870D01*
X4637Y2870D01*
X4605Y2854D01*
X4589Y2823D01*
X4589Y2791D01*
X4748Y2759D01*
M02*
