G04 This is an RS-274x file exported by *
G04 gerbv version 2.6.0 *
G04 More information is available about gerbv at *
G04 http://gerbv.gpleda.org/ *
G04 --End of header info--*
%MOIN*%
%FSLAX34Y34*%
%IPPOS*%
G04 --Define apertures--*
%ADD10C,0.0039*%
%ADD11R,0.0600X0.0600*%
%ADD12R,0.0276X0.0394*%
%ADD13R,0.0394X0.0276*%
%ADD14C,0.0350*%
%ADD15C,0.0080*%
%ADD16C,0.0140*%
%ADD17C,0.0081*%
G04 --Start main section--*
G54D11*
G01X-000433Y-001594D03*
G54D12*
G01X0002750Y-004793D03*
G01X0002250Y-004793D03*
G54D10*
G36*
G01X-003897Y0001362D02*
G01X-003897Y0001637D01*
G01X-003503Y0001637D01*
G01X-003503Y0001362D01*
G01X-003897Y0001362D01*
G01X-003897Y0001362D01*
G37*
G36*
G01X-003897Y-003637D02*
G01X-003897Y-003362D01*
G01X-003503Y-003362D01*
G01X-003503Y-003637D01*
G01X-003897Y-003637D01*
G01X-003897Y-003637D01*
G37*
G36*
G01X-003897Y0000862D02*
G01X-003897Y0001137D01*
G01X-003503Y0001137D01*
G01X-003503Y0000862D01*
G01X-003897Y0000862D01*
G01X-003897Y0000862D01*
G37*
G36*
G01X-003897Y0000362D02*
G01X-003897Y0000637D01*
G01X-003503Y0000637D01*
G01X-003503Y0000362D01*
G01X-003897Y0000362D01*
G01X-003897Y0000362D01*
G37*
G36*
G01X-003897Y-000137D02*
G01X-003897Y0000137D01*
G01X-003503Y0000137D01*
G01X-003503Y-000137D01*
G01X-003897Y-000137D01*
G01X-003897Y-000137D01*
G37*
G36*
G01X-003897Y-000637D02*
G01X-003897Y-000362D01*
G01X-003503Y-000362D01*
G01X-003503Y-000637D01*
G01X-003897Y-000637D01*
G01X-003897Y-000637D01*
G37*
G36*
G01X-003897Y-001137D02*
G01X-003897Y-000862D01*
G01X-003503Y-000862D01*
G01X-003503Y-001137D01*
G01X-003897Y-001137D01*
G01X-003897Y-001137D01*
G37*
G36*
G01X-003897Y-001637D02*
G01X-003897Y-001362D01*
G01X-003503Y-001362D01*
G01X-003503Y-001637D01*
G01X-003897Y-001637D01*
G01X-003897Y-001637D01*
G37*
G36*
G01X-003897Y-002137D02*
G01X-003897Y-001862D01*
G01X-003503Y-001862D01*
G01X-003503Y-002137D01*
G01X-003897Y-002137D01*
G01X-003897Y-002137D01*
G37*
G36*
G01X-003897Y-002637D02*
G01X-003897Y-002362D01*
G01X-003503Y-002362D01*
G01X-003503Y-002637D01*
G01X-003897Y-002637D01*
G01X-003897Y-002637D01*
G37*
G36*
G01X-003897Y-003137D02*
G01X-003897Y-002862D01*
G01X-003503Y-002862D01*
G01X-003503Y-003137D01*
G01X-003897Y-003137D01*
G01X-003897Y-003137D01*
G37*
G54D12*
G01X-002750Y-004793D03*
G01X-002250Y-004793D03*
G01X-001750Y-004793D03*
G01X-001250Y-004793D03*
G01X-000750Y-004793D03*
G01X-000250Y-004793D03*
G01X0000250Y-004793D03*
G01X0000750Y-004793D03*
G01X0001250Y-004793D03*
G01X0001750Y-004793D03*
G54D13*
G01X0003700Y0001500D03*
G01X0003700Y-003500D03*
G01X0003700Y-003000D03*
G01X0003700Y-002500D03*
G01X0003700Y-002000D03*
G01X0003700Y-001500D03*
G01X0003700Y-001000D03*
G01X0003700Y-000500D03*
G01X0003700Y0000000D03*
G01X0003700Y0000500D03*
G01X0003700Y0001000D03*
G54D14*
G01X-002377Y0000267D03*
G01X0001964Y-000937D03*
G01X0001355Y0001778D03*
G01X0001897Y0002555D03*
G01X-001196Y0002555D03*
G01X-001224Y0001321D03*
G01X-000421Y0002555D03*
G01X0000354Y0002555D03*
G01X0001137Y0002555D03*
G01X0002677Y0002555D03*
G01X-003460Y0002555D03*
G01X-003027Y0002555D03*
G01X-002149Y0002555D03*
G01X-002618Y0002763D03*
G01X0002024Y-002909D03*
G01X0002755Y-000617D03*
G01X-001228Y-003677D03*
G01X0001011Y0001196D03*
G01X-002078Y-000242D03*
G01X0001643Y0000879D03*
G01X0001969Y-000484D03*
G01X-002192Y-003523D03*
G01X-000338Y-003852D03*
G01X0000173Y-003862D03*
G01X-002755Y-002830D03*
G01X-002751Y-003314D03*
G01X0000963Y-003364D03*
G01X0001381Y-003636D03*
G01X0002751Y-003362D03*
G01X0002358Y-003185D03*
G01X0001562Y-002193D03*
G01X0002540Y-000187D03*
G01X0001378Y-000461D03*
G01X0001399Y0000128D03*
G01X0000969Y-000001D03*
G01X0000459Y0001077D03*
G01X-001270Y0000612D03*
G01X-002690Y-001437D03*
G01X-001026Y0000192D03*
G01X0001699Y0001483D03*
G01X-001834Y-003866D03*
G01X-002956Y-000064D03*
G01X0001760Y-003866D03*
G01X-002684Y-001875D03*
G54D15*
G01X-002377Y0000267D02*
G01X-002377Y-000730D01*
G01X-002377Y-000730D02*
G01X-002171Y-000937D01*
G01X-002377Y0000267D02*
G01X-002084Y0000267D01*
G01X-002084Y0000267D02*
G01X-001875Y0000058D01*
G54D16*
G01X-003759Y0001500D02*
G01X-003751Y0001507D01*
G01X-003751Y0001507D02*
G01X-003383Y0001507D01*
G54D15*
G01X-002171Y-000937D02*
G01X0001964Y-000937D01*
G01X-003759Y0001507D02*
G01X-003383Y0001507D01*
G01X-001714Y-000102D02*
G01X-001875Y0000058D01*
G01X-000903Y-000102D02*
G01X-001714Y-000102D01*
G01X-000719Y0000082D02*
G01X-000903Y-000102D01*
G01X-000719Y0000985D02*
G01X-000719Y0000082D01*
G01X-002861Y0000985D02*
G01X-003383Y0001507D01*
G01X-000719Y0000985D02*
G01X-002861Y0000985D01*
G01X0000102Y0001807D02*
G01X-000719Y0000985D01*
G01X0001327Y0001807D02*
G01X0000102Y0001807D01*
G01X0001355Y0001778D02*
G01X0001327Y0001807D01*
G01X-001750Y-004852D02*
G01X-001750Y-004198D01*
G01X-001750Y-004198D02*
G01X-001228Y-003677D01*
G01X-000447Y-000262D02*
G01X0001011Y0001196D01*
G01X-002058Y-000262D02*
G01X-000447Y-000262D01*
G01X-002078Y-000242D02*
G01X-002058Y-000262D01*
G54D16*
G01X0002250Y-004852D02*
G01X0002250Y-004468D01*
G54D15*
G01X0002250Y-004844D02*
G01X0002250Y-004468D01*
G01X0000963Y-003636D02*
G01X0000963Y-003364D01*
G01X0001795Y-004468D02*
G01X0000963Y-003636D01*
G01X0002250Y-004468D02*
G01X0001795Y-004468D01*
G54D16*
G01X0003759Y-001500D02*
G01X0003214Y-001500D01*
G01X0003214Y-001500D02*
G01X0003206Y-001492D01*
G54D15*
G01X0003206Y-001492D02*
G01X0003759Y-001492D01*
G01X0002264Y-000549D02*
G01X0003206Y-001492D01*
G01X0002264Y-000332D02*
G01X0002264Y-000549D01*
G01X0002106Y-000175D02*
G01X0002264Y-000332D01*
G01X0001739Y-000175D02*
G01X0002106Y-000175D01*
G01X0001453Y-000461D02*
G01X0001739Y-000175D01*
G01X0001378Y-000461D02*
G01X0001453Y-000461D01*
G54D16*
G01X0003759Y-000500D02*
G01X0003391Y-000500D01*
G01X0003391Y-000500D02*
G01X0003383Y-000492D01*
G54D15*
G01X0003759Y-000492D02*
G01X0003383Y-000492D01*
G01X0002781Y0000110D02*
G01X0003383Y-000492D01*
G01X0001798Y0000110D02*
G01X0002781Y0000110D01*
G01X0001521Y-000166D02*
G01X0001798Y0000110D01*
G01X0001133Y-000166D02*
G01X0001521Y-000166D01*
G01X0000969Y-000001D02*
G01X0001133Y-000166D01*
G01X0000459Y0001077D02*
G01X0000463Y0001077D01*
G01X0000463Y0001077D02*
G01X0000897Y0001511D01*
G54D16*
G01X0003759Y0001000D02*
G01X0003391Y0001000D01*
G01X0003391Y0001000D02*
G01X0003217Y0001174D01*
G54D15*
G01X0003759Y0001007D02*
G01X0003383Y0001007D01*
G01X0001113Y0001511D02*
G01X0000897Y0001511D01*
G01X0001451Y0001174D02*
G01X0001113Y0001511D01*
G01X0003217Y0001174D02*
G01X0001451Y0001174D01*
G01X0003383Y0001007D02*
G01X0003217Y0001174D01*
G54D16*
G01X-003759Y0000500D02*
G01X-003391Y0000500D01*
G01X-003391Y0000500D02*
G01X-003383Y0000507D01*
G54D15*
G01X-003759Y0000507D02*
G01X-003383Y0000507D01*
G01X-003278Y0000612D02*
G01X-001270Y0000612D01*
G01X-003383Y0000507D02*
G01X-003278Y0000612D01*
G54D10*
G36*
G01X0000755Y0001597D02*
G01X0000527Y0001369D01*
G01X0000518Y0001373D01*
G01X0000400Y0001373D01*
G01X0000291Y0001328D01*
G01X0000208Y0001245D01*
G01X0000163Y0001136D01*
G01X0000162Y0001018D01*
G01X0000207Y0000909D01*
G01X0000291Y0000826D01*
G01X0000377Y0000790D01*
G01X-000514Y-000101D01*
G01X-000963Y-000101D01*
G01X-000858Y-000058D01*
G01X-000775Y0000024D01*
G01X-000730Y0000133D01*
G01X-000730Y0000251D01*
G01X-000775Y0000360D01*
G01X-000858Y0000443D01*
G01X-000967Y0000489D01*
G01X-001001Y0000489D01*
G01X-000974Y0000553D01*
G01X-000974Y0000671D01*
G01X-001019Y0000780D01*
G01X-001102Y0000864D01*
G01X-001211Y0000909D01*
G01X-001329Y0000909D01*
G01X-001438Y0000864D01*
G01X-001521Y0000781D01*
G01X-001524Y0000774D01*
G01X-003278Y0000774D01*
G01X-003340Y0000762D01*
G01X-003392Y0000727D01*
G01X-003407Y0000712D01*
G01X-003435Y0000740D01*
G01X-003457Y0000750D01*
G01X-003435Y0000759D01*
G01X-003401Y0000793D01*
G01X-003382Y0000838D01*
G01X-003382Y0000886D01*
G01X-003382Y0001161D01*
G01X-003401Y0001206D01*
G01X-003435Y0001240D01*
G01X-003457Y0001250D01*
G01X-003435Y0001259D01*
G01X-003401Y0001293D01*
G01X-003382Y0001338D01*
G01X-003382Y0001386D01*
G01X-003382Y0001597D01*
G01X-001333Y0001597D01*
G01X-001391Y0001573D01*
G01X-001475Y0001489D01*
G01X-001520Y0001381D01*
G01X-001520Y0001263D01*
G01X-001475Y0001154D01*
G01X-001392Y0001070D01*
G01X-001283Y0001025D01*
G01X-001165Y0001025D01*
G01X-001056Y0001070D01*
G01X-000973Y0001153D01*
G01X-000928Y0001262D01*
G01X-000927Y0001380D01*
G01X-000972Y0001489D01*
G01X-001056Y0001572D01*
G01X-001115Y0001597D01*
G01X0000755Y0001597D01*
G01X0000755Y0001597D01*
G37*
G54D17*
G01X0000755Y0001597D02*
G01X0000527Y0001369D01*
G01X0000527Y0001369D02*
G01X0000518Y0001373D01*
G01X0000518Y0001373D02*
G01X0000400Y0001373D01*
G01X0000400Y0001373D02*
G01X0000291Y0001328D01*
G01X0000291Y0001328D02*
G01X0000208Y0001245D01*
G01X0000208Y0001245D02*
G01X0000163Y0001136D01*
G01X0000163Y0001136D02*
G01X0000162Y0001018D01*
G01X0000162Y0001018D02*
G01X0000207Y0000909D01*
G01X0000207Y0000909D02*
G01X0000291Y0000826D01*
G01X0000291Y0000826D02*
G01X0000377Y0000790D01*
G01X0000377Y0000790D02*
G01X-000514Y-000101D01*
G01X-000514Y-000101D02*
G01X-000963Y-000101D01*
G01X-000963Y-000101D02*
G01X-000858Y-000058D01*
G01X-000858Y-000058D02*
G01X-000775Y0000024D01*
G01X-000775Y0000024D02*
G01X-000730Y0000133D01*
G01X-000730Y0000133D02*
G01X-000730Y0000251D01*
G01X-000730Y0000251D02*
G01X-000775Y0000360D01*
G01X-000775Y0000360D02*
G01X-000858Y0000443D01*
G01X-000858Y0000443D02*
G01X-000967Y0000489D01*
G01X-000967Y0000489D02*
G01X-001001Y0000489D01*
G01X-001001Y0000489D02*
G01X-000974Y0000553D01*
G01X-000974Y0000553D02*
G01X-000974Y0000671D01*
G01X-000974Y0000671D02*
G01X-001019Y0000780D01*
G01X-001019Y0000780D02*
G01X-001102Y0000864D01*
G01X-001102Y0000864D02*
G01X-001211Y0000909D01*
G01X-001211Y0000909D02*
G01X-001329Y0000909D01*
G01X-001329Y0000909D02*
G01X-001438Y0000864D01*
G01X-001438Y0000864D02*
G01X-001521Y0000781D01*
G01X-001521Y0000781D02*
G01X-001524Y0000774D01*
G01X-001524Y0000774D02*
G01X-003278Y0000774D01*
G01X-003278Y0000774D02*
G01X-003340Y0000762D01*
G01X-003340Y0000762D02*
G01X-003392Y0000727D01*
G01X-003392Y0000727D02*
G01X-003407Y0000712D01*
G01X-003407Y0000712D02*
G01X-003435Y0000740D01*
G01X-003435Y0000740D02*
G01X-003457Y0000750D01*
G01X-003457Y0000750D02*
G01X-003435Y0000759D01*
G01X-003435Y0000759D02*
G01X-003401Y0000793D01*
G01X-003401Y0000793D02*
G01X-003382Y0000838D01*
G01X-003382Y0000838D02*
G01X-003382Y0000886D01*
G01X-003382Y0000886D02*
G01X-003382Y0001161D01*
G01X-003382Y0001161D02*
G01X-003401Y0001206D01*
G01X-003401Y0001206D02*
G01X-003435Y0001240D01*
G01X-003435Y0001240D02*
G01X-003457Y0001250D01*
G01X-003457Y0001250D02*
G01X-003435Y0001259D01*
G01X-003435Y0001259D02*
G01X-003401Y0001293D01*
G01X-003401Y0001293D02*
G01X-003382Y0001338D01*
G01X-003382Y0001338D02*
G01X-003382Y0001386D01*
G01X-003382Y0001386D02*
G01X-003382Y0001597D01*
G01X-003382Y0001597D02*
G01X-001333Y0001597D01*
G01X-001333Y0001597D02*
G01X-001391Y0001573D01*
G01X-001391Y0001573D02*
G01X-001475Y0001489D01*
G01X-001475Y0001489D02*
G01X-001520Y0001381D01*
G01X-001520Y0001381D02*
G01X-001520Y0001263D01*
G01X-001520Y0001263D02*
G01X-001475Y0001154D01*
G01X-001475Y0001154D02*
G01X-001392Y0001070D01*
G01X-001392Y0001070D02*
G01X-001283Y0001025D01*
G01X-001283Y0001025D02*
G01X-001165Y0001025D01*
G01X-001165Y0001025D02*
G01X-001056Y0001070D01*
G01X-001056Y0001070D02*
G01X-000973Y0001153D01*
G01X-000973Y0001153D02*
G01X-000928Y0001262D01*
G01X-000928Y0001262D02*
G01X-000927Y0001380D01*
G01X-000927Y0001380D02*
G01X-000972Y0001489D01*
G01X-000972Y0001489D02*
G01X-001056Y0001572D01*
G01X-001056Y0001572D02*
G01X-001115Y0001597D01*
G01X-001115Y0001597D02*
G01X0000755Y0001597D01*
G54D10*
G36*
G01X0003585Y-004687D02*
G01X0003048Y-004687D01*
G01X0003048Y-003303D01*
G01X0003003Y-003194D01*
G01X0002920Y-003111D01*
G01X0002811Y-003065D01*
G01X0002693Y-003065D01*
G01X0002638Y-003088D01*
G01X0002609Y-003017D01*
G01X0002526Y-002933D01*
G01X0002417Y-002888D01*
G01X0002320Y-002888D01*
G01X0002320Y-002850D01*
G01X0002275Y-002742D01*
G01X0002192Y-002658D01*
G01X0002083Y-002613D01*
G01X0001965Y-002613D01*
G01X0001858Y-002657D01*
G01X0001858Y-002135D01*
G01X0001813Y-002026D01*
G01X0001730Y-001942D01*
G01X0001621Y-001897D01*
G01X0001503Y-001897D01*
G01X0001394Y-001942D01*
G01X0001311Y-002025D01*
G01X0001266Y-002134D01*
G01X0001266Y-002252D01*
G01X0001311Y-002361D01*
G01X0001394Y-002444D01*
G01X0001503Y-002490D01*
G01X0001621Y-002490D01*
G01X0001730Y-002445D01*
G01X0001813Y-002361D01*
G01X0001858Y-002253D01*
G01X0001858Y-002135D01*
G01X0001858Y-002657D01*
G01X0001856Y-002658D01*
G01X0001773Y-002741D01*
G01X0001728Y-002850D01*
G01X0001728Y-002968D01*
G01X0001773Y-003077D01*
G01X0001856Y-003160D01*
G01X0001965Y-003205D01*
G01X0002061Y-003205D01*
G01X0002061Y-003243D01*
G01X0002106Y-003352D01*
G01X0002190Y-003436D01*
G01X0002299Y-003481D01*
G01X0002416Y-003481D01*
G01X0002471Y-003458D01*
G01X0002500Y-003529D01*
G01X0002583Y-003613D01*
G01X0002692Y-003658D01*
G01X0002810Y-003658D01*
G01X0002919Y-003613D01*
G01X0003003Y-003530D01*
G01X0003048Y-003421D01*
G01X0003048Y-003303D01*
G01X0003048Y-004687D01*
G01X0003009Y-004687D01*
G01X0003009Y-004572D01*
G01X0002990Y-004527D01*
G01X0002956Y-004493D01*
G01X0002911Y-004475D01*
G01X0002863Y-004475D01*
G01X0002588Y-004475D01*
G01X0002543Y-004493D01*
G01X0002509Y-004527D01*
G01X0002500Y-004550D01*
G01X0002490Y-004527D01*
G01X0002456Y-004493D01*
G01X0002441Y-004487D01*
G01X0002441Y-004468D01*
G01X0002426Y-004395D01*
G01X0002385Y-004333D01*
G01X0002323Y-004291D01*
G01X0002250Y-004277D01*
G01X0002176Y-004291D01*
G01X0002153Y-004307D01*
G01X0001862Y-004307D01*
G01X0001717Y-004162D01*
G01X0001818Y-004162D01*
G01X0001927Y-004117D01*
G01X0002011Y-004034D01*
G01X0002056Y-003925D01*
G01X0002056Y-003807D01*
G01X0002011Y-003698D01*
G01X0001928Y-003615D01*
G01X0001819Y-003569D01*
G01X0001701Y-003569D01*
G01X0001677Y-003579D01*
G01X0001677Y-003577D01*
G01X0001632Y-003468D01*
G01X0001549Y-003385D01*
G01X0001440Y-003340D01*
G01X0001322Y-003340D01*
G01X0001260Y-003365D01*
G01X0001260Y-003306D01*
G01X0001215Y-003197D01*
G01X0001131Y-003113D01*
G01X0001023Y-003068D01*
G01X0000905Y-003068D01*
G01X0000796Y-003113D01*
G01X0000712Y-003196D01*
G01X0000667Y-003305D01*
G01X0000667Y-003423D01*
G01X0000712Y-003532D01*
G01X0000795Y-003615D01*
G01X0000802Y-003618D01*
G01X0000802Y-003636D01*
G01X0000814Y-003698D01*
G01X0000849Y-003750D01*
G01X0001578Y-004479D01*
G01X0001543Y-004493D01*
G01X0001509Y-004527D01*
G01X0001500Y-004550D01*
G01X0001490Y-004527D01*
G01X0001456Y-004493D01*
G01X0001411Y-004475D01*
G01X0001363Y-004475D01*
G01X0001088Y-004475D01*
G01X0001043Y-004493D01*
G01X0001009Y-004527D01*
G01X0001000Y-004550D01*
G01X0000990Y-004527D01*
G01X0000956Y-004493D01*
G01X0000911Y-004475D01*
G01X0000863Y-004475D01*
G01X0000588Y-004475D01*
G01X0000543Y-004493D01*
G01X0000509Y-004527D01*
G01X0000500Y-004550D01*
G01X0000490Y-004527D01*
G01X0000470Y-004507D01*
G01X0000470Y-003803D01*
G01X0000425Y-003694D01*
G01X0000341Y-003611D01*
G01X0000232Y-003566D01*
G01X0000115Y-003566D01*
G01X0000006Y-003611D01*
G01X-000011Y-003628D01*
G01X-000011Y-001918D01*
G01X-000011Y-001870D01*
G01X-000011Y-001270D01*
G01X-000030Y-001225D01*
G01X-000064Y-001191D01*
G01X-000108Y-001173D01*
G01X-000157Y-001173D01*
G01X-000757Y-001173D01*
G01X-000801Y-001191D01*
G01X-000835Y-001225D01*
G01X-000854Y-001270D01*
G01X-000854Y-001318D01*
G01X-000854Y-001918D01*
G01X-000835Y-001963D01*
G01X-000801Y-001997D01*
G01X-000757Y-002015D01*
G01X-000708Y-002015D01*
G01X-000108Y-002015D01*
G01X-000064Y-001997D01*
G01X-000030Y-001963D01*
G01X-000011Y-001918D01*
G01X-000011Y-003628D01*
G01X-000077Y-003694D01*
G01X-000080Y-003701D01*
G01X-000087Y-003684D01*
G01X-000170Y-003601D01*
G01X-000279Y-003556D01*
G01X-000397Y-003556D01*
G01X-000506Y-003601D01*
G01X-000589Y-003684D01*
G01X-000635Y-003793D01*
G01X-000635Y-003911D01*
G01X-000590Y-004020D01*
G01X-000506Y-004103D01*
G01X-000398Y-004148D01*
G01X-000280Y-004148D01*
G01X-000171Y-004103D01*
G01X-000087Y-004020D01*
G01X-000084Y-004012D01*
G01X-000077Y-004029D01*
G01X0000005Y-004113D01*
G01X0000114Y-004158D01*
G01X0000232Y-004158D01*
G01X0000341Y-004113D01*
G01X0000424Y-004030D01*
G01X0000469Y-003921D01*
G01X0000470Y-003803D01*
G01X0000470Y-004507D01*
G01X0000456Y-004493D01*
G01X0000411Y-004475D01*
G01X0000363Y-004475D01*
G01X0000088Y-004475D01*
G01X0000043Y-004493D01*
G01X0000009Y-004527D01*
G01X0000000Y-004550D01*
G01X-000009Y-004527D01*
G01X-000043Y-004493D01*
G01X-000088Y-004475D01*
G01X-000136Y-004475D01*
G01X-000411Y-004475D01*
G01X-000456Y-004493D01*
G01X-000490Y-004527D01*
G01X-000500Y-004550D01*
G01X-000509Y-004527D01*
G01X-000543Y-004493D01*
G01X-000588Y-004475D01*
G01X-000636Y-004475D01*
G01X-000911Y-004475D01*
G01X-000956Y-004493D01*
G01X-000990Y-004527D01*
G01X-001000Y-004550D01*
G01X-001009Y-004527D01*
G01X-001043Y-004493D01*
G01X-001088Y-004475D01*
G01X-001136Y-004475D01*
G01X-001411Y-004475D01*
G01X-001456Y-004493D01*
G01X-001490Y-004527D01*
G01X-001500Y-004550D01*
G01X-001509Y-004527D01*
G01X-001543Y-004493D01*
G01X-001588Y-004475D01*
G01X-001588Y-004475D01*
G01X-001588Y-004265D01*
G01X-001293Y-003970D01*
G01X-001287Y-003973D01*
G01X-001169Y-003973D01*
G01X-001060Y-003928D01*
G01X-000977Y-003845D01*
G01X-000932Y-003736D01*
G01X-000931Y-003618D01*
G01X-000977Y-003509D01*
G01X-001060Y-003426D01*
G01X-001169Y-003380D01*
G01X-001287Y-003380D01*
G01X-001395Y-003425D01*
G01X-001479Y-003509D01*
G01X-001524Y-003617D01*
G01X-001524Y-003735D01*
G01X-001521Y-003742D01*
G01X-001552Y-003773D01*
G01X-001583Y-003698D01*
G01X-001666Y-003615D01*
G01X-001775Y-003569D01*
G01X-001893Y-003569D01*
G01X-001896Y-003571D01*
G01X-001896Y-003464D01*
G01X-001941Y-003356D01*
G01X-002024Y-003272D01*
G01X-002133Y-003227D01*
G01X-002251Y-003227D01*
G01X-002360Y-003272D01*
G01X-002388Y-003299D01*
G01X-002388Y-001817D01*
G01X-002433Y-001708D01*
G01X-002487Y-001653D01*
G01X-002438Y-001605D01*
G01X-002393Y-001496D01*
G01X-002393Y-001378D01*
G01X-002438Y-001269D01*
G01X-002521Y-001186D01*
G01X-002630Y-001140D01*
G01X-002660Y-001140D01*
G01X-002660Y-000006D01*
G01X-002705Y0000102D01*
G01X-002788Y0000186D01*
G01X-002897Y0000231D01*
G01X-003015Y0000231D01*
G01X-003124Y0000186D01*
G01X-003207Y0000103D01*
G01X-003252Y-000005D01*
G01X-003252Y-000123D01*
G01X-003207Y-000232D01*
G01X-003124Y-000315D01*
G01X-003015Y-000361D01*
G01X-002897Y-000361D01*
G01X-002788Y-000316D01*
G01X-002705Y-000232D01*
G01X-002660Y-000123D01*
G01X-002660Y-000006D01*
G01X-002660Y-001140D01*
G01X-002748Y-001140D01*
G01X-002857Y-001185D01*
G01X-002941Y-001269D01*
G01X-002986Y-001378D01*
G01X-002986Y-001495D01*
G01X-002941Y-001604D01*
G01X-002887Y-001659D01*
G01X-002935Y-001707D01*
G01X-002980Y-001816D01*
G01X-002980Y-001934D01*
G01X-002935Y-002043D01*
G01X-002852Y-002126D01*
G01X-002743Y-002172D01*
G01X-002625Y-002172D01*
G01X-002516Y-002127D01*
G01X-002433Y-002043D01*
G01X-002388Y-001935D01*
G01X-002388Y-001817D01*
G01X-002388Y-003299D01*
G01X-002443Y-003355D01*
G01X-002455Y-003383D01*
G01X-002455Y-003256D01*
G01X-002500Y-003147D01*
G01X-002577Y-003070D01*
G01X-002504Y-002998D01*
G01X-002459Y-002889D01*
G01X-002459Y-002772D01*
G01X-002504Y-002663D01*
G01X-002587Y-002579D01*
G01X-002696Y-002534D01*
G01X-002814Y-002534D01*
G01X-002923Y-002579D01*
G01X-003006Y-002662D01*
G01X-003052Y-002771D01*
G01X-003052Y-002889D01*
G01X-003007Y-002998D01*
G01X-002930Y-003074D01*
G01X-003003Y-003146D01*
G01X-003048Y-003255D01*
G01X-003048Y-003373D01*
G01X-003003Y-003482D01*
G01X-002920Y-003566D01*
G01X-002811Y-003611D01*
G01X-002693Y-003611D01*
G01X-002584Y-003566D01*
G01X-002500Y-003483D01*
G01X-002455Y-003374D01*
G01X-002455Y-003256D01*
G01X-002455Y-003383D01*
G01X-002489Y-003464D01*
G01X-002489Y-003582D01*
G01X-002444Y-003691D01*
G01X-002360Y-003774D01*
G01X-002252Y-003819D01*
G01X-002134Y-003819D01*
G01X-002130Y-003818D01*
G01X-002130Y-003924D01*
G01X-002085Y-004033D01*
G01X-002002Y-004117D01*
G01X-001903Y-004158D01*
G01X-001911Y-004198D01*
G01X-001911Y-004475D01*
G01X-001911Y-004475D01*
G01X-001956Y-004493D01*
G01X-001990Y-004527D01*
G01X-002000Y-004550D01*
G01X-002009Y-004527D01*
G01X-002043Y-004493D01*
G01X-002088Y-004475D01*
G01X-002136Y-004475D01*
G01X-002411Y-004475D01*
G01X-002456Y-004493D01*
G01X-002490Y-004527D01*
G01X-002500Y-004550D01*
G01X-002509Y-004527D01*
G01X-002543Y-004493D01*
G01X-002588Y-004475D01*
G01X-002636Y-004475D01*
G01X-002911Y-004475D01*
G01X-002956Y-004493D01*
G01X-002990Y-004527D01*
G01X-003009Y-004572D01*
G01X-003009Y-004620D01*
G01X-003009Y-004687D01*
G01X-003597Y-004687D01*
G01X-003597Y-003759D01*
G01X-003479Y-003759D01*
G01X-003435Y-003740D01*
G01X-003401Y-003706D01*
G01X-003382Y-003661D01*
G01X-003382Y-003613D01*
G01X-003382Y-003338D01*
G01X-003401Y-003293D01*
G01X-003435Y-003259D01*
G01X-003457Y-003250D01*
G01X-003435Y-003240D01*
G01X-003401Y-003206D01*
G01X-003382Y-003161D01*
G01X-003382Y-003113D01*
G01X-003382Y-002838D01*
G01X-003401Y-002793D01*
G01X-003435Y-002759D01*
G01X-003457Y-002750D01*
G01X-003435Y-002740D01*
G01X-003401Y-002706D01*
G01X-003382Y-002661D01*
G01X-003382Y-002613D01*
G01X-003382Y-002338D01*
G01X-003401Y-002293D01*
G01X-003435Y-002259D01*
G01X-003457Y-002250D01*
G01X-003435Y-002240D01*
G01X-003401Y-002206D01*
G01X-003382Y-002161D01*
G01X-003382Y-002113D01*
G01X-003382Y-001838D01*
G01X-003401Y-001793D01*
G01X-003435Y-001759D01*
G01X-003457Y-001750D01*
G01X-003435Y-001740D01*
G01X-003401Y-001706D01*
G01X-003382Y-001661D01*
G01X-003382Y-001613D01*
G01X-003382Y-001338D01*
G01X-003401Y-001293D01*
G01X-003435Y-001259D01*
G01X-003457Y-001250D01*
G01X-003435Y-001240D01*
G01X-003401Y-001206D01*
G01X-003382Y-001161D01*
G01X-003382Y-001113D01*
G01X-003382Y-000838D01*
G01X-003401Y-000793D01*
G01X-003435Y-000759D01*
G01X-003457Y-000750D01*
G01X-003435Y-000740D01*
G01X-003401Y-000706D01*
G01X-003382Y-000661D01*
G01X-003382Y-000613D01*
G01X-003382Y-000338D01*
G01X-003401Y-000293D01*
G01X-003435Y-000259D01*
G01X-003457Y-000250D01*
G01X-003435Y-000240D01*
G01X-003401Y-000206D01*
G01X-003382Y-000161D01*
G01X-003382Y-000113D01*
G01X-003382Y0000161D01*
G01X-003401Y0000206D01*
G01X-003435Y0000240D01*
G01X-003457Y0000250D01*
G01X-003435Y0000259D01*
G01X-003401Y0000293D01*
G01X-003394Y0000308D01*
G01X-003391Y0000308D01*
G01X-003318Y0000323D01*
G01X-003256Y0000364D01*
G01X-003248Y0000372D01*
G01X-003207Y0000434D01*
G01X-003203Y0000451D01*
G01X-001524Y0000451D01*
G01X-001521Y0000445D01*
G01X-001438Y0000361D01*
G01X-001329Y0000316D01*
G01X-001295Y0000316D01*
G01X-001322Y0000252D01*
G01X-001322Y0000134D01*
G01X-001277Y0000025D01*
G01X-001194Y-000058D01*
G01X-001089Y-000101D01*
G01X-001816Y-000101D01*
G01X-001827Y-000074D01*
G01X-001910Y0000008D01*
G01X-002019Y0000053D01*
G01X-002137Y0000053D01*
G01X-002246Y0000008D01*
G01X-002329Y-000074D01*
G01X-002374Y-000183D01*
G01X-002375Y-000301D01*
G01X-002330Y-000410D01*
G01X-002246Y-000493D01*
G01X-002137Y-000538D01*
G01X-002020Y-000538D01*
G01X-001911Y-000493D01*
G01X-001841Y-000424D01*
G01X-000447Y-000424D01*
G01X-000386Y-000411D01*
G01X-000333Y-000377D01*
G01X0000946Y0000902D01*
G01X0000952Y0000900D01*
G01X0001070Y0000900D01*
G01X0001179Y0000945D01*
G01X0001262Y0001028D01*
G01X0001293Y0001103D01*
G01X0001337Y0001060D01*
G01X0001385Y0001028D01*
G01X0001347Y0000938D01*
G01X0001347Y0000820D01*
G01X0001392Y0000711D01*
G01X0001475Y0000628D01*
G01X0001584Y0000582D01*
G01X0001702Y0000582D01*
G01X0001811Y0000627D01*
G01X0001894Y0000711D01*
G01X0001940Y0000820D01*
G01X0001940Y0000937D01*
G01X0001909Y0001013D01*
G01X0003108Y0001013D01*
G01X0003256Y0000864D01*
G01X0003318Y0000823D01*
G01X0003391Y0000808D01*
G01X0003394Y0000808D01*
G01X0003401Y0000793D01*
G01X0003435Y0000759D01*
G01X0003457Y0000750D01*
G01X0003435Y0000740D01*
G01X0003401Y0000706D01*
G01X0003382Y0000661D01*
G01X0003382Y0000613D01*
G01X0003382Y0000338D01*
G01X0003401Y0000293D01*
G01X0003435Y0000259D01*
G01X0003457Y0000250D01*
G01X0003435Y0000240D01*
G01X0003401Y0000206D01*
G01X0003382Y0000161D01*
G01X0003382Y0000113D01*
G01X0003382Y-000161D01*
G01X0003401Y-000206D01*
G01X0003435Y-000240D01*
G01X0003457Y-000250D01*
G01X0003435Y-000259D01*
G01X0003407Y-000287D01*
G01X0002895Y0000224D01*
G01X0002842Y0000259D01*
G01X0002781Y0000271D01*
G01X0001798Y0000271D01*
G01X0001798Y0000271D01*
G01X0001736Y0000259D01*
G01X0001684Y0000224D01*
G01X0001681Y0000221D01*
G01X0001650Y0000296D01*
G01X0001567Y0000379D01*
G01X0001458Y0000425D01*
G01X0001340Y0000425D01*
G01X0001231Y0000380D01*
G01X0001148Y0000296D01*
G01X0001129Y0000252D01*
G01X0001028Y0000294D01*
G01X0000910Y0000294D01*
G01X0000801Y0000249D01*
G01X0000718Y0000166D01*
G01X0000673Y0000057D01*
G01X0000672Y-000060D01*
G01X0000717Y-000169D01*
G01X0000801Y-000252D01*
G01X0000910Y-000298D01*
G01X0001027Y-000298D01*
G01X0001039Y-000293D01*
G01X0001071Y-000315D01*
G01X0001115Y-000323D01*
G01X0001082Y-000402D01*
G01X0001082Y-000520D01*
G01X0001127Y-000629D01*
G01X0001210Y-000712D01*
G01X0001319Y-000757D01*
G01X0001437Y-000757D01*
G01X0001546Y-000712D01*
G01X0001629Y-000629D01*
G01X0001672Y-000526D01*
G01X0001672Y-000542D01*
G01X0001717Y-000651D01*
G01X0001800Y-000735D01*
G01X0001909Y-000780D01*
G01X0002027Y-000780D01*
G01X0002136Y-000735D01*
G01X0002179Y-000692D01*
G01X0003024Y-001538D01*
G01X0003029Y-001565D01*
G01X0003071Y-001627D01*
G01X0003079Y-001635D01*
G01X0003141Y-001676D01*
G01X0003214Y-001691D01*
G01X0003394Y-001691D01*
G01X0003401Y-001706D01*
G01X0003435Y-001740D01*
G01X0003457Y-001750D01*
G01X0003435Y-001759D01*
G01X0003401Y-001793D01*
G01X0003382Y-001838D01*
G01X0003382Y-001886D01*
G01X0003382Y-002161D01*
G01X0003401Y-002206D01*
G01X0003435Y-002240D01*
G01X0003457Y-002250D01*
G01X0003435Y-002259D01*
G01X0003401Y-002293D01*
G01X0003382Y-002338D01*
G01X0003382Y-002386D01*
G01X0003382Y-002661D01*
G01X0003401Y-002706D01*
G01X0003435Y-002740D01*
G01X0003457Y-002750D01*
G01X0003435Y-002759D01*
G01X0003401Y-002793D01*
G01X0003382Y-002838D01*
G01X0003382Y-002886D01*
G01X0003382Y-003161D01*
G01X0003401Y-003206D01*
G01X0003435Y-003240D01*
G01X0003457Y-003250D01*
G01X0003435Y-003259D01*
G01X0003401Y-003293D01*
G01X0003382Y-003338D01*
G01X0003382Y-003386D01*
G01X0003382Y-003661D01*
G01X0003401Y-003706D01*
G01X0003435Y-003740D01*
G01X0003479Y-003759D01*
G01X0003528Y-003759D01*
G01X0003585Y-003759D01*
G01X0003585Y-004687D01*
G01X0003585Y-004687D01*
G37*
G54D17*
G01X0003585Y-004687D02*
G01X0003048Y-004687D01*
G01X0003048Y-004687D02*
G01X0003048Y-003303D01*
G01X0003048Y-003303D02*
G01X0003003Y-003194D01*
G01X0003003Y-003194D02*
G01X0002920Y-003111D01*
G01X0002920Y-003111D02*
G01X0002811Y-003065D01*
G01X0002811Y-003065D02*
G01X0002693Y-003065D01*
G01X0002693Y-003065D02*
G01X0002638Y-003088D01*
G01X0002638Y-003088D02*
G01X0002609Y-003017D01*
G01X0002609Y-003017D02*
G01X0002526Y-002933D01*
G01X0002526Y-002933D02*
G01X0002417Y-002888D01*
G01X0002417Y-002888D02*
G01X0002320Y-002888D01*
G01X0002320Y-002888D02*
G01X0002320Y-002850D01*
G01X0002320Y-002850D02*
G01X0002275Y-002742D01*
G01X0002275Y-002742D02*
G01X0002192Y-002658D01*
G01X0002192Y-002658D02*
G01X0002083Y-002613D01*
G01X0002083Y-002613D02*
G01X0001965Y-002613D01*
G01X0001965Y-002613D02*
G01X0001858Y-002657D01*
G01X0001858Y-002657D02*
G01X0001858Y-002135D01*
G01X0001858Y-002135D02*
G01X0001813Y-002026D01*
G01X0001813Y-002026D02*
G01X0001730Y-001942D01*
G01X0001730Y-001942D02*
G01X0001621Y-001897D01*
G01X0001621Y-001897D02*
G01X0001503Y-001897D01*
G01X0001503Y-001897D02*
G01X0001394Y-001942D01*
G01X0001394Y-001942D02*
G01X0001311Y-002025D01*
G01X0001311Y-002025D02*
G01X0001266Y-002134D01*
G01X0001266Y-002134D02*
G01X0001266Y-002252D01*
G01X0001266Y-002252D02*
G01X0001311Y-002361D01*
G01X0001311Y-002361D02*
G01X0001394Y-002444D01*
G01X0001394Y-002444D02*
G01X0001503Y-002490D01*
G01X0001503Y-002490D02*
G01X0001621Y-002490D01*
G01X0001621Y-002490D02*
G01X0001730Y-002445D01*
G01X0001730Y-002445D02*
G01X0001813Y-002361D01*
G01X0001813Y-002361D02*
G01X0001858Y-002253D01*
G01X0001858Y-002253D02*
G01X0001858Y-002135D01*
G01X0001858Y-002135D02*
G01X0001858Y-002657D01*
G01X0001858Y-002657D02*
G01X0001856Y-002658D01*
G01X0001856Y-002658D02*
G01X0001773Y-002741D01*
G01X0001773Y-002741D02*
G01X0001728Y-002850D01*
G01X0001728Y-002850D02*
G01X0001728Y-002968D01*
G01X0001728Y-002968D02*
G01X0001773Y-003077D01*
G01X0001773Y-003077D02*
G01X0001856Y-003160D01*
G01X0001856Y-003160D02*
G01X0001965Y-003205D01*
G01X0001965Y-003205D02*
G01X0002061Y-003205D01*
G01X0002061Y-003205D02*
G01X0002061Y-003243D01*
G01X0002061Y-003243D02*
G01X0002106Y-003352D01*
G01X0002106Y-003352D02*
G01X0002190Y-003436D01*
G01X0002190Y-003436D02*
G01X0002299Y-003481D01*
G01X0002299Y-003481D02*
G01X0002416Y-003481D01*
G01X0002416Y-003481D02*
G01X0002471Y-003458D01*
G01X0002471Y-003458D02*
G01X0002500Y-003529D01*
G01X0002500Y-003529D02*
G01X0002583Y-003613D01*
G01X0002583Y-003613D02*
G01X0002692Y-003658D01*
G01X0002692Y-003658D02*
G01X0002810Y-003658D01*
G01X0002810Y-003658D02*
G01X0002919Y-003613D01*
G01X0002919Y-003613D02*
G01X0003003Y-003530D01*
G01X0003003Y-003530D02*
G01X0003048Y-003421D01*
G01X0003048Y-003421D02*
G01X0003048Y-003303D01*
G01X0003048Y-003303D02*
G01X0003048Y-004687D01*
G01X0003048Y-004687D02*
G01X0003009Y-004687D01*
G01X0003009Y-004687D02*
G01X0003009Y-004572D01*
G01X0003009Y-004572D02*
G01X0002990Y-004527D01*
G01X0002990Y-004527D02*
G01X0002956Y-004493D01*
G01X0002956Y-004493D02*
G01X0002911Y-004475D01*
G01X0002911Y-004475D02*
G01X0002863Y-004475D01*
G01X0002863Y-004475D02*
G01X0002588Y-004475D01*
G01X0002588Y-004475D02*
G01X0002543Y-004493D01*
G01X0002543Y-004493D02*
G01X0002509Y-004527D01*
G01X0002509Y-004527D02*
G01X0002500Y-004550D01*
G01X0002500Y-004550D02*
G01X0002490Y-004527D01*
G01X0002490Y-004527D02*
G01X0002456Y-004493D01*
G01X0002456Y-004493D02*
G01X0002441Y-004487D01*
G01X0002441Y-004487D02*
G01X0002441Y-004468D01*
G01X0002441Y-004468D02*
G01X0002426Y-004395D01*
G01X0002426Y-004395D02*
G01X0002385Y-004333D01*
G01X0002385Y-004333D02*
G01X0002323Y-004291D01*
G01X0002323Y-004291D02*
G01X0002250Y-004277D01*
G01X0002250Y-004277D02*
G01X0002176Y-004291D01*
G01X0002176Y-004291D02*
G01X0002153Y-004307D01*
G01X0002153Y-004307D02*
G01X0001862Y-004307D01*
G01X0001862Y-004307D02*
G01X0001717Y-004162D01*
G01X0001717Y-004162D02*
G01X0001818Y-004162D01*
G01X0001818Y-004162D02*
G01X0001927Y-004117D01*
G01X0001927Y-004117D02*
G01X0002011Y-004034D01*
G01X0002011Y-004034D02*
G01X0002056Y-003925D01*
G01X0002056Y-003925D02*
G01X0002056Y-003807D01*
G01X0002056Y-003807D02*
G01X0002011Y-003698D01*
G01X0002011Y-003698D02*
G01X0001928Y-003615D01*
G01X0001928Y-003615D02*
G01X0001819Y-003569D01*
G01X0001819Y-003569D02*
G01X0001701Y-003569D01*
G01X0001701Y-003569D02*
G01X0001677Y-003579D01*
G01X0001677Y-003579D02*
G01X0001677Y-003577D01*
G01X0001677Y-003577D02*
G01X0001632Y-003468D01*
G01X0001632Y-003468D02*
G01X0001549Y-003385D01*
G01X0001549Y-003385D02*
G01X0001440Y-003340D01*
G01X0001440Y-003340D02*
G01X0001322Y-003340D01*
G01X0001322Y-003340D02*
G01X0001260Y-003365D01*
G01X0001260Y-003365D02*
G01X0001260Y-003306D01*
G01X0001260Y-003306D02*
G01X0001215Y-003197D01*
G01X0001215Y-003197D02*
G01X0001131Y-003113D01*
G01X0001131Y-003113D02*
G01X0001023Y-003068D01*
G01X0001023Y-003068D02*
G01X0000905Y-003068D01*
G01X0000905Y-003068D02*
G01X0000796Y-003113D01*
G01X0000796Y-003113D02*
G01X0000712Y-003196D01*
G01X0000712Y-003196D02*
G01X0000667Y-003305D01*
G01X0000667Y-003305D02*
G01X0000667Y-003423D01*
G01X0000667Y-003423D02*
G01X0000712Y-003532D01*
G01X0000712Y-003532D02*
G01X0000795Y-003615D01*
G01X0000795Y-003615D02*
G01X0000802Y-003618D01*
G01X0000802Y-003618D02*
G01X0000802Y-003636D01*
G01X0000802Y-003636D02*
G01X0000814Y-003698D01*
G01X0000814Y-003698D02*
G01X0000849Y-003750D01*
G01X0000849Y-003750D02*
G01X0001578Y-004479D01*
G01X0001578Y-004479D02*
G01X0001543Y-004493D01*
G01X0001543Y-004493D02*
G01X0001509Y-004527D01*
G01X0001509Y-004527D02*
G01X0001500Y-004550D01*
G01X0001500Y-004550D02*
G01X0001490Y-004527D01*
G01X0001490Y-004527D02*
G01X0001456Y-004493D01*
G01X0001456Y-004493D02*
G01X0001411Y-004475D01*
G01X0001411Y-004475D02*
G01X0001363Y-004475D01*
G01X0001363Y-004475D02*
G01X0001088Y-004475D01*
G01X0001088Y-004475D02*
G01X0001043Y-004493D01*
G01X0001043Y-004493D02*
G01X0001009Y-004527D01*
G01X0001009Y-004527D02*
G01X0001000Y-004550D01*
G01X0001000Y-004550D02*
G01X0000990Y-004527D01*
G01X0000990Y-004527D02*
G01X0000956Y-004493D01*
G01X0000956Y-004493D02*
G01X0000911Y-004475D01*
G01X0000911Y-004475D02*
G01X0000863Y-004475D01*
G01X0000863Y-004475D02*
G01X0000588Y-004475D01*
G01X0000588Y-004475D02*
G01X0000543Y-004493D01*
G01X0000543Y-004493D02*
G01X0000509Y-004527D01*
G01X0000509Y-004527D02*
G01X0000500Y-004550D01*
G01X0000500Y-004550D02*
G01X0000490Y-004527D01*
G01X0000490Y-004527D02*
G01X0000470Y-004507D01*
G01X0000470Y-004507D02*
G01X0000470Y-003803D01*
G01X0000470Y-003803D02*
G01X0000425Y-003694D01*
G01X0000425Y-003694D02*
G01X0000341Y-003611D01*
G01X0000341Y-003611D02*
G01X0000232Y-003566D01*
G01X0000232Y-003566D02*
G01X0000115Y-003566D01*
G01X0000115Y-003566D02*
G01X0000006Y-003611D01*
G01X0000006Y-003611D02*
G01X-000011Y-003628D01*
G01X-000011Y-003628D02*
G01X-000011Y-001918D01*
G01X-000011Y-001918D02*
G01X-000011Y-001870D01*
G01X-000011Y-001870D02*
G01X-000011Y-001270D01*
G01X-000011Y-001270D02*
G01X-000030Y-001225D01*
G01X-000030Y-001225D02*
G01X-000064Y-001191D01*
G01X-000064Y-001191D02*
G01X-000108Y-001173D01*
G01X-000108Y-001173D02*
G01X-000157Y-001173D01*
G01X-000157Y-001173D02*
G01X-000757Y-001173D01*
G01X-000757Y-001173D02*
G01X-000801Y-001191D01*
G01X-000801Y-001191D02*
G01X-000835Y-001225D01*
G01X-000835Y-001225D02*
G01X-000854Y-001270D01*
G01X-000854Y-001270D02*
G01X-000854Y-001318D01*
G01X-000854Y-001318D02*
G01X-000854Y-001918D01*
G01X-000854Y-001918D02*
G01X-000835Y-001963D01*
G01X-000835Y-001963D02*
G01X-000801Y-001997D01*
G01X-000801Y-001997D02*
G01X-000757Y-002015D01*
G01X-000757Y-002015D02*
G01X-000708Y-002015D01*
G01X-000708Y-002015D02*
G01X-000108Y-002015D01*
G01X-000108Y-002015D02*
G01X-000064Y-001997D01*
G01X-000064Y-001997D02*
G01X-000030Y-001963D01*
G01X-000030Y-001963D02*
G01X-000011Y-001918D01*
G01X-000011Y-001918D02*
G01X-000011Y-003628D01*
G01X-000011Y-003628D02*
G01X-000077Y-003694D01*
G01X-000077Y-003694D02*
G01X-000080Y-003701D01*
G01X-000080Y-003701D02*
G01X-000087Y-003684D01*
G01X-000087Y-003684D02*
G01X-000170Y-003601D01*
G01X-000170Y-003601D02*
G01X-000279Y-003556D01*
G01X-000279Y-003556D02*
G01X-000397Y-003556D01*
G01X-000397Y-003556D02*
G01X-000506Y-003601D01*
G01X-000506Y-003601D02*
G01X-000589Y-003684D01*
G01X-000589Y-003684D02*
G01X-000635Y-003793D01*
G01X-000635Y-003793D02*
G01X-000635Y-003911D01*
G01X-000635Y-003911D02*
G01X-000590Y-004020D01*
G01X-000590Y-004020D02*
G01X-000506Y-004103D01*
G01X-000506Y-004103D02*
G01X-000398Y-004148D01*
G01X-000398Y-004148D02*
G01X-000280Y-004148D01*
G01X-000280Y-004148D02*
G01X-000171Y-004103D01*
G01X-000171Y-004103D02*
G01X-000087Y-004020D01*
G01X-000087Y-004020D02*
G01X-000084Y-004012D01*
G01X-000084Y-004012D02*
G01X-000077Y-004029D01*
G01X-000077Y-004029D02*
G01X0000005Y-004113D01*
G01X0000005Y-004113D02*
G01X0000114Y-004158D01*
G01X0000114Y-004158D02*
G01X0000232Y-004158D01*
G01X0000232Y-004158D02*
G01X0000341Y-004113D01*
G01X0000341Y-004113D02*
G01X0000424Y-004030D01*
G01X0000424Y-004030D02*
G01X0000469Y-003921D01*
G01X0000469Y-003921D02*
G01X0000470Y-003803D01*
G01X0000470Y-003803D02*
G01X0000470Y-004507D01*
G01X0000470Y-004507D02*
G01X0000456Y-004493D01*
G01X0000456Y-004493D02*
G01X0000411Y-004475D01*
G01X0000411Y-004475D02*
G01X0000363Y-004475D01*
G01X0000363Y-004475D02*
G01X0000088Y-004475D01*
G01X0000088Y-004475D02*
G01X0000043Y-004493D01*
G01X0000043Y-004493D02*
G01X0000009Y-004527D01*
G01X0000009Y-004527D02*
G01X0000000Y-004550D01*
G01X0000000Y-004550D02*
G01X-000009Y-004527D01*
G01X-000009Y-004527D02*
G01X-000043Y-004493D01*
G01X-000043Y-004493D02*
G01X-000088Y-004475D01*
G01X-000088Y-004475D02*
G01X-000136Y-004475D01*
G01X-000136Y-004475D02*
G01X-000411Y-004475D01*
G01X-000411Y-004475D02*
G01X-000456Y-004493D01*
G01X-000456Y-004493D02*
G01X-000490Y-004527D01*
G01X-000490Y-004527D02*
G01X-000500Y-004550D01*
G01X-000500Y-004550D02*
G01X-000509Y-004527D01*
G01X-000509Y-004527D02*
G01X-000543Y-004493D01*
G01X-000543Y-004493D02*
G01X-000588Y-004475D01*
G01X-000588Y-004475D02*
G01X-000636Y-004475D01*
G01X-000636Y-004475D02*
G01X-000911Y-004475D01*
G01X-000911Y-004475D02*
G01X-000956Y-004493D01*
G01X-000956Y-004493D02*
G01X-000990Y-004527D01*
G01X-000990Y-004527D02*
G01X-001000Y-004550D01*
G01X-001000Y-004550D02*
G01X-001009Y-004527D01*
G01X-001009Y-004527D02*
G01X-001043Y-004493D01*
G01X-001043Y-004493D02*
G01X-001088Y-004475D01*
G01X-001088Y-004475D02*
G01X-001136Y-004475D01*
G01X-001136Y-004475D02*
G01X-001411Y-004475D01*
G01X-001411Y-004475D02*
G01X-001456Y-004493D01*
G01X-001456Y-004493D02*
G01X-001490Y-004527D01*
G01X-001490Y-004527D02*
G01X-001500Y-004550D01*
G01X-001500Y-004550D02*
G01X-001509Y-004527D01*
G01X-001509Y-004527D02*
G01X-001543Y-004493D01*
G01X-001543Y-004493D02*
G01X-001588Y-004475D01*
G01X-001588Y-004475D02*
G01X-001588Y-004475D01*
G01X-001588Y-004475D02*
G01X-001588Y-004265D01*
G01X-001588Y-004265D02*
G01X-001293Y-003970D01*
G01X-001293Y-003970D02*
G01X-001287Y-003973D01*
G01X-001287Y-003973D02*
G01X-001169Y-003973D01*
G01X-001169Y-003973D02*
G01X-001060Y-003928D01*
G01X-001060Y-003928D02*
G01X-000977Y-003845D01*
G01X-000977Y-003845D02*
G01X-000932Y-003736D01*
G01X-000932Y-003736D02*
G01X-000931Y-003618D01*
G01X-000931Y-003618D02*
G01X-000977Y-003509D01*
G01X-000977Y-003509D02*
G01X-001060Y-003426D01*
G01X-001060Y-003426D02*
G01X-001169Y-003380D01*
G01X-001169Y-003380D02*
G01X-001287Y-003380D01*
G01X-001287Y-003380D02*
G01X-001395Y-003425D01*
G01X-001395Y-003425D02*
G01X-001479Y-003509D01*
G01X-001479Y-003509D02*
G01X-001524Y-003617D01*
G01X-001524Y-003617D02*
G01X-001524Y-003735D01*
G01X-001524Y-003735D02*
G01X-001521Y-003742D01*
G01X-001521Y-003742D02*
G01X-001552Y-003773D01*
G01X-001552Y-003773D02*
G01X-001583Y-003698D01*
G01X-001583Y-003698D02*
G01X-001666Y-003615D01*
G01X-001666Y-003615D02*
G01X-001775Y-003569D01*
G01X-001775Y-003569D02*
G01X-001893Y-003569D01*
G01X-001893Y-003569D02*
G01X-001896Y-003571D01*
G01X-001896Y-003571D02*
G01X-001896Y-003464D01*
G01X-001896Y-003464D02*
G01X-001941Y-003356D01*
G01X-001941Y-003356D02*
G01X-002024Y-003272D01*
G01X-002024Y-003272D02*
G01X-002133Y-003227D01*
G01X-002133Y-003227D02*
G01X-002251Y-003227D01*
G01X-002251Y-003227D02*
G01X-002360Y-003272D01*
G01X-002360Y-003272D02*
G01X-002388Y-003299D01*
G01X-002388Y-003299D02*
G01X-002388Y-001817D01*
G01X-002388Y-001817D02*
G01X-002433Y-001708D01*
G01X-002433Y-001708D02*
G01X-002487Y-001653D01*
G01X-002487Y-001653D02*
G01X-002438Y-001605D01*
G01X-002438Y-001605D02*
G01X-002393Y-001496D01*
G01X-002393Y-001496D02*
G01X-002393Y-001378D01*
G01X-002393Y-001378D02*
G01X-002438Y-001269D01*
G01X-002438Y-001269D02*
G01X-002521Y-001186D01*
G01X-002521Y-001186D02*
G01X-002630Y-001140D01*
G01X-002630Y-001140D02*
G01X-002660Y-001140D01*
G01X-002660Y-001140D02*
G01X-002660Y-000006D01*
G01X-002660Y-000006D02*
G01X-002705Y0000102D01*
G01X-002705Y0000102D02*
G01X-002788Y0000186D01*
G01X-002788Y0000186D02*
G01X-002897Y0000231D01*
G01X-002897Y0000231D02*
G01X-003015Y0000231D01*
G01X-003015Y0000231D02*
G01X-003124Y0000186D01*
G01X-003124Y0000186D02*
G01X-003207Y0000103D01*
G01X-003207Y0000103D02*
G01X-003252Y-000005D01*
G01X-003252Y-000005D02*
G01X-003252Y-000123D01*
G01X-003252Y-000123D02*
G01X-003207Y-000232D01*
G01X-003207Y-000232D02*
G01X-003124Y-000315D01*
G01X-003124Y-000315D02*
G01X-003015Y-000361D01*
G01X-003015Y-000361D02*
G01X-002897Y-000361D01*
G01X-002897Y-000361D02*
G01X-002788Y-000316D01*
G01X-002788Y-000316D02*
G01X-002705Y-000232D01*
G01X-002705Y-000232D02*
G01X-002660Y-000123D01*
G01X-002660Y-000123D02*
G01X-002660Y-000006D01*
G01X-002660Y-000006D02*
G01X-002660Y-001140D01*
G01X-002660Y-001140D02*
G01X-002748Y-001140D01*
G01X-002748Y-001140D02*
G01X-002857Y-001185D01*
G01X-002857Y-001185D02*
G01X-002941Y-001269D01*
G01X-002941Y-001269D02*
G01X-002986Y-001378D01*
G01X-002986Y-001378D02*
G01X-002986Y-001495D01*
G01X-002986Y-001495D02*
G01X-002941Y-001604D01*
G01X-002941Y-001604D02*
G01X-002887Y-001659D01*
G01X-002887Y-001659D02*
G01X-002935Y-001707D01*
G01X-002935Y-001707D02*
G01X-002980Y-001816D01*
G01X-002980Y-001816D02*
G01X-002980Y-001934D01*
G01X-002980Y-001934D02*
G01X-002935Y-002043D01*
G01X-002935Y-002043D02*
G01X-002852Y-002126D01*
G01X-002852Y-002126D02*
G01X-002743Y-002172D01*
G01X-002743Y-002172D02*
G01X-002625Y-002172D01*
G01X-002625Y-002172D02*
G01X-002516Y-002127D01*
G01X-002516Y-002127D02*
G01X-002433Y-002043D01*
G01X-002433Y-002043D02*
G01X-002388Y-001935D01*
G01X-002388Y-001935D02*
G01X-002388Y-001817D01*
G01X-002388Y-001817D02*
G01X-002388Y-003299D01*
G01X-002388Y-003299D02*
G01X-002443Y-003355D01*
G01X-002443Y-003355D02*
G01X-002455Y-003383D01*
G01X-002455Y-003383D02*
G01X-002455Y-003256D01*
G01X-002455Y-003256D02*
G01X-002500Y-003147D01*
G01X-002500Y-003147D02*
G01X-002577Y-003070D01*
G01X-002577Y-003070D02*
G01X-002504Y-002998D01*
G01X-002504Y-002998D02*
G01X-002459Y-002889D01*
G01X-002459Y-002889D02*
G01X-002459Y-002772D01*
G01X-002459Y-002772D02*
G01X-002504Y-002663D01*
G01X-002504Y-002663D02*
G01X-002587Y-002579D01*
G01X-002587Y-002579D02*
G01X-002696Y-002534D01*
G01X-002696Y-002534D02*
G01X-002814Y-002534D01*
G01X-002814Y-002534D02*
G01X-002923Y-002579D01*
G01X-002923Y-002579D02*
G01X-003006Y-002662D01*
G01X-003006Y-002662D02*
G01X-003052Y-002771D01*
G01X-003052Y-002771D02*
G01X-003052Y-002889D01*
G01X-003052Y-002889D02*
G01X-003007Y-002998D01*
G01X-003007Y-002998D02*
G01X-002930Y-003074D01*
G01X-002930Y-003074D02*
G01X-003003Y-003146D01*
G01X-003003Y-003146D02*
G01X-003048Y-003255D01*
G01X-003048Y-003255D02*
G01X-003048Y-003373D01*
G01X-003048Y-003373D02*
G01X-003003Y-003482D01*
G01X-003003Y-003482D02*
G01X-002920Y-003566D01*
G01X-002920Y-003566D02*
G01X-002811Y-003611D01*
G01X-002811Y-003611D02*
G01X-002693Y-003611D01*
G01X-002693Y-003611D02*
G01X-002584Y-003566D01*
G01X-002584Y-003566D02*
G01X-002500Y-003483D01*
G01X-002500Y-003483D02*
G01X-002455Y-003374D01*
G01X-002455Y-003374D02*
G01X-002455Y-003256D01*
G01X-002455Y-003256D02*
G01X-002455Y-003383D01*
G01X-002455Y-003383D02*
G01X-002489Y-003464D01*
G01X-002489Y-003464D02*
G01X-002489Y-003582D01*
G01X-002489Y-003582D02*
G01X-002444Y-003691D01*
G01X-002444Y-003691D02*
G01X-002360Y-003774D01*
G01X-002360Y-003774D02*
G01X-002252Y-003819D01*
G01X-002252Y-003819D02*
G01X-002134Y-003819D01*
G01X-002134Y-003819D02*
G01X-002130Y-003818D01*
G01X-002130Y-003818D02*
G01X-002130Y-003924D01*
G01X-002130Y-003924D02*
G01X-002085Y-004033D01*
G01X-002085Y-004033D02*
G01X-002002Y-004117D01*
G01X-002002Y-004117D02*
G01X-001903Y-004158D01*
G01X-001903Y-004158D02*
G01X-001911Y-004198D01*
G01X-001911Y-004198D02*
G01X-001911Y-004475D01*
G01X-001911Y-004475D02*
G01X-001911Y-004475D01*
G01X-001911Y-004475D02*
G01X-001956Y-004493D01*
G01X-001956Y-004493D02*
G01X-001990Y-004527D01*
G01X-001990Y-004527D02*
G01X-002000Y-004550D01*
G01X-002000Y-004550D02*
G01X-002009Y-004527D01*
G01X-002009Y-004527D02*
G01X-002043Y-004493D01*
G01X-002043Y-004493D02*
G01X-002088Y-004475D01*
G01X-002088Y-004475D02*
G01X-002136Y-004475D01*
G01X-002136Y-004475D02*
G01X-002411Y-004475D01*
G01X-002411Y-004475D02*
G01X-002456Y-004493D01*
G01X-002456Y-004493D02*
G01X-002490Y-004527D01*
G01X-002490Y-004527D02*
G01X-002500Y-004550D01*
G01X-002500Y-004550D02*
G01X-002509Y-004527D01*
G01X-002509Y-004527D02*
G01X-002543Y-004493D01*
G01X-002543Y-004493D02*
G01X-002588Y-004475D01*
G01X-002588Y-004475D02*
G01X-002636Y-004475D01*
G01X-002636Y-004475D02*
G01X-002911Y-004475D01*
G01X-002911Y-004475D02*
G01X-002956Y-004493D01*
G01X-002956Y-004493D02*
G01X-002990Y-004527D01*
G01X-002990Y-004527D02*
G01X-003009Y-004572D01*
G01X-003009Y-004572D02*
G01X-003009Y-004620D01*
G01X-003009Y-004620D02*
G01X-003009Y-004687D01*
G01X-003009Y-004687D02*
G01X-003597Y-004687D01*
G01X-003597Y-004687D02*
G01X-003597Y-003759D01*
G01X-003597Y-003759D02*
G01X-003479Y-003759D01*
G01X-003479Y-003759D02*
G01X-003435Y-003740D01*
G01X-003435Y-003740D02*
G01X-003401Y-003706D01*
G01X-003401Y-003706D02*
G01X-003382Y-003661D01*
G01X-003382Y-003661D02*
G01X-003382Y-003613D01*
G01X-003382Y-003613D02*
G01X-003382Y-003338D01*
G01X-003382Y-003338D02*
G01X-003401Y-003293D01*
G01X-003401Y-003293D02*
G01X-003435Y-003259D01*
G01X-003435Y-003259D02*
G01X-003457Y-003250D01*
G01X-003457Y-003250D02*
G01X-003435Y-003240D01*
G01X-003435Y-003240D02*
G01X-003401Y-003206D01*
G01X-003401Y-003206D02*
G01X-003382Y-003161D01*
G01X-003382Y-003161D02*
G01X-003382Y-003113D01*
G01X-003382Y-003113D02*
G01X-003382Y-002838D01*
G01X-003382Y-002838D02*
G01X-003401Y-002793D01*
G01X-003401Y-002793D02*
G01X-003435Y-002759D01*
G01X-003435Y-002759D02*
G01X-003457Y-002750D01*
G01X-003457Y-002750D02*
G01X-003435Y-002740D01*
G01X-003435Y-002740D02*
G01X-003401Y-002706D01*
G01X-003401Y-002706D02*
G01X-003382Y-002661D01*
G01X-003382Y-002661D02*
G01X-003382Y-002613D01*
G01X-003382Y-002613D02*
G01X-003382Y-002338D01*
G01X-003382Y-002338D02*
G01X-003401Y-002293D01*
G01X-003401Y-002293D02*
G01X-003435Y-002259D01*
G01X-003435Y-002259D02*
G01X-003457Y-002250D01*
G01X-003457Y-002250D02*
G01X-003435Y-002240D01*
G01X-003435Y-002240D02*
G01X-003401Y-002206D01*
G01X-003401Y-002206D02*
G01X-003382Y-002161D01*
G01X-003382Y-002161D02*
G01X-003382Y-002113D01*
G01X-003382Y-002113D02*
G01X-003382Y-001838D01*
G01X-003382Y-001838D02*
G01X-003401Y-001793D01*
G01X-003401Y-001793D02*
G01X-003435Y-001759D01*
G01X-003435Y-001759D02*
G01X-003457Y-001750D01*
G01X-003457Y-001750D02*
G01X-003435Y-001740D01*
G01X-003435Y-001740D02*
G01X-003401Y-001706D01*
G01X-003401Y-001706D02*
G01X-003382Y-001661D01*
G01X-003382Y-001661D02*
G01X-003382Y-001613D01*
G01X-003382Y-001613D02*
G01X-003382Y-001338D01*
G01X-003382Y-001338D02*
G01X-003401Y-001293D01*
G01X-003401Y-001293D02*
G01X-003435Y-001259D01*
G01X-003435Y-001259D02*
G01X-003457Y-001250D01*
G01X-003457Y-001250D02*
G01X-003435Y-001240D01*
G01X-003435Y-001240D02*
G01X-003401Y-001206D01*
G01X-003401Y-001206D02*
G01X-003382Y-001161D01*
G01X-003382Y-001161D02*
G01X-003382Y-001113D01*
G01X-003382Y-001113D02*
G01X-003382Y-000838D01*
G01X-003382Y-000838D02*
G01X-003401Y-000793D01*
G01X-003401Y-000793D02*
G01X-003435Y-000759D01*
G01X-003435Y-000759D02*
G01X-003457Y-000750D01*
G01X-003457Y-000750D02*
G01X-003435Y-000740D01*
G01X-003435Y-000740D02*
G01X-003401Y-000706D01*
G01X-003401Y-000706D02*
G01X-003382Y-000661D01*
G01X-003382Y-000661D02*
G01X-003382Y-000613D01*
G01X-003382Y-000613D02*
G01X-003382Y-000338D01*
G01X-003382Y-000338D02*
G01X-003401Y-000293D01*
G01X-003401Y-000293D02*
G01X-003435Y-000259D01*
G01X-003435Y-000259D02*
G01X-003457Y-000250D01*
G01X-003457Y-000250D02*
G01X-003435Y-000240D01*
G01X-003435Y-000240D02*
G01X-003401Y-000206D01*
G01X-003401Y-000206D02*
G01X-003382Y-000161D01*
G01X-003382Y-000161D02*
G01X-003382Y-000113D01*
G01X-003382Y-000113D02*
G01X-003382Y0000161D01*
G01X-003382Y0000161D02*
G01X-003401Y0000206D01*
G01X-003401Y0000206D02*
G01X-003435Y0000240D01*
G01X-003435Y0000240D02*
G01X-003457Y0000250D01*
G01X-003457Y0000250D02*
G01X-003435Y0000259D01*
G01X-003435Y0000259D02*
G01X-003401Y0000293D01*
G01X-003401Y0000293D02*
G01X-003394Y0000308D01*
G01X-003394Y0000308D02*
G01X-003391Y0000308D01*
G01X-003391Y0000308D02*
G01X-003318Y0000323D01*
G01X-003318Y0000323D02*
G01X-003256Y0000364D01*
G01X-003256Y0000364D02*
G01X-003248Y0000372D01*
G01X-003248Y0000372D02*
G01X-003207Y0000434D01*
G01X-003207Y0000434D02*
G01X-003203Y0000451D01*
G01X-003203Y0000451D02*
G01X-001524Y0000451D01*
G01X-001524Y0000451D02*
G01X-001521Y0000445D01*
G01X-001521Y0000445D02*
G01X-001438Y0000361D01*
G01X-001438Y0000361D02*
G01X-001329Y0000316D01*
G01X-001329Y0000316D02*
G01X-001295Y0000316D01*
G01X-001295Y0000316D02*
G01X-001322Y0000252D01*
G01X-001322Y0000252D02*
G01X-001322Y0000134D01*
G01X-001322Y0000134D02*
G01X-001277Y0000025D01*
G01X-001277Y0000025D02*
G01X-001194Y-000058D01*
G01X-001194Y-000058D02*
G01X-001089Y-000101D01*
G01X-001089Y-000101D02*
G01X-001816Y-000101D01*
G01X-001816Y-000101D02*
G01X-001827Y-000074D01*
G01X-001827Y-000074D02*
G01X-001910Y0000008D01*
G01X-001910Y0000008D02*
G01X-002019Y0000053D01*
G01X-002019Y0000053D02*
G01X-002137Y0000053D01*
G01X-002137Y0000053D02*
G01X-002246Y0000008D01*
G01X-002246Y0000008D02*
G01X-002329Y-000074D01*
G01X-002329Y-000074D02*
G01X-002374Y-000183D01*
G01X-002374Y-000183D02*
G01X-002375Y-000301D01*
G01X-002375Y-000301D02*
G01X-002330Y-000410D01*
G01X-002330Y-000410D02*
G01X-002246Y-000493D01*
G01X-002246Y-000493D02*
G01X-002137Y-000538D01*
G01X-002137Y-000538D02*
G01X-002020Y-000538D01*
G01X-002020Y-000538D02*
G01X-001911Y-000493D01*
G01X-001911Y-000493D02*
G01X-001841Y-000424D01*
G01X-001841Y-000424D02*
G01X-000447Y-000424D01*
G01X-000447Y-000424D02*
G01X-000386Y-000411D01*
G01X-000386Y-000411D02*
G01X-000333Y-000377D01*
G01X-000333Y-000377D02*
G01X0000946Y0000902D01*
G01X0000946Y0000902D02*
G01X0000952Y0000900D01*
G01X0000952Y0000900D02*
G01X0001070Y0000900D01*
G01X0001070Y0000900D02*
G01X0001179Y0000945D01*
G01X0001179Y0000945D02*
G01X0001262Y0001028D01*
G01X0001262Y0001028D02*
G01X0001293Y0001103D01*
G01X0001293Y0001103D02*
G01X0001337Y0001060D01*
G01X0001337Y0001060D02*
G01X0001385Y0001028D01*
G01X0001385Y0001028D02*
G01X0001347Y0000938D01*
G01X0001347Y0000938D02*
G01X0001347Y0000820D01*
G01X0001347Y0000820D02*
G01X0001392Y0000711D01*
G01X0001392Y0000711D02*
G01X0001475Y0000628D01*
G01X0001475Y0000628D02*
G01X0001584Y0000582D01*
G01X0001584Y0000582D02*
G01X0001702Y0000582D01*
G01X0001702Y0000582D02*
G01X0001811Y0000627D01*
G01X0001811Y0000627D02*
G01X0001894Y0000711D01*
G01X0001894Y0000711D02*
G01X0001940Y0000820D01*
G01X0001940Y0000820D02*
G01X0001940Y0000937D01*
G01X0001940Y0000937D02*
G01X0001909Y0001013D01*
G01X0001909Y0001013D02*
G01X0003108Y0001013D01*
G01X0003108Y0001013D02*
G01X0003256Y0000864D01*
G01X0003256Y0000864D02*
G01X0003318Y0000823D01*
G01X0003318Y0000823D02*
G01X0003391Y0000808D01*
G01X0003391Y0000808D02*
G01X0003394Y0000808D01*
G01X0003394Y0000808D02*
G01X0003401Y0000793D01*
G01X0003401Y0000793D02*
G01X0003435Y0000759D01*
G01X0003435Y0000759D02*
G01X0003457Y0000750D01*
G01X0003457Y0000750D02*
G01X0003435Y0000740D01*
G01X0003435Y0000740D02*
G01X0003401Y0000706D01*
G01X0003401Y0000706D02*
G01X0003382Y0000661D01*
G01X0003382Y0000661D02*
G01X0003382Y0000613D01*
G01X0003382Y0000613D02*
G01X0003382Y0000338D01*
G01X0003382Y0000338D02*
G01X0003401Y0000293D01*
G01X0003401Y0000293D02*
G01X0003435Y0000259D01*
G01X0003435Y0000259D02*
G01X0003457Y0000250D01*
G01X0003457Y0000250D02*
G01X0003435Y0000240D01*
G01X0003435Y0000240D02*
G01X0003401Y0000206D01*
G01X0003401Y0000206D02*
G01X0003382Y0000161D01*
G01X0003382Y0000161D02*
G01X0003382Y0000113D01*
G01X0003382Y0000113D02*
G01X0003382Y-000161D01*
G01X0003382Y-000161D02*
G01X0003401Y-000206D01*
G01X0003401Y-000206D02*
G01X0003435Y-000240D01*
G01X0003435Y-000240D02*
G01X0003457Y-000250D01*
G01X0003457Y-000250D02*
G01X0003435Y-000259D01*
G01X0003435Y-000259D02*
G01X0003407Y-000287D01*
G01X0003407Y-000287D02*
G01X0002895Y0000224D01*
G01X0002895Y0000224D02*
G01X0002842Y0000259D01*
G01X0002842Y0000259D02*
G01X0002781Y0000271D01*
G01X0002781Y0000271D02*
G01X0001798Y0000271D01*
G01X0001798Y0000271D02*
G01X0001798Y0000271D01*
G01X0001798Y0000271D02*
G01X0001736Y0000259D01*
G01X0001736Y0000259D02*
G01X0001684Y0000224D01*
G01X0001684Y0000224D02*
G01X0001681Y0000221D01*
G01X0001681Y0000221D02*
G01X0001650Y0000296D01*
G01X0001650Y0000296D02*
G01X0001567Y0000379D01*
G01X0001567Y0000379D02*
G01X0001458Y0000425D01*
G01X0001458Y0000425D02*
G01X0001340Y0000425D01*
G01X0001340Y0000425D02*
G01X0001231Y0000380D01*
G01X0001231Y0000380D02*
G01X0001148Y0000296D01*
G01X0001148Y0000296D02*
G01X0001129Y0000252D01*
G01X0001129Y0000252D02*
G01X0001028Y0000294D01*
G01X0001028Y0000294D02*
G01X0000910Y0000294D01*
G01X0000910Y0000294D02*
G01X0000801Y0000249D01*
G01X0000801Y0000249D02*
G01X0000718Y0000166D01*
G01X0000718Y0000166D02*
G01X0000673Y0000057D01*
G01X0000673Y0000057D02*
G01X0000672Y-000060D01*
G01X0000672Y-000060D02*
G01X0000717Y-000169D01*
G01X0000717Y-000169D02*
G01X0000801Y-000252D01*
G01X0000801Y-000252D02*
G01X0000910Y-000298D01*
G01X0000910Y-000298D02*
G01X0001027Y-000298D01*
G01X0001027Y-000298D02*
G01X0001039Y-000293D01*
G01X0001039Y-000293D02*
G01X0001071Y-000315D01*
G01X0001071Y-000315D02*
G01X0001115Y-000323D01*
G01X0001115Y-000323D02*
G01X0001082Y-000402D01*
G01X0001082Y-000402D02*
G01X0001082Y-000520D01*
G01X0001082Y-000520D02*
G01X0001127Y-000629D01*
G01X0001127Y-000629D02*
G01X0001210Y-000712D01*
G01X0001210Y-000712D02*
G01X0001319Y-000757D01*
G01X0001319Y-000757D02*
G01X0001437Y-000757D01*
G01X0001437Y-000757D02*
G01X0001546Y-000712D01*
G01X0001546Y-000712D02*
G01X0001629Y-000629D01*
G01X0001629Y-000629D02*
G01X0001672Y-000526D01*
G01X0001672Y-000526D02*
G01X0001672Y-000542D01*
G01X0001672Y-000542D02*
G01X0001717Y-000651D01*
G01X0001717Y-000651D02*
G01X0001800Y-000735D01*
G01X0001800Y-000735D02*
G01X0001909Y-000780D01*
G01X0001909Y-000780D02*
G01X0002027Y-000780D01*
G01X0002027Y-000780D02*
G01X0002136Y-000735D01*
G01X0002136Y-000735D02*
G01X0002179Y-000692D01*
G01X0002179Y-000692D02*
G01X0003024Y-001538D01*
G01X0003024Y-001538D02*
G01X0003029Y-001565D01*
G01X0003029Y-001565D02*
G01X0003071Y-001627D01*
G01X0003071Y-001627D02*
G01X0003079Y-001635D01*
G01X0003079Y-001635D02*
G01X0003141Y-001676D01*
G01X0003141Y-001676D02*
G01X0003214Y-001691D01*
G01X0003214Y-001691D02*
G01X0003394Y-001691D01*
G01X0003394Y-001691D02*
G01X0003401Y-001706D01*
G01X0003401Y-001706D02*
G01X0003435Y-001740D01*
G01X0003435Y-001740D02*
G01X0003457Y-001750D01*
G01X0003457Y-001750D02*
G01X0003435Y-001759D01*
G01X0003435Y-001759D02*
G01X0003401Y-001793D01*
G01X0003401Y-001793D02*
G01X0003382Y-001838D01*
G01X0003382Y-001838D02*
G01X0003382Y-001886D01*
G01X0003382Y-001886D02*
G01X0003382Y-002161D01*
G01X0003382Y-002161D02*
G01X0003401Y-002206D01*
G01X0003401Y-002206D02*
G01X0003435Y-002240D01*
G01X0003435Y-002240D02*
G01X0003457Y-002250D01*
G01X0003457Y-002250D02*
G01X0003435Y-002259D01*
G01X0003435Y-002259D02*
G01X0003401Y-002293D01*
G01X0003401Y-002293D02*
G01X0003382Y-002338D01*
G01X0003382Y-002338D02*
G01X0003382Y-002386D01*
G01X0003382Y-002386D02*
G01X0003382Y-002661D01*
G01X0003382Y-002661D02*
G01X0003401Y-002706D01*
G01X0003401Y-002706D02*
G01X0003435Y-002740D01*
G01X0003435Y-002740D02*
G01X0003457Y-002750D01*
G01X0003457Y-002750D02*
G01X0003435Y-002759D01*
G01X0003435Y-002759D02*
G01X0003401Y-002793D01*
G01X0003401Y-002793D02*
G01X0003382Y-002838D01*
G01X0003382Y-002838D02*
G01X0003382Y-002886D01*
G01X0003382Y-002886D02*
G01X0003382Y-003161D01*
G01X0003382Y-003161D02*
G01X0003401Y-003206D01*
G01X0003401Y-003206D02*
G01X0003435Y-003240D01*
G01X0003435Y-003240D02*
G01X0003457Y-003250D01*
G01X0003457Y-003250D02*
G01X0003435Y-003259D01*
G01X0003435Y-003259D02*
G01X0003401Y-003293D01*
G01X0003401Y-003293D02*
G01X0003382Y-003338D01*
G01X0003382Y-003338D02*
G01X0003382Y-003386D01*
G01X0003382Y-003386D02*
G01X0003382Y-003661D01*
G01X0003382Y-003661D02*
G01X0003401Y-003706D01*
G01X0003401Y-003706D02*
G01X0003435Y-003740D01*
G01X0003435Y-003740D02*
G01X0003479Y-003759D01*
G01X0003479Y-003759D02*
G01X0003528Y-003759D01*
G01X0003528Y-003759D02*
G01X0003585Y-003759D01*
G01X0003585Y-003759D02*
G01X0003585Y-004687D01*
M02*
