G04 (created by PCBNEW (2013-mar-13)-testing) date Tue 22 Oct 2013 13:23:17 EST*
%MOIN*%
G04 Gerber Fmt 3.4, Leading zero omitted, Abs format*
%FSLAX34Y34*%
G01*
G70*
G90*
G04 APERTURE LIST*
%ADD10C,0.005000*%
%ADD11C,0.005906*%
%ADD12C,0.007874*%
%ADD13C,0.011811*%
G04 APERTURE END LIST*
G54D10*
G54D11*
X102Y39D02*
X39Y39D01*
X7153Y10964D02*
X7196Y10964D01*
X10106Y39D02*
X10153Y39D01*
X3011Y10964D02*
X39Y8401D01*
X39Y8401D02*
X39Y39D01*
X10153Y8413D02*
X10153Y39D01*
X70Y39D02*
X10114Y39D01*
X7196Y10964D02*
X10153Y8413D01*
X3007Y10964D02*
X7157Y10964D01*
G54D12*
X1479Y7448D02*
X1729Y7198D01*
X1729Y7448D02*
X1479Y7198D01*
X1611Y3880D02*
X1861Y3630D01*
X1861Y3880D02*
X1611Y3630D01*
X1796Y4652D02*
X2046Y4402D01*
X2046Y4652D02*
X1796Y4402D01*
X1835Y6754D02*
X2085Y6504D01*
X2085Y6754D02*
X1835Y6504D01*
X2005Y7188D02*
X2255Y6938D01*
X2255Y7188D02*
X2005Y6938D01*
X2512Y3719D02*
X2762Y3469D01*
X2762Y3719D02*
X2512Y3469D01*
X3296Y10731D02*
X3546Y10481D01*
X3546Y10731D02*
X3296Y10481D01*
X3461Y10416D02*
X3711Y10166D01*
X3711Y10416D02*
X3461Y10166D01*
X3461Y9715D02*
X3711Y9465D01*
X3711Y9715D02*
X3461Y9465D01*
X3461Y9014D02*
X3711Y8764D01*
X3711Y9014D02*
X3461Y8764D01*
X3563Y8169D02*
X3813Y7919D01*
X3813Y8169D02*
X3563Y7919D01*
X3650Y10719D02*
X3900Y10469D01*
X3900Y10719D02*
X3650Y10469D01*
X3713Y3601D02*
X3963Y3351D01*
X3963Y3601D02*
X3713Y3351D01*
X3847Y8499D02*
X4097Y8249D01*
X4097Y8499D02*
X3847Y8249D01*
X4024Y3900D02*
X4274Y3650D01*
X4274Y3900D02*
X4024Y3650D01*
X4083Y3239D02*
X4333Y2989D01*
X4333Y3239D02*
X4083Y2989D01*
X4556Y4034D02*
X4806Y3784D01*
X4806Y4034D02*
X4556Y3784D01*
X4812Y4416D02*
X5062Y4166D01*
X5062Y4416D02*
X4812Y4166D01*
X5036Y8979D02*
X5286Y8729D01*
X5286Y8979D02*
X5036Y8729D01*
X5276Y4054D02*
X5526Y3804D01*
X5526Y4054D02*
X5276Y3804D01*
X5670Y8223D02*
X5920Y7973D01*
X5920Y8223D02*
X5670Y7973D01*
X5745Y8979D02*
X5995Y8729D01*
X5995Y8979D02*
X5745Y8729D01*
X6028Y7920D02*
X6278Y7670D01*
X6278Y7920D02*
X6028Y7670D01*
X6154Y4845D02*
X6404Y4595D01*
X6404Y4845D02*
X6154Y4595D01*
X6296Y8278D02*
X6546Y8028D01*
X6546Y8278D02*
X6296Y8028D01*
X6315Y6758D02*
X6565Y6508D01*
X6565Y6758D02*
X6315Y6508D01*
X6410Y5786D02*
X6660Y5536D01*
X6660Y5786D02*
X6410Y5536D01*
X6453Y8979D02*
X6703Y8729D01*
X6703Y8979D02*
X6453Y8729D01*
X6493Y7880D02*
X6743Y7630D01*
X6743Y7880D02*
X6493Y7630D01*
X6540Y4388D02*
X6790Y4138D01*
X6790Y4388D02*
X6540Y4138D01*
X6729Y8274D02*
X6979Y8024D01*
X6979Y8274D02*
X6729Y8024D01*
X6937Y7892D02*
X7187Y7642D01*
X7187Y7892D02*
X6937Y7642D01*
X7162Y8979D02*
X7412Y8729D01*
X7412Y8979D02*
X7162Y8729D01*
X7296Y849D02*
X7546Y599D01*
X7546Y849D02*
X7296Y599D01*
X7304Y1443D02*
X7554Y1193D01*
X7554Y1443D02*
X7304Y1193D01*
X7516Y4861D02*
X7766Y4611D01*
X7766Y4861D02*
X7516Y4611D01*
X7871Y8979D02*
X8121Y8729D01*
X8121Y8979D02*
X7871Y8729D01*
X9418Y648D02*
X9668Y398D01*
X9668Y648D02*
X9418Y398D01*
X4515Y6251D02*
G75*
G03X4515Y6251I-137J0D01*
G74*
G01*
X5240Y1090D02*
G75*
G03X5240Y1090I-137J0D01*
G74*
G01*
X5244Y381D02*
G75*
G03X5244Y381I-137J0D01*
G74*
G01*
X771Y8419D02*
X771Y8099D01*
X611Y8259D02*
X931Y8259D01*
X771Y7632D02*
X771Y7312D01*
X611Y7472D02*
X931Y7472D01*
X771Y6844D02*
X771Y6524D01*
X611Y6684D02*
X931Y6684D01*
X771Y6057D02*
X771Y5737D01*
X611Y5897D02*
X931Y5897D01*
X771Y5269D02*
X771Y4949D01*
X611Y5109D02*
X931Y5109D01*
X771Y4482D02*
X771Y4162D01*
X611Y4322D02*
X931Y4322D01*
X771Y3695D02*
X771Y3375D01*
X611Y3535D02*
X931Y3535D01*
X771Y2907D02*
X771Y2587D01*
X611Y2747D02*
X931Y2747D01*
X771Y2120D02*
X771Y1800D01*
X611Y1960D02*
X931Y1960D01*
X771Y1332D02*
X771Y1012D01*
X611Y1172D02*
X931Y1172D01*
X9433Y8419D02*
X9433Y8099D01*
X9273Y8259D02*
X9593Y8259D01*
X9433Y7632D02*
X9433Y7312D01*
X9273Y7472D02*
X9593Y7472D01*
X9433Y6844D02*
X9433Y6524D01*
X9273Y6684D02*
X9593Y6684D01*
X9433Y6057D02*
X9433Y5737D01*
X9273Y5897D02*
X9593Y5897D01*
X9433Y5269D02*
X9433Y4949D01*
X9273Y5109D02*
X9593Y5109D01*
X9433Y4482D02*
X9433Y4162D01*
X9273Y4322D02*
X9593Y4322D01*
X9433Y3695D02*
X9433Y3375D01*
X9273Y3535D02*
X9593Y3535D01*
X9433Y2907D02*
X9433Y2587D01*
X9273Y2747D02*
X9593Y2747D01*
X9433Y2120D02*
X9433Y1800D01*
X9273Y1960D02*
X9593Y1960D01*
X9433Y1332D02*
X9433Y1012D01*
X9273Y1172D02*
X9593Y1172D01*
X2062Y2972D02*
X2062Y3255D01*
X1779Y3255D01*
X1779Y2972D01*
X2062Y2972D01*
X2062Y1972D02*
X2062Y2255D01*
X1779Y2255D01*
X1779Y1972D01*
X2062Y1972D01*
X2062Y972D02*
X2062Y1255D01*
X1779Y1255D01*
X1779Y972D01*
X2062Y972D01*
X3062Y2972D02*
X3062Y3255D01*
X2779Y3255D01*
X2779Y2972D01*
X3062Y2972D01*
X3062Y1972D02*
X3062Y2255D01*
X2779Y2255D01*
X2779Y1972D01*
X3062Y1972D01*
X3062Y972D02*
X3062Y1255D01*
X2779Y1255D01*
X2779Y972D01*
X3062Y972D01*
G54D13*
X1078Y-1823D02*
X1078Y-642D01*
X1359Y-642D01*
X1528Y-698D01*
X1640Y-811D01*
X1697Y-923D01*
X1753Y-1148D01*
X1753Y-1317D01*
X1697Y-1542D01*
X1640Y-1654D01*
X1528Y-1767D01*
X1359Y-1823D01*
X1078Y-1823D01*
X2259Y-1823D02*
X2259Y-1036D01*
X2259Y-1261D02*
X2315Y-1148D01*
X2372Y-1092D01*
X2484Y-1036D01*
X2597Y-1036D01*
X2990Y-1823D02*
X2990Y-1036D01*
X2990Y-642D02*
X2934Y-698D01*
X2990Y-755D01*
X3046Y-698D01*
X2990Y-642D01*
X2990Y-755D01*
X3721Y-1823D02*
X3609Y-1767D01*
X3553Y-1654D01*
X3553Y-642D01*
X4340Y-1823D02*
X4228Y-1767D01*
X4171Y-1654D01*
X4171Y-642D01*
X5690Y-1823D02*
X5690Y-642D01*
X6084Y-1486D01*
X6477Y-642D01*
X6477Y-1823D01*
X7546Y-1823D02*
X7546Y-1205D01*
X7490Y-1092D01*
X7377Y-1036D01*
X7152Y-1036D01*
X7040Y-1092D01*
X7546Y-1767D02*
X7433Y-1823D01*
X7152Y-1823D01*
X7040Y-1767D01*
X6983Y-1654D01*
X6983Y-1542D01*
X7040Y-1429D01*
X7152Y-1373D01*
X7433Y-1373D01*
X7546Y-1317D01*
X8108Y-1036D02*
X8108Y-2217D01*
X8108Y-1092D02*
X8221Y-1036D01*
X8446Y-1036D01*
X8558Y-1092D01*
X8615Y-1148D01*
X8671Y-1261D01*
X8671Y-1598D01*
X8615Y-1711D01*
X8558Y-1767D01*
X8446Y-1823D01*
X8221Y-1823D01*
X8108Y-1767D01*
X9177Y-1711D02*
X9233Y-1767D01*
X9177Y-1823D01*
X9121Y-1767D01*
X9177Y-1711D01*
X9177Y-1823D01*
X9177Y-1092D02*
X9233Y-1148D01*
X9177Y-1205D01*
X9121Y-1148D01*
X9177Y-1092D01*
X9177Y-1205D01*
X-240Y-3644D02*
X9Y-3894D01*
X9Y-3644D02*
X-240Y-3894D01*
X1303Y-3122D02*
X1415Y-3122D01*
X1528Y-3179D01*
X1584Y-3235D01*
X1640Y-3347D01*
X1697Y-3572D01*
X1697Y-3854D01*
X1640Y-4079D01*
X1584Y-4191D01*
X1528Y-4247D01*
X1415Y-4303D01*
X1303Y-4303D01*
X1190Y-4247D01*
X1134Y-4191D01*
X1078Y-4079D01*
X1022Y-3854D01*
X1022Y-3572D01*
X1078Y-3347D01*
X1134Y-3235D01*
X1190Y-3179D01*
X1303Y-3122D01*
X2203Y-4191D02*
X2259Y-4247D01*
X2203Y-4303D01*
X2147Y-4247D01*
X2203Y-4191D01*
X2203Y-4303D01*
X3271Y-3122D02*
X3046Y-3122D01*
X2934Y-3179D01*
X2878Y-3235D01*
X2765Y-3404D01*
X2709Y-3629D01*
X2709Y-4079D01*
X2765Y-4191D01*
X2821Y-4247D01*
X2934Y-4303D01*
X3159Y-4303D01*
X3271Y-4247D01*
X3328Y-4191D01*
X3384Y-4079D01*
X3384Y-3797D01*
X3328Y-3685D01*
X3271Y-3629D01*
X3159Y-3572D01*
X2934Y-3572D01*
X2821Y-3629D01*
X2765Y-3685D01*
X2709Y-3797D01*
X4396Y-3516D02*
X4396Y-4303D01*
X4115Y-3066D02*
X3834Y-3910D01*
X4565Y-3910D01*
X5015Y-4303D02*
X5015Y-3516D01*
X5015Y-3629D02*
X5071Y-3572D01*
X5184Y-3516D01*
X5352Y-3516D01*
X5465Y-3572D01*
X5521Y-3685D01*
X5521Y-4303D01*
X5521Y-3685D02*
X5577Y-3572D01*
X5690Y-3516D01*
X5859Y-3516D01*
X5971Y-3572D01*
X6027Y-3685D01*
X6027Y-4303D01*
X6590Y-4303D02*
X6590Y-3516D01*
X6590Y-3629D02*
X6646Y-3572D01*
X6758Y-3516D01*
X6927Y-3516D01*
X7040Y-3572D01*
X7096Y-3685D01*
X7096Y-4303D01*
X7096Y-3685D02*
X7152Y-3572D01*
X7265Y-3516D01*
X7433Y-3516D01*
X7546Y-3572D01*
X7602Y-3685D01*
X7602Y-4303D01*
X9908Y-3066D02*
X8896Y-4585D01*
X11427Y-3122D02*
X11539Y-3122D01*
X11652Y-3179D01*
X11708Y-3235D01*
X11764Y-3347D01*
X11820Y-3572D01*
X11820Y-3854D01*
X11764Y-4079D01*
X11708Y-4191D01*
X11652Y-4247D01*
X11539Y-4303D01*
X11427Y-4303D01*
X11314Y-4247D01*
X11258Y-4191D01*
X11202Y-4079D01*
X11145Y-3854D01*
X11145Y-3572D01*
X11202Y-3347D01*
X11258Y-3235D01*
X11314Y-3179D01*
X11427Y-3122D01*
X12327Y-4191D02*
X12383Y-4247D01*
X12327Y-4303D01*
X12270Y-4247D01*
X12327Y-4191D01*
X12327Y-4303D01*
X13114Y-3122D02*
X13226Y-3122D01*
X13339Y-3179D01*
X13395Y-3235D01*
X13451Y-3347D01*
X13508Y-3572D01*
X13508Y-3854D01*
X13451Y-4079D01*
X13395Y-4191D01*
X13339Y-4247D01*
X13226Y-4303D01*
X13114Y-4303D01*
X13001Y-4247D01*
X12945Y-4191D01*
X12889Y-4079D01*
X12833Y-3854D01*
X12833Y-3572D01*
X12889Y-3347D01*
X12945Y-3235D01*
X13001Y-3179D01*
X13114Y-3122D01*
X13958Y-3235D02*
X14014Y-3179D01*
X14126Y-3122D01*
X14408Y-3122D01*
X14520Y-3179D01*
X14576Y-3235D01*
X14633Y-3347D01*
X14633Y-3460D01*
X14576Y-3629D01*
X13901Y-4303D01*
X14633Y-4303D01*
X15701Y-3122D02*
X15139Y-3122D01*
X15082Y-3685D01*
X15139Y-3629D01*
X15251Y-3572D01*
X15532Y-3572D01*
X15645Y-3629D01*
X15701Y-3685D01*
X15757Y-3797D01*
X15757Y-4079D01*
X15701Y-4191D01*
X15645Y-4247D01*
X15532Y-4303D01*
X15251Y-4303D01*
X15139Y-4247D01*
X15082Y-4191D01*
X16207Y-3122D02*
X16207Y-3347D01*
X16657Y-3122D02*
X16657Y-3347D01*
X18401Y-4753D02*
X18345Y-4697D01*
X18232Y-4528D01*
X18176Y-4416D01*
X18120Y-4247D01*
X18063Y-3966D01*
X18063Y-3741D01*
X18120Y-3460D01*
X18176Y-3291D01*
X18232Y-3179D01*
X18345Y-3010D01*
X18401Y-2954D01*
X18738Y-3122D02*
X19469Y-3122D01*
X19076Y-3572D01*
X19244Y-3572D01*
X19357Y-3629D01*
X19413Y-3685D01*
X19469Y-3797D01*
X19469Y-4079D01*
X19413Y-4191D01*
X19357Y-4247D01*
X19244Y-4303D01*
X18907Y-4303D01*
X18794Y-4247D01*
X18738Y-4191D01*
X20144Y-3629D02*
X20032Y-3572D01*
X19976Y-3516D01*
X19919Y-3404D01*
X19919Y-3347D01*
X19976Y-3235D01*
X20032Y-3179D01*
X20144Y-3122D01*
X20369Y-3122D01*
X20482Y-3179D01*
X20538Y-3235D01*
X20594Y-3347D01*
X20594Y-3404D01*
X20538Y-3516D01*
X20482Y-3572D01*
X20369Y-3629D01*
X20144Y-3629D01*
X20032Y-3685D01*
X19976Y-3741D01*
X19919Y-3854D01*
X19919Y-4079D01*
X19976Y-4191D01*
X20032Y-4247D01*
X20144Y-4303D01*
X20369Y-4303D01*
X20482Y-4247D01*
X20538Y-4191D01*
X20594Y-4079D01*
X20594Y-3854D01*
X20538Y-3741D01*
X20482Y-3685D01*
X20369Y-3629D01*
X22000Y-4303D02*
X22000Y-3122D01*
X22507Y-4303D02*
X22507Y-3685D01*
X22450Y-3572D01*
X22338Y-3516D01*
X22169Y-3516D01*
X22057Y-3572D01*
X22000Y-3629D01*
X23238Y-4303D02*
X23125Y-4247D01*
X23069Y-4191D01*
X23013Y-4079D01*
X23013Y-3741D01*
X23069Y-3629D01*
X23125Y-3572D01*
X23238Y-3516D01*
X23406Y-3516D01*
X23519Y-3572D01*
X23575Y-3629D01*
X23631Y-3741D01*
X23631Y-4079D01*
X23575Y-4191D01*
X23519Y-4247D01*
X23406Y-4303D01*
X23238Y-4303D01*
X24306Y-4303D02*
X24194Y-4247D01*
X24138Y-4135D01*
X24138Y-3122D01*
X25206Y-4247D02*
X25094Y-4303D01*
X24869Y-4303D01*
X24756Y-4247D01*
X24700Y-4135D01*
X24700Y-3685D01*
X24756Y-3572D01*
X24869Y-3516D01*
X25094Y-3516D01*
X25206Y-3572D01*
X25262Y-3685D01*
X25262Y-3797D01*
X24700Y-3910D01*
X25712Y-4247D02*
X25825Y-4303D01*
X26050Y-4303D01*
X26162Y-4247D01*
X26219Y-4135D01*
X26219Y-4079D01*
X26162Y-3966D01*
X26050Y-3910D01*
X25881Y-3910D01*
X25769Y-3854D01*
X25712Y-3741D01*
X25712Y-3685D01*
X25769Y-3572D01*
X25881Y-3516D01*
X26050Y-3516D01*
X26162Y-3572D01*
X26612Y-4753D02*
X26669Y-4697D01*
X26781Y-4528D01*
X26837Y-4416D01*
X26893Y-4247D01*
X26950Y-3966D01*
X26950Y-3741D01*
X26893Y-3460D01*
X26837Y-3291D01*
X26781Y-3179D01*
X26669Y-3010D01*
X26612Y-2954D01*
G54D12*
X9Y-5328D02*
G75*
G03X9Y-5328I-137J0D01*
G74*
G01*
G54D13*
X1303Y-4681D02*
X1415Y-4681D01*
X1528Y-4738D01*
X1584Y-4794D01*
X1640Y-4906D01*
X1697Y-5131D01*
X1697Y-5413D01*
X1640Y-5638D01*
X1584Y-5750D01*
X1528Y-5806D01*
X1415Y-5863D01*
X1303Y-5863D01*
X1190Y-5806D01*
X1134Y-5750D01*
X1078Y-5638D01*
X1022Y-5413D01*
X1022Y-5131D01*
X1078Y-4906D01*
X1134Y-4794D01*
X1190Y-4738D01*
X1303Y-4681D01*
X2203Y-5750D02*
X2259Y-5806D01*
X2203Y-5863D01*
X2147Y-5806D01*
X2203Y-5750D01*
X2203Y-5863D01*
X2653Y-4681D02*
X3440Y-4681D01*
X2934Y-5863D01*
X4115Y-4681D02*
X4228Y-4681D01*
X4340Y-4738D01*
X4396Y-4794D01*
X4453Y-4906D01*
X4509Y-5131D01*
X4509Y-5413D01*
X4453Y-5638D01*
X4396Y-5750D01*
X4340Y-5806D01*
X4228Y-5863D01*
X4115Y-5863D01*
X4003Y-5806D01*
X3946Y-5750D01*
X3890Y-5638D01*
X3834Y-5413D01*
X3834Y-5131D01*
X3890Y-4906D01*
X3946Y-4794D01*
X4003Y-4738D01*
X4115Y-4681D01*
X5015Y-5863D02*
X5015Y-5075D01*
X5015Y-5188D02*
X5071Y-5131D01*
X5184Y-5075D01*
X5352Y-5075D01*
X5465Y-5131D01*
X5521Y-5244D01*
X5521Y-5863D01*
X5521Y-5244D02*
X5577Y-5131D01*
X5690Y-5075D01*
X5859Y-5075D01*
X5971Y-5131D01*
X6027Y-5244D01*
X6027Y-5863D01*
X6590Y-5863D02*
X6590Y-5075D01*
X6590Y-5188D02*
X6646Y-5131D01*
X6758Y-5075D01*
X6927Y-5075D01*
X7040Y-5131D01*
X7096Y-5244D01*
X7096Y-5863D01*
X7096Y-5244D02*
X7152Y-5131D01*
X7265Y-5075D01*
X7433Y-5075D01*
X7546Y-5131D01*
X7602Y-5244D01*
X7602Y-5863D01*
X9908Y-4625D02*
X8896Y-6144D01*
X11427Y-4681D02*
X11539Y-4681D01*
X11652Y-4738D01*
X11708Y-4794D01*
X11764Y-4906D01*
X11820Y-5131D01*
X11820Y-5413D01*
X11764Y-5638D01*
X11708Y-5750D01*
X11652Y-5806D01*
X11539Y-5863D01*
X11427Y-5863D01*
X11314Y-5806D01*
X11258Y-5750D01*
X11202Y-5638D01*
X11145Y-5413D01*
X11145Y-5131D01*
X11202Y-4906D01*
X11258Y-4794D01*
X11314Y-4738D01*
X11427Y-4681D01*
X12327Y-5750D02*
X12383Y-5806D01*
X12327Y-5863D01*
X12270Y-5806D01*
X12327Y-5750D01*
X12327Y-5863D01*
X13114Y-4681D02*
X13226Y-4681D01*
X13339Y-4738D01*
X13395Y-4794D01*
X13451Y-4906D01*
X13508Y-5131D01*
X13508Y-5413D01*
X13451Y-5638D01*
X13395Y-5750D01*
X13339Y-5806D01*
X13226Y-5863D01*
X13114Y-5863D01*
X13001Y-5806D01*
X12945Y-5750D01*
X12889Y-5638D01*
X12833Y-5413D01*
X12833Y-5131D01*
X12889Y-4906D01*
X12945Y-4794D01*
X13001Y-4738D01*
X13114Y-4681D01*
X13958Y-4794D02*
X14014Y-4738D01*
X14126Y-4681D01*
X14408Y-4681D01*
X14520Y-4738D01*
X14576Y-4794D01*
X14633Y-4906D01*
X14633Y-5019D01*
X14576Y-5188D01*
X13901Y-5863D01*
X14633Y-5863D01*
X15307Y-5188D02*
X15195Y-5131D01*
X15139Y-5075D01*
X15082Y-4963D01*
X15082Y-4906D01*
X15139Y-4794D01*
X15195Y-4738D01*
X15307Y-4681D01*
X15532Y-4681D01*
X15645Y-4738D01*
X15701Y-4794D01*
X15757Y-4906D01*
X15757Y-4963D01*
X15701Y-5075D01*
X15645Y-5131D01*
X15532Y-5188D01*
X15307Y-5188D01*
X15195Y-5244D01*
X15139Y-5300D01*
X15082Y-5413D01*
X15082Y-5638D01*
X15139Y-5750D01*
X15195Y-5806D01*
X15307Y-5863D01*
X15532Y-5863D01*
X15645Y-5806D01*
X15701Y-5750D01*
X15757Y-5638D01*
X15757Y-5413D01*
X15701Y-5300D01*
X15645Y-5244D01*
X15532Y-5188D01*
X16207Y-4681D02*
X16207Y-4906D01*
X16657Y-4681D02*
X16657Y-4906D01*
X18401Y-6312D02*
X18345Y-6256D01*
X18232Y-6088D01*
X18176Y-5975D01*
X18120Y-5806D01*
X18063Y-5525D01*
X18063Y-5300D01*
X18120Y-5019D01*
X18176Y-4850D01*
X18232Y-4738D01*
X18345Y-4569D01*
X18401Y-4513D01*
X18738Y-4681D02*
X19469Y-4681D01*
X19076Y-5131D01*
X19244Y-5131D01*
X19357Y-5188D01*
X19413Y-5244D01*
X19469Y-5356D01*
X19469Y-5638D01*
X19413Y-5750D01*
X19357Y-5806D01*
X19244Y-5863D01*
X18907Y-5863D01*
X18794Y-5806D01*
X18738Y-5750D01*
X20875Y-5863D02*
X20875Y-4681D01*
X21382Y-5863D02*
X21382Y-5244D01*
X21325Y-5131D01*
X21213Y-5075D01*
X21044Y-5075D01*
X20932Y-5131D01*
X20875Y-5188D01*
X22113Y-5863D02*
X22000Y-5806D01*
X21944Y-5750D01*
X21888Y-5638D01*
X21888Y-5300D01*
X21944Y-5188D01*
X22000Y-5131D01*
X22113Y-5075D01*
X22282Y-5075D01*
X22394Y-5131D01*
X22450Y-5188D01*
X22507Y-5300D01*
X22507Y-5638D01*
X22450Y-5750D01*
X22394Y-5806D01*
X22282Y-5863D01*
X22113Y-5863D01*
X23181Y-5863D02*
X23069Y-5806D01*
X23013Y-5694D01*
X23013Y-4681D01*
X24081Y-5806D02*
X23969Y-5863D01*
X23744Y-5863D01*
X23631Y-5806D01*
X23575Y-5694D01*
X23575Y-5244D01*
X23631Y-5131D01*
X23744Y-5075D01*
X23969Y-5075D01*
X24081Y-5131D01*
X24138Y-5244D01*
X24138Y-5356D01*
X23575Y-5469D01*
X24588Y-5806D02*
X24700Y-5863D01*
X24925Y-5863D01*
X25037Y-5806D01*
X25094Y-5694D01*
X25094Y-5638D01*
X25037Y-5525D01*
X24925Y-5469D01*
X24756Y-5469D01*
X24644Y-5413D01*
X24588Y-5300D01*
X24588Y-5244D01*
X24644Y-5131D01*
X24756Y-5075D01*
X24925Y-5075D01*
X25037Y-5131D01*
X25487Y-6312D02*
X25544Y-6256D01*
X25656Y-6088D01*
X25712Y-5975D01*
X25769Y-5806D01*
X25825Y-5525D01*
X25825Y-5300D01*
X25769Y-5019D01*
X25712Y-4850D01*
X25656Y-4738D01*
X25544Y-4569D01*
X25487Y-4513D01*
X-150Y-6727D02*
X-150Y-7047D01*
X-310Y-6887D02*
X9Y-6887D01*
X1303Y-6241D02*
X1415Y-6241D01*
X1528Y-6297D01*
X1584Y-6353D01*
X1640Y-6465D01*
X1697Y-6690D01*
X1697Y-6972D01*
X1640Y-7197D01*
X1584Y-7309D01*
X1528Y-7365D01*
X1415Y-7422D01*
X1303Y-7422D01*
X1190Y-7365D01*
X1134Y-7309D01*
X1078Y-7197D01*
X1022Y-6972D01*
X1022Y-6690D01*
X1078Y-6465D01*
X1134Y-6353D01*
X1190Y-6297D01*
X1303Y-6241D01*
X2203Y-7309D02*
X2259Y-7365D01*
X2203Y-7422D01*
X2147Y-7365D01*
X2203Y-7309D01*
X2203Y-7422D01*
X2934Y-6747D02*
X2821Y-6690D01*
X2765Y-6634D01*
X2709Y-6522D01*
X2709Y-6465D01*
X2765Y-6353D01*
X2821Y-6297D01*
X2934Y-6241D01*
X3159Y-6241D01*
X3271Y-6297D01*
X3328Y-6353D01*
X3384Y-6465D01*
X3384Y-6522D01*
X3328Y-6634D01*
X3271Y-6690D01*
X3159Y-6747D01*
X2934Y-6747D01*
X2821Y-6803D01*
X2765Y-6859D01*
X2709Y-6972D01*
X2709Y-7197D01*
X2765Y-7309D01*
X2821Y-7365D01*
X2934Y-7422D01*
X3159Y-7422D01*
X3271Y-7365D01*
X3328Y-7309D01*
X3384Y-7197D01*
X3384Y-6972D01*
X3328Y-6859D01*
X3271Y-6803D01*
X3159Y-6747D01*
X4509Y-7422D02*
X3834Y-7422D01*
X4171Y-7422D02*
X4171Y-6241D01*
X4059Y-6409D01*
X3946Y-6522D01*
X3834Y-6578D01*
X5015Y-7422D02*
X5015Y-6634D01*
X5015Y-6747D02*
X5071Y-6690D01*
X5184Y-6634D01*
X5352Y-6634D01*
X5465Y-6690D01*
X5521Y-6803D01*
X5521Y-7422D01*
X5521Y-6803D02*
X5577Y-6690D01*
X5690Y-6634D01*
X5859Y-6634D01*
X5971Y-6690D01*
X6027Y-6803D01*
X6027Y-7422D01*
X6590Y-7422D02*
X6590Y-6634D01*
X6590Y-6747D02*
X6646Y-6690D01*
X6758Y-6634D01*
X6927Y-6634D01*
X7040Y-6690D01*
X7096Y-6803D01*
X7096Y-7422D01*
X7096Y-6803D02*
X7152Y-6690D01*
X7265Y-6634D01*
X7433Y-6634D01*
X7546Y-6690D01*
X7602Y-6803D01*
X7602Y-7422D01*
X9908Y-6184D02*
X8896Y-7703D01*
X11427Y-6241D02*
X11539Y-6241D01*
X11652Y-6297D01*
X11708Y-6353D01*
X11764Y-6465D01*
X11820Y-6690D01*
X11820Y-6972D01*
X11764Y-7197D01*
X11708Y-7309D01*
X11652Y-7365D01*
X11539Y-7422D01*
X11427Y-7422D01*
X11314Y-7365D01*
X11258Y-7309D01*
X11202Y-7197D01*
X11145Y-6972D01*
X11145Y-6690D01*
X11202Y-6465D01*
X11258Y-6353D01*
X11314Y-6297D01*
X11427Y-6241D01*
X12327Y-7309D02*
X12383Y-7365D01*
X12327Y-7422D01*
X12270Y-7365D01*
X12327Y-7309D01*
X12327Y-7422D01*
X13114Y-6241D02*
X13226Y-6241D01*
X13339Y-6297D01*
X13395Y-6353D01*
X13451Y-6465D01*
X13508Y-6690D01*
X13508Y-6972D01*
X13451Y-7197D01*
X13395Y-7309D01*
X13339Y-7365D01*
X13226Y-7422D01*
X13114Y-7422D01*
X13001Y-7365D01*
X12945Y-7309D01*
X12889Y-7197D01*
X12833Y-6972D01*
X12833Y-6690D01*
X12889Y-6465D01*
X12945Y-6353D01*
X13001Y-6297D01*
X13114Y-6241D01*
X13901Y-6241D02*
X14633Y-6241D01*
X14239Y-6690D01*
X14408Y-6690D01*
X14520Y-6747D01*
X14576Y-6803D01*
X14633Y-6915D01*
X14633Y-7197D01*
X14576Y-7309D01*
X14520Y-7365D01*
X14408Y-7422D01*
X14070Y-7422D01*
X13958Y-7365D01*
X13901Y-7309D01*
X15082Y-6353D02*
X15139Y-6297D01*
X15251Y-6241D01*
X15532Y-6241D01*
X15645Y-6297D01*
X15701Y-6353D01*
X15757Y-6465D01*
X15757Y-6578D01*
X15701Y-6747D01*
X15026Y-7422D01*
X15757Y-7422D01*
X16207Y-6241D02*
X16207Y-6465D01*
X16657Y-6241D02*
X16657Y-6465D01*
X18401Y-7872D02*
X18345Y-7815D01*
X18232Y-7647D01*
X18176Y-7534D01*
X18120Y-7365D01*
X18063Y-7084D01*
X18063Y-6859D01*
X18120Y-6578D01*
X18176Y-6409D01*
X18232Y-6297D01*
X18345Y-6128D01*
X18401Y-6072D01*
X18794Y-6353D02*
X18851Y-6297D01*
X18963Y-6241D01*
X19244Y-6241D01*
X19357Y-6297D01*
X19413Y-6353D01*
X19469Y-6465D01*
X19469Y-6578D01*
X19413Y-6747D01*
X18738Y-7422D01*
X19469Y-7422D01*
X20201Y-6241D02*
X20313Y-6241D01*
X20426Y-6297D01*
X20482Y-6353D01*
X20538Y-6465D01*
X20594Y-6690D01*
X20594Y-6972D01*
X20538Y-7197D01*
X20482Y-7309D01*
X20426Y-7365D01*
X20313Y-7422D01*
X20201Y-7422D01*
X20088Y-7365D01*
X20032Y-7309D01*
X19976Y-7197D01*
X19919Y-6972D01*
X19919Y-6690D01*
X19976Y-6465D01*
X20032Y-6353D01*
X20088Y-6297D01*
X20201Y-6241D01*
X22000Y-7422D02*
X22000Y-6241D01*
X22507Y-7422D02*
X22507Y-6803D01*
X22450Y-6690D01*
X22338Y-6634D01*
X22169Y-6634D01*
X22057Y-6690D01*
X22000Y-6747D01*
X23238Y-7422D02*
X23125Y-7365D01*
X23069Y-7309D01*
X23013Y-7197D01*
X23013Y-6859D01*
X23069Y-6747D01*
X23125Y-6690D01*
X23238Y-6634D01*
X23406Y-6634D01*
X23519Y-6690D01*
X23575Y-6747D01*
X23631Y-6859D01*
X23631Y-7197D01*
X23575Y-7309D01*
X23519Y-7365D01*
X23406Y-7422D01*
X23238Y-7422D01*
X24306Y-7422D02*
X24194Y-7365D01*
X24138Y-7253D01*
X24138Y-6241D01*
X25206Y-7365D02*
X25094Y-7422D01*
X24869Y-7422D01*
X24756Y-7365D01*
X24700Y-7253D01*
X24700Y-6803D01*
X24756Y-6690D01*
X24869Y-6634D01*
X25094Y-6634D01*
X25206Y-6690D01*
X25262Y-6803D01*
X25262Y-6915D01*
X24700Y-7028D01*
X25712Y-7365D02*
X25825Y-7422D01*
X26050Y-7422D01*
X26162Y-7365D01*
X26219Y-7253D01*
X26219Y-7197D01*
X26162Y-7084D01*
X26050Y-7028D01*
X25881Y-7028D01*
X25769Y-6972D01*
X25712Y-6859D01*
X25712Y-6803D01*
X25769Y-6690D01*
X25881Y-6634D01*
X26050Y-6634D01*
X26162Y-6690D01*
X26612Y-7872D02*
X26669Y-7815D01*
X26781Y-7647D01*
X26837Y-7534D01*
X26893Y-7365D01*
X26950Y-7084D01*
X26950Y-6859D01*
X26893Y-6578D01*
X26837Y-6409D01*
X26781Y-6297D01*
X26669Y-6128D01*
X26612Y-6072D01*
G54D12*
X-48Y-8588D02*
X-48Y-8305D01*
X-331Y-8305D01*
X-331Y-8588D01*
X-48Y-8588D01*
G54D13*
X1697Y-8981D02*
X1022Y-8981D01*
X1359Y-8981D02*
X1359Y-7800D01*
X1247Y-7968D01*
X1134Y-8081D01*
X1022Y-8137D01*
X2203Y-8868D02*
X2259Y-8924D01*
X2203Y-8981D01*
X2147Y-8924D01*
X2203Y-8868D01*
X2203Y-8981D01*
X2990Y-7800D02*
X3103Y-7800D01*
X3215Y-7856D01*
X3271Y-7912D01*
X3328Y-8025D01*
X3384Y-8250D01*
X3384Y-8531D01*
X3328Y-8756D01*
X3271Y-8868D01*
X3215Y-8924D01*
X3103Y-8981D01*
X2990Y-8981D01*
X2878Y-8924D01*
X2821Y-8868D01*
X2765Y-8756D01*
X2709Y-8531D01*
X2709Y-8250D01*
X2765Y-8025D01*
X2821Y-7912D01*
X2878Y-7856D01*
X2990Y-7800D01*
X3834Y-7912D02*
X3890Y-7856D01*
X4003Y-7800D01*
X4284Y-7800D01*
X4396Y-7856D01*
X4453Y-7912D01*
X4509Y-8025D01*
X4509Y-8137D01*
X4453Y-8306D01*
X3778Y-8981D01*
X4509Y-8981D01*
X5015Y-8981D02*
X5015Y-8193D01*
X5015Y-8306D02*
X5071Y-8250D01*
X5184Y-8193D01*
X5352Y-8193D01*
X5465Y-8250D01*
X5521Y-8362D01*
X5521Y-8981D01*
X5521Y-8362D02*
X5577Y-8250D01*
X5690Y-8193D01*
X5859Y-8193D01*
X5971Y-8250D01*
X6027Y-8362D01*
X6027Y-8981D01*
X6590Y-8981D02*
X6590Y-8193D01*
X6590Y-8306D02*
X6646Y-8250D01*
X6758Y-8193D01*
X6927Y-8193D01*
X7040Y-8250D01*
X7096Y-8362D01*
X7096Y-8981D01*
X7096Y-8362D02*
X7152Y-8250D01*
X7265Y-8193D01*
X7433Y-8193D01*
X7546Y-8250D01*
X7602Y-8362D01*
X7602Y-8981D01*
X9908Y-7743D02*
X8896Y-9262D01*
X11427Y-7800D02*
X11539Y-7800D01*
X11652Y-7856D01*
X11708Y-7912D01*
X11764Y-8025D01*
X11820Y-8250D01*
X11820Y-8531D01*
X11764Y-8756D01*
X11708Y-8868D01*
X11652Y-8924D01*
X11539Y-8981D01*
X11427Y-8981D01*
X11314Y-8924D01*
X11258Y-8868D01*
X11202Y-8756D01*
X11145Y-8531D01*
X11145Y-8250D01*
X11202Y-8025D01*
X11258Y-7912D01*
X11314Y-7856D01*
X11427Y-7800D01*
X12327Y-8868D02*
X12383Y-8924D01*
X12327Y-8981D01*
X12270Y-8924D01*
X12327Y-8868D01*
X12327Y-8981D01*
X13114Y-7800D02*
X13226Y-7800D01*
X13339Y-7856D01*
X13395Y-7912D01*
X13451Y-8025D01*
X13508Y-8250D01*
X13508Y-8531D01*
X13451Y-8756D01*
X13395Y-8868D01*
X13339Y-8924D01*
X13226Y-8981D01*
X13114Y-8981D01*
X13001Y-8924D01*
X12945Y-8868D01*
X12889Y-8756D01*
X12833Y-8531D01*
X12833Y-8250D01*
X12889Y-8025D01*
X12945Y-7912D01*
X13001Y-7856D01*
X13114Y-7800D01*
X14520Y-8193D02*
X14520Y-8981D01*
X14239Y-7743D02*
X13958Y-8587D01*
X14689Y-8587D01*
X15364Y-7800D02*
X15476Y-7800D01*
X15589Y-7856D01*
X15645Y-7912D01*
X15701Y-8025D01*
X15757Y-8250D01*
X15757Y-8531D01*
X15701Y-8756D01*
X15645Y-8868D01*
X15589Y-8924D01*
X15476Y-8981D01*
X15364Y-8981D01*
X15251Y-8924D01*
X15195Y-8868D01*
X15139Y-8756D01*
X15082Y-8531D01*
X15082Y-8250D01*
X15139Y-8025D01*
X15195Y-7912D01*
X15251Y-7856D01*
X15364Y-7800D01*
X16207Y-7800D02*
X16207Y-8025D01*
X16657Y-7800D02*
X16657Y-8025D01*
X18401Y-9431D02*
X18345Y-9374D01*
X18232Y-9206D01*
X18176Y-9093D01*
X18120Y-8924D01*
X18063Y-8643D01*
X18063Y-8418D01*
X18120Y-8137D01*
X18176Y-7968D01*
X18232Y-7856D01*
X18345Y-7687D01*
X18401Y-7631D01*
X19357Y-7800D02*
X19132Y-7800D01*
X19019Y-7856D01*
X18963Y-7912D01*
X18851Y-8081D01*
X18794Y-8306D01*
X18794Y-8756D01*
X18851Y-8868D01*
X18907Y-8924D01*
X19019Y-8981D01*
X19244Y-8981D01*
X19357Y-8924D01*
X19413Y-8868D01*
X19469Y-8756D01*
X19469Y-8474D01*
X19413Y-8362D01*
X19357Y-8306D01*
X19244Y-8250D01*
X19019Y-8250D01*
X18907Y-8306D01*
X18851Y-8362D01*
X18794Y-8474D01*
X20875Y-8981D02*
X20875Y-7800D01*
X21382Y-8981D02*
X21382Y-8362D01*
X21325Y-8250D01*
X21213Y-8193D01*
X21044Y-8193D01*
X20932Y-8250D01*
X20875Y-8306D01*
X22113Y-8981D02*
X22000Y-8924D01*
X21944Y-8868D01*
X21888Y-8756D01*
X21888Y-8418D01*
X21944Y-8306D01*
X22000Y-8250D01*
X22113Y-8193D01*
X22282Y-8193D01*
X22394Y-8250D01*
X22450Y-8306D01*
X22507Y-8418D01*
X22507Y-8756D01*
X22450Y-8868D01*
X22394Y-8924D01*
X22282Y-8981D01*
X22113Y-8981D01*
X23181Y-8981D02*
X23069Y-8924D01*
X23013Y-8812D01*
X23013Y-7800D01*
X24081Y-8924D02*
X23969Y-8981D01*
X23744Y-8981D01*
X23631Y-8924D01*
X23575Y-8812D01*
X23575Y-8362D01*
X23631Y-8250D01*
X23744Y-8193D01*
X23969Y-8193D01*
X24081Y-8250D01*
X24138Y-8362D01*
X24138Y-8474D01*
X23575Y-8587D01*
X24588Y-8924D02*
X24700Y-8981D01*
X24925Y-8981D01*
X25037Y-8924D01*
X25094Y-8812D01*
X25094Y-8756D01*
X25037Y-8643D01*
X24925Y-8587D01*
X24756Y-8587D01*
X24644Y-8531D01*
X24588Y-8418D01*
X24588Y-8362D01*
X24644Y-8250D01*
X24756Y-8193D01*
X24925Y-8193D01*
X25037Y-8250D01*
X25487Y-9431D02*
X25544Y-9374D01*
X25656Y-9206D01*
X25712Y-9093D01*
X25769Y-8924D01*
X25825Y-8643D01*
X25825Y-8418D01*
X25769Y-8137D01*
X25712Y-7968D01*
X25656Y-7856D01*
X25544Y-7687D01*
X25487Y-7631D01*
M02*
