%FSLAX34Y34*%
G04 Gerber Fmt 3.4, Leading zero omitted, Abs format*
G04 (created by PCBNEW (2013-12-14 BZR 4555)-product) date Wed 15 Jan 2014 15:39:03 EST*
%MOIN*%
G01*
G70*
G90*
G04 APERTURE LIST*
%ADD10C,0.003937*%
%ADD11O,0.009291X0.026800*%
%ADD12O,0.026800X0.009291*%
%ADD13C,0.048000*%
%ADD14R,0.031496X0.009449*%
%ADD15R,0.012560X0.018880*%
%ADD16R,0.018880X0.012560*%
%ADD17R,0.036220X0.044094*%
%ADD18R,0.119685X0.031496*%
%ADD19R,0.031496X0.119685*%
%ADD20R,0.031496X0.143307*%
%ADD21R,0.143307X0.031496*%
%ADD22R,0.031496X0.056693*%
G04 APERTURE END LIST*
G54D10*
G54D11*
X649Y-236D03*
X452Y-236D03*
X255Y-236D03*
X59Y-236D03*
X-137Y-236D03*
X-334Y-236D03*
X-531Y-236D03*
X-728Y-236D03*
X-925Y-236D03*
X-1122Y-236D03*
X-1318Y-236D03*
X-1515Y-236D03*
X-1515Y-2952D03*
X-1318Y-2952D03*
X-1122Y-2952D03*
X-925Y-2952D03*
X-728Y-2952D03*
X-531Y-2952D03*
X-334Y-2952D03*
X-137Y-2952D03*
X59Y-2952D03*
X255Y-2952D03*
X452Y-2952D03*
X649Y-2952D03*
G54D12*
X-1791Y-511D03*
X-1791Y-708D03*
X-1791Y-905D03*
X-1791Y-1102D03*
X-1791Y-1299D03*
X-1791Y-1496D03*
X-1791Y-1692D03*
X-1791Y-1889D03*
X-1791Y-2086D03*
X-1791Y-2283D03*
X-1791Y-2480D03*
X-1791Y-2677D03*
X924Y-2677D03*
X924Y-2480D03*
X924Y-2283D03*
X924Y-2086D03*
X924Y-1889D03*
X924Y-1692D03*
X924Y-1496D03*
X924Y-1299D03*
X924Y-1102D03*
X924Y-905D03*
X924Y-708D03*
X924Y-511D03*
G54D13*
X-1033Y-2194D03*
X166Y-2194D03*
X166Y-994D03*
X-1033Y-994D03*
X-433Y-905D03*
X-433Y-2283D03*
X-1122Y-1594D03*
X255Y-1594D03*
G54D14*
X-757Y1582D03*
X-757Y1326D03*
X-757Y1070D03*
X-108Y1070D03*
X-108Y1326D03*
X-108Y1582D03*
G54D15*
X2417Y1137D03*
X2771Y1137D03*
X2417Y775D03*
X2771Y775D03*
X2362Y-992D03*
X2716Y-992D03*
X2716Y-2811D03*
X2362Y-2811D03*
G54D16*
X-255Y763D03*
X-255Y409D03*
X-610Y763D03*
X-610Y409D03*
G54D15*
X-1960Y1618D03*
X-1606Y1618D03*
X-2417Y1622D03*
X-2771Y1622D03*
X2771Y1535D03*
X2417Y1535D03*
G54D17*
X2047Y-1468D03*
X2047Y-2334D03*
X2677Y-2334D03*
X2677Y-1468D03*
G54D18*
X0Y2098D03*
X0Y-4318D03*
G54D19*
X-3208Y-1110D03*
X3208Y-1110D03*
G54D20*
X-3208Y1399D03*
X-3208Y-3620D03*
X3208Y-3620D03*
X3208Y1399D03*
G54D21*
X-2509Y2098D03*
X2509Y2098D03*
X2509Y-4318D03*
X-2509Y-4318D03*
G54D22*
X-1724Y1062D03*
X-2708Y1062D03*
G54D15*
X736Y1535D03*
X382Y1535D03*
M02*
