G04 (created by PCBNEW (2013-mar-13)-testing) date Tue 22 Oct 2013 13:23:14 EST*
%MOIN*%
G04 Gerber Fmt 3.4, Leading zero omitted, Abs format*
%FSLAX34Y34*%
G01*
G70*
G90*
G04 APERTURE LIST*
%ADD10C,0.003937*%
%ADD11C,0.000100*%
%ADD12C,0.007000*%
%ADD13C,0.003445*%
%ADD14C,0.002953*%
%ADD15C,0.004921*%
G04 APERTURE END LIST*
G54D10*
X7370Y10525D02*
X7393Y10537D01*
X7438Y10537D01*
X7460Y10525D01*
X7483Y10503D01*
X7494Y10480D01*
X7494Y10435D01*
X7483Y10413D01*
X7460Y10390D01*
X7438Y10379D01*
X7393Y10379D01*
X7370Y10390D01*
X7415Y10615D02*
X7471Y10604D01*
X7528Y10570D01*
X7561Y10514D01*
X7573Y10458D01*
X7561Y10402D01*
X7528Y10345D01*
X7471Y10312D01*
X7415Y10300D01*
X7359Y10312D01*
X7303Y10345D01*
X7269Y10402D01*
X7258Y10458D01*
X7269Y10514D01*
X7303Y10570D01*
X7359Y10604D01*
X7415Y10615D01*
X7078Y10469D02*
X7044Y10458D01*
X7033Y10447D01*
X7021Y10424D01*
X7021Y10390D01*
X7033Y10368D01*
X7044Y10357D01*
X7066Y10345D01*
X7156Y10345D01*
X7156Y10582D01*
X7078Y10582D01*
X7055Y10570D01*
X7044Y10559D01*
X7033Y10537D01*
X7033Y10514D01*
X7044Y10492D01*
X7055Y10480D01*
X7078Y10469D01*
X7156Y10469D01*
X6886Y10345D02*
X6909Y10357D01*
X6920Y10368D01*
X6931Y10390D01*
X6931Y10458D01*
X6920Y10480D01*
X6909Y10492D01*
X6886Y10503D01*
X6853Y10503D01*
X6830Y10492D01*
X6819Y10480D01*
X6808Y10458D01*
X6808Y10390D01*
X6819Y10368D01*
X6830Y10357D01*
X6853Y10345D01*
X6886Y10345D01*
X6706Y10345D02*
X6706Y10582D01*
X6706Y10492D02*
X6684Y10503D01*
X6639Y10503D01*
X6616Y10492D01*
X6605Y10480D01*
X6594Y10458D01*
X6594Y10390D01*
X6605Y10368D01*
X6616Y10357D01*
X6639Y10345D01*
X6684Y10345D01*
X6706Y10357D01*
X6493Y10345D02*
X6493Y10582D01*
X6403Y10582D01*
X6380Y10570D01*
X6369Y10559D01*
X6358Y10537D01*
X6358Y10503D01*
X6369Y10480D01*
X6380Y10469D01*
X6403Y10458D01*
X6493Y10458D01*
X6223Y10345D02*
X6245Y10357D01*
X6257Y10368D01*
X6268Y10390D01*
X6268Y10458D01*
X6257Y10480D01*
X6245Y10492D01*
X6223Y10503D01*
X6189Y10503D01*
X6167Y10492D01*
X6155Y10480D01*
X6144Y10458D01*
X6144Y10390D01*
X6155Y10368D01*
X6167Y10357D01*
X6189Y10345D01*
X6223Y10345D01*
X6065Y10503D02*
X6020Y10345D01*
X5975Y10458D01*
X5930Y10345D01*
X5885Y10503D01*
X5705Y10357D02*
X5728Y10345D01*
X5773Y10345D01*
X5795Y10357D01*
X5807Y10379D01*
X5807Y10469D01*
X5795Y10492D01*
X5773Y10503D01*
X5728Y10503D01*
X5705Y10492D01*
X5694Y10469D01*
X5694Y10447D01*
X5807Y10424D01*
X5593Y10345D02*
X5593Y10503D01*
X5593Y10458D02*
X5582Y10480D01*
X5570Y10492D01*
X5548Y10503D01*
X5525Y10503D01*
X5458Y10357D02*
X5435Y10345D01*
X5390Y10345D01*
X5368Y10357D01*
X5357Y10379D01*
X5357Y10390D01*
X5368Y10413D01*
X5390Y10424D01*
X5424Y10424D01*
X5447Y10435D01*
X5458Y10458D01*
X5458Y10469D01*
X5447Y10492D01*
X5424Y10503D01*
X5390Y10503D01*
X5368Y10492D01*
X5087Y10559D02*
X5075Y10570D01*
X5053Y10582D01*
X4997Y10582D01*
X4974Y10570D01*
X4963Y10559D01*
X4952Y10537D01*
X4952Y10514D01*
X4963Y10480D01*
X5098Y10345D01*
X4952Y10345D01*
X4805Y10582D02*
X4783Y10582D01*
X4760Y10570D01*
X4749Y10559D01*
X4738Y10537D01*
X4727Y10492D01*
X4727Y10435D01*
X4738Y10390D01*
X4749Y10368D01*
X4760Y10357D01*
X4783Y10345D01*
X4805Y10345D01*
X4828Y10357D01*
X4839Y10368D01*
X4850Y10390D01*
X4862Y10435D01*
X4862Y10492D01*
X4850Y10537D01*
X4839Y10559D01*
X4828Y10570D01*
X4805Y10582D01*
X4502Y10345D02*
X4637Y10345D01*
X4569Y10345D02*
X4569Y10582D01*
X4592Y10548D01*
X4614Y10525D01*
X4637Y10514D01*
X4423Y10582D02*
X4277Y10582D01*
X4356Y10492D01*
X4322Y10492D01*
X4299Y10480D01*
X4288Y10469D01*
X4277Y10447D01*
X4277Y10390D01*
X4288Y10368D01*
X4299Y10357D01*
X4322Y10345D01*
X4389Y10345D01*
X4412Y10357D01*
X4423Y10368D01*
X7876Y10212D02*
X7831Y10212D01*
X7809Y10200D01*
X7786Y10178D01*
X7775Y10133D01*
X7775Y10054D01*
X7786Y10009D01*
X7809Y9987D01*
X7831Y9975D01*
X7876Y9975D01*
X7899Y9987D01*
X7921Y10009D01*
X7933Y10054D01*
X7933Y10133D01*
X7921Y10178D01*
X7899Y10200D01*
X7876Y10212D01*
X7674Y10133D02*
X7674Y9897D01*
X7674Y10122D02*
X7651Y10133D01*
X7606Y10133D01*
X7584Y10122D01*
X7573Y10110D01*
X7561Y10088D01*
X7561Y10020D01*
X7573Y9998D01*
X7584Y9987D01*
X7606Y9975D01*
X7651Y9975D01*
X7674Y9987D01*
X7370Y9987D02*
X7393Y9975D01*
X7438Y9975D01*
X7460Y9987D01*
X7471Y10009D01*
X7471Y10099D01*
X7460Y10122D01*
X7438Y10133D01*
X7393Y10133D01*
X7370Y10122D01*
X7359Y10099D01*
X7359Y10077D01*
X7471Y10054D01*
X7258Y10133D02*
X7258Y9975D01*
X7258Y10110D02*
X7246Y10122D01*
X7224Y10133D01*
X7190Y10133D01*
X7168Y10122D01*
X7156Y10099D01*
X7156Y9975D01*
X7044Y9975D02*
X7044Y10212D01*
X7044Y10099D02*
X6909Y10099D01*
X6909Y9975D02*
X6909Y10212D01*
X6695Y9975D02*
X6695Y10099D01*
X6706Y10122D01*
X6729Y10133D01*
X6774Y10133D01*
X6796Y10122D01*
X6695Y9987D02*
X6718Y9975D01*
X6774Y9975D01*
X6796Y9987D01*
X6808Y10009D01*
X6808Y10032D01*
X6796Y10054D01*
X6774Y10065D01*
X6718Y10065D01*
X6695Y10077D01*
X6583Y9975D02*
X6583Y10133D01*
X6583Y10088D02*
X6571Y10110D01*
X6560Y10122D01*
X6538Y10133D01*
X6515Y10133D01*
X6335Y9975D02*
X6335Y10212D01*
X6335Y9987D02*
X6358Y9975D01*
X6403Y9975D01*
X6425Y9987D01*
X6437Y9998D01*
X6448Y10020D01*
X6448Y10088D01*
X6437Y10110D01*
X6425Y10122D01*
X6403Y10133D01*
X6358Y10133D01*
X6335Y10122D01*
X6245Y10133D02*
X6200Y9975D01*
X6155Y10088D01*
X6110Y9975D01*
X6065Y10133D01*
X5874Y9975D02*
X5874Y10099D01*
X5885Y10122D01*
X5908Y10133D01*
X5953Y10133D01*
X5975Y10122D01*
X5874Y9987D02*
X5897Y9975D01*
X5953Y9975D01*
X5975Y9987D01*
X5987Y10009D01*
X5987Y10032D01*
X5975Y10054D01*
X5953Y10065D01*
X5897Y10065D01*
X5874Y10077D01*
X5762Y9975D02*
X5762Y10133D01*
X5762Y10088D02*
X5750Y10110D01*
X5739Y10122D01*
X5717Y10133D01*
X5694Y10133D01*
X5525Y9987D02*
X5548Y9975D01*
X5593Y9975D01*
X5615Y9987D01*
X5627Y10009D01*
X5627Y10099D01*
X5615Y10122D01*
X5593Y10133D01*
X5548Y10133D01*
X5525Y10122D01*
X5514Y10099D01*
X5514Y10077D01*
X5627Y10054D01*
X8281Y9841D02*
X8281Y9650D01*
X8270Y9628D01*
X8259Y9616D01*
X8236Y9605D01*
X8191Y9605D01*
X8169Y9616D01*
X8158Y9628D01*
X8146Y9650D01*
X8146Y9841D01*
X8034Y9763D02*
X8034Y9605D01*
X8034Y9740D02*
X8023Y9751D01*
X8000Y9763D01*
X7966Y9763D01*
X7944Y9751D01*
X7933Y9729D01*
X7933Y9605D01*
X7719Y9605D02*
X7719Y9841D01*
X7719Y9616D02*
X7741Y9605D01*
X7786Y9605D01*
X7809Y9616D01*
X7820Y9628D01*
X7831Y9650D01*
X7831Y9718D01*
X7820Y9740D01*
X7809Y9751D01*
X7786Y9763D01*
X7741Y9763D01*
X7719Y9751D01*
X7516Y9616D02*
X7539Y9605D01*
X7584Y9605D01*
X7606Y9616D01*
X7618Y9639D01*
X7618Y9729D01*
X7606Y9751D01*
X7584Y9763D01*
X7539Y9763D01*
X7516Y9751D01*
X7505Y9729D01*
X7505Y9706D01*
X7618Y9684D01*
X7404Y9605D02*
X7404Y9763D01*
X7404Y9718D02*
X7393Y9740D01*
X7381Y9751D01*
X7359Y9763D01*
X7336Y9763D01*
X7111Y9841D02*
X6976Y9841D01*
X7044Y9605D02*
X7044Y9841D01*
X6909Y9673D02*
X6796Y9673D01*
X6931Y9605D02*
X6853Y9841D01*
X6774Y9605D01*
X6695Y9605D02*
X6695Y9841D01*
X6605Y9841D01*
X6583Y9830D01*
X6571Y9819D01*
X6560Y9796D01*
X6560Y9763D01*
X6571Y9740D01*
X6583Y9729D01*
X6605Y9718D01*
X6695Y9718D01*
X6324Y9605D02*
X6403Y9718D01*
X6459Y9605D02*
X6459Y9841D01*
X6369Y9841D01*
X6347Y9830D01*
X6335Y9819D01*
X6324Y9796D01*
X6324Y9763D01*
X6335Y9740D01*
X6347Y9729D01*
X6369Y9718D01*
X6459Y9718D01*
X5998Y9841D02*
X5953Y9841D01*
X5930Y9830D01*
X5908Y9808D01*
X5897Y9763D01*
X5897Y9684D01*
X5908Y9639D01*
X5930Y9616D01*
X5953Y9605D01*
X5998Y9605D01*
X6020Y9616D01*
X6043Y9639D01*
X6054Y9684D01*
X6054Y9763D01*
X6043Y9808D01*
X6020Y9830D01*
X5998Y9841D01*
X5795Y9605D02*
X5795Y9841D01*
X5795Y9729D02*
X5660Y9729D01*
X5660Y9605D02*
X5660Y9841D01*
X5435Y9605D02*
X5548Y9605D01*
X5548Y9841D01*
X8675Y9393D02*
X8585Y9393D01*
X8641Y9471D02*
X8641Y9269D01*
X8630Y9246D01*
X8607Y9235D01*
X8585Y9235D01*
X8405Y9235D02*
X8405Y9359D01*
X8416Y9381D01*
X8439Y9393D01*
X8484Y9393D01*
X8506Y9381D01*
X8405Y9246D02*
X8428Y9235D01*
X8484Y9235D01*
X8506Y9246D01*
X8517Y9269D01*
X8517Y9291D01*
X8506Y9314D01*
X8484Y9325D01*
X8428Y9325D01*
X8405Y9336D01*
X8293Y9393D02*
X8293Y9156D01*
X8293Y9381D02*
X8270Y9393D01*
X8225Y9393D01*
X8203Y9381D01*
X8191Y9370D01*
X8180Y9348D01*
X8180Y9280D01*
X8191Y9258D01*
X8203Y9246D01*
X8225Y9235D01*
X8270Y9235D01*
X8293Y9246D01*
X8079Y9235D02*
X8079Y9393D01*
X8079Y9348D02*
X8068Y9370D01*
X8056Y9381D01*
X8034Y9393D01*
X8011Y9393D01*
X7933Y9258D02*
X7921Y9246D01*
X7933Y9235D01*
X7944Y9246D01*
X7933Y9258D01*
X7933Y9235D01*
X7786Y9235D02*
X7809Y9246D01*
X7820Y9258D01*
X7831Y9280D01*
X7831Y9348D01*
X7820Y9370D01*
X7809Y9381D01*
X7786Y9393D01*
X7753Y9393D01*
X7730Y9381D01*
X7719Y9370D01*
X7708Y9348D01*
X7708Y9280D01*
X7719Y9258D01*
X7730Y9246D01*
X7753Y9235D01*
X7786Y9235D01*
X7606Y9235D02*
X7606Y9393D01*
X7606Y9348D02*
X7595Y9370D01*
X7584Y9381D01*
X7561Y9393D01*
X7539Y9393D01*
X7359Y9393D02*
X7359Y9201D01*
X7370Y9179D01*
X7381Y9168D01*
X7404Y9156D01*
X7438Y9156D01*
X7460Y9168D01*
X7359Y9246D02*
X7381Y9235D01*
X7426Y9235D01*
X7449Y9246D01*
X7460Y9258D01*
X7471Y9280D01*
X7471Y9348D01*
X7460Y9370D01*
X7449Y9381D01*
X7426Y9393D01*
X7381Y9393D01*
X7359Y9381D01*
X7078Y9483D02*
X7280Y9179D01*
X6954Y9471D02*
X6909Y9471D01*
X6886Y9460D01*
X6864Y9438D01*
X6853Y9393D01*
X6853Y9314D01*
X6864Y9269D01*
X6886Y9246D01*
X6909Y9235D01*
X6954Y9235D01*
X6976Y9246D01*
X6999Y9269D01*
X7010Y9314D01*
X7010Y9393D01*
X6999Y9438D01*
X6976Y9460D01*
X6954Y9471D01*
X6751Y9235D02*
X6751Y9471D01*
X6751Y9359D02*
X6616Y9359D01*
X6616Y9235D02*
X6616Y9471D01*
X6392Y9235D02*
X6504Y9235D01*
X6504Y9471D01*
G54D11*
G36*
X3848Y8531D02*
X3858Y8535D01*
X3878Y8549D01*
X3908Y8568D01*
X3943Y8591D01*
X3978Y8615D01*
X4007Y8634D01*
X4027Y8647D01*
X4035Y8652D01*
X4040Y8650D01*
X4057Y8642D01*
X4081Y8630D01*
X4095Y8622D01*
X4117Y8613D01*
X4128Y8611D01*
X4130Y8614D01*
X4138Y8631D01*
X4151Y8660D01*
X4168Y8698D01*
X4187Y8743D01*
X4207Y8792D01*
X4228Y8841D01*
X4247Y8888D01*
X4265Y8931D01*
X4279Y8965D01*
X4288Y8989D01*
X4291Y9000D01*
X4290Y9002D01*
X4279Y9013D01*
X4260Y9027D01*
X4218Y9061D01*
X4176Y9113D01*
X4151Y9171D01*
X4143Y9237D01*
X4150Y9297D01*
X4174Y9355D01*
X4214Y9407D01*
X4263Y9446D01*
X4321Y9470D01*
X4385Y9478D01*
X4446Y9471D01*
X4506Y9448D01*
X4558Y9408D01*
X4580Y9383D01*
X4610Y9330D01*
X4628Y9274D01*
X4630Y9259D01*
X4627Y9197D01*
X4609Y9137D01*
X4576Y9084D01*
X4530Y9040D01*
X4525Y9036D01*
X4503Y9020D01*
X4489Y9009D01*
X4478Y9000D01*
X4557Y8810D01*
X4570Y8779D01*
X4592Y8727D01*
X4611Y8682D01*
X4626Y8647D01*
X4637Y8623D01*
X4641Y8613D01*
X4642Y8613D01*
X4649Y8611D01*
X4663Y8617D01*
X4690Y8630D01*
X4708Y8639D01*
X4728Y8648D01*
X4737Y8652D01*
X4745Y8648D01*
X4764Y8635D01*
X4792Y8616D01*
X4827Y8593D01*
X4859Y8571D01*
X4889Y8551D01*
X4911Y8537D01*
X4921Y8532D01*
X4923Y8532D01*
X4932Y8537D01*
X4949Y8551D01*
X4975Y8576D01*
X5012Y8612D01*
X5018Y8618D01*
X5048Y8648D01*
X5072Y8674D01*
X5089Y8692D01*
X5095Y8701D01*
X5095Y8701D01*
X5089Y8711D01*
X5076Y8733D01*
X5056Y8763D01*
X5032Y8799D01*
X4969Y8890D01*
X5003Y8977D01*
X5014Y9003D01*
X5027Y9036D01*
X5038Y9059D01*
X5043Y9069D01*
X5052Y9072D01*
X5076Y9078D01*
X5110Y9085D01*
X5151Y9092D01*
X5190Y9100D01*
X5225Y9106D01*
X5251Y9111D01*
X5262Y9113D01*
X5265Y9115D01*
X5267Y9121D01*
X5269Y9133D01*
X5270Y9154D01*
X5270Y9188D01*
X5270Y9237D01*
X5270Y9242D01*
X5270Y9289D01*
X5269Y9326D01*
X5268Y9349D01*
X5266Y9359D01*
X5266Y9359D01*
X5255Y9362D01*
X5230Y9367D01*
X5195Y9374D01*
X5153Y9382D01*
X5150Y9382D01*
X5108Y9391D01*
X5073Y9398D01*
X5049Y9403D01*
X5038Y9407D01*
X5036Y9410D01*
X5028Y9426D01*
X5016Y9452D01*
X5002Y9484D01*
X4988Y9517D01*
X4976Y9546D01*
X4968Y9568D01*
X4966Y9578D01*
X4966Y9579D01*
X4972Y9589D01*
X4987Y9610D01*
X5007Y9640D01*
X5031Y9676D01*
X5033Y9679D01*
X5057Y9714D01*
X5077Y9744D01*
X5090Y9766D01*
X5095Y9775D01*
X5095Y9776D01*
X5087Y9786D01*
X5069Y9806D01*
X5043Y9833D01*
X5012Y9865D01*
X5002Y9874D01*
X4968Y9908D01*
X4944Y9930D01*
X4929Y9942D01*
X4922Y9944D01*
X4921Y9944D01*
X4911Y9938D01*
X4888Y9923D01*
X4858Y9903D01*
X4822Y9878D01*
X4820Y9876D01*
X4784Y9852D01*
X4755Y9832D01*
X4734Y9819D01*
X4725Y9813D01*
X4723Y9813D01*
X4709Y9817D01*
X4683Y9826D01*
X4652Y9838D01*
X4620Y9851D01*
X4590Y9864D01*
X4568Y9874D01*
X4557Y9880D01*
X4557Y9880D01*
X4553Y9893D01*
X4547Y9920D01*
X4539Y9956D01*
X4531Y9999D01*
X4530Y10006D01*
X4522Y10049D01*
X4515Y10084D01*
X4510Y10108D01*
X4508Y10118D01*
X4502Y10119D01*
X4481Y10120D01*
X4450Y10121D01*
X4411Y10122D01*
X4372Y10121D01*
X4333Y10121D01*
X4299Y10119D01*
X4275Y10118D01*
X4265Y10116D01*
X4265Y10115D01*
X4261Y10102D01*
X4256Y10076D01*
X4248Y10039D01*
X4240Y9995D01*
X4238Y9988D01*
X4230Y9946D01*
X4223Y9911D01*
X4218Y9887D01*
X4216Y9878D01*
X4212Y9876D01*
X4194Y9868D01*
X4166Y9857D01*
X4131Y9843D01*
X4050Y9810D01*
X3951Y9878D01*
X3942Y9884D01*
X3906Y9908D01*
X3876Y9928D01*
X3856Y9941D01*
X3848Y9946D01*
X3847Y9946D01*
X3837Y9937D01*
X3817Y9919D01*
X3790Y9892D01*
X3759Y9861D01*
X3736Y9838D01*
X3708Y9810D01*
X3691Y9791D01*
X3682Y9779D01*
X3678Y9772D01*
X3679Y9767D01*
X3685Y9757D01*
X3700Y9735D01*
X3721Y9705D01*
X3745Y9670D01*
X3765Y9640D01*
X3786Y9607D01*
X3800Y9583D01*
X3805Y9572D01*
X3804Y9567D01*
X3797Y9547D01*
X3785Y9518D01*
X3770Y9483D01*
X3736Y9404D01*
X3684Y9394D01*
X3653Y9388D01*
X3609Y9380D01*
X3567Y9372D01*
X3502Y9359D01*
X3500Y9120D01*
X3510Y9115D01*
X3519Y9113D01*
X3544Y9107D01*
X3578Y9100D01*
X3619Y9093D01*
X3654Y9086D01*
X3689Y9080D01*
X3714Y9075D01*
X3725Y9072D01*
X3728Y9069D01*
X3736Y9052D01*
X3749Y9025D01*
X3763Y8992D01*
X3777Y8959D01*
X3789Y8928D01*
X3798Y8904D01*
X3801Y8892D01*
X3796Y8883D01*
X3783Y8862D01*
X3764Y8833D01*
X3740Y8798D01*
X3716Y8763D01*
X3696Y8733D01*
X3682Y8712D01*
X3676Y8702D01*
X3679Y8696D01*
X3693Y8679D01*
X3719Y8652D01*
X3758Y8613D01*
X3765Y8607D01*
X3796Y8577D01*
X3822Y8553D01*
X3840Y8537D01*
X3848Y8531D01*
X3848Y8531D01*
G37*
G54D12*
X8846Y6346D02*
X8846Y1444D01*
X8885Y1425D02*
X8885Y6366D01*
X8984Y6346D02*
X8984Y1444D01*
X9043Y6366D02*
X8944Y6366D01*
X9043Y1425D02*
X9043Y6366D01*
X8806Y1425D02*
X8806Y6366D01*
X9043Y1425D02*
X8806Y1425D01*
X3866Y6366D02*
X3866Y6208D01*
X3373Y992D02*
X3373Y6208D01*
X3373Y6208D02*
X3866Y6208D01*
X8472Y814D02*
X4535Y814D01*
X4535Y814D02*
X4200Y480D01*
X4200Y480D02*
X3866Y480D01*
X5499Y6366D02*
X3866Y6366D01*
X7783Y6366D02*
X6247Y6366D01*
X8944Y6366D02*
X8531Y6366D01*
X8944Y1425D02*
X8944Y6366D01*
G54D10*
X1649Y9078D02*
G75*
G03X1649Y9078I-295J0D01*
G74*
G01*
X1401Y397D02*
G75*
G03X1401Y397I-295J0D01*
G74*
G01*
X9244Y8952D02*
G75*
G03X9244Y8952I-295J0D01*
G74*
G01*
G54D13*
X9003Y1340D02*
X9003Y1274D01*
X9042Y1353D02*
X8904Y1307D01*
X9042Y1261D01*
X9042Y1215D02*
X8904Y1215D01*
X8904Y1182D01*
X8911Y1162D01*
X8924Y1149D01*
X8937Y1143D01*
X8963Y1136D01*
X8983Y1136D01*
X9009Y1143D01*
X9022Y1149D01*
X9036Y1162D01*
X9042Y1182D01*
X9042Y1215D01*
X8950Y1018D02*
X9042Y1018D01*
X8898Y1051D02*
X8996Y1084D01*
X8996Y998D01*
X9003Y6852D02*
X9003Y6786D01*
X9042Y6865D02*
X8904Y6819D01*
X9042Y6773D01*
X9042Y6727D02*
X8904Y6727D01*
X8904Y6694D01*
X8911Y6674D01*
X8924Y6661D01*
X8937Y6655D01*
X8963Y6648D01*
X8983Y6648D01*
X9009Y6655D01*
X9022Y6661D01*
X9036Y6674D01*
X9042Y6694D01*
X9042Y6727D01*
X8917Y6596D02*
X8911Y6589D01*
X8904Y6576D01*
X8904Y6543D01*
X8911Y6530D01*
X8917Y6524D01*
X8931Y6517D01*
X8944Y6517D01*
X8963Y6524D01*
X9042Y6602D01*
X9042Y6517D01*
G54D14*
X9003Y7640D02*
X9003Y7574D01*
X9042Y7653D02*
X8904Y7607D01*
X9042Y7561D01*
X9042Y7515D02*
X8904Y7515D01*
X8904Y7482D01*
X8911Y7462D01*
X8924Y7449D01*
X8937Y7443D01*
X8963Y7436D01*
X8983Y7436D01*
X9009Y7443D01*
X9022Y7449D01*
X9036Y7462D01*
X9042Y7482D01*
X9042Y7515D01*
X9042Y7305D02*
X9042Y7384D01*
X9042Y7344D02*
X8904Y7344D01*
X8924Y7358D01*
X8937Y7371D01*
X8944Y7384D01*
X9003Y8427D02*
X9003Y8361D01*
X9042Y8440D02*
X8904Y8394D01*
X9042Y8348D01*
X9042Y8302D02*
X8904Y8302D01*
X8904Y8269D01*
X8911Y8249D01*
X8924Y8236D01*
X8937Y8230D01*
X8963Y8223D01*
X8983Y8223D01*
X9009Y8230D01*
X9022Y8236D01*
X9036Y8249D01*
X9042Y8269D01*
X9042Y8302D01*
X8904Y8138D02*
X8904Y8125D01*
X8911Y8112D01*
X8917Y8105D01*
X8931Y8099D01*
X8957Y8092D01*
X8990Y8092D01*
X9016Y8099D01*
X9029Y8105D01*
X9036Y8112D01*
X9042Y8125D01*
X9042Y8138D01*
X9036Y8151D01*
X9029Y8158D01*
X9016Y8164D01*
X8990Y8171D01*
X8957Y8171D01*
X8931Y8164D01*
X8917Y8158D01*
X8911Y8151D01*
X8904Y8138D01*
G54D15*
X1116Y8550D02*
X1116Y8428D01*
X1191Y8494D01*
X1191Y8466D01*
X1200Y8447D01*
X1210Y8437D01*
X1229Y8428D01*
X1275Y8428D01*
X1294Y8437D01*
X1304Y8447D01*
X1313Y8466D01*
X1313Y8522D01*
X1304Y8541D01*
X1294Y8550D01*
X1294Y8344D02*
X1304Y8334D01*
X1313Y8344D01*
X1304Y8353D01*
X1294Y8344D01*
X1313Y8344D01*
X1116Y8269D02*
X1116Y8147D01*
X1191Y8212D01*
X1191Y8184D01*
X1200Y8166D01*
X1210Y8156D01*
X1229Y8147D01*
X1275Y8147D01*
X1294Y8156D01*
X1304Y8166D01*
X1313Y8184D01*
X1313Y8241D01*
X1304Y8259D01*
X1294Y8269D01*
X1116Y8091D02*
X1313Y8025D01*
X1116Y7959D01*
G54D13*
X1127Y7692D02*
X1127Y7590D01*
X1304Y7641D02*
X1127Y7641D01*
X1127Y7548D02*
X1304Y7430D01*
X1127Y7430D02*
X1304Y7548D01*
X1127Y7329D02*
X1127Y7312D01*
X1135Y7295D01*
X1144Y7287D01*
X1161Y7278D01*
X1194Y7270D01*
X1237Y7270D01*
X1270Y7278D01*
X1287Y7287D01*
X1296Y7295D01*
X1304Y7312D01*
X1304Y7329D01*
X1296Y7346D01*
X1287Y7354D01*
X1270Y7363D01*
X1237Y7371D01*
X1194Y7371D01*
X1161Y7363D01*
X1144Y7354D01*
X1135Y7346D01*
X1127Y7329D01*
X1304Y6798D02*
X1220Y6857D01*
X1304Y6899D02*
X1127Y6899D01*
X1127Y6832D01*
X1135Y6815D01*
X1144Y6807D01*
X1161Y6798D01*
X1186Y6798D01*
X1203Y6807D01*
X1211Y6815D01*
X1220Y6832D01*
X1220Y6899D01*
X1127Y6739D02*
X1304Y6621D01*
X1127Y6621D02*
X1304Y6739D01*
X1127Y6520D02*
X1127Y6503D01*
X1135Y6486D01*
X1144Y6478D01*
X1161Y6469D01*
X1194Y6461D01*
X1237Y6461D01*
X1270Y6469D01*
X1287Y6478D01*
X1296Y6486D01*
X1304Y6503D01*
X1304Y6520D01*
X1296Y6537D01*
X1287Y6545D01*
X1270Y6554D01*
X1237Y6562D01*
X1194Y6562D01*
X1161Y6554D01*
X1144Y6545D01*
X1135Y6537D01*
X1127Y6520D01*
X1127Y6117D02*
X1127Y6015D01*
X1304Y6066D02*
X1127Y6066D01*
X1127Y5973D02*
X1304Y5855D01*
X1127Y5855D02*
X1304Y5973D01*
X1304Y5695D02*
X1304Y5796D01*
X1304Y5745D02*
X1127Y5745D01*
X1152Y5762D01*
X1169Y5779D01*
X1178Y5796D01*
X1343Y5206D02*
X1259Y5265D01*
X1343Y5308D02*
X1166Y5308D01*
X1166Y5240D01*
X1175Y5223D01*
X1183Y5215D01*
X1200Y5206D01*
X1225Y5206D01*
X1242Y5215D01*
X1251Y5223D01*
X1259Y5240D01*
X1259Y5308D01*
X1335Y5139D02*
X1343Y5114D01*
X1343Y5071D01*
X1335Y5055D01*
X1327Y5046D01*
X1310Y5038D01*
X1293Y5038D01*
X1276Y5046D01*
X1267Y5055D01*
X1259Y5071D01*
X1251Y5105D01*
X1242Y5122D01*
X1234Y5130D01*
X1217Y5139D01*
X1200Y5139D01*
X1183Y5130D01*
X1175Y5122D01*
X1166Y5105D01*
X1166Y5063D01*
X1175Y5038D01*
X1166Y4987D02*
X1166Y4886D01*
X1343Y4936D02*
X1166Y4936D01*
X1136Y5350D02*
X1136Y4869D01*
X1304Y4478D02*
X1220Y4537D01*
X1304Y4580D02*
X1127Y4580D01*
X1127Y4512D01*
X1135Y4495D01*
X1144Y4487D01*
X1161Y4478D01*
X1186Y4478D01*
X1203Y4487D01*
X1211Y4495D01*
X1220Y4512D01*
X1220Y4580D01*
X1296Y4411D02*
X1304Y4386D01*
X1304Y4343D01*
X1296Y4327D01*
X1287Y4318D01*
X1270Y4310D01*
X1253Y4310D01*
X1237Y4318D01*
X1228Y4327D01*
X1220Y4343D01*
X1211Y4377D01*
X1203Y4394D01*
X1194Y4402D01*
X1178Y4411D01*
X1161Y4411D01*
X1144Y4402D01*
X1135Y4394D01*
X1127Y4377D01*
X1127Y4335D01*
X1135Y4310D01*
X1296Y4242D02*
X1304Y4217D01*
X1304Y4175D01*
X1296Y4158D01*
X1287Y4149D01*
X1270Y4141D01*
X1253Y4141D01*
X1237Y4149D01*
X1228Y4158D01*
X1220Y4175D01*
X1211Y4208D01*
X1203Y4225D01*
X1194Y4234D01*
X1178Y4242D01*
X1161Y4242D01*
X1144Y4234D01*
X1135Y4225D01*
X1127Y4208D01*
X1127Y4166D01*
X1135Y4141D01*
X1304Y4065D02*
X1127Y4065D01*
X1286Y3795D02*
X1148Y3795D01*
X1148Y3742D01*
X1155Y3729D01*
X1162Y3722D01*
X1175Y3716D01*
X1194Y3716D01*
X1208Y3722D01*
X1214Y3729D01*
X1221Y3742D01*
X1221Y3795D01*
X1148Y3670D02*
X1286Y3637D01*
X1188Y3611D01*
X1286Y3585D01*
X1148Y3552D01*
X1286Y3499D02*
X1148Y3499D01*
X1247Y3453D01*
X1148Y3407D01*
X1286Y3407D01*
X1286Y3270D02*
X1286Y3348D01*
X1286Y3309D02*
X1148Y3309D01*
X1168Y3322D01*
X1181Y3335D01*
X1188Y3348D01*
G54D15*
X1313Y2874D02*
X1219Y2940D01*
X1313Y2986D02*
X1116Y2986D01*
X1116Y2911D01*
X1125Y2893D01*
X1135Y2883D01*
X1154Y2874D01*
X1182Y2874D01*
X1200Y2883D01*
X1210Y2893D01*
X1219Y2911D01*
X1219Y2986D01*
X1116Y2808D02*
X1313Y2677D01*
X1116Y2677D02*
X1313Y2808D01*
X1313Y2499D02*
X1313Y2611D01*
X1313Y2555D02*
X1116Y2555D01*
X1144Y2574D01*
X1163Y2593D01*
X1172Y2611D01*
G54D13*
X1286Y2384D02*
X1148Y2384D01*
X1148Y2351D01*
X1155Y2331D01*
X1168Y2318D01*
X1181Y2311D01*
X1208Y2305D01*
X1227Y2305D01*
X1253Y2311D01*
X1267Y2318D01*
X1280Y2331D01*
X1286Y2351D01*
X1286Y2384D01*
X1148Y2265D02*
X1148Y2187D01*
X1286Y2226D02*
X1148Y2226D01*
X1286Y2062D02*
X1221Y2108D01*
X1286Y2141D02*
X1148Y2141D01*
X1148Y2088D01*
X1155Y2075D01*
X1162Y2069D01*
X1175Y2062D01*
X1194Y2062D01*
X1208Y2069D01*
X1214Y2075D01*
X1221Y2088D01*
X1221Y2141D01*
X1142Y1905D02*
X1319Y2023D01*
X1280Y1865D02*
X1286Y1846D01*
X1286Y1813D01*
X1280Y1800D01*
X1273Y1793D01*
X1260Y1786D01*
X1247Y1786D01*
X1234Y1793D01*
X1227Y1800D01*
X1221Y1813D01*
X1214Y1839D01*
X1208Y1852D01*
X1201Y1859D01*
X1188Y1865D01*
X1175Y1865D01*
X1162Y1859D01*
X1155Y1852D01*
X1148Y1839D01*
X1148Y1806D01*
X1155Y1786D01*
X1286Y1727D02*
X1148Y1727D01*
X1148Y1695D01*
X1155Y1675D01*
X1168Y1662D01*
X1181Y1655D01*
X1208Y1649D01*
X1227Y1649D01*
X1253Y1655D01*
X1267Y1662D01*
X1280Y1675D01*
X1286Y1695D01*
X1286Y1727D01*
X1247Y1596D02*
X1247Y1531D01*
X1286Y1609D02*
X1148Y1563D01*
X1286Y1517D01*
G54D15*
X1125Y1322D02*
X1116Y1341D01*
X1116Y1369D01*
X1125Y1397D01*
X1144Y1416D01*
X1163Y1425D01*
X1200Y1435D01*
X1229Y1435D01*
X1266Y1425D01*
X1285Y1416D01*
X1304Y1397D01*
X1313Y1369D01*
X1313Y1350D01*
X1304Y1322D01*
X1294Y1313D01*
X1229Y1313D01*
X1229Y1350D01*
X1313Y1229D02*
X1116Y1229D01*
X1313Y1116D01*
X1116Y1116D01*
X1313Y1022D02*
X1116Y1022D01*
X1116Y975D01*
X1125Y947D01*
X1144Y929D01*
X1163Y919D01*
X1200Y910D01*
X1229Y910D01*
X1266Y919D01*
X1285Y929D01*
X1304Y947D01*
X1313Y975D01*
X1313Y1022D01*
M02*
