%FSLAX34Y34*%
G04 Gerber Fmt 3.4, Leading zero omitted, Abs format*
G04 (created by PCBNEW (2013-12-14 BZR 4555)-product) date Tue 18 Feb 2014 14:51:01 EST*
%MOIN*%
G01*
G70*
G90*
G04 APERTURE LIST*
%ADD10C,0.003937*%
%ADD11C,0.045276*%
%ADD12R,0.043307X0.055118*%
%ADD13R,0.055118X0.043307*%
G04 APERTURE END LIST*
G54D10*
G54D11*
X2559Y-3822D03*
X-2559Y-3822D03*
X3362Y2610D03*
G54D12*
X2750Y-4793D03*
X2250Y-4793D03*
G54D10*
G36*
X-3976Y1283D02*
X-3976Y1716D01*
X-3425Y1716D01*
X-3425Y1283D01*
X-3976Y1283D01*
X-3976Y1283D01*
G37*
G36*
X-3976Y-3716D02*
X-3976Y-3283D01*
X-3425Y-3283D01*
X-3425Y-3716D01*
X-3976Y-3716D01*
X-3976Y-3716D01*
G37*
G36*
X-3976Y783D02*
X-3976Y1216D01*
X-3425Y1216D01*
X-3425Y783D01*
X-3976Y783D01*
X-3976Y783D01*
G37*
G36*
X-3976Y283D02*
X-3976Y716D01*
X-3425Y716D01*
X-3425Y283D01*
X-3976Y283D01*
X-3976Y283D01*
G37*
G36*
X-3976Y-216D02*
X-3976Y216D01*
X-3425Y216D01*
X-3425Y-216D01*
X-3976Y-216D01*
X-3976Y-216D01*
G37*
G36*
X-3976Y-716D02*
X-3976Y-283D01*
X-3425Y-283D01*
X-3425Y-716D01*
X-3976Y-716D01*
X-3976Y-716D01*
G37*
G36*
X-3976Y-1216D02*
X-3976Y-783D01*
X-3425Y-783D01*
X-3425Y-1216D01*
X-3976Y-1216D01*
X-3976Y-1216D01*
G37*
G36*
X-3976Y-1716D02*
X-3976Y-1283D01*
X-3425Y-1283D01*
X-3425Y-1716D01*
X-3976Y-1716D01*
X-3976Y-1716D01*
G37*
G36*
X-3976Y-2216D02*
X-3976Y-1783D01*
X-3425Y-1783D01*
X-3425Y-2216D01*
X-3976Y-2216D01*
X-3976Y-2216D01*
G37*
G36*
X-3976Y-2716D02*
X-3976Y-2283D01*
X-3425Y-2283D01*
X-3425Y-2716D01*
X-3976Y-2716D01*
X-3976Y-2716D01*
G37*
G36*
X-3976Y-3216D02*
X-3976Y-2783D01*
X-3425Y-2783D01*
X-3425Y-3216D01*
X-3976Y-3216D01*
X-3976Y-3216D01*
G37*
G54D12*
X-2750Y-4793D03*
X-2250Y-4793D03*
X-1750Y-4793D03*
X-1250Y-4793D03*
X-750Y-4793D03*
X-250Y-4793D03*
X250Y-4793D03*
X750Y-4793D03*
X1250Y-4793D03*
X1750Y-4793D03*
G54D13*
X3700Y1500D03*
X3700Y-3500D03*
X3700Y-3000D03*
X3700Y-2500D03*
X3700Y-2000D03*
X3700Y-1500D03*
X3700Y-1000D03*
X3700Y-500D03*
X3700Y0D03*
X3700Y500D03*
X3700Y1000D03*
M02*
