%FSLAX34Y34*%
G04 Gerber Fmt 3.4, Leading zero omitted, Abs format*
G04 (created by PCBNEW (2013-12-14 BZR 4555)-product) date Fri 24 Jan 2014 09:56:54 EST*
%MOIN*%
G01*
G70*
G90*
G04 APERTURE LIST*
%ADD10C,0.003937*%
%ADD11C,0.008858*%
%ADD12C,0.005906*%
%ADD13C,0.007900*%
%ADD14C,0.008000*%
%ADD15C,0.002800*%
%ADD16C,0.000100*%
G04 APERTURE END LIST*
G54D10*
G54D11*
X-1969Y4207D02*
X-1969Y4562D01*
X-1851Y4309D01*
X-1733Y4562D01*
X-1733Y4207D01*
X-1429Y4224D02*
X-1463Y4207D01*
X-1530Y4207D01*
X-1564Y4224D01*
X-1581Y4258D01*
X-1581Y4393D01*
X-1564Y4427D01*
X-1530Y4444D01*
X-1463Y4444D01*
X-1429Y4427D01*
X-1412Y4393D01*
X-1412Y4359D01*
X-1581Y4325D01*
X-1277Y4224D02*
X-1244Y4207D01*
X-1176Y4207D01*
X-1142Y4224D01*
X-1125Y4258D01*
X-1125Y4275D01*
X-1142Y4309D01*
X-1176Y4325D01*
X-1227Y4325D01*
X-1260Y4342D01*
X-1277Y4376D01*
X-1277Y4393D01*
X-1260Y4427D01*
X-1227Y4444D01*
X-1176Y4444D01*
X-1142Y4427D01*
X-974Y4207D02*
X-974Y4562D01*
X-822Y4207D02*
X-822Y4393D01*
X-839Y4427D01*
X-872Y4444D01*
X-923Y4444D01*
X-957Y4427D01*
X-974Y4410D01*
X-704Y4562D02*
X-501Y4562D01*
X-602Y4207D02*
X-602Y4562D01*
X-383Y4207D02*
X-383Y4562D01*
X-231Y4207D02*
X-231Y4393D01*
X-248Y4427D01*
X-282Y4444D01*
X-332Y4444D01*
X-366Y4427D01*
X-383Y4410D01*
X-62Y4207D02*
X-62Y4444D01*
X-62Y4562D02*
X-79Y4545D01*
X-62Y4528D01*
X-46Y4545D01*
X-62Y4562D01*
X-62Y4528D01*
X105Y4444D02*
X105Y4207D01*
X105Y4410D02*
X122Y4427D01*
X156Y4444D01*
X206Y4444D01*
X240Y4427D01*
X257Y4393D01*
X257Y4207D01*
X578Y4444D02*
X578Y4157D01*
X561Y4123D01*
X544Y4106D01*
X510Y4089D01*
X460Y4089D01*
X426Y4106D01*
X578Y4224D02*
X544Y4207D01*
X476Y4207D01*
X443Y4224D01*
X426Y4241D01*
X409Y4275D01*
X409Y4376D01*
X426Y4410D01*
X443Y4427D01*
X476Y4444D01*
X544Y4444D01*
X578Y4427D01*
X983Y4444D02*
X1067Y4207D01*
X1151Y4444D01*
X1269Y4528D02*
X1286Y4545D01*
X1320Y4562D01*
X1404Y4562D01*
X1438Y4545D01*
X1455Y4528D01*
X1472Y4494D01*
X1472Y4460D01*
X1455Y4410D01*
X1253Y4207D01*
X1472Y4207D01*
X1624Y4241D02*
X1641Y4224D01*
X1624Y4207D01*
X1607Y4224D01*
X1624Y4241D01*
X1624Y4207D01*
X1860Y4562D02*
X1894Y4562D01*
X1928Y4545D01*
X1944Y4528D01*
X1961Y4494D01*
X1978Y4427D01*
X1978Y4342D01*
X1961Y4275D01*
X1944Y4241D01*
X1928Y4224D01*
X1894Y4207D01*
X1860Y4207D01*
X1826Y4224D01*
X1809Y4241D01*
X1793Y4275D01*
X1776Y4342D01*
X1776Y4427D01*
X1793Y4494D01*
X1809Y4528D01*
X1826Y4545D01*
X1860Y4562D01*
X-1564Y3038D02*
X-1564Y3392D01*
X-1446Y3139D01*
X-1328Y3392D01*
X-1328Y3038D01*
X-1142Y3038D02*
X-1075Y3038D01*
X-1041Y3055D01*
X-1024Y3072D01*
X-991Y3122D01*
X-974Y3190D01*
X-974Y3325D01*
X-991Y3359D01*
X-1007Y3375D01*
X-1041Y3392D01*
X-1109Y3392D01*
X-1142Y3375D01*
X-1159Y3359D01*
X-1176Y3325D01*
X-1176Y3241D01*
X-1159Y3207D01*
X-1142Y3190D01*
X-1109Y3173D01*
X-1041Y3173D01*
X-1007Y3190D01*
X-991Y3207D01*
X-974Y3241D01*
X-822Y3038D02*
X-822Y3392D01*
X-737Y3392D01*
X-687Y3375D01*
X-653Y3342D01*
X-636Y3308D01*
X-619Y3241D01*
X-619Y3190D01*
X-636Y3122D01*
X-653Y3089D01*
X-687Y3055D01*
X-737Y3038D01*
X-822Y3038D01*
X-332Y3055D02*
X-366Y3038D01*
X-434Y3038D01*
X-467Y3055D01*
X-484Y3089D01*
X-484Y3224D01*
X-467Y3257D01*
X-434Y3274D01*
X-366Y3274D01*
X-332Y3257D01*
X-316Y3224D01*
X-316Y3190D01*
X-484Y3156D01*
X-181Y3055D02*
X-147Y3038D01*
X-79Y3038D01*
X-46Y3055D01*
X-29Y3089D01*
X-29Y3106D01*
X-46Y3139D01*
X-79Y3156D01*
X-130Y3156D01*
X-164Y3173D01*
X-181Y3207D01*
X-181Y3224D01*
X-164Y3257D01*
X-130Y3274D01*
X-79Y3274D01*
X-46Y3257D01*
X122Y3038D02*
X122Y3274D01*
X122Y3392D02*
X105Y3375D01*
X122Y3359D01*
X139Y3375D01*
X122Y3392D01*
X122Y3359D01*
X443Y3274D02*
X443Y2987D01*
X426Y2954D01*
X409Y2937D01*
X375Y2920D01*
X325Y2920D01*
X291Y2937D01*
X443Y3055D02*
X409Y3038D01*
X341Y3038D01*
X308Y3055D01*
X291Y3072D01*
X274Y3106D01*
X274Y3207D01*
X291Y3241D01*
X308Y3257D01*
X341Y3274D01*
X409Y3274D01*
X443Y3257D01*
X611Y3274D02*
X611Y3038D01*
X611Y3241D02*
X628Y3257D01*
X662Y3274D01*
X713Y3274D01*
X746Y3257D01*
X763Y3224D01*
X763Y3038D01*
X932Y3072D02*
X949Y3055D01*
X932Y3038D01*
X915Y3055D01*
X932Y3072D01*
X932Y3038D01*
X1253Y3055D02*
X1219Y3038D01*
X1151Y3038D01*
X1118Y3055D01*
X1101Y3072D01*
X1084Y3106D01*
X1084Y3207D01*
X1101Y3241D01*
X1118Y3257D01*
X1151Y3274D01*
X1219Y3274D01*
X1253Y3257D01*
X1455Y3038D02*
X1421Y3055D01*
X1404Y3072D01*
X1388Y3106D01*
X1388Y3207D01*
X1404Y3241D01*
X1421Y3257D01*
X1455Y3274D01*
X1506Y3274D01*
X1539Y3257D01*
X1556Y3241D01*
X1573Y3207D01*
X1573Y3106D01*
X1556Y3072D01*
X1539Y3055D01*
X1506Y3038D01*
X1455Y3038D01*
G54D12*
X1130Y-127D02*
G75*
G03X1130Y-127I-76J0D01*
G74*
G01*
G54D13*
X-1909Y-364D02*
X-1909Y-118D01*
X-1909Y-118D02*
X-1663Y-118D01*
X-1663Y-3070D02*
X-1909Y-3070D01*
X-1909Y-3070D02*
X-1909Y-2824D01*
X1042Y-2824D02*
X1042Y-3070D01*
X1042Y-3070D02*
X796Y-3070D01*
X796Y-118D02*
X1042Y-364D01*
G54D12*
X-688Y933D02*
X-688Y980D01*
X-688Y1720D02*
X-688Y1673D01*
X-177Y1720D02*
X-177Y1673D01*
X-177Y933D02*
X-177Y980D01*
G54D14*
X-433Y1653D02*
X-433Y1480D01*
G54D12*
X-688Y1720D02*
X-177Y1720D01*
X-177Y933D02*
X-688Y933D01*
G54D15*
X2494Y1287D02*
X2294Y1287D01*
X2294Y1287D02*
X2294Y987D01*
X2294Y987D02*
X2494Y987D01*
X2694Y1287D02*
X2894Y1287D01*
X2894Y1287D02*
X2894Y987D01*
X2894Y987D02*
X2694Y987D01*
X2494Y925D02*
X2294Y925D01*
X2294Y925D02*
X2294Y625D01*
X2294Y625D02*
X2494Y625D01*
X2694Y925D02*
X2894Y925D01*
X2894Y925D02*
X2894Y625D01*
X2894Y625D02*
X2694Y625D01*
X2439Y-842D02*
X2239Y-842D01*
X2239Y-842D02*
X2239Y-1142D01*
X2239Y-1142D02*
X2439Y-1142D01*
X2639Y-842D02*
X2839Y-842D01*
X2839Y-842D02*
X2839Y-1142D01*
X2839Y-1142D02*
X2639Y-1142D01*
X2639Y-2961D02*
X2839Y-2961D01*
X2839Y-2961D02*
X2839Y-2661D01*
X2839Y-2661D02*
X2639Y-2661D01*
X2439Y-2961D02*
X2239Y-2961D01*
X2239Y-2961D02*
X2239Y-2661D01*
X2239Y-2661D02*
X2439Y-2661D01*
X-105Y686D02*
X-105Y886D01*
X-105Y886D02*
X-405Y886D01*
X-405Y886D02*
X-405Y686D01*
X-105Y486D02*
X-105Y286D01*
X-105Y286D02*
X-405Y286D01*
X-405Y286D02*
X-405Y486D01*
X-460Y686D02*
X-460Y886D01*
X-460Y886D02*
X-760Y886D01*
X-760Y886D02*
X-760Y686D01*
X-460Y486D02*
X-460Y286D01*
X-460Y286D02*
X-760Y286D01*
X-760Y286D02*
X-760Y486D01*
X-1883Y1768D02*
X-2083Y1768D01*
X-2083Y1768D02*
X-2083Y1468D01*
X-2083Y1468D02*
X-1883Y1468D01*
X-1683Y1768D02*
X-1483Y1768D01*
X-1483Y1768D02*
X-1483Y1468D01*
X-1483Y1468D02*
X-1683Y1468D01*
X-2494Y1472D02*
X-2294Y1472D01*
X-2294Y1472D02*
X-2294Y1772D01*
X-2294Y1772D02*
X-2494Y1772D01*
X-2694Y1472D02*
X-2894Y1472D01*
X-2894Y1472D02*
X-2894Y1772D01*
X-2894Y1772D02*
X-2694Y1772D01*
X2694Y1385D02*
X2894Y1385D01*
X2894Y1385D02*
X2894Y1685D01*
X2894Y1685D02*
X2694Y1685D01*
X2494Y1385D02*
X2294Y1385D01*
X2294Y1385D02*
X2294Y1685D01*
X2294Y1685D02*
X2494Y1685D01*
G54D10*
X2854Y-3822D02*
G75*
G03X2854Y-3822I-295J0D01*
G74*
G01*
X-2263Y-3822D02*
G75*
G03X-2263Y-3822I-295J0D01*
G74*
G01*
G54D12*
X2854Y-1775D02*
X2854Y-2027D01*
X2303Y-2531D02*
X2421Y-2531D01*
X2303Y-1271D02*
X2421Y-1271D01*
X1870Y-2027D02*
X1870Y-1775D01*
X-3248Y-4358D02*
X-3248Y2137D01*
X-3248Y-4358D02*
X3248Y-4358D01*
X3248Y-4358D02*
X3248Y2137D01*
X3248Y2137D02*
X-3248Y2137D01*
X-2462Y1358D02*
X-1970Y1358D01*
X-2462Y767D02*
X-1970Y767D01*
G54D10*
X3657Y2610D02*
G75*
G03X3657Y2610I-295J0D01*
G74*
G01*
G54D16*
G36*
X2218Y2925D02*
X2228Y2929D01*
X2248Y2943D01*
X2278Y2962D01*
X2313Y2985D01*
X2348Y3009D01*
X2377Y3028D01*
X2397Y3041D01*
X2405Y3046D01*
X2410Y3044D01*
X2427Y3036D01*
X2451Y3024D01*
X2465Y3016D01*
X2487Y3007D01*
X2498Y3005D01*
X2500Y3008D01*
X2508Y3025D01*
X2521Y3054D01*
X2538Y3092D01*
X2557Y3137D01*
X2577Y3186D01*
X2598Y3235D01*
X2617Y3282D01*
X2635Y3325D01*
X2649Y3359D01*
X2658Y3383D01*
X2661Y3394D01*
X2660Y3396D01*
X2649Y3407D01*
X2630Y3421D01*
X2588Y3455D01*
X2546Y3507D01*
X2521Y3565D01*
X2513Y3631D01*
X2520Y3691D01*
X2544Y3749D01*
X2584Y3801D01*
X2633Y3840D01*
X2691Y3864D01*
X2755Y3872D01*
X2816Y3865D01*
X2876Y3842D01*
X2928Y3802D01*
X2950Y3777D01*
X2980Y3724D01*
X2998Y3668D01*
X3000Y3653D01*
X2997Y3591D01*
X2979Y3531D01*
X2946Y3478D01*
X2900Y3434D01*
X2895Y3430D01*
X2873Y3414D01*
X2859Y3403D01*
X2848Y3394D01*
X2927Y3204D01*
X2940Y3173D01*
X2962Y3121D01*
X2981Y3076D01*
X2996Y3041D01*
X3007Y3017D01*
X3011Y3007D01*
X3012Y3007D01*
X3019Y3005D01*
X3033Y3011D01*
X3060Y3024D01*
X3078Y3033D01*
X3098Y3042D01*
X3107Y3046D01*
X3115Y3042D01*
X3134Y3029D01*
X3162Y3010D01*
X3197Y2987D01*
X3229Y2965D01*
X3259Y2945D01*
X3281Y2931D01*
X3291Y2926D01*
X3293Y2926D01*
X3302Y2931D01*
X3319Y2945D01*
X3345Y2970D01*
X3382Y3006D01*
X3388Y3012D01*
X3418Y3042D01*
X3442Y3068D01*
X3459Y3086D01*
X3465Y3095D01*
X3465Y3095D01*
X3459Y3105D01*
X3446Y3127D01*
X3426Y3157D01*
X3402Y3193D01*
X3339Y3284D01*
X3373Y3371D01*
X3384Y3397D01*
X3397Y3430D01*
X3408Y3453D01*
X3413Y3463D01*
X3422Y3466D01*
X3446Y3472D01*
X3480Y3479D01*
X3521Y3486D01*
X3560Y3494D01*
X3595Y3500D01*
X3621Y3505D01*
X3632Y3507D01*
X3635Y3509D01*
X3637Y3515D01*
X3639Y3527D01*
X3640Y3548D01*
X3640Y3582D01*
X3640Y3631D01*
X3640Y3636D01*
X3640Y3683D01*
X3639Y3720D01*
X3638Y3743D01*
X3636Y3753D01*
X3636Y3753D01*
X3625Y3756D01*
X3600Y3761D01*
X3565Y3768D01*
X3523Y3776D01*
X3520Y3776D01*
X3478Y3785D01*
X3443Y3792D01*
X3419Y3797D01*
X3408Y3801D01*
X3406Y3804D01*
X3398Y3820D01*
X3386Y3846D01*
X3372Y3878D01*
X3358Y3911D01*
X3346Y3940D01*
X3338Y3962D01*
X3336Y3972D01*
X3336Y3973D01*
X3342Y3983D01*
X3357Y4004D01*
X3377Y4034D01*
X3401Y4070D01*
X3403Y4073D01*
X3427Y4108D01*
X3447Y4138D01*
X3460Y4160D01*
X3465Y4169D01*
X3465Y4170D01*
X3457Y4180D01*
X3439Y4200D01*
X3413Y4227D01*
X3382Y4259D01*
X3372Y4268D01*
X3338Y4302D01*
X3314Y4324D01*
X3299Y4336D01*
X3292Y4338D01*
X3291Y4338D01*
X3281Y4332D01*
X3258Y4317D01*
X3228Y4297D01*
X3192Y4272D01*
X3190Y4270D01*
X3154Y4246D01*
X3125Y4226D01*
X3104Y4213D01*
X3095Y4207D01*
X3093Y4207D01*
X3079Y4211D01*
X3053Y4220D01*
X3022Y4232D01*
X2990Y4245D01*
X2960Y4258D01*
X2938Y4268D01*
X2927Y4274D01*
X2927Y4274D01*
X2923Y4287D01*
X2917Y4314D01*
X2909Y4350D01*
X2901Y4393D01*
X2900Y4400D01*
X2892Y4443D01*
X2885Y4478D01*
X2880Y4502D01*
X2878Y4512D01*
X2872Y4513D01*
X2851Y4514D01*
X2820Y4515D01*
X2781Y4516D01*
X2742Y4515D01*
X2703Y4515D01*
X2669Y4513D01*
X2645Y4512D01*
X2635Y4510D01*
X2635Y4509D01*
X2631Y4496D01*
X2626Y4470D01*
X2618Y4433D01*
X2610Y4389D01*
X2608Y4382D01*
X2600Y4340D01*
X2593Y4305D01*
X2588Y4281D01*
X2586Y4272D01*
X2582Y4270D01*
X2564Y4262D01*
X2536Y4251D01*
X2501Y4237D01*
X2420Y4204D01*
X2321Y4272D01*
X2312Y4278D01*
X2276Y4302D01*
X2246Y4322D01*
X2226Y4335D01*
X2218Y4340D01*
X2217Y4340D01*
X2207Y4331D01*
X2187Y4313D01*
X2160Y4286D01*
X2129Y4255D01*
X2106Y4232D01*
X2078Y4204D01*
X2061Y4185D01*
X2052Y4173D01*
X2048Y4166D01*
X2049Y4161D01*
X2055Y4151D01*
X2070Y4129D01*
X2091Y4099D01*
X2115Y4064D01*
X2135Y4034D01*
X2156Y4001D01*
X2170Y3977D01*
X2175Y3966D01*
X2174Y3961D01*
X2167Y3941D01*
X2155Y3912D01*
X2140Y3877D01*
X2106Y3798D01*
X2054Y3788D01*
X2023Y3782D01*
X1979Y3774D01*
X1937Y3766D01*
X1872Y3753D01*
X1870Y3514D01*
X1880Y3509D01*
X1889Y3507D01*
X1914Y3501D01*
X1948Y3494D01*
X1989Y3487D01*
X2024Y3480D01*
X2059Y3474D01*
X2084Y3469D01*
X2095Y3466D01*
X2098Y3463D01*
X2106Y3446D01*
X2119Y3419D01*
X2133Y3386D01*
X2147Y3353D01*
X2159Y3322D01*
X2168Y3298D01*
X2171Y3286D01*
X2166Y3277D01*
X2153Y3256D01*
X2134Y3227D01*
X2110Y3192D01*
X2086Y3157D01*
X2066Y3127D01*
X2052Y3106D01*
X2046Y3096D01*
X2049Y3090D01*
X2063Y3073D01*
X2089Y3046D01*
X2128Y3007D01*
X2135Y3001D01*
X2166Y2971D01*
X2192Y2947D01*
X2210Y2931D01*
X2218Y2925D01*
X2218Y2925D01*
G37*
G54D15*
X659Y1385D02*
X859Y1385D01*
X859Y1385D02*
X859Y1685D01*
X859Y1685D02*
X659Y1685D01*
X459Y1385D02*
X259Y1385D01*
X259Y1385D02*
X259Y1685D01*
X259Y1685D02*
X459Y1685D01*
G54D16*
G36*
X-1946Y3878D02*
X-1947Y3866D01*
X-1951Y3836D01*
X-1957Y3793D01*
X-1966Y3737D01*
X-1976Y3672D01*
X-1988Y3600D01*
X-1991Y3582D01*
X-2040Y3297D01*
X-2260Y3109D01*
X-2295Y3079D01*
X-2295Y3686D01*
X-2295Y3715D01*
X-2295Y3805D01*
X-2296Y3877D01*
X-2298Y3933D01*
X-2301Y3977D01*
X-2306Y4010D01*
X-2314Y4034D01*
X-2324Y4053D01*
X-2338Y4068D01*
X-2355Y4082D01*
X-2365Y4088D01*
X-2386Y4100D01*
X-2406Y4107D01*
X-2434Y4109D01*
X-2474Y4109D01*
X-2478Y4108D01*
X-2519Y4106D01*
X-2544Y4102D01*
X-2562Y4094D01*
X-2578Y4081D01*
X-2590Y4069D01*
X-2613Y4037D01*
X-2629Y3997D01*
X-2639Y3946D01*
X-2644Y3881D01*
X-2645Y3832D01*
X-2642Y3762D01*
X-2631Y3708D01*
X-2613Y3669D01*
X-2587Y3642D01*
X-2574Y3634D01*
X-2537Y3624D01*
X-2495Y3623D01*
X-2457Y3632D01*
X-2435Y3645D01*
X-2426Y3653D01*
X-2420Y3653D01*
X-2417Y3644D01*
X-2415Y3621D01*
X-2415Y3583D01*
X-2415Y3565D01*
X-2417Y3509D01*
X-2422Y3470D01*
X-2433Y3445D01*
X-2450Y3433D01*
X-2471Y3430D01*
X-2495Y3439D01*
X-2510Y3464D01*
X-2515Y3504D01*
X-2515Y3540D01*
X-2570Y3540D01*
X-2625Y3540D01*
X-2625Y3484D01*
X-2619Y3429D01*
X-2601Y3385D01*
X-2573Y3353D01*
X-2537Y3331D01*
X-2490Y3320D01*
X-2440Y3319D01*
X-2392Y3329D01*
X-2357Y3347D01*
X-2340Y3360D01*
X-2326Y3374D01*
X-2316Y3391D01*
X-2308Y3413D01*
X-2302Y3443D01*
X-2299Y3483D01*
X-2297Y3535D01*
X-2295Y3602D01*
X-2295Y3686D01*
X-2295Y3079D01*
X-2480Y2921D01*
X-2715Y2921D01*
X-2715Y3330D01*
X-2715Y3720D01*
X-2715Y4110D01*
X-2799Y4110D01*
X-2883Y4110D01*
X-2920Y3917D01*
X-2931Y3857D01*
X-2943Y3802D01*
X-2952Y3756D01*
X-2959Y3723D01*
X-2963Y3706D01*
X-2963Y3705D01*
X-2967Y3708D01*
X-2973Y3728D01*
X-2982Y3765D01*
X-2994Y3815D01*
X-3007Y3878D01*
X-3010Y3895D01*
X-3051Y4105D01*
X-3133Y4108D01*
X-3215Y4111D01*
X-3215Y3720D01*
X-3215Y3330D01*
X-3160Y3330D01*
X-3105Y3330D01*
X-3104Y3597D01*
X-3104Y3865D01*
X-3076Y3720D01*
X-3063Y3654D01*
X-3050Y3582D01*
X-3037Y3512D01*
X-3026Y3453D01*
X-3025Y3452D01*
X-3003Y3329D01*
X-2967Y3332D01*
X-2931Y3335D01*
X-2881Y3610D01*
X-2830Y3885D01*
X-2828Y3607D01*
X-2825Y3330D01*
X-2770Y3330D01*
X-2715Y3330D01*
X-2715Y2921D01*
X-2777Y2920D01*
X-3073Y2920D01*
X-3287Y3096D01*
X-3343Y3143D01*
X-3394Y3185D01*
X-3438Y3222D01*
X-3473Y3251D01*
X-3498Y3271D01*
X-3508Y3280D01*
X-3509Y3280D01*
X-3512Y3292D01*
X-3519Y3320D01*
X-3528Y3363D01*
X-3540Y3418D01*
X-3552Y3484D01*
X-3566Y3556D01*
X-3569Y3575D01*
X-3622Y3863D01*
X-3479Y4114D01*
X-3442Y4178D01*
X-3408Y4237D01*
X-3377Y4288D01*
X-3352Y4328D01*
X-3334Y4357D01*
X-3324Y4370D01*
X-3323Y4371D01*
X-3311Y4376D01*
X-3282Y4387D01*
X-3240Y4403D01*
X-3186Y4424D01*
X-3124Y4447D01*
X-3056Y4472D01*
X-3048Y4475D01*
X-2785Y4572D01*
X-2511Y4474D01*
X-2237Y4375D01*
X-2093Y4131D01*
X-2056Y4068D01*
X-2022Y4010D01*
X-1993Y3959D01*
X-1970Y3919D01*
X-1954Y3891D01*
X-1947Y3878D01*
X-1946Y3878D01*
X-1946Y3878D01*
X-1946Y3878D01*
G37*
G36*
X-2415Y3867D02*
X-2416Y3815D01*
X-2420Y3779D01*
X-2430Y3756D01*
X-2445Y3745D01*
X-2468Y3740D01*
X-2477Y3740D01*
X-2496Y3743D01*
X-2507Y3756D01*
X-2515Y3777D01*
X-2522Y3824D01*
X-2524Y3877D01*
X-2519Y3928D01*
X-2512Y3960D01*
X-2495Y3988D01*
X-2471Y3999D01*
X-2444Y3992D01*
X-2434Y3984D01*
X-2425Y3974D01*
X-2420Y3958D01*
X-2417Y3933D01*
X-2415Y3896D01*
X-2415Y3867D01*
X-2415Y3867D01*
X-2415Y3867D01*
G37*
M02*
