G04 (created by PCBNEW (2013-mar-13)-testing) date Tue 22 Oct 2013 13:23:14 EST*
%MOIN*%
G04 Gerber Fmt 3.4, Leading zero omitted, Abs format*
%FSLAX34Y34*%
G01*
G70*
G90*
G04 APERTURE LIST*
%ADD10C,0.003937*%
%ADD11C,0.060000*%
%ADD12R,0.027559X0.027559*%
%ADD13R,0.060000X0.060000*%
%ADD14R,0.029500X0.059100*%
%ADD15R,0.055100X0.074800*%
%ADD16R,0.070900X0.055100*%
%ADD17C,0.029528*%
%ADD18C,0.035000*%
%ADD19C,0.010000*%
%ADD20C,0.012000*%
%ADD21C,0.014000*%
%ADD22C,0.008000*%
G04 APERTURE END LIST*
G54D10*
G54D11*
X9433Y8259D03*
X9433Y5109D03*
X9433Y3535D03*
X9433Y4322D03*
X9433Y6684D03*
X9433Y5897D03*
X9433Y7472D03*
X9433Y1960D03*
X9433Y1172D03*
X9433Y2747D03*
X771Y2747D03*
X771Y1172D03*
X771Y1960D03*
X771Y7472D03*
X771Y5897D03*
X771Y6684D03*
X771Y4322D03*
X771Y3535D03*
X771Y5109D03*
X771Y8259D03*
G54D12*
X5102Y1090D03*
X5106Y381D03*
G54D13*
X4377Y6251D03*
G54D14*
X8058Y2153D03*
X8491Y2153D03*
X7625Y2074D03*
X7192Y2153D03*
X5460Y2153D03*
X5893Y2310D03*
X6326Y2153D03*
X6759Y2074D03*
G54D15*
X8767Y1031D03*
X3551Y598D03*
G54D16*
X8157Y6208D03*
X5873Y6208D03*
G54D13*
X1921Y3114D03*
G54D11*
X2921Y3114D03*
X1921Y2114D03*
X2921Y2114D03*
X1921Y1114D03*
X2921Y1114D03*
G54D17*
X1354Y9078D03*
X1106Y397D03*
X8948Y8952D03*
G54D18*
X6440Y6633D03*
X6279Y4720D03*
X4208Y3114D03*
X2130Y7063D03*
X3586Y9590D03*
X7641Y4736D03*
X7429Y1318D03*
X5161Y8854D03*
X5870Y8854D03*
X6578Y8854D03*
X7287Y8854D03*
X3586Y8889D03*
X7996Y8854D03*
X3775Y10594D03*
X3586Y10291D03*
X3421Y10606D03*
X6535Y5661D03*
X3972Y8374D03*
X3838Y3476D03*
X6665Y4263D03*
X1604Y7323D03*
X2637Y3594D03*
X4149Y3775D03*
X4681Y3909D03*
X7421Y724D03*
X6854Y8149D03*
X7062Y7767D03*
X6618Y7755D03*
X6153Y7795D03*
X5795Y8098D03*
X6421Y8153D03*
X4937Y4291D03*
X1736Y3755D03*
X3688Y8044D03*
X9543Y523D03*
X1960Y6629D03*
X5401Y3929D03*
X1921Y4527D03*
G54D19*
X6440Y6633D02*
X6440Y6622D01*
X6440Y6622D02*
X7102Y5960D01*
X7102Y5960D02*
X7102Y5362D01*
X7102Y5362D02*
X6463Y4723D01*
X6279Y4720D02*
X6460Y4720D01*
X6460Y4720D02*
X6463Y4723D01*
X6279Y4720D02*
X5877Y4720D01*
X5877Y4720D02*
X5487Y5110D01*
X6279Y4720D02*
X6279Y4723D01*
X6279Y4723D02*
X6279Y4720D01*
X6279Y4720D02*
X6279Y4723D01*
G54D20*
X6759Y2074D02*
X6759Y2397D01*
X2921Y3114D02*
X4208Y3114D01*
G54D19*
X2130Y7063D02*
X2130Y6897D01*
X2130Y6897D02*
X2311Y6716D01*
X2311Y6716D02*
X2311Y6342D01*
X2311Y6342D02*
X2811Y5841D01*
X2811Y5841D02*
X2811Y5169D01*
X2811Y5169D02*
X2870Y5110D01*
X2870Y5110D02*
X5487Y5110D01*
X5487Y5110D02*
X5874Y4723D01*
X6463Y4723D02*
X6279Y4723D01*
X6279Y4723D02*
X5874Y4723D01*
G54D20*
X1261Y8143D02*
X1145Y8259D01*
X1145Y8259D02*
X771Y8259D01*
G54D19*
X6759Y2397D02*
X6043Y3114D01*
X6043Y3114D02*
X4208Y3114D01*
X2130Y7063D02*
X2130Y7275D01*
X2130Y7275D02*
X1261Y8143D01*
G54D20*
X7625Y2074D02*
X7625Y1514D01*
X7625Y1514D02*
X7429Y1318D01*
G54D19*
X5873Y6208D02*
X5988Y6208D01*
X5988Y6208D02*
X6535Y5661D01*
X3586Y9590D02*
X3602Y9590D01*
X8421Y4535D02*
X8421Y3885D01*
X8220Y4736D02*
X8421Y4535D01*
X7641Y4736D02*
X8220Y4736D01*
X8771Y2023D02*
X8771Y1795D01*
X8294Y1318D02*
X7429Y1318D01*
X8771Y1795D02*
X8294Y1318D01*
X8771Y1716D02*
X8771Y1035D01*
X8771Y1035D02*
X8767Y1031D01*
X7625Y1514D02*
X7429Y1318D01*
X5165Y8858D02*
X5161Y8854D01*
X5161Y8854D02*
X5161Y8854D01*
X3590Y8885D02*
X3594Y8885D01*
X3586Y8889D02*
X3590Y8885D01*
G54D21*
X7996Y8854D02*
X8000Y8854D01*
G54D19*
X3590Y10287D02*
X3606Y10287D01*
X3586Y10291D02*
X3590Y10287D01*
G54D20*
X771Y1172D02*
X1181Y1582D01*
X2921Y1114D02*
X3436Y598D01*
X3436Y598D02*
X3551Y598D01*
X2622Y1413D02*
X2921Y1114D01*
G54D19*
X2622Y1413D02*
X2452Y1582D01*
X2452Y1582D02*
X1181Y1582D01*
X6535Y5661D02*
X5988Y6208D01*
X8421Y3515D02*
X8421Y3885D01*
X8771Y3165D02*
X8421Y3515D01*
X8771Y3153D02*
X8771Y3165D01*
X8771Y2023D02*
X8771Y3153D01*
X8771Y1716D02*
X8771Y2023D01*
X8421Y3885D02*
X8421Y3901D01*
G54D20*
X8058Y2153D02*
X8058Y2701D01*
X7929Y2830D02*
X7570Y2830D01*
X8058Y2701D02*
X7929Y2830D01*
X1921Y3114D02*
X1921Y3295D01*
X1921Y3295D02*
X2248Y3622D01*
G54D22*
X3177Y3476D02*
X3838Y3476D01*
X2763Y3889D02*
X3177Y3476D01*
X2515Y3889D02*
X2763Y3889D01*
X2248Y3622D02*
X2515Y3889D01*
X6858Y2830D02*
X6574Y2830D01*
X5929Y3476D02*
X3838Y3476D01*
X6574Y2830D02*
X5929Y3476D01*
X6858Y2830D02*
X7570Y2830D01*
G54D20*
X6326Y2153D02*
X6326Y1775D01*
G54D22*
X3732Y2114D02*
X4275Y1570D01*
X6122Y1570D02*
X6326Y1775D01*
X4275Y1570D02*
X6122Y1570D01*
G54D20*
X2921Y2114D02*
X3732Y2114D01*
G54D22*
X5565Y4349D02*
X5649Y4265D01*
X6663Y4265D02*
X6665Y4263D01*
X5649Y4265D02*
X6663Y4265D01*
X1604Y6947D02*
X1604Y6379D01*
X1604Y6379D02*
X2468Y5515D01*
X5565Y4349D02*
X5134Y4780D01*
X2558Y4780D02*
X2468Y4870D01*
X2468Y4870D02*
X2468Y5515D01*
X5134Y4780D02*
X2558Y4780D01*
X1604Y6947D02*
X1604Y7323D01*
X2500Y3456D02*
X2500Y2755D01*
X2500Y2755D02*
X2641Y2614D01*
X2641Y2614D02*
X2500Y2755D01*
X2637Y3594D02*
X2500Y3456D01*
X3492Y2614D02*
X4374Y1732D01*
X2641Y2614D02*
X3492Y2614D01*
G54D20*
X5893Y2310D02*
X5893Y1948D01*
G54D22*
X4374Y1732D02*
X4374Y1732D01*
X4374Y1732D02*
X5677Y1732D01*
X5677Y1732D02*
X5893Y1948D01*
G54D20*
X771Y3535D02*
X1074Y3838D01*
X1074Y3838D02*
X1397Y3838D01*
G54D22*
X4145Y3771D02*
X4149Y3775D01*
X3216Y3771D02*
X4145Y3771D01*
X2937Y4051D02*
X3216Y3771D01*
X1610Y4051D02*
X2937Y4051D01*
X1397Y3838D02*
X1610Y4051D01*
G54D20*
X771Y4322D02*
X1506Y4322D01*
G54D22*
X4519Y4070D02*
X4681Y3909D01*
X3724Y4070D02*
X4519Y4070D01*
X3584Y4211D02*
X3724Y4070D01*
X1618Y4211D02*
X3584Y4211D01*
X1506Y4322D02*
X1618Y4211D01*
X9696Y192D02*
X9948Y444D01*
X9948Y444D02*
X9948Y940D01*
G54D20*
X9433Y1172D02*
X9716Y1172D01*
X9716Y1172D02*
X9948Y940D01*
G54D22*
X9173Y192D02*
X9696Y192D01*
X7421Y724D02*
X7421Y326D01*
X7555Y192D02*
X9173Y192D01*
X7421Y326D02*
X7555Y192D01*
X8744Y7637D02*
X8811Y7637D01*
X8921Y7748D02*
X8921Y7747D01*
X8811Y7637D02*
X8921Y7748D01*
G54D20*
X9090Y7917D02*
X9433Y8259D01*
G54D22*
X9090Y7917D02*
X8921Y7747D01*
X8921Y7747D02*
X8811Y7637D01*
X8811Y7637D02*
X8811Y7637D01*
X6854Y8149D02*
X6937Y8066D01*
X6937Y8066D02*
X7188Y8066D01*
X7188Y8066D02*
X7618Y7637D01*
X7618Y7637D02*
X8744Y7637D01*
X8744Y7637D02*
X8803Y7637D01*
X8803Y7637D02*
X8811Y7637D01*
G54D20*
X9433Y7472D02*
X8960Y7472D01*
G54D22*
X8960Y7472D02*
X7381Y7472D01*
X7381Y7472D02*
X7062Y7767D01*
X7078Y7295D02*
X8822Y7295D01*
X8822Y7295D02*
X9088Y7029D01*
X7078Y7295D02*
X6618Y7755D01*
G54D20*
X9088Y7029D02*
X9433Y6684D01*
X9126Y6204D02*
X9126Y6204D01*
X9126Y6204D02*
X9433Y5897D01*
G54D22*
X8873Y6458D02*
X8873Y6890D01*
X8681Y7082D02*
X6866Y7082D01*
X8873Y6890D02*
X8681Y7082D01*
X6866Y7082D02*
X6153Y7795D01*
X8873Y6458D02*
X9126Y6204D01*
X6617Y6885D02*
X5795Y7708D01*
X5795Y7708D02*
X5795Y8098D01*
X9059Y4696D02*
X8931Y4824D01*
X8931Y4824D02*
X8931Y5952D01*
X8931Y5952D02*
X8693Y6190D01*
X8693Y6636D02*
X8444Y6885D01*
X8444Y6885D02*
X6617Y6885D01*
X8693Y6190D02*
X8693Y6636D01*
G54D20*
X9059Y4696D02*
X9433Y4322D01*
X9059Y4696D02*
X9059Y4696D01*
G54D22*
X6421Y8153D02*
X6433Y8153D01*
X6433Y8153D02*
X6726Y8446D01*
X9287Y8708D02*
X9271Y8708D01*
X9271Y8708D02*
X9000Y8437D01*
X6726Y8446D02*
X7035Y8446D01*
X9000Y8090D02*
X9000Y8437D01*
X8707Y7797D02*
X9000Y8090D01*
X7684Y7797D02*
X8707Y7797D01*
X7035Y8446D02*
X7684Y7797D01*
X9854Y5530D02*
X9785Y5462D01*
X9287Y8708D02*
X9594Y8708D01*
X9594Y8708D02*
X9854Y8448D01*
X9854Y8448D02*
X9854Y5530D01*
G54D20*
X9785Y5462D02*
X9433Y5109D01*
X1196Y6259D02*
X771Y6684D01*
G54D22*
X2148Y4748D02*
X2148Y5307D01*
X2148Y5307D02*
X1196Y6259D01*
X2148Y4748D02*
X2148Y4733D01*
X4937Y4291D02*
X4771Y4456D01*
X4771Y4456D02*
X2425Y4456D01*
X2425Y4456D02*
X2148Y4733D01*
G54D20*
X771Y2747D02*
X771Y2791D01*
X771Y2791D02*
X1736Y3755D01*
G54D22*
X1728Y3755D02*
X1736Y3755D01*
G54D19*
X1728Y3755D02*
X1736Y3755D01*
G54D20*
X1921Y1114D02*
X1311Y1114D01*
G54D22*
X1311Y1114D02*
X945Y749D01*
G54D20*
X351Y5530D02*
X771Y5109D01*
G54D22*
X351Y5530D02*
X351Y8433D01*
X351Y8433D02*
X616Y8699D01*
X616Y8699D02*
X3033Y8699D01*
X3033Y8699D02*
X3688Y8044D01*
G54D20*
X771Y5109D02*
X771Y5109D01*
X349Y4687D02*
X771Y5109D01*
X771Y5109D02*
X771Y5109D01*
G54D22*
X594Y749D02*
X945Y749D01*
X349Y994D02*
X594Y749D01*
X349Y4687D02*
X349Y994D01*
G54D20*
X771Y5109D02*
X771Y5109D01*
G54D22*
X7551Y1019D02*
X8047Y523D01*
X8047Y523D02*
X9543Y523D01*
X6922Y1410D02*
X6922Y1388D01*
X7291Y1019D02*
X7551Y1019D01*
X6922Y1388D02*
X7291Y1019D01*
X6188Y1410D02*
X6922Y1410D01*
X6922Y1410D02*
X7192Y1680D01*
X4203Y1410D02*
X6188Y1410D01*
X3370Y1578D02*
X4035Y1578D01*
X3366Y1582D02*
X2744Y1582D01*
X2744Y1582D02*
X2358Y1968D01*
X3370Y1578D02*
X3366Y1582D01*
X4035Y1578D02*
X4203Y1410D01*
G54D20*
X7192Y2153D02*
X7192Y1680D01*
X2212Y2114D02*
X1921Y2114D01*
X2358Y1968D02*
X2212Y2114D01*
G54D22*
X8755Y3421D02*
X8594Y3582D01*
X8165Y5039D02*
X7019Y5039D01*
X8594Y4610D02*
X8165Y5039D01*
X8594Y3582D02*
X8594Y4610D01*
X9012Y3165D02*
X8755Y3421D01*
X5755Y4425D02*
X6405Y4425D01*
X6405Y4425D02*
X7019Y5039D01*
X5240Y4940D02*
X5755Y4425D01*
X1960Y6448D02*
X1960Y6629D01*
X5240Y4940D02*
X2756Y4940D01*
X2641Y5055D02*
X2641Y5767D01*
X2756Y4940D02*
X2641Y5055D01*
X2641Y5767D02*
X1960Y6448D01*
X9015Y3165D02*
X9012Y3165D01*
G54D20*
X9015Y3165D02*
X9015Y3165D01*
X9015Y3165D02*
X9433Y2747D01*
X1314Y6929D02*
X771Y7472D01*
X1314Y6929D02*
X771Y7472D01*
G54D22*
X1441Y6300D02*
X1314Y6426D01*
X5401Y3929D02*
X5401Y4286D01*
X5401Y4286D02*
X5068Y4620D01*
X5068Y4620D02*
X2490Y4620D01*
X2490Y4620D02*
X2308Y4801D01*
X2308Y4801D02*
X2308Y5433D01*
X2308Y5433D02*
X1441Y6300D01*
X1314Y6426D02*
X1314Y6923D01*
G54D20*
X771Y5897D02*
X1019Y5897D01*
X1921Y4996D02*
X1921Y4527D01*
X1019Y5897D02*
X1921Y4996D01*
G54D10*
G36*
X9003Y8637D02*
X8901Y8535D01*
X8870Y8490D01*
X8860Y8437D01*
X8860Y8148D01*
X8649Y7937D01*
X7742Y7937D01*
X7134Y8545D01*
X7088Y8575D01*
X7035Y8586D01*
X6726Y8586D01*
X6672Y8575D01*
X6627Y8545D01*
X6500Y8418D01*
X6476Y8428D01*
X6366Y8428D01*
X6265Y8386D01*
X6261Y8381D01*
X5672Y8381D01*
X5535Y8244D01*
X5535Y8188D01*
X5520Y8153D01*
X5520Y8044D01*
X5535Y8007D01*
X5535Y7787D01*
X5665Y7656D01*
X5666Y7654D01*
X5696Y7609D01*
X6224Y7081D01*
X6224Y6805D01*
X6208Y6789D01*
X6166Y6688D01*
X6166Y6579D01*
X6207Y6478D01*
X6224Y6461D01*
X6224Y6385D01*
X6321Y6385D01*
X6386Y6359D01*
X6492Y6359D01*
X6925Y5926D01*
X6925Y5425D01*
X6444Y4944D01*
X6435Y4953D01*
X6334Y4995D01*
X6225Y4995D01*
X6124Y4953D01*
X6095Y4925D01*
X5884Y4925D01*
X5593Y5216D01*
X5544Y5249D01*
X5487Y5260D01*
X2961Y5260D01*
X2961Y5841D01*
X2950Y5899D01*
X2929Y5930D01*
X2929Y5956D01*
X2480Y6405D01*
X2480Y6787D01*
X2377Y6890D01*
X2377Y6943D01*
X2405Y7009D01*
X2405Y7118D01*
X2377Y7184D01*
X2377Y7267D01*
X1263Y8382D01*
X1263Y8560D01*
X2963Y8560D01*
X3417Y8106D01*
X3414Y8099D01*
X3414Y7989D01*
X3429Y7953D01*
X3429Y7803D01*
X3553Y7803D01*
X3634Y7769D01*
X3743Y7769D01*
X3824Y7803D01*
X3956Y7803D01*
X3956Y7972D01*
X3963Y7989D01*
X3963Y8098D01*
X3956Y8115D01*
X3956Y8169D01*
X3830Y8295D01*
X3800Y8295D01*
X3743Y8318D01*
X3634Y8319D01*
X3618Y8312D01*
X3132Y8798D01*
X3086Y8828D01*
X3033Y8839D01*
X1560Y8839D01*
X1621Y8900D01*
X1669Y9015D01*
X1669Y9141D01*
X1621Y9256D01*
X1532Y9345D01*
X1505Y9357D01*
X3118Y10745D01*
X3118Y10787D01*
X3142Y10763D01*
X4877Y10763D01*
X4877Y9011D01*
X8633Y9011D01*
X8633Y8890D01*
X8681Y8774D01*
X8770Y8685D01*
X8885Y8637D01*
X9003Y8637D01*
X9003Y8637D01*
G37*
X9003Y8637D02*
X8901Y8535D01*
X8870Y8490D01*
X8860Y8437D01*
X8860Y8148D01*
X8649Y7937D01*
X7742Y7937D01*
X7134Y8545D01*
X7088Y8575D01*
X7035Y8586D01*
X6726Y8586D01*
X6672Y8575D01*
X6627Y8545D01*
X6500Y8418D01*
X6476Y8428D01*
X6366Y8428D01*
X6265Y8386D01*
X6261Y8381D01*
X5672Y8381D01*
X5535Y8244D01*
X5535Y8188D01*
X5520Y8153D01*
X5520Y8044D01*
X5535Y8007D01*
X5535Y7787D01*
X5665Y7656D01*
X5666Y7654D01*
X5696Y7609D01*
X6224Y7081D01*
X6224Y6805D01*
X6208Y6789D01*
X6166Y6688D01*
X6166Y6579D01*
X6207Y6478D01*
X6224Y6461D01*
X6224Y6385D01*
X6321Y6385D01*
X6386Y6359D01*
X6492Y6359D01*
X6925Y5926D01*
X6925Y5425D01*
X6444Y4944D01*
X6435Y4953D01*
X6334Y4995D01*
X6225Y4995D01*
X6124Y4953D01*
X6095Y4925D01*
X5884Y4925D01*
X5593Y5216D01*
X5544Y5249D01*
X5487Y5260D01*
X2961Y5260D01*
X2961Y5841D01*
X2950Y5899D01*
X2929Y5930D01*
X2929Y5956D01*
X2480Y6405D01*
X2480Y6787D01*
X2377Y6890D01*
X2377Y6943D01*
X2405Y7009D01*
X2405Y7118D01*
X2377Y7184D01*
X2377Y7267D01*
X1263Y8382D01*
X1263Y8560D01*
X2963Y8560D01*
X3417Y8106D01*
X3414Y8099D01*
X3414Y7989D01*
X3429Y7953D01*
X3429Y7803D01*
X3553Y7803D01*
X3634Y7769D01*
X3743Y7769D01*
X3824Y7803D01*
X3956Y7803D01*
X3956Y7972D01*
X3963Y7989D01*
X3963Y8098D01*
X3956Y8115D01*
X3956Y8169D01*
X3830Y8295D01*
X3800Y8295D01*
X3743Y8318D01*
X3634Y8319D01*
X3618Y8312D01*
X3132Y8798D01*
X3086Y8828D01*
X3033Y8839D01*
X1560Y8839D01*
X1621Y8900D01*
X1669Y9015D01*
X1669Y9141D01*
X1621Y9256D01*
X1532Y9345D01*
X1505Y9357D01*
X3118Y10745D01*
X3118Y10787D01*
X3142Y10763D01*
X4877Y10763D01*
X4877Y9011D01*
X8633Y9011D01*
X8633Y8890D01*
X8681Y8774D01*
X8770Y8685D01*
X8885Y8637D01*
X9003Y8637D01*
M02*
