%FSLAX34Y34*%
G04 Gerber Fmt 3.4, Leading zero omitted, Abs format*
G04 (created by PCBNEW (2013-12-14 BZR 4555)-product) date Fri 24 Jan 2014 09:56:54 EST*
%MOIN*%
G01*
G70*
G90*
G04 APERTURE LIST*
%ADD10C,0.003937*%
%ADD11R,0.060000X0.060000*%
%ADD12C,0.029528*%
%ADD13R,0.049213X0.049213*%
%ADD14C,0.049213*%
%ADD15R,0.027559X0.039370*%
%ADD16R,0.039370X0.027559*%
%ADD17C,0.035000*%
%ADD18C,0.008000*%
%ADD19C,0.014000*%
%ADD20C,0.010000*%
G04 APERTURE END LIST*
G54D10*
G54D11*
X-433Y-1594D03*
G54D12*
X2559Y-3822D03*
X-2559Y-3822D03*
X3362Y2610D03*
G54D13*
X-2066Y-2755D03*
G54D14*
X-1066Y-2755D03*
X-2066Y-1755D03*
X-1066Y-1755D03*
X-2066Y-755D03*
X-1066Y-755D03*
G54D15*
X2750Y-4793D03*
X2250Y-4793D03*
G54D10*
G36*
X-3897Y1362D02*
X-3897Y1637D01*
X-3503Y1637D01*
X-3503Y1362D01*
X-3897Y1362D01*
X-3897Y1362D01*
G37*
G36*
X-3897Y-3637D02*
X-3897Y-3362D01*
X-3503Y-3362D01*
X-3503Y-3637D01*
X-3897Y-3637D01*
X-3897Y-3637D01*
G37*
G36*
X-3897Y862D02*
X-3897Y1137D01*
X-3503Y1137D01*
X-3503Y862D01*
X-3897Y862D01*
X-3897Y862D01*
G37*
G36*
X-3897Y362D02*
X-3897Y637D01*
X-3503Y637D01*
X-3503Y362D01*
X-3897Y362D01*
X-3897Y362D01*
G37*
G36*
X-3897Y-137D02*
X-3897Y137D01*
X-3503Y137D01*
X-3503Y-137D01*
X-3897Y-137D01*
X-3897Y-137D01*
G37*
G36*
X-3897Y-637D02*
X-3897Y-362D01*
X-3503Y-362D01*
X-3503Y-637D01*
X-3897Y-637D01*
X-3897Y-637D01*
G37*
G36*
X-3897Y-1137D02*
X-3897Y-862D01*
X-3503Y-862D01*
X-3503Y-1137D01*
X-3897Y-1137D01*
X-3897Y-1137D01*
G37*
G36*
X-3897Y-1637D02*
X-3897Y-1362D01*
X-3503Y-1362D01*
X-3503Y-1637D01*
X-3897Y-1637D01*
X-3897Y-1637D01*
G37*
G36*
X-3897Y-2137D02*
X-3897Y-1862D01*
X-3503Y-1862D01*
X-3503Y-2137D01*
X-3897Y-2137D01*
X-3897Y-2137D01*
G37*
G36*
X-3897Y-2637D02*
X-3897Y-2362D01*
X-3503Y-2362D01*
X-3503Y-2637D01*
X-3897Y-2637D01*
X-3897Y-2637D01*
G37*
G36*
X-3897Y-3137D02*
X-3897Y-2862D01*
X-3503Y-2862D01*
X-3503Y-3137D01*
X-3897Y-3137D01*
X-3897Y-3137D01*
G37*
G54D15*
X-2750Y-4793D03*
X-2250Y-4793D03*
X-1750Y-4793D03*
X-1250Y-4793D03*
X-750Y-4793D03*
X-250Y-4793D03*
X250Y-4793D03*
X750Y-4793D03*
X1250Y-4793D03*
X1750Y-4793D03*
G54D16*
X3700Y1500D03*
X3700Y-3500D03*
X3700Y-3000D03*
X3700Y-2500D03*
X3700Y-2000D03*
X3700Y-1500D03*
X3700Y-1000D03*
X3700Y-500D03*
X3700Y0D03*
X3700Y500D03*
X3700Y1000D03*
G54D17*
X-2377Y267D03*
X1964Y-937D03*
X1355Y1778D03*
X1897Y2555D03*
X-1196Y2555D03*
X-1224Y1321D03*
X-421Y2555D03*
X354Y2555D03*
X1137Y2555D03*
X2677Y2555D03*
X-3460Y2555D03*
X-3027Y2555D03*
X-2149Y2555D03*
X-2618Y2763D03*
X2024Y-2909D03*
X2755Y-617D03*
X-1228Y-3677D03*
X1011Y1196D03*
X-2078Y-242D03*
X1643Y879D03*
X1969Y-484D03*
X-2192Y-3523D03*
X-338Y-3852D03*
X173Y-3862D03*
X-2755Y-2830D03*
X-2751Y-3314D03*
X963Y-3364D03*
X1381Y-3636D03*
X2751Y-3362D03*
X2358Y-3185D03*
X1562Y-2193D03*
X2540Y-187D03*
X1378Y-461D03*
X1399Y128D03*
X969Y-1D03*
X459Y1077D03*
X-1270Y612D03*
X-2690Y-1437D03*
X-1026Y192D03*
X1699Y1483D03*
X-1834Y-3866D03*
X-2956Y-64D03*
X1760Y-3866D03*
X-2684Y-1875D03*
G54D18*
X-1066Y-2755D02*
X-1606Y-2216D01*
X-2559Y86D02*
X-2377Y267D01*
X-2559Y-866D02*
X-2559Y86D01*
X-2220Y-1204D02*
X-2559Y-866D01*
X-2011Y-1204D02*
X-2220Y-1204D01*
X-1606Y-1610D02*
X-2011Y-1204D01*
X-1606Y-2216D02*
X-1606Y-1610D01*
G54D19*
X-3759Y1500D02*
X-3244Y1500D01*
G54D18*
X-1196Y2555D02*
X-1196Y1349D01*
X-1196Y1349D02*
X-1224Y1321D01*
G54D19*
X3750Y1500D02*
X3251Y1500D01*
G54D18*
X-2066Y-2755D02*
X-2066Y-3002D01*
X-1527Y-3541D02*
X-1527Y-3799D01*
X-2066Y-3002D02*
X-1527Y-3541D01*
X-1240Y-4393D02*
X-1240Y-4086D01*
G54D19*
X-1240Y-4842D02*
X-1240Y-4393D01*
X-1250Y-4852D02*
X-1240Y-4842D01*
G54D18*
X-1240Y-4086D02*
X-1527Y-3799D01*
X-1066Y-1755D02*
X-641Y-2181D01*
X-641Y-3090D02*
X-1228Y-3677D01*
X-641Y-2181D02*
X-641Y-3090D01*
G54D19*
X-1750Y-4464D02*
X-1750Y-4852D01*
G54D18*
X-1750Y-4464D02*
X-1750Y-4852D01*
X-1750Y-4464D02*
X-1750Y-4852D01*
X1643Y879D02*
X1430Y879D01*
X1693Y-759D02*
X1969Y-484D01*
X1255Y-759D02*
X1693Y-759D01*
X673Y-177D02*
X1255Y-759D01*
X673Y122D02*
X673Y-177D01*
X1430Y879D02*
X673Y122D01*
X-2407Y-4212D02*
X-2700Y-4212D01*
X-2192Y-3998D02*
X-2407Y-4212D01*
X-2192Y-3523D02*
X-2192Y-3998D01*
X-2750Y-4852D02*
X-2750Y-4261D01*
X-2750Y-4261D02*
X-2700Y-4212D01*
G54D19*
X-2750Y-4277D02*
X-2750Y-4852D01*
G54D18*
X-2750Y-4277D02*
X-2750Y-4852D01*
G54D19*
X-750Y-4852D02*
X-751Y-4850D01*
X-751Y-4850D02*
X-751Y-4354D01*
X-338Y-3852D02*
X-250Y-3941D01*
X-250Y-3941D02*
X-250Y-4852D01*
G54D18*
X-250Y-3941D02*
X-250Y-4852D01*
G54D19*
X173Y-3862D02*
X250Y-3938D01*
X250Y-3938D02*
X250Y-4852D01*
G54D18*
X250Y-3938D02*
X250Y-4852D01*
G54D19*
X750Y-4852D02*
X748Y-4850D01*
X748Y-4850D02*
X748Y-4358D01*
X-3759Y-2000D02*
X-3244Y-2000D01*
X-3759Y-2500D02*
X-3248Y-2500D01*
X-3759Y-3000D02*
X-2925Y-3000D01*
X-2925Y-3000D02*
X-2755Y-2830D01*
G54D18*
X-2925Y-3000D02*
X-2755Y-2830D01*
X-2751Y-3314D02*
X-2937Y-3500D01*
X-2937Y-3500D02*
X-3759Y-3500D01*
G54D19*
X-2673Y-3283D02*
X-2890Y-3500D01*
X-2890Y-3500D02*
X-3759Y-3500D01*
X2250Y-4852D02*
X2255Y-4846D01*
X2255Y-4846D02*
X2255Y-4362D01*
G54D18*
X2055Y-3740D02*
X2110Y-3795D01*
X2708Y-4433D02*
X2750Y-4433D01*
X2750Y-4474D02*
X2708Y-4433D01*
X2750Y-4498D02*
X2750Y-4474D01*
X2110Y-3858D02*
X2750Y-4498D01*
X2110Y-3795D02*
X2110Y-3858D01*
X1381Y-3636D02*
X1447Y-3570D01*
X1885Y-3570D02*
X2055Y-3740D01*
X1447Y-3570D02*
X1885Y-3570D01*
G54D19*
X2750Y-4852D02*
X2750Y-4433D01*
X3759Y-3500D02*
X2889Y-3500D01*
X2889Y-3500D02*
X2751Y-3362D01*
X3759Y-3000D02*
X2543Y-3000D01*
X2543Y-3000D02*
X2358Y-3185D01*
G54D18*
X2358Y-3185D02*
X2543Y-3000D01*
G54D19*
X1562Y-2193D02*
X1868Y-2500D01*
X1868Y-2500D02*
X3759Y-2500D01*
G54D18*
X1860Y-2492D02*
X1562Y-2193D01*
X3759Y-2492D02*
X1860Y-2492D01*
G54D19*
X3759Y-2000D02*
X3391Y-2000D01*
X3391Y-2000D02*
X2457Y-1066D01*
G54D18*
X3759Y-1992D02*
X3383Y-1992D01*
X2457Y-270D02*
X2540Y-187D01*
X2457Y-1066D02*
X2457Y-270D01*
X3383Y-1992D02*
X2457Y-1066D01*
G54D19*
X3759Y-1500D02*
X3251Y-1500D01*
G54D18*
X3759Y-1500D02*
X3251Y-1500D01*
G54D19*
X3759Y-1000D02*
X3350Y-1000D01*
X3090Y-740D02*
X3090Y-318D01*
X3350Y-1000D02*
X3090Y-740D01*
G54D18*
X2643Y128D02*
X1399Y128D01*
X3090Y-318D02*
X2643Y128D01*
G54D19*
X3759Y-500D02*
X3338Y-500D01*
X3759Y0D02*
X3248Y0D01*
X3759Y500D02*
X3748Y511D01*
X3748Y511D02*
X3248Y511D01*
X3759Y1000D02*
X3751Y992D01*
X3751Y992D02*
X3244Y992D01*
X-3759Y500D02*
X-3755Y503D01*
X-3755Y503D02*
X-3244Y503D01*
X1250Y-4852D02*
X1248Y-4850D01*
X1248Y-4850D02*
X1248Y-4358D01*
X-3759Y-1000D02*
X-3127Y-1000D01*
X-3127Y-1000D02*
X-2690Y-1437D01*
G54D18*
X-3127Y-1000D02*
X-2690Y-1437D01*
X-2066Y-755D02*
X-1975Y-755D01*
X-1975Y-755D02*
X-1026Y192D01*
X-1026Y192D02*
X-1275Y192D01*
X-2082Y1000D02*
X-3759Y1000D01*
X-1275Y192D02*
X-2082Y1000D01*
X-1026Y253D02*
X-1026Y192D01*
X1699Y1467D02*
X1699Y1483D01*
X485Y253D02*
X1699Y1467D01*
X-1026Y253D02*
X485Y253D01*
X-1834Y-3866D02*
X-1834Y-3460D01*
X-2437Y-2125D02*
X-2066Y-1755D01*
X-2437Y-3055D02*
X-2437Y-2125D01*
X-2362Y-3129D02*
X-2437Y-3055D01*
X-2165Y-3129D02*
X-2362Y-3129D01*
X-1834Y-3460D02*
X-2165Y-3129D01*
X-2250Y-4852D02*
X-2250Y-4281D01*
X-2250Y-4281D02*
X-1834Y-3866D01*
G54D19*
X-2250Y-4391D02*
X-2250Y-4852D01*
G54D18*
X-2250Y-4391D02*
X-2250Y-4852D01*
G54D19*
X-3759Y0D02*
X-3744Y15D01*
X-3744Y15D02*
X-3275Y15D01*
X-3759Y-500D02*
X-3391Y-500D01*
X-3391Y-500D02*
X-2956Y-64D01*
G54D18*
X-3391Y-500D02*
X-2956Y-64D01*
G54D19*
X1760Y-3866D02*
X1750Y-3876D01*
X1750Y-3876D02*
X1750Y-4852D01*
G54D18*
X1750Y-4844D02*
X1750Y-3876D01*
G54D19*
X-3759Y-1500D02*
X-3295Y-1500D01*
X-2919Y-1875D02*
X-2684Y-1875D01*
X-3295Y-1500D02*
X-2919Y-1875D01*
G54D10*
G36*
X3404Y-1249D02*
X3376Y-1277D01*
X3375Y-1280D01*
X3251Y-1280D01*
X3167Y-1296D01*
X3096Y-1344D01*
X3076Y-1373D01*
X2647Y-945D01*
X2647Y-495D01*
X2724Y-463D01*
X2816Y-372D01*
X2833Y-330D01*
X2870Y-366D01*
X2870Y-740D01*
X2887Y-824D01*
X2934Y-895D01*
X3194Y-1155D01*
X3266Y-1203D01*
X3266Y-1203D01*
X3350Y-1220D01*
X3375Y-1220D01*
X3376Y-1222D01*
X3404Y-1249D01*
X3404Y-1249D01*
G37*
G54D20*
X3404Y-1249D02*
X3376Y-1277D01*
X3375Y-1280D01*
X3251Y-1280D01*
X3167Y-1296D01*
X3096Y-1344D01*
X3076Y-1373D01*
X2647Y-945D01*
X2647Y-495D01*
X2724Y-463D01*
X2816Y-372D01*
X2833Y-330D01*
X2870Y-366D01*
X2870Y-740D01*
X2887Y-824D01*
X2934Y-895D01*
X3194Y-1155D01*
X3266Y-1203D01*
X3266Y-1203D01*
X3350Y-1220D01*
X3375Y-1220D01*
X3376Y-1222D01*
X3404Y-1249D01*
G54D10*
G36*
X3404Y-2749D02*
X3376Y-2777D01*
X3375Y-2780D01*
X2543Y-2780D01*
X2459Y-2796D01*
X2423Y-2820D01*
X2387Y-2844D01*
X2372Y-2860D01*
X2293Y-2859D01*
X2174Y-2909D01*
X2082Y-3000D01*
X2033Y-3120D01*
X2033Y-3249D01*
X2082Y-3368D01*
X2173Y-3460D01*
X2293Y-3509D01*
X2411Y-3510D01*
X2363Y-3529D01*
X2266Y-3626D01*
X2249Y-3668D01*
X2244Y-3660D01*
X2189Y-3605D01*
X2020Y-3436D01*
X1958Y-3395D01*
X1885Y-3380D01*
X1585Y-3380D01*
X1565Y-3361D01*
X1446Y-3311D01*
X1317Y-3311D01*
X1288Y-3323D01*
X1288Y-3300D01*
X1239Y-3180D01*
X1148Y-3089D01*
X1028Y-3039D01*
X899Y-3039D01*
X780Y-3089D01*
X688Y-3180D01*
X638Y-3299D01*
X638Y-3429D01*
X688Y-3548D01*
X779Y-3640D01*
X899Y-3689D01*
X1028Y-3689D01*
X1056Y-3678D01*
X1056Y-3700D01*
X1105Y-3820D01*
X1197Y-3911D01*
X1316Y-3961D01*
X1445Y-3961D01*
X1447Y-3960D01*
X1484Y-4049D01*
X1530Y-4095D01*
X1530Y-4468D01*
X1527Y-4469D01*
X1500Y-4496D01*
X1472Y-4469D01*
X1468Y-4467D01*
X1468Y-4358D01*
X1451Y-4274D01*
X1403Y-4202D01*
X1332Y-4155D01*
X1248Y-4138D01*
X1163Y-4155D01*
X1092Y-4202D01*
X1044Y-4274D01*
X1028Y-4358D01*
X1028Y-4468D01*
X1027Y-4469D01*
X1000Y-4496D01*
X972Y-4469D01*
X968Y-4467D01*
X968Y-4358D01*
X951Y-4274D01*
X903Y-4202D01*
X832Y-4155D01*
X748Y-4138D01*
X663Y-4155D01*
X592Y-4202D01*
X544Y-4274D01*
X528Y-4358D01*
X528Y-4468D01*
X527Y-4469D01*
X500Y-4496D01*
X472Y-4469D01*
X470Y-4468D01*
X470Y-3996D01*
X498Y-3927D01*
X498Y-3797D01*
X449Y-3678D01*
X358Y-3587D01*
X238Y-3537D01*
X109Y-3537D01*
X-10Y-3586D01*
X-77Y-3654D01*
X-154Y-3577D01*
X-273Y-3527D01*
X-403Y-3527D01*
X-522Y-3576D01*
X-614Y-3668D01*
X-663Y-3787D01*
X-663Y-3916D01*
X-614Y-4036D01*
X-523Y-4127D01*
X-470Y-4149D01*
X-470Y-4468D01*
X-472Y-4469D01*
X-500Y-4496D01*
X-527Y-4469D01*
X-531Y-4467D01*
X-531Y-4354D01*
X-548Y-4270D01*
X-596Y-4198D01*
X-667Y-4151D01*
X-751Y-4134D01*
X-836Y-4151D01*
X-907Y-4198D01*
X-955Y-4270D01*
X-971Y-4354D01*
X-971Y-4468D01*
X-972Y-4469D01*
X-1000Y-4496D01*
X-1020Y-4476D01*
X-1020Y-4393D01*
X-1036Y-4309D01*
X-1050Y-4289D01*
X-1050Y-4086D01*
X-1064Y-4013D01*
X-1092Y-3972D01*
X-1044Y-3952D01*
X-952Y-3861D01*
X-903Y-3742D01*
X-903Y-3620D01*
X-507Y-3224D01*
X-466Y-3163D01*
X-451Y-3090D01*
X-451Y-2181D01*
X-451Y-2181D01*
X-451Y-2181D01*
X-466Y-2108D01*
X-507Y-2046D01*
X-507Y-2046D01*
X-507Y-2046D01*
X-685Y-1869D01*
X-670Y-1835D01*
X-670Y-1677D01*
X-730Y-1531D01*
X-842Y-1420D01*
X-987Y-1359D01*
X-1145Y-1359D01*
X-1290Y-1419D01*
X-1402Y-1531D01*
X-1422Y-1579D01*
X-1430Y-1537D01*
X-1471Y-1475D01*
X-1852Y-1095D01*
X-1842Y-1091D01*
X-1731Y-980D01*
X-1670Y-835D01*
X-1670Y-720D01*
X-1082Y-132D01*
X-962Y-132D01*
X-842Y-82D01*
X-751Y8D01*
X-728Y63D01*
X483Y63D01*
X483Y-177D01*
X497Y-249D01*
X538Y-311D01*
X1121Y-894D01*
X1183Y-935D01*
X1255Y-949D01*
X1639Y-949D01*
X1639Y-1001D01*
X1688Y-1121D01*
X1779Y-1212D01*
X1899Y-1262D01*
X2028Y-1262D01*
X2148Y-1212D01*
X2239Y-1121D01*
X2245Y-1106D01*
X2254Y-1150D01*
X2302Y-1221D01*
X3236Y-2155D01*
X3307Y-2203D01*
X3307Y-2203D01*
X3374Y-2216D01*
X3374Y-2216D01*
X3376Y-2222D01*
X3404Y-2249D01*
X3376Y-2277D01*
X3375Y-2280D01*
X1959Y-2280D01*
X1887Y-2207D01*
X1887Y-2129D01*
X1838Y-2010D01*
X1746Y-1918D01*
X1627Y-1868D01*
X1498Y-1868D01*
X1378Y-1918D01*
X1287Y-2009D01*
X1237Y-2128D01*
X1237Y-2258D01*
X1286Y-2377D01*
X1378Y-2469D01*
X1497Y-2518D01*
X1576Y-2518D01*
X1713Y-2655D01*
X1713Y-2655D01*
X1784Y-2703D01*
X1868Y-2720D01*
X3375Y-2720D01*
X3376Y-2722D01*
X3404Y-2749D01*
X3404Y-2749D01*
G37*
G54D20*
X3404Y-2749D02*
X3376Y-2777D01*
X3375Y-2780D01*
X2543Y-2780D01*
X2459Y-2796D01*
X2423Y-2820D01*
X2387Y-2844D01*
X2372Y-2860D01*
X2293Y-2859D01*
X2174Y-2909D01*
X2082Y-3000D01*
X2033Y-3120D01*
X2033Y-3249D01*
X2082Y-3368D01*
X2173Y-3460D01*
X2293Y-3509D01*
X2411Y-3510D01*
X2363Y-3529D01*
X2266Y-3626D01*
X2249Y-3668D01*
X2244Y-3660D01*
X2189Y-3605D01*
X2020Y-3436D01*
X1958Y-3395D01*
X1885Y-3380D01*
X1585Y-3380D01*
X1565Y-3361D01*
X1446Y-3311D01*
X1317Y-3311D01*
X1288Y-3323D01*
X1288Y-3300D01*
X1239Y-3180D01*
X1148Y-3089D01*
X1028Y-3039D01*
X899Y-3039D01*
X780Y-3089D01*
X688Y-3180D01*
X638Y-3299D01*
X638Y-3429D01*
X688Y-3548D01*
X779Y-3640D01*
X899Y-3689D01*
X1028Y-3689D01*
X1056Y-3678D01*
X1056Y-3700D01*
X1105Y-3820D01*
X1197Y-3911D01*
X1316Y-3961D01*
X1445Y-3961D01*
X1447Y-3960D01*
X1484Y-4049D01*
X1530Y-4095D01*
X1530Y-4468D01*
X1527Y-4469D01*
X1500Y-4496D01*
X1472Y-4469D01*
X1468Y-4467D01*
X1468Y-4358D01*
X1451Y-4274D01*
X1403Y-4202D01*
X1332Y-4155D01*
X1248Y-4138D01*
X1163Y-4155D01*
X1092Y-4202D01*
X1044Y-4274D01*
X1028Y-4358D01*
X1028Y-4468D01*
X1027Y-4469D01*
X1000Y-4496D01*
X972Y-4469D01*
X968Y-4467D01*
X968Y-4358D01*
X951Y-4274D01*
X903Y-4202D01*
X832Y-4155D01*
X748Y-4138D01*
X663Y-4155D01*
X592Y-4202D01*
X544Y-4274D01*
X528Y-4358D01*
X528Y-4468D01*
X527Y-4469D01*
X500Y-4496D01*
X472Y-4469D01*
X470Y-4468D01*
X470Y-3996D01*
X498Y-3927D01*
X498Y-3797D01*
X449Y-3678D01*
X358Y-3587D01*
X238Y-3537D01*
X109Y-3537D01*
X-10Y-3586D01*
X-77Y-3654D01*
X-154Y-3577D01*
X-273Y-3527D01*
X-403Y-3527D01*
X-522Y-3576D01*
X-614Y-3668D01*
X-663Y-3787D01*
X-663Y-3916D01*
X-614Y-4036D01*
X-523Y-4127D01*
X-470Y-4149D01*
X-470Y-4468D01*
X-472Y-4469D01*
X-500Y-4496D01*
X-527Y-4469D01*
X-531Y-4467D01*
X-531Y-4354D01*
X-548Y-4270D01*
X-596Y-4198D01*
X-667Y-4151D01*
X-751Y-4134D01*
X-836Y-4151D01*
X-907Y-4198D01*
X-955Y-4270D01*
X-971Y-4354D01*
X-971Y-4468D01*
X-972Y-4469D01*
X-1000Y-4496D01*
X-1020Y-4476D01*
X-1020Y-4393D01*
X-1036Y-4309D01*
X-1050Y-4289D01*
X-1050Y-4086D01*
X-1064Y-4013D01*
X-1092Y-3972D01*
X-1044Y-3952D01*
X-952Y-3861D01*
X-903Y-3742D01*
X-903Y-3620D01*
X-507Y-3224D01*
X-466Y-3163D01*
X-451Y-3090D01*
X-451Y-2181D01*
X-451Y-2181D01*
X-451Y-2181D01*
X-466Y-2108D01*
X-507Y-2046D01*
X-507Y-2046D01*
X-507Y-2046D01*
X-685Y-1869D01*
X-670Y-1835D01*
X-670Y-1677D01*
X-730Y-1531D01*
X-842Y-1420D01*
X-987Y-1359D01*
X-1145Y-1359D01*
X-1290Y-1419D01*
X-1402Y-1531D01*
X-1422Y-1579D01*
X-1430Y-1537D01*
X-1471Y-1475D01*
X-1852Y-1095D01*
X-1842Y-1091D01*
X-1731Y-980D01*
X-1670Y-835D01*
X-1670Y-720D01*
X-1082Y-132D01*
X-962Y-132D01*
X-842Y-82D01*
X-751Y8D01*
X-728Y63D01*
X483Y63D01*
X483Y-177D01*
X497Y-249D01*
X538Y-311D01*
X1121Y-894D01*
X1183Y-935D01*
X1255Y-949D01*
X1639Y-949D01*
X1639Y-1001D01*
X1688Y-1121D01*
X1779Y-1212D01*
X1899Y-1262D01*
X2028Y-1262D01*
X2148Y-1212D01*
X2239Y-1121D01*
X2245Y-1106D01*
X2254Y-1150D01*
X2302Y-1221D01*
X3236Y-2155D01*
X3307Y-2203D01*
X3307Y-2203D01*
X3374Y-2216D01*
X3374Y-2216D01*
X3376Y-2222D01*
X3404Y-2249D01*
X3376Y-2277D01*
X3375Y-2280D01*
X1959Y-2280D01*
X1887Y-2207D01*
X1887Y-2129D01*
X1838Y-2010D01*
X1746Y-1918D01*
X1627Y-1868D01*
X1498Y-1868D01*
X1378Y-1918D01*
X1287Y-2009D01*
X1237Y-2128D01*
X1237Y-2258D01*
X1286Y-2377D01*
X1378Y-2469D01*
X1497Y-2518D01*
X1576Y-2518D01*
X1713Y-2655D01*
X1713Y-2655D01*
X1784Y-2703D01*
X1868Y-2720D01*
X3375Y-2720D01*
X3376Y-2722D01*
X3404Y-2749D01*
G54D10*
G36*
X3570Y1287D02*
X3474Y1287D01*
X3418Y1264D01*
X3376Y1222D01*
X3372Y1212D01*
X3244Y1212D01*
X3159Y1195D01*
X3088Y1147D01*
X3040Y1076D01*
X3024Y992D01*
X3040Y907D01*
X3088Y836D01*
X3159Y788D01*
X3244Y772D01*
X3381Y772D01*
X3404Y750D01*
X3385Y731D01*
X3248Y731D01*
X3163Y715D01*
X3092Y667D01*
X3044Y596D01*
X3028Y511D01*
X3044Y427D01*
X3092Y356D01*
X3163Y308D01*
X3248Y291D01*
X3370Y291D01*
X3376Y277D01*
X3404Y250D01*
X3376Y222D01*
X3375Y220D01*
X3248Y220D01*
X3163Y203D01*
X3092Y155D01*
X3044Y84D01*
X3030Y10D01*
X2777Y263D01*
X2716Y304D01*
X2643Y318D01*
X1668Y318D01*
X1583Y404D01*
X1464Y453D01*
X1335Y453D01*
X1230Y410D01*
X1441Y621D01*
X1459Y603D01*
X1579Y554D01*
X1708Y554D01*
X1827Y603D01*
X1919Y694D01*
X1968Y814D01*
X1968Y943D01*
X1919Y1063D01*
X1828Y1154D01*
X1791Y1169D01*
X1883Y1207D01*
X1974Y1299D01*
X2024Y1418D01*
X2024Y1547D01*
X1975Y1667D01*
X1883Y1758D01*
X1764Y1808D01*
X1680Y1808D01*
X1680Y1842D01*
X1631Y1962D01*
X1539Y2053D01*
X1420Y2103D01*
X1291Y2103D01*
X1171Y2054D01*
X1080Y1962D01*
X1030Y1843D01*
X1030Y1714D01*
X1079Y1594D01*
X1171Y1503D01*
X1290Y1453D01*
X1374Y1453D01*
X1374Y1419D01*
X1377Y1413D01*
X1304Y1340D01*
X1287Y1380D01*
X1196Y1471D01*
X1076Y1521D01*
X947Y1521D01*
X827Y1472D01*
X736Y1380D01*
X700Y1295D01*
X643Y1352D01*
X524Y1402D01*
X394Y1402D01*
X275Y1353D01*
X183Y1261D01*
X134Y1142D01*
X134Y1012D01*
X183Y893D01*
X274Y802D01*
X394Y752D01*
X523Y752D01*
X643Y801D01*
X734Y893D01*
X770Y978D01*
X827Y921D01*
X868Y904D01*
X407Y443D01*
X-817Y443D01*
X-842Y468D01*
X-958Y516D01*
X-945Y548D01*
X-945Y677D01*
X-994Y796D01*
X-1086Y888D01*
X-1205Y937D01*
X-1334Y938D01*
X-1454Y888D01*
X-1545Y797D01*
X-1565Y751D01*
X-1948Y1134D01*
X-2009Y1175D01*
X-2082Y1190D01*
X-3363Y1190D01*
X-3376Y1222D01*
X-3404Y1250D01*
X-3376Y1277D01*
X-3375Y1280D01*
X-3244Y1280D01*
X-3159Y1296D01*
X-3088Y1344D01*
X-3040Y1415D01*
X-3024Y1500D01*
X-3040Y1584D01*
X-3088Y1655D01*
X-3159Y1703D01*
X-3244Y1720D01*
X-3375Y1720D01*
X-3376Y1722D01*
X-3418Y1764D01*
X-3474Y1787D01*
X-3533Y1787D01*
X-3570Y1787D01*
X-3570Y2729D01*
X3037Y2729D01*
X3016Y2679D01*
X3016Y2541D01*
X3069Y2414D01*
X3166Y2317D01*
X3293Y2265D01*
X3430Y2264D01*
X3557Y2317D01*
X3570Y2330D01*
X3570Y1287D01*
X3570Y1287D01*
G37*
G54D20*
X3570Y1287D02*
X3474Y1287D01*
X3418Y1264D01*
X3376Y1222D01*
X3372Y1212D01*
X3244Y1212D01*
X3159Y1195D01*
X3088Y1147D01*
X3040Y1076D01*
X3024Y992D01*
X3040Y907D01*
X3088Y836D01*
X3159Y788D01*
X3244Y772D01*
X3381Y772D01*
X3404Y750D01*
X3385Y731D01*
X3248Y731D01*
X3163Y715D01*
X3092Y667D01*
X3044Y596D01*
X3028Y511D01*
X3044Y427D01*
X3092Y356D01*
X3163Y308D01*
X3248Y291D01*
X3370Y291D01*
X3376Y277D01*
X3404Y250D01*
X3376Y222D01*
X3375Y220D01*
X3248Y220D01*
X3163Y203D01*
X3092Y155D01*
X3044Y84D01*
X3030Y10D01*
X2777Y263D01*
X2716Y304D01*
X2643Y318D01*
X1668Y318D01*
X1583Y404D01*
X1464Y453D01*
X1335Y453D01*
X1230Y410D01*
X1441Y621D01*
X1459Y603D01*
X1579Y554D01*
X1708Y554D01*
X1827Y603D01*
X1919Y694D01*
X1968Y814D01*
X1968Y943D01*
X1919Y1063D01*
X1828Y1154D01*
X1791Y1169D01*
X1883Y1207D01*
X1974Y1299D01*
X2024Y1418D01*
X2024Y1547D01*
X1975Y1667D01*
X1883Y1758D01*
X1764Y1808D01*
X1680Y1808D01*
X1680Y1842D01*
X1631Y1962D01*
X1539Y2053D01*
X1420Y2103D01*
X1291Y2103D01*
X1171Y2054D01*
X1080Y1962D01*
X1030Y1843D01*
X1030Y1714D01*
X1079Y1594D01*
X1171Y1503D01*
X1290Y1453D01*
X1374Y1453D01*
X1374Y1419D01*
X1377Y1413D01*
X1304Y1340D01*
X1287Y1380D01*
X1196Y1471D01*
X1076Y1521D01*
X947Y1521D01*
X827Y1472D01*
X736Y1380D01*
X700Y1295D01*
X643Y1352D01*
X524Y1402D01*
X394Y1402D01*
X275Y1353D01*
X183Y1261D01*
X134Y1142D01*
X134Y1012D01*
X183Y893D01*
X274Y802D01*
X394Y752D01*
X523Y752D01*
X643Y801D01*
X734Y893D01*
X770Y978D01*
X827Y921D01*
X868Y904D01*
X407Y443D01*
X-817Y443D01*
X-842Y468D01*
X-958Y516D01*
X-945Y548D01*
X-945Y677D01*
X-994Y796D01*
X-1086Y888D01*
X-1205Y937D01*
X-1334Y938D01*
X-1454Y888D01*
X-1545Y797D01*
X-1565Y751D01*
X-1948Y1134D01*
X-2009Y1175D01*
X-2082Y1190D01*
X-3363Y1190D01*
X-3376Y1222D01*
X-3404Y1250D01*
X-3376Y1277D01*
X-3375Y1280D01*
X-3244Y1280D01*
X-3159Y1296D01*
X-3088Y1344D01*
X-3040Y1415D01*
X-3024Y1500D01*
X-3040Y1584D01*
X-3088Y1655D01*
X-3159Y1703D01*
X-3244Y1720D01*
X-3375Y1720D01*
X-3376Y1722D01*
X-3418Y1764D01*
X-3474Y1787D01*
X-3533Y1787D01*
X-3570Y1787D01*
X-3570Y2729D01*
X3037Y2729D01*
X3016Y2679D01*
X3016Y2541D01*
X3069Y2414D01*
X3166Y2317D01*
X3293Y2265D01*
X3430Y2264D01*
X3557Y2317D01*
X3570Y2330D01*
X3570Y1287D01*
M02*
