G04 (created by PCBNEW (2013-mar-13)-testing) date Fri 18 Oct 2013 15:59:19 EST*
%MOIN*%
G04 Gerber Fmt 3.4, Leading zero omitted, Abs format*
%FSLAX34Y34*%
G01*
G70*
G90*
G04 APERTURE LIST*
%ADD10C,0.003937*%
%ADD11C,0.075748*%
%ADD12R,0.043307X0.043307*%
%ADD13R,0.045248X0.074848*%
%ADD14R,0.070848X0.090548*%
%ADD15R,0.086648X0.070848*%
%ADD16R,0.078774X0.062974*%
%ADD17R,0.075748X0.075748*%
%ADD18C,0.045276*%
G04 APERTURE END LIST*
G54D10*
G54D11*
X9441Y8314D03*
X9441Y5164D03*
X9441Y3590D03*
X9441Y4377D03*
X9441Y6739D03*
X9441Y5952D03*
X9441Y7527D03*
X9441Y2015D03*
X9441Y1227D03*
X9441Y2802D03*
X779Y2802D03*
X779Y1227D03*
X779Y2015D03*
X779Y7527D03*
X779Y5952D03*
X779Y6739D03*
X779Y4377D03*
X779Y3590D03*
X779Y5164D03*
X779Y8314D03*
G54D12*
X5110Y1145D03*
X5114Y437D03*
G54D13*
X8066Y2208D03*
X8499Y2208D03*
X7633Y2129D03*
X7200Y2208D03*
X5468Y2208D03*
X5901Y2365D03*
X6334Y2208D03*
X6767Y2129D03*
G54D14*
X8775Y1086D03*
X3559Y653D03*
G54D15*
X8165Y6263D03*
G54D16*
X5881Y6263D03*
G54D17*
X1929Y3169D03*
G54D11*
X2929Y3169D03*
X1929Y2169D03*
X2929Y2169D03*
X1929Y1169D03*
X2929Y1169D03*
G54D18*
X1362Y9133D03*
X1114Y452D03*
X8956Y9007D03*
M02*
