G04 (created by PCBNEW (2013-mar-13)-testing) date Mon 16 Sep 2013 00:05:25 EST*
%MOIN*%
G04 Gerber Fmt 3.4, Leading zero omitted, Abs format*
%FSLAX34Y34*%
G01*
G70*
G90*
G04 APERTURE LIST*
%ADD10C,0.005000*%
%ADD11C,0.005906*%
%ADD12C,0.007874*%
%ADD13C,0.011811*%
G04 APERTURE END LIST*
G54D10*
G54D11*
X110Y94D02*
X47Y94D01*
X7161Y11019D02*
X7204Y11019D01*
X10114Y94D02*
X10161Y94D01*
X3019Y11019D02*
X47Y8456D01*
X47Y8456D02*
X47Y94D01*
X10161Y8468D02*
X10161Y94D01*
X78Y94D02*
X10122Y94D01*
X7204Y11019D02*
X10161Y8468D01*
X3015Y11019D02*
X7165Y11019D01*
G54D12*
X1487Y7503D02*
X1737Y7253D01*
X1737Y7503D02*
X1487Y7253D01*
X1619Y3936D02*
X1869Y3686D01*
X1869Y3936D02*
X1619Y3686D01*
X1804Y4707D02*
X2054Y4457D01*
X2054Y4707D02*
X1804Y4457D01*
X1843Y6810D02*
X2093Y6560D01*
X2093Y6810D02*
X1843Y6560D01*
X2013Y7244D02*
X2263Y6994D01*
X2263Y7244D02*
X2013Y6994D01*
X2520Y3774D02*
X2770Y3524D01*
X2770Y3774D02*
X2520Y3524D01*
X3304Y10786D02*
X3554Y10536D01*
X3554Y10786D02*
X3304Y10536D01*
X3469Y10471D02*
X3719Y10221D01*
X3719Y10471D02*
X3469Y10221D01*
X3469Y9770D02*
X3719Y9520D01*
X3719Y9770D02*
X3469Y9520D01*
X3469Y9069D02*
X3719Y8819D01*
X3719Y9069D02*
X3469Y8819D01*
X3571Y8224D02*
X3821Y7974D01*
X3821Y8224D02*
X3571Y7974D01*
X3658Y10774D02*
X3908Y10524D01*
X3908Y10774D02*
X3658Y10524D01*
X3721Y3656D02*
X3971Y3406D01*
X3971Y3656D02*
X3721Y3406D01*
X3855Y8554D02*
X4105Y8304D01*
X4105Y8554D02*
X3855Y8304D01*
X4032Y3955D02*
X4282Y3705D01*
X4282Y3955D02*
X4032Y3705D01*
X4090Y3294D02*
X4340Y3044D01*
X4340Y3294D02*
X4090Y3044D01*
X4563Y4089D02*
X4813Y3839D01*
X4813Y4089D02*
X4563Y3839D01*
X4670Y8550D02*
X4920Y8300D01*
X4920Y8550D02*
X4670Y8300D01*
X4819Y4471D02*
X5069Y4221D01*
X5069Y4471D02*
X4819Y4221D01*
X5044Y9034D02*
X5294Y8784D01*
X5294Y9034D02*
X5044Y8784D01*
X5284Y4109D02*
X5534Y3859D01*
X5534Y4109D02*
X5284Y3859D01*
X5678Y8278D02*
X5928Y8028D01*
X5928Y8278D02*
X5678Y8028D01*
X5752Y9034D02*
X6002Y8784D01*
X6002Y9034D02*
X5752Y8784D01*
X6036Y7975D02*
X6286Y7725D01*
X6286Y7975D02*
X6036Y7725D01*
X6162Y4900D02*
X6412Y4650D01*
X6412Y4900D02*
X6162Y4650D01*
X6304Y8333D02*
X6554Y8083D01*
X6554Y8333D02*
X6304Y8083D01*
X6323Y6813D02*
X6573Y6563D01*
X6573Y6813D02*
X6323Y6563D01*
X6418Y5841D02*
X6668Y5591D01*
X6668Y5841D02*
X6418Y5591D01*
X6461Y9034D02*
X6711Y8784D01*
X6711Y9034D02*
X6461Y8784D01*
X6500Y7936D02*
X6750Y7686D01*
X6750Y7936D02*
X6500Y7686D01*
X6548Y4443D02*
X6798Y4193D01*
X6798Y4443D02*
X6548Y4193D01*
X6737Y8329D02*
X6987Y8079D01*
X6987Y8329D02*
X6737Y8079D01*
X6945Y7947D02*
X7195Y7697D01*
X7195Y7947D02*
X6945Y7697D01*
X7170Y9034D02*
X7420Y8784D01*
X7420Y9034D02*
X7170Y8784D01*
X7304Y904D02*
X7554Y654D01*
X7554Y904D02*
X7304Y654D01*
X7312Y1498D02*
X7562Y1248D01*
X7562Y1498D02*
X7312Y1248D01*
X7524Y4916D02*
X7774Y4666D01*
X7774Y4916D02*
X7524Y4666D01*
X7878Y9034D02*
X8128Y8784D01*
X8128Y9034D02*
X7878Y8784D01*
X8587Y9034D02*
X8837Y8784D01*
X8837Y9034D02*
X8587Y8784D01*
X9426Y703D02*
X9676Y453D01*
X9676Y703D02*
X9426Y453D01*
X939Y8314D02*
G75*
G03X939Y8314I-160J0D01*
G74*
G01*
X939Y7527D02*
G75*
G03X939Y7527I-160J0D01*
G74*
G01*
X939Y6739D02*
G75*
G03X939Y6739I-160J0D01*
G74*
G01*
X939Y5952D02*
G75*
G03X939Y5952I-160J0D01*
G74*
G01*
X939Y5164D02*
G75*
G03X939Y5164I-160J0D01*
G74*
G01*
X939Y4377D02*
G75*
G03X939Y4377I-160J0D01*
G74*
G01*
X939Y3590D02*
G75*
G03X939Y3590I-160J0D01*
G74*
G01*
X939Y2802D02*
G75*
G03X939Y2802I-160J0D01*
G74*
G01*
X939Y2015D02*
G75*
G03X939Y2015I-160J0D01*
G74*
G01*
X939Y1227D02*
G75*
G03X939Y1227I-160J0D01*
G74*
G01*
X3945Y6907D02*
G75*
G03X3945Y6907I-160J0D01*
G74*
G01*
X3945Y5707D02*
G75*
G03X3945Y5707I-160J0D01*
G74*
G01*
X4545Y6307D02*
G75*
G03X4545Y6307I-160J0D01*
G74*
G01*
X5145Y6907D02*
G75*
G03X5145Y6907I-160J0D01*
G74*
G01*
X5145Y5707D02*
G75*
G03X5145Y5707I-160J0D01*
G74*
G01*
X9601Y8314D02*
G75*
G03X9601Y8314I-160J0D01*
G74*
G01*
X9601Y7527D02*
G75*
G03X9601Y7527I-160J0D01*
G74*
G01*
X9601Y6739D02*
G75*
G03X9601Y6739I-160J0D01*
G74*
G01*
X9601Y5952D02*
G75*
G03X9601Y5952I-160J0D01*
G74*
G01*
X9601Y5164D02*
G75*
G03X9601Y5164I-160J0D01*
G74*
G01*
X9601Y4377D02*
G75*
G03X9601Y4377I-160J0D01*
G74*
G01*
X9601Y3590D02*
G75*
G03X9601Y3590I-160J0D01*
G74*
G01*
X9601Y2802D02*
G75*
G03X9601Y2802I-160J0D01*
G74*
G01*
X9601Y2015D02*
G75*
G03X9601Y2015I-160J0D01*
G74*
G01*
X9601Y1227D02*
G75*
G03X9601Y1227I-160J0D01*
G74*
G01*
X1929Y3369D02*
X1929Y2969D01*
X1729Y3169D02*
X2129Y3169D01*
X1929Y2369D02*
X1929Y1969D01*
X1729Y2169D02*
X2129Y2169D01*
X1929Y1369D02*
X1929Y969D01*
X1729Y1169D02*
X2129Y1169D01*
X2929Y3369D02*
X2929Y2969D01*
X2729Y3169D02*
X3129Y3169D01*
X2929Y2369D02*
X2929Y1969D01*
X2729Y2169D02*
X3129Y2169D01*
X2929Y1369D02*
X2929Y969D01*
X2729Y1169D02*
X3129Y1169D01*
G54D13*
X1086Y-1768D02*
X1086Y-587D01*
X1367Y-587D01*
X1536Y-643D01*
X1648Y-756D01*
X1705Y-868D01*
X1761Y-1093D01*
X1761Y-1262D01*
X1705Y-1487D01*
X1648Y-1599D01*
X1536Y-1712D01*
X1367Y-1768D01*
X1086Y-1768D01*
X2267Y-1768D02*
X2267Y-981D01*
X2267Y-1206D02*
X2323Y-1093D01*
X2379Y-1037D01*
X2492Y-981D01*
X2604Y-981D01*
X2998Y-1768D02*
X2998Y-981D01*
X2998Y-587D02*
X2942Y-643D01*
X2998Y-699D01*
X3054Y-643D01*
X2998Y-587D01*
X2998Y-699D01*
X3729Y-1768D02*
X3617Y-1712D01*
X3561Y-1599D01*
X3561Y-587D01*
X4348Y-1768D02*
X4235Y-1712D01*
X4179Y-1599D01*
X4179Y-587D01*
X5698Y-1768D02*
X5698Y-587D01*
X6091Y-1431D01*
X6485Y-587D01*
X6485Y-1768D01*
X7554Y-1768D02*
X7554Y-1149D01*
X7498Y-1037D01*
X7385Y-981D01*
X7160Y-981D01*
X7048Y-1037D01*
X7554Y-1712D02*
X7441Y-1768D01*
X7160Y-1768D01*
X7048Y-1712D01*
X6991Y-1599D01*
X6991Y-1487D01*
X7048Y-1374D01*
X7160Y-1318D01*
X7441Y-1318D01*
X7554Y-1262D01*
X8116Y-981D02*
X8116Y-2162D01*
X8116Y-1037D02*
X8229Y-981D01*
X8454Y-981D01*
X8566Y-1037D01*
X8622Y-1093D01*
X8679Y-1206D01*
X8679Y-1543D01*
X8622Y-1656D01*
X8566Y-1712D01*
X8454Y-1768D01*
X8229Y-1768D01*
X8116Y-1712D01*
X9185Y-1656D02*
X9241Y-1712D01*
X9185Y-1768D01*
X9129Y-1712D01*
X9185Y-1656D01*
X9185Y-1768D01*
X9185Y-1037D02*
X9241Y-1093D01*
X9185Y-1149D01*
X9129Y-1093D01*
X9185Y-1037D01*
X9185Y-1149D01*
X-232Y-3589D02*
X17Y-3839D01*
X17Y-3589D02*
X-232Y-3839D01*
X1311Y-3067D02*
X1423Y-3067D01*
X1536Y-3124D01*
X1592Y-3180D01*
X1648Y-3292D01*
X1705Y-3517D01*
X1705Y-3798D01*
X1648Y-4023D01*
X1592Y-4136D01*
X1536Y-4192D01*
X1423Y-4248D01*
X1311Y-4248D01*
X1198Y-4192D01*
X1142Y-4136D01*
X1086Y-4023D01*
X1030Y-3798D01*
X1030Y-3517D01*
X1086Y-3292D01*
X1142Y-3180D01*
X1198Y-3124D01*
X1311Y-3067D01*
X2211Y-4136D02*
X2267Y-4192D01*
X2211Y-4248D01*
X2154Y-4192D01*
X2211Y-4136D01*
X2211Y-4248D01*
X3279Y-3067D02*
X3054Y-3067D01*
X2942Y-3124D01*
X2886Y-3180D01*
X2773Y-3348D01*
X2717Y-3573D01*
X2717Y-4023D01*
X2773Y-4136D01*
X2829Y-4192D01*
X2942Y-4248D01*
X3167Y-4248D01*
X3279Y-4192D01*
X3336Y-4136D01*
X3392Y-4023D01*
X3392Y-3742D01*
X3336Y-3630D01*
X3279Y-3573D01*
X3167Y-3517D01*
X2942Y-3517D01*
X2829Y-3573D01*
X2773Y-3630D01*
X2717Y-3742D01*
X4404Y-3461D02*
X4404Y-4248D01*
X4123Y-3011D02*
X3842Y-3855D01*
X4573Y-3855D01*
X5023Y-4248D02*
X5023Y-3461D01*
X5023Y-3573D02*
X5079Y-3517D01*
X5192Y-3461D01*
X5360Y-3461D01*
X5473Y-3517D01*
X5529Y-3630D01*
X5529Y-4248D01*
X5529Y-3630D02*
X5585Y-3517D01*
X5698Y-3461D01*
X5866Y-3461D01*
X5979Y-3517D01*
X6035Y-3630D01*
X6035Y-4248D01*
X6598Y-4248D02*
X6598Y-3461D01*
X6598Y-3573D02*
X6654Y-3517D01*
X6766Y-3461D01*
X6935Y-3461D01*
X7048Y-3517D01*
X7104Y-3630D01*
X7104Y-4248D01*
X7104Y-3630D02*
X7160Y-3517D01*
X7273Y-3461D01*
X7441Y-3461D01*
X7554Y-3517D01*
X7610Y-3630D01*
X7610Y-4248D01*
X9916Y-3011D02*
X8904Y-4530D01*
X11435Y-3067D02*
X11547Y-3067D01*
X11660Y-3124D01*
X11716Y-3180D01*
X11772Y-3292D01*
X11828Y-3517D01*
X11828Y-3798D01*
X11772Y-4023D01*
X11716Y-4136D01*
X11660Y-4192D01*
X11547Y-4248D01*
X11435Y-4248D01*
X11322Y-4192D01*
X11266Y-4136D01*
X11210Y-4023D01*
X11153Y-3798D01*
X11153Y-3517D01*
X11210Y-3292D01*
X11266Y-3180D01*
X11322Y-3124D01*
X11435Y-3067D01*
X12334Y-4136D02*
X12391Y-4192D01*
X12334Y-4248D01*
X12278Y-4192D01*
X12334Y-4136D01*
X12334Y-4248D01*
X13122Y-3067D02*
X13234Y-3067D01*
X13347Y-3124D01*
X13403Y-3180D01*
X13459Y-3292D01*
X13516Y-3517D01*
X13516Y-3798D01*
X13459Y-4023D01*
X13403Y-4136D01*
X13347Y-4192D01*
X13234Y-4248D01*
X13122Y-4248D01*
X13009Y-4192D01*
X12953Y-4136D01*
X12897Y-4023D01*
X12841Y-3798D01*
X12841Y-3517D01*
X12897Y-3292D01*
X12953Y-3180D01*
X13009Y-3124D01*
X13122Y-3067D01*
X13965Y-3180D02*
X14022Y-3124D01*
X14134Y-3067D01*
X14415Y-3067D01*
X14528Y-3124D01*
X14584Y-3180D01*
X14640Y-3292D01*
X14640Y-3405D01*
X14584Y-3573D01*
X13909Y-4248D01*
X14640Y-4248D01*
X15709Y-3067D02*
X15147Y-3067D01*
X15090Y-3630D01*
X15147Y-3573D01*
X15259Y-3517D01*
X15540Y-3517D01*
X15653Y-3573D01*
X15709Y-3630D01*
X15765Y-3742D01*
X15765Y-4023D01*
X15709Y-4136D01*
X15653Y-4192D01*
X15540Y-4248D01*
X15259Y-4248D01*
X15147Y-4192D01*
X15090Y-4136D01*
X16215Y-3067D02*
X16215Y-3292D01*
X16665Y-3067D02*
X16665Y-3292D01*
X18409Y-4698D02*
X18352Y-4642D01*
X18240Y-4473D01*
X18184Y-4361D01*
X18127Y-4192D01*
X18071Y-3911D01*
X18071Y-3686D01*
X18127Y-3405D01*
X18184Y-3236D01*
X18240Y-3124D01*
X18352Y-2955D01*
X18409Y-2899D01*
X19365Y-3461D02*
X19365Y-4248D01*
X19084Y-3011D02*
X18802Y-3855D01*
X19534Y-3855D01*
X20208Y-3067D02*
X20321Y-3067D01*
X20433Y-3124D01*
X20490Y-3180D01*
X20546Y-3292D01*
X20602Y-3517D01*
X20602Y-3798D01*
X20546Y-4023D01*
X20490Y-4136D01*
X20433Y-4192D01*
X20321Y-4248D01*
X20208Y-4248D01*
X20096Y-4192D01*
X20040Y-4136D01*
X19983Y-4023D01*
X19927Y-3798D01*
X19927Y-3517D01*
X19983Y-3292D01*
X20040Y-3180D01*
X20096Y-3124D01*
X20208Y-3067D01*
X22008Y-4248D02*
X22008Y-3067D01*
X22514Y-4248D02*
X22514Y-3630D01*
X22458Y-3517D01*
X22346Y-3461D01*
X22177Y-3461D01*
X22064Y-3517D01*
X22008Y-3573D01*
X23246Y-4248D02*
X23133Y-4192D01*
X23077Y-4136D01*
X23021Y-4023D01*
X23021Y-3686D01*
X23077Y-3573D01*
X23133Y-3517D01*
X23246Y-3461D01*
X23414Y-3461D01*
X23527Y-3517D01*
X23583Y-3573D01*
X23639Y-3686D01*
X23639Y-4023D01*
X23583Y-4136D01*
X23527Y-4192D01*
X23414Y-4248D01*
X23246Y-4248D01*
X24314Y-4248D02*
X24202Y-4192D01*
X24145Y-4080D01*
X24145Y-3067D01*
X25214Y-4192D02*
X25102Y-4248D01*
X24877Y-4248D01*
X24764Y-4192D01*
X24708Y-4080D01*
X24708Y-3630D01*
X24764Y-3517D01*
X24877Y-3461D01*
X25102Y-3461D01*
X25214Y-3517D01*
X25270Y-3630D01*
X25270Y-3742D01*
X24708Y-3855D01*
X25720Y-4192D02*
X25833Y-4248D01*
X26058Y-4248D01*
X26170Y-4192D01*
X26226Y-4080D01*
X26226Y-4023D01*
X26170Y-3911D01*
X26058Y-3855D01*
X25889Y-3855D01*
X25776Y-3798D01*
X25720Y-3686D01*
X25720Y-3630D01*
X25776Y-3517D01*
X25889Y-3461D01*
X26058Y-3461D01*
X26170Y-3517D01*
X26620Y-4698D02*
X26676Y-4642D01*
X26789Y-4473D01*
X26845Y-4361D01*
X26901Y-4192D01*
X26958Y-3911D01*
X26958Y-3686D01*
X26901Y-3405D01*
X26845Y-3236D01*
X26789Y-3124D01*
X26676Y-2955D01*
X26620Y-2899D01*
G54D12*
X17Y-5273D02*
G75*
G03X17Y-5273I-160J0D01*
G74*
G01*
G54D13*
X1311Y-4626D02*
X1423Y-4626D01*
X1536Y-4683D01*
X1592Y-4739D01*
X1648Y-4851D01*
X1705Y-5076D01*
X1705Y-5357D01*
X1648Y-5582D01*
X1592Y-5695D01*
X1536Y-5751D01*
X1423Y-5807D01*
X1311Y-5807D01*
X1198Y-5751D01*
X1142Y-5695D01*
X1086Y-5582D01*
X1030Y-5357D01*
X1030Y-5076D01*
X1086Y-4851D01*
X1142Y-4739D01*
X1198Y-4683D01*
X1311Y-4626D01*
X2211Y-5695D02*
X2267Y-5751D01*
X2211Y-5807D01*
X2154Y-5751D01*
X2211Y-5695D01*
X2211Y-5807D01*
X2942Y-5133D02*
X2829Y-5076D01*
X2773Y-5020D01*
X2717Y-4908D01*
X2717Y-4851D01*
X2773Y-4739D01*
X2829Y-4683D01*
X2942Y-4626D01*
X3167Y-4626D01*
X3279Y-4683D01*
X3336Y-4739D01*
X3392Y-4851D01*
X3392Y-4908D01*
X3336Y-5020D01*
X3279Y-5076D01*
X3167Y-5133D01*
X2942Y-5133D01*
X2829Y-5189D01*
X2773Y-5245D01*
X2717Y-5357D01*
X2717Y-5582D01*
X2773Y-5695D01*
X2829Y-5751D01*
X2942Y-5807D01*
X3167Y-5807D01*
X3279Y-5751D01*
X3336Y-5695D01*
X3392Y-5582D01*
X3392Y-5357D01*
X3336Y-5245D01*
X3279Y-5189D01*
X3167Y-5133D01*
X4517Y-5807D02*
X3842Y-5807D01*
X4179Y-5807D02*
X4179Y-4626D01*
X4067Y-4795D01*
X3954Y-4908D01*
X3842Y-4964D01*
X5023Y-5807D02*
X5023Y-5020D01*
X5023Y-5133D02*
X5079Y-5076D01*
X5192Y-5020D01*
X5360Y-5020D01*
X5473Y-5076D01*
X5529Y-5189D01*
X5529Y-5807D01*
X5529Y-5189D02*
X5585Y-5076D01*
X5698Y-5020D01*
X5866Y-5020D01*
X5979Y-5076D01*
X6035Y-5189D01*
X6035Y-5807D01*
X6598Y-5807D02*
X6598Y-5020D01*
X6598Y-5133D02*
X6654Y-5076D01*
X6766Y-5020D01*
X6935Y-5020D01*
X7048Y-5076D01*
X7104Y-5189D01*
X7104Y-5807D01*
X7104Y-5189D02*
X7160Y-5076D01*
X7273Y-5020D01*
X7441Y-5020D01*
X7554Y-5076D01*
X7610Y-5189D01*
X7610Y-5807D01*
X9916Y-4570D02*
X8904Y-6089D01*
X11435Y-4626D02*
X11547Y-4626D01*
X11660Y-4683D01*
X11716Y-4739D01*
X11772Y-4851D01*
X11828Y-5076D01*
X11828Y-5357D01*
X11772Y-5582D01*
X11716Y-5695D01*
X11660Y-5751D01*
X11547Y-5807D01*
X11435Y-5807D01*
X11322Y-5751D01*
X11266Y-5695D01*
X11210Y-5582D01*
X11153Y-5357D01*
X11153Y-5076D01*
X11210Y-4851D01*
X11266Y-4739D01*
X11322Y-4683D01*
X11435Y-4626D01*
X12334Y-5695D02*
X12391Y-5751D01*
X12334Y-5807D01*
X12278Y-5751D01*
X12334Y-5695D01*
X12334Y-5807D01*
X13122Y-4626D02*
X13234Y-4626D01*
X13347Y-4683D01*
X13403Y-4739D01*
X13459Y-4851D01*
X13516Y-5076D01*
X13516Y-5357D01*
X13459Y-5582D01*
X13403Y-5695D01*
X13347Y-5751D01*
X13234Y-5807D01*
X13122Y-5807D01*
X13009Y-5751D01*
X12953Y-5695D01*
X12897Y-5582D01*
X12841Y-5357D01*
X12841Y-5076D01*
X12897Y-4851D01*
X12953Y-4739D01*
X13009Y-4683D01*
X13122Y-4626D01*
X13909Y-4626D02*
X14640Y-4626D01*
X14247Y-5076D01*
X14415Y-5076D01*
X14528Y-5133D01*
X14584Y-5189D01*
X14640Y-5301D01*
X14640Y-5582D01*
X14584Y-5695D01*
X14528Y-5751D01*
X14415Y-5807D01*
X14078Y-5807D01*
X13965Y-5751D01*
X13909Y-5695D01*
X15090Y-4739D02*
X15147Y-4683D01*
X15259Y-4626D01*
X15540Y-4626D01*
X15653Y-4683D01*
X15709Y-4739D01*
X15765Y-4851D01*
X15765Y-4964D01*
X15709Y-5133D01*
X15034Y-5807D01*
X15765Y-5807D01*
X16215Y-4626D02*
X16215Y-4851D01*
X16665Y-4626D02*
X16665Y-4851D01*
X18409Y-6257D02*
X18352Y-6201D01*
X18240Y-6032D01*
X18184Y-5920D01*
X18127Y-5751D01*
X18071Y-5470D01*
X18071Y-5245D01*
X18127Y-4964D01*
X18184Y-4795D01*
X18240Y-4683D01*
X18352Y-4514D01*
X18409Y-4458D01*
X18802Y-4739D02*
X18859Y-4683D01*
X18971Y-4626D01*
X19252Y-4626D01*
X19365Y-4683D01*
X19421Y-4739D01*
X19477Y-4851D01*
X19477Y-4964D01*
X19421Y-5133D01*
X18746Y-5807D01*
X19477Y-5807D01*
X20546Y-4626D02*
X19983Y-4626D01*
X19927Y-5189D01*
X19983Y-5133D01*
X20096Y-5076D01*
X20377Y-5076D01*
X20490Y-5133D01*
X20546Y-5189D01*
X20602Y-5301D01*
X20602Y-5582D01*
X20546Y-5695D01*
X20490Y-5751D01*
X20377Y-5807D01*
X20096Y-5807D01*
X19983Y-5751D01*
X19927Y-5695D01*
X22008Y-5807D02*
X22008Y-4626D01*
X22514Y-5807D02*
X22514Y-5189D01*
X22458Y-5076D01*
X22346Y-5020D01*
X22177Y-5020D01*
X22064Y-5076D01*
X22008Y-5133D01*
X23246Y-5807D02*
X23133Y-5751D01*
X23077Y-5695D01*
X23021Y-5582D01*
X23021Y-5245D01*
X23077Y-5133D01*
X23133Y-5076D01*
X23246Y-5020D01*
X23414Y-5020D01*
X23527Y-5076D01*
X23583Y-5133D01*
X23639Y-5245D01*
X23639Y-5582D01*
X23583Y-5695D01*
X23527Y-5751D01*
X23414Y-5807D01*
X23246Y-5807D01*
X24314Y-5807D02*
X24202Y-5751D01*
X24145Y-5639D01*
X24145Y-4626D01*
X25214Y-5751D02*
X25102Y-5807D01*
X24877Y-5807D01*
X24764Y-5751D01*
X24708Y-5639D01*
X24708Y-5189D01*
X24764Y-5076D01*
X24877Y-5020D01*
X25102Y-5020D01*
X25214Y-5076D01*
X25270Y-5189D01*
X25270Y-5301D01*
X24708Y-5414D01*
X25720Y-5751D02*
X25833Y-5807D01*
X26058Y-5807D01*
X26170Y-5751D01*
X26226Y-5639D01*
X26226Y-5582D01*
X26170Y-5470D01*
X26058Y-5414D01*
X25889Y-5414D01*
X25776Y-5357D01*
X25720Y-5245D01*
X25720Y-5189D01*
X25776Y-5076D01*
X25889Y-5020D01*
X26058Y-5020D01*
X26170Y-5076D01*
X26620Y-6257D02*
X26676Y-6201D01*
X26789Y-6032D01*
X26845Y-5920D01*
X26901Y-5751D01*
X26958Y-5470D01*
X26958Y-5245D01*
X26901Y-4964D01*
X26845Y-4795D01*
X26789Y-4683D01*
X26676Y-4514D01*
X26620Y-4458D01*
X-182Y-6632D02*
X-182Y-7032D01*
X-382Y-6832D02*
X17Y-6832D01*
X1705Y-7366D02*
X1030Y-7366D01*
X1367Y-7366D02*
X1367Y-6185D01*
X1255Y-6354D01*
X1142Y-6467D01*
X1030Y-6523D01*
X2211Y-7254D02*
X2267Y-7310D01*
X2211Y-7366D01*
X2154Y-7310D01*
X2211Y-7254D01*
X2211Y-7366D01*
X2998Y-6185D02*
X3111Y-6185D01*
X3223Y-6242D01*
X3279Y-6298D01*
X3336Y-6410D01*
X3392Y-6635D01*
X3392Y-6917D01*
X3336Y-7142D01*
X3279Y-7254D01*
X3223Y-7310D01*
X3111Y-7366D01*
X2998Y-7366D01*
X2886Y-7310D01*
X2829Y-7254D01*
X2773Y-7142D01*
X2717Y-6917D01*
X2717Y-6635D01*
X2773Y-6410D01*
X2829Y-6298D01*
X2886Y-6242D01*
X2998Y-6185D01*
X3842Y-6298D02*
X3898Y-6242D01*
X4010Y-6185D01*
X4292Y-6185D01*
X4404Y-6242D01*
X4460Y-6298D01*
X4517Y-6410D01*
X4517Y-6523D01*
X4460Y-6692D01*
X3785Y-7366D01*
X4517Y-7366D01*
X5023Y-7366D02*
X5023Y-6579D01*
X5023Y-6692D02*
X5079Y-6635D01*
X5192Y-6579D01*
X5360Y-6579D01*
X5473Y-6635D01*
X5529Y-6748D01*
X5529Y-7366D01*
X5529Y-6748D02*
X5585Y-6635D01*
X5698Y-6579D01*
X5866Y-6579D01*
X5979Y-6635D01*
X6035Y-6748D01*
X6035Y-7366D01*
X6598Y-7366D02*
X6598Y-6579D01*
X6598Y-6692D02*
X6654Y-6635D01*
X6766Y-6579D01*
X6935Y-6579D01*
X7048Y-6635D01*
X7104Y-6748D01*
X7104Y-7366D01*
X7104Y-6748D02*
X7160Y-6635D01*
X7273Y-6579D01*
X7441Y-6579D01*
X7554Y-6635D01*
X7610Y-6748D01*
X7610Y-7366D01*
X9916Y-6129D02*
X8904Y-7648D01*
X11435Y-6185D02*
X11547Y-6185D01*
X11660Y-6242D01*
X11716Y-6298D01*
X11772Y-6410D01*
X11828Y-6635D01*
X11828Y-6917D01*
X11772Y-7142D01*
X11716Y-7254D01*
X11660Y-7310D01*
X11547Y-7366D01*
X11435Y-7366D01*
X11322Y-7310D01*
X11266Y-7254D01*
X11210Y-7142D01*
X11153Y-6917D01*
X11153Y-6635D01*
X11210Y-6410D01*
X11266Y-6298D01*
X11322Y-6242D01*
X11435Y-6185D01*
X12334Y-7254D02*
X12391Y-7310D01*
X12334Y-7366D01*
X12278Y-7310D01*
X12334Y-7254D01*
X12334Y-7366D01*
X13122Y-6185D02*
X13234Y-6185D01*
X13347Y-6242D01*
X13403Y-6298D01*
X13459Y-6410D01*
X13516Y-6635D01*
X13516Y-6917D01*
X13459Y-7142D01*
X13403Y-7254D01*
X13347Y-7310D01*
X13234Y-7366D01*
X13122Y-7366D01*
X13009Y-7310D01*
X12953Y-7254D01*
X12897Y-7142D01*
X12841Y-6917D01*
X12841Y-6635D01*
X12897Y-6410D01*
X12953Y-6298D01*
X13009Y-6242D01*
X13122Y-6185D01*
X14528Y-6579D02*
X14528Y-7366D01*
X14247Y-6129D02*
X13965Y-6973D01*
X14697Y-6973D01*
X15372Y-6185D02*
X15484Y-6185D01*
X15597Y-6242D01*
X15653Y-6298D01*
X15709Y-6410D01*
X15765Y-6635D01*
X15765Y-6917D01*
X15709Y-7142D01*
X15653Y-7254D01*
X15597Y-7310D01*
X15484Y-7366D01*
X15372Y-7366D01*
X15259Y-7310D01*
X15203Y-7254D01*
X15147Y-7142D01*
X15090Y-6917D01*
X15090Y-6635D01*
X15147Y-6410D01*
X15203Y-6298D01*
X15259Y-6242D01*
X15372Y-6185D01*
X16215Y-6185D02*
X16215Y-6410D01*
X16665Y-6185D02*
X16665Y-6410D01*
X18409Y-7816D02*
X18352Y-7760D01*
X18240Y-7591D01*
X18184Y-7479D01*
X18127Y-7310D01*
X18071Y-7029D01*
X18071Y-6804D01*
X18127Y-6523D01*
X18184Y-6354D01*
X18240Y-6242D01*
X18352Y-6073D01*
X18409Y-6017D01*
X19365Y-6185D02*
X19140Y-6185D01*
X19027Y-6242D01*
X18971Y-6298D01*
X18859Y-6467D01*
X18802Y-6692D01*
X18802Y-7142D01*
X18859Y-7254D01*
X18915Y-7310D01*
X19027Y-7366D01*
X19252Y-7366D01*
X19365Y-7310D01*
X19421Y-7254D01*
X19477Y-7142D01*
X19477Y-6860D01*
X19421Y-6748D01*
X19365Y-6692D01*
X19252Y-6635D01*
X19027Y-6635D01*
X18915Y-6692D01*
X18859Y-6748D01*
X18802Y-6860D01*
X20883Y-7366D02*
X20883Y-6185D01*
X21390Y-7366D02*
X21390Y-6748D01*
X21333Y-6635D01*
X21221Y-6579D01*
X21052Y-6579D01*
X20940Y-6635D01*
X20883Y-6692D01*
X22121Y-7366D02*
X22008Y-7310D01*
X21952Y-7254D01*
X21896Y-7142D01*
X21896Y-6804D01*
X21952Y-6692D01*
X22008Y-6635D01*
X22121Y-6579D01*
X22289Y-6579D01*
X22402Y-6635D01*
X22458Y-6692D01*
X22514Y-6804D01*
X22514Y-7142D01*
X22458Y-7254D01*
X22402Y-7310D01*
X22289Y-7366D01*
X22121Y-7366D01*
X23189Y-7366D02*
X23077Y-7310D01*
X23021Y-7198D01*
X23021Y-6185D01*
X24089Y-7310D02*
X23977Y-7366D01*
X23752Y-7366D01*
X23639Y-7310D01*
X23583Y-7198D01*
X23583Y-6748D01*
X23639Y-6635D01*
X23752Y-6579D01*
X23977Y-6579D01*
X24089Y-6635D01*
X24145Y-6748D01*
X24145Y-6860D01*
X23583Y-6973D01*
X24595Y-7310D02*
X24708Y-7366D01*
X24933Y-7366D01*
X25045Y-7310D01*
X25102Y-7198D01*
X25102Y-7142D01*
X25045Y-7029D01*
X24933Y-6973D01*
X24764Y-6973D01*
X24652Y-6917D01*
X24595Y-6804D01*
X24595Y-6748D01*
X24652Y-6635D01*
X24764Y-6579D01*
X24933Y-6579D01*
X25045Y-6635D01*
X25495Y-7816D02*
X25552Y-7760D01*
X25664Y-7591D01*
X25720Y-7479D01*
X25776Y-7310D01*
X25833Y-7029D01*
X25833Y-6804D01*
X25776Y-6523D01*
X25720Y-6354D01*
X25664Y-6242D01*
X25552Y-6073D01*
X25495Y-6017D01*
M02*
