%FSLAX34Y34*%
G04 Gerber Fmt 3.4, Leading zero omitted, Abs format*
G04 (created by PCBNEW (2013-12-14 BZR 4555)-product) date Tue 24 Dec 2013 00:35:11 EST*
%MOIN*%
G01*
G70*
G90*
G04 APERTURE LIST*
%ADD10C,0.003937*%
%ADD11C,0.008858*%
%ADD12C,0.005906*%
%ADD13C,0.007900*%
%ADD14C,0.008000*%
%ADD15C,0.002800*%
%ADD16C,0.000100*%
G04 APERTURE END LIST*
G54D10*
G54D11*
X-1969Y4207D02*
X-1969Y4562D01*
X-1851Y4309D01*
X-1733Y4562D01*
X-1733Y4207D01*
X-1429Y4224D02*
X-1463Y4207D01*
X-1530Y4207D01*
X-1564Y4224D01*
X-1581Y4258D01*
X-1581Y4393D01*
X-1564Y4427D01*
X-1530Y4444D01*
X-1463Y4444D01*
X-1429Y4427D01*
X-1412Y4393D01*
X-1412Y4359D01*
X-1581Y4325D01*
X-1277Y4224D02*
X-1244Y4207D01*
X-1176Y4207D01*
X-1142Y4224D01*
X-1125Y4258D01*
X-1125Y4275D01*
X-1142Y4309D01*
X-1176Y4325D01*
X-1227Y4325D01*
X-1260Y4342D01*
X-1277Y4376D01*
X-1277Y4393D01*
X-1260Y4427D01*
X-1227Y4444D01*
X-1176Y4444D01*
X-1142Y4427D01*
X-974Y4207D02*
X-974Y4562D01*
X-822Y4207D02*
X-822Y4393D01*
X-839Y4427D01*
X-872Y4444D01*
X-923Y4444D01*
X-957Y4427D01*
X-974Y4410D01*
X-704Y4562D02*
X-501Y4562D01*
X-602Y4207D02*
X-602Y4562D01*
X-383Y4207D02*
X-383Y4562D01*
X-231Y4207D02*
X-231Y4393D01*
X-248Y4427D01*
X-282Y4444D01*
X-332Y4444D01*
X-366Y4427D01*
X-383Y4410D01*
X-62Y4207D02*
X-62Y4444D01*
X-62Y4562D02*
X-79Y4545D01*
X-62Y4528D01*
X-46Y4545D01*
X-62Y4562D01*
X-62Y4528D01*
X105Y4444D02*
X105Y4207D01*
X105Y4410D02*
X122Y4427D01*
X156Y4444D01*
X206Y4444D01*
X240Y4427D01*
X257Y4393D01*
X257Y4207D01*
X578Y4444D02*
X578Y4157D01*
X561Y4123D01*
X544Y4106D01*
X510Y4089D01*
X460Y4089D01*
X426Y4106D01*
X578Y4224D02*
X544Y4207D01*
X476Y4207D01*
X443Y4224D01*
X426Y4241D01*
X409Y4275D01*
X409Y4376D01*
X426Y4410D01*
X443Y4427D01*
X476Y4444D01*
X544Y4444D01*
X578Y4427D01*
X983Y4444D02*
X1067Y4207D01*
X1151Y4444D01*
X1269Y4528D02*
X1286Y4545D01*
X1320Y4562D01*
X1404Y4562D01*
X1438Y4545D01*
X1455Y4528D01*
X1472Y4494D01*
X1472Y4460D01*
X1455Y4410D01*
X1253Y4207D01*
X1472Y4207D01*
X1624Y4241D02*
X1641Y4224D01*
X1624Y4207D01*
X1607Y4224D01*
X1624Y4241D01*
X1624Y4207D01*
X1860Y4562D02*
X1894Y4562D01*
X1928Y4545D01*
X1944Y4528D01*
X1961Y4494D01*
X1978Y4427D01*
X1978Y4342D01*
X1961Y4275D01*
X1944Y4241D01*
X1928Y4224D01*
X1894Y4207D01*
X1860Y4207D01*
X1826Y4224D01*
X1809Y4241D01*
X1793Y4275D01*
X1776Y4342D01*
X1776Y4427D01*
X1793Y4494D01*
X1809Y4528D01*
X1826Y4545D01*
X1860Y4562D01*
X-1564Y3038D02*
X-1564Y3392D01*
X-1446Y3139D01*
X-1328Y3392D01*
X-1328Y3038D01*
X-1142Y3038D02*
X-1075Y3038D01*
X-1041Y3055D01*
X-1024Y3072D01*
X-991Y3122D01*
X-974Y3190D01*
X-974Y3325D01*
X-991Y3359D01*
X-1007Y3375D01*
X-1041Y3392D01*
X-1109Y3392D01*
X-1142Y3375D01*
X-1159Y3359D01*
X-1176Y3325D01*
X-1176Y3241D01*
X-1159Y3207D01*
X-1142Y3190D01*
X-1109Y3173D01*
X-1041Y3173D01*
X-1007Y3190D01*
X-991Y3207D01*
X-974Y3241D01*
X-822Y3038D02*
X-822Y3392D01*
X-737Y3392D01*
X-687Y3375D01*
X-653Y3342D01*
X-636Y3308D01*
X-619Y3241D01*
X-619Y3190D01*
X-636Y3122D01*
X-653Y3089D01*
X-687Y3055D01*
X-737Y3038D01*
X-822Y3038D01*
X-332Y3055D02*
X-366Y3038D01*
X-434Y3038D01*
X-467Y3055D01*
X-484Y3089D01*
X-484Y3224D01*
X-467Y3257D01*
X-434Y3274D01*
X-366Y3274D01*
X-332Y3257D01*
X-316Y3224D01*
X-316Y3190D01*
X-484Y3156D01*
X-181Y3055D02*
X-147Y3038D01*
X-79Y3038D01*
X-46Y3055D01*
X-29Y3089D01*
X-29Y3106D01*
X-46Y3139D01*
X-79Y3156D01*
X-130Y3156D01*
X-164Y3173D01*
X-181Y3207D01*
X-181Y3224D01*
X-164Y3257D01*
X-130Y3274D01*
X-79Y3274D01*
X-46Y3257D01*
X122Y3038D02*
X122Y3274D01*
X122Y3392D02*
X105Y3375D01*
X122Y3359D01*
X139Y3375D01*
X122Y3392D01*
X122Y3359D01*
X443Y3274D02*
X443Y2987D01*
X426Y2954D01*
X409Y2937D01*
X375Y2920D01*
X325Y2920D01*
X291Y2937D01*
X443Y3055D02*
X409Y3038D01*
X341Y3038D01*
X308Y3055D01*
X291Y3072D01*
X274Y3106D01*
X274Y3207D01*
X291Y3241D01*
X308Y3257D01*
X341Y3274D01*
X409Y3274D01*
X443Y3257D01*
X611Y3274D02*
X611Y3038D01*
X611Y3241D02*
X628Y3257D01*
X662Y3274D01*
X713Y3274D01*
X746Y3257D01*
X763Y3224D01*
X763Y3038D01*
X932Y3072D02*
X949Y3055D01*
X932Y3038D01*
X915Y3055D01*
X932Y3072D01*
X932Y3038D01*
X1253Y3055D02*
X1219Y3038D01*
X1151Y3038D01*
X1118Y3055D01*
X1101Y3072D01*
X1084Y3106D01*
X1084Y3207D01*
X1101Y3241D01*
X1118Y3257D01*
X1151Y3274D01*
X1219Y3274D01*
X1253Y3257D01*
X1455Y3038D02*
X1421Y3055D01*
X1404Y3072D01*
X1388Y3106D01*
X1388Y3207D01*
X1404Y3241D01*
X1421Y3257D01*
X1455Y3274D01*
X1506Y3274D01*
X1539Y3257D01*
X1556Y3241D01*
X1573Y3207D01*
X1573Y3106D01*
X1556Y3072D01*
X1539Y3055D01*
X1506Y3038D01*
X1455Y3038D01*
G54D12*
X1130Y-127D02*
G75*
G03X1130Y-127I-76J0D01*
G74*
G01*
G54D13*
X-1909Y-364D02*
X-1909Y-118D01*
X-1909Y-118D02*
X-1663Y-118D01*
X-1663Y-3070D02*
X-1909Y-3070D01*
X-1909Y-3070D02*
X-1909Y-2824D01*
X1042Y-2824D02*
X1042Y-3070D01*
X1042Y-3070D02*
X796Y-3070D01*
X796Y-118D02*
X1042Y-364D01*
G54D12*
X-688Y933D02*
X-688Y980D01*
X-688Y1720D02*
X-688Y1673D01*
X-177Y1720D02*
X-177Y1673D01*
X-177Y933D02*
X-177Y980D01*
G54D14*
X-433Y1653D02*
X-433Y1480D01*
G54D12*
X-688Y1720D02*
X-177Y1720D01*
X-177Y933D02*
X-688Y933D01*
G54D15*
X2494Y1287D02*
X2294Y1287D01*
X2294Y1287D02*
X2294Y987D01*
X2294Y987D02*
X2494Y987D01*
X2694Y1287D02*
X2894Y1287D01*
X2894Y1287D02*
X2894Y987D01*
X2894Y987D02*
X2694Y987D01*
X2494Y925D02*
X2294Y925D01*
X2294Y925D02*
X2294Y625D01*
X2294Y625D02*
X2494Y625D01*
X2694Y925D02*
X2894Y925D01*
X2894Y925D02*
X2894Y625D01*
X2894Y625D02*
X2694Y625D01*
X2439Y-842D02*
X2239Y-842D01*
X2239Y-842D02*
X2239Y-1142D01*
X2239Y-1142D02*
X2439Y-1142D01*
X2639Y-842D02*
X2839Y-842D01*
X2839Y-842D02*
X2839Y-1142D01*
X2839Y-1142D02*
X2639Y-1142D01*
X2639Y-2961D02*
X2839Y-2961D01*
X2839Y-2961D02*
X2839Y-2661D01*
X2839Y-2661D02*
X2639Y-2661D01*
X2439Y-2961D02*
X2239Y-2961D01*
X2239Y-2961D02*
X2239Y-2661D01*
X2239Y-2661D02*
X2439Y-2661D01*
X-105Y686D02*
X-105Y886D01*
X-105Y886D02*
X-405Y886D01*
X-405Y886D02*
X-405Y686D01*
X-105Y486D02*
X-105Y286D01*
X-105Y286D02*
X-405Y286D01*
X-405Y286D02*
X-405Y486D01*
X-460Y686D02*
X-460Y886D01*
X-460Y886D02*
X-760Y886D01*
X-760Y886D02*
X-760Y686D01*
X-460Y486D02*
X-460Y286D01*
X-460Y286D02*
X-760Y286D01*
X-760Y286D02*
X-760Y486D01*
X-1883Y1768D02*
X-2083Y1768D01*
X-2083Y1768D02*
X-2083Y1468D01*
X-2083Y1468D02*
X-1883Y1468D01*
X-1683Y1768D02*
X-1483Y1768D01*
X-1483Y1768D02*
X-1483Y1468D01*
X-1483Y1468D02*
X-1683Y1468D01*
X-2494Y1472D02*
X-2294Y1472D01*
X-2294Y1472D02*
X-2294Y1772D01*
X-2294Y1772D02*
X-2494Y1772D01*
X-2694Y1472D02*
X-2894Y1472D01*
X-2894Y1472D02*
X-2894Y1772D01*
X-2894Y1772D02*
X-2694Y1772D01*
X2694Y1385D02*
X2894Y1385D01*
X2894Y1385D02*
X2894Y1685D01*
X2894Y1685D02*
X2694Y1685D01*
X2494Y1385D02*
X2294Y1385D01*
X2294Y1385D02*
X2294Y1685D01*
X2294Y1685D02*
X2494Y1685D01*
G54D10*
X2834Y-3807D02*
G75*
G03X2834Y-3807I-295J0D01*
G74*
G01*
X-2346Y-3799D02*
G75*
G03X-2346Y-3799I-295J0D01*
G74*
G01*
G54D12*
X2854Y-1775D02*
X2854Y-2027D01*
X2303Y-2531D02*
X2421Y-2531D01*
X2303Y-1271D02*
X2421Y-1271D01*
X1870Y-2027D02*
X1870Y-1775D01*
X-3248Y-4358D02*
X-3248Y2137D01*
X-3248Y-4358D02*
X3248Y-4358D01*
X3248Y-4358D02*
X3248Y2137D01*
X3248Y2137D02*
X-3248Y2137D01*
X-2462Y1358D02*
X-1970Y1358D01*
X-2462Y767D02*
X-1970Y767D01*
G54D10*
X3657Y2610D02*
G75*
G03X3657Y2610I-295J0D01*
G74*
G01*
G54D16*
G36*
X-1845Y4796D02*
X-2753Y4787D01*
X-3661Y4777D01*
X-3671Y3786D01*
X-3680Y2795D01*
X-3688Y3803D01*
X-3695Y4811D01*
X-2770Y4804D01*
X-1845Y4796D01*
X-1845Y4796D01*
X-1845Y4796D01*
G37*
G36*
X-2562Y2845D02*
X-2594Y2831D01*
X-2687Y2820D01*
X-2833Y2814D01*
X-3024Y2811D01*
X-3210Y2812D01*
X-3341Y2816D01*
X-3429Y2823D01*
X-3486Y2836D01*
X-3523Y2857D01*
X-3545Y2878D01*
X-3578Y2919D01*
X-3575Y2947D01*
X-3528Y2978D01*
X-3454Y3011D01*
X-3340Y3054D01*
X-3229Y3084D01*
X-3195Y3090D01*
X-3111Y3113D01*
X-3058Y3154D01*
X-3057Y3155D01*
X-3011Y3189D01*
X-2958Y3181D01*
X-2929Y3138D01*
X-2929Y3133D01*
X-2903Y3092D01*
X-2840Y3035D01*
X-2812Y3016D01*
X-2740Y2960D01*
X-2699Y2917D01*
X-2695Y2907D01*
X-2668Y2884D01*
X-2629Y2878D01*
X-2575Y2864D01*
X-2562Y2845D01*
X-2562Y2845D01*
X-2562Y2845D01*
G37*
G36*
X-2103Y3644D02*
X-2113Y3488D01*
X-2130Y3389D01*
X-2130Y3830D01*
X-2130Y3887D01*
X-2154Y3911D01*
X-2205Y3894D01*
X-2277Y3851D01*
X-2347Y3800D01*
X-2391Y3757D01*
X-2395Y3745D01*
X-2367Y3721D01*
X-2299Y3712D01*
X-2218Y3721D01*
X-2182Y3732D01*
X-2148Y3768D01*
X-2130Y3830D01*
X-2130Y3389D01*
X-2136Y3354D01*
X-2164Y3276D01*
X-2200Y3219D01*
X-2200Y3433D01*
X-2218Y3480D01*
X-2270Y3515D01*
X-2321Y3540D01*
X-2323Y3530D01*
X-2282Y3483D01*
X-2248Y3433D01*
X-2255Y3412D01*
X-2256Y3411D01*
X-2296Y3385D01*
X-2341Y3319D01*
X-2345Y3312D01*
X-2373Y3254D01*
X-2373Y3361D01*
X-2394Y3406D01*
X-2413Y3411D01*
X-2457Y3438D01*
X-2482Y3477D01*
X-2518Y3522D01*
X-2520Y3522D01*
X-2520Y3747D01*
X-2527Y3774D01*
X-2570Y3802D01*
X-2649Y3824D01*
X-2743Y3838D01*
X-2828Y3842D01*
X-2885Y3833D01*
X-2895Y3820D01*
X-2867Y3801D01*
X-2804Y3800D01*
X-2712Y3813D01*
X-2795Y3775D01*
X-2852Y3747D01*
X-2850Y3728D01*
X-2812Y3710D01*
X-2738Y3684D01*
X-2702Y3690D01*
X-2684Y3720D01*
X-2660Y3743D01*
X-2640Y3724D01*
X-2595Y3700D01*
X-2546Y3712D01*
X-2520Y3747D01*
X-2520Y3522D01*
X-2562Y3510D01*
X-2589Y3481D01*
X-2568Y3446D01*
X-2530Y3414D01*
X-2448Y3351D01*
X-2547Y3336D01*
X-2597Y3327D01*
X-2589Y3321D01*
X-2518Y3317D01*
X-2509Y3316D01*
X-2417Y3320D01*
X-2377Y3343D01*
X-2373Y3361D01*
X-2373Y3254D01*
X-2376Y3247D01*
X-2374Y3226D01*
X-2346Y3233D01*
X-2301Y3272D01*
X-2295Y3294D01*
X-2272Y3350D01*
X-2245Y3378D01*
X-2200Y3433D01*
X-2200Y3219D01*
X-2269Y3107D01*
X-2381Y2999D01*
X-2498Y2955D01*
X-2543Y2962D01*
X-2543Y3224D01*
X-2582Y3250D01*
X-2587Y3252D01*
X-2645Y3296D01*
X-2662Y3333D01*
X-2689Y3373D01*
X-2712Y3378D01*
X-2757Y3367D01*
X-2762Y3357D01*
X-2736Y3314D01*
X-2676Y3264D01*
X-2607Y3224D01*
X-2565Y3214D01*
X-2543Y3224D01*
X-2543Y2962D01*
X-2562Y2964D01*
X-2562Y3161D01*
X-2579Y3178D01*
X-2595Y3161D01*
X-2579Y3145D01*
X-2562Y3161D01*
X-2562Y2964D01*
X-2595Y2968D01*
X-2763Y3043D01*
X-2877Y3132D01*
X-2946Y3248D01*
X-2976Y3404D01*
X-2978Y3578D01*
X-2968Y3828D01*
X-2798Y3981D01*
X-2684Y4074D01*
X-2581Y4130D01*
X-2462Y4164D01*
X-2439Y4168D01*
X-2327Y4185D01*
X-2258Y4184D01*
X-2210Y4163D01*
X-2183Y4140D01*
X-2145Y4070D01*
X-2120Y3953D01*
X-2105Y3805D01*
X-2103Y3644D01*
X-2103Y3644D01*
X-2103Y3644D01*
G37*
G36*
X-2068Y3230D02*
X-2074Y3203D01*
X-2085Y3201D01*
X-2089Y3254D01*
X-2089Y3261D01*
X-2084Y3313D01*
X-2074Y3308D01*
X-2072Y3303D01*
X-2068Y3230D01*
X-2068Y3230D01*
X-2068Y3230D01*
G37*
G36*
X-3337Y3848D02*
X-3338Y3752D01*
X-3345Y3686D01*
X-3365Y3545D01*
X-3387Y3464D01*
X-3417Y3438D01*
X-3458Y3459D01*
X-3485Y3486D01*
X-3546Y3584D01*
X-3590Y3708D01*
X-3609Y3833D01*
X-3598Y3934D01*
X-3589Y3954D01*
X-3561Y4027D01*
X-3557Y4070D01*
X-3550Y4110D01*
X-3512Y4106D01*
X-3457Y4064D01*
X-3400Y3996D01*
X-3356Y3920D01*
X-3337Y3848D01*
X-3337Y3848D01*
X-3337Y3848D01*
G37*
G36*
X-3129Y3628D02*
X-3145Y3611D01*
X-3162Y3628D01*
X-3145Y3645D01*
X-3129Y3628D01*
X-3129Y3628D01*
X-3129Y3628D01*
G37*
G36*
X-2529Y3461D02*
X-2545Y3445D01*
X-2562Y3461D01*
X-2545Y3478D01*
X-2529Y3461D01*
X-2529Y3461D01*
X-2529Y3461D01*
G37*
G36*
X-2173Y3834D02*
X-2178Y3814D01*
X-2195Y3811D01*
X-2223Y3824D01*
X-2218Y3834D01*
X-2178Y3838D01*
X-2173Y3834D01*
X-2173Y3834D01*
X-2173Y3834D01*
G37*
G36*
X2238Y2925D02*
X2248Y2929D01*
X2268Y2943D01*
X2298Y2962D01*
X2333Y2985D01*
X2368Y3009D01*
X2397Y3028D01*
X2417Y3041D01*
X2425Y3046D01*
X2430Y3044D01*
X2447Y3036D01*
X2471Y3024D01*
X2485Y3016D01*
X2507Y3007D01*
X2518Y3005D01*
X2520Y3008D01*
X2528Y3025D01*
X2541Y3054D01*
X2558Y3092D01*
X2577Y3137D01*
X2597Y3186D01*
X2618Y3235D01*
X2637Y3282D01*
X2655Y3325D01*
X2669Y3359D01*
X2678Y3383D01*
X2681Y3394D01*
X2680Y3396D01*
X2669Y3407D01*
X2650Y3421D01*
X2608Y3455D01*
X2566Y3507D01*
X2541Y3565D01*
X2533Y3631D01*
X2540Y3691D01*
X2564Y3749D01*
X2604Y3801D01*
X2653Y3840D01*
X2711Y3864D01*
X2775Y3872D01*
X2836Y3865D01*
X2896Y3842D01*
X2948Y3802D01*
X2970Y3777D01*
X3000Y3724D01*
X3018Y3668D01*
X3020Y3653D01*
X3017Y3591D01*
X2999Y3531D01*
X2966Y3478D01*
X2920Y3434D01*
X2915Y3430D01*
X2893Y3414D01*
X2879Y3403D01*
X2868Y3394D01*
X2947Y3204D01*
X2960Y3173D01*
X2982Y3121D01*
X3001Y3076D01*
X3016Y3041D01*
X3027Y3017D01*
X3031Y3007D01*
X3032Y3007D01*
X3039Y3005D01*
X3053Y3011D01*
X3080Y3024D01*
X3098Y3033D01*
X3118Y3042D01*
X3127Y3046D01*
X3135Y3042D01*
X3154Y3029D01*
X3182Y3010D01*
X3217Y2987D01*
X3249Y2965D01*
X3279Y2945D01*
X3301Y2931D01*
X3311Y2926D01*
X3313Y2926D01*
X3322Y2931D01*
X3339Y2945D01*
X3365Y2970D01*
X3402Y3006D01*
X3408Y3012D01*
X3438Y3042D01*
X3462Y3068D01*
X3479Y3086D01*
X3485Y3095D01*
X3485Y3095D01*
X3479Y3105D01*
X3466Y3127D01*
X3446Y3157D01*
X3422Y3193D01*
X3359Y3284D01*
X3393Y3371D01*
X3404Y3397D01*
X3417Y3430D01*
X3428Y3453D01*
X3433Y3463D01*
X3442Y3466D01*
X3466Y3472D01*
X3500Y3479D01*
X3541Y3486D01*
X3580Y3494D01*
X3615Y3500D01*
X3641Y3505D01*
X3652Y3507D01*
X3655Y3509D01*
X3657Y3515D01*
X3659Y3527D01*
X3660Y3548D01*
X3660Y3582D01*
X3660Y3631D01*
X3660Y3636D01*
X3660Y3683D01*
X3659Y3720D01*
X3658Y3743D01*
X3656Y3753D01*
X3656Y3753D01*
X3645Y3756D01*
X3620Y3761D01*
X3585Y3768D01*
X3543Y3776D01*
X3540Y3776D01*
X3498Y3785D01*
X3463Y3792D01*
X3439Y3797D01*
X3428Y3801D01*
X3426Y3804D01*
X3418Y3820D01*
X3406Y3846D01*
X3392Y3878D01*
X3378Y3911D01*
X3366Y3940D01*
X3358Y3962D01*
X3356Y3972D01*
X3356Y3973D01*
X3362Y3983D01*
X3377Y4004D01*
X3397Y4034D01*
X3421Y4070D01*
X3423Y4073D01*
X3447Y4108D01*
X3467Y4138D01*
X3480Y4160D01*
X3485Y4169D01*
X3485Y4170D01*
X3477Y4180D01*
X3459Y4200D01*
X3433Y4227D01*
X3402Y4259D01*
X3392Y4268D01*
X3358Y4302D01*
X3334Y4324D01*
X3319Y4336D01*
X3312Y4338D01*
X3311Y4338D01*
X3301Y4332D01*
X3278Y4317D01*
X3248Y4297D01*
X3212Y4272D01*
X3210Y4270D01*
X3174Y4246D01*
X3145Y4226D01*
X3124Y4213D01*
X3115Y4207D01*
X3113Y4207D01*
X3099Y4211D01*
X3073Y4220D01*
X3042Y4232D01*
X3010Y4245D01*
X2980Y4258D01*
X2958Y4268D01*
X2947Y4274D01*
X2947Y4274D01*
X2943Y4287D01*
X2937Y4314D01*
X2929Y4350D01*
X2921Y4393D01*
X2920Y4400D01*
X2912Y4443D01*
X2905Y4478D01*
X2900Y4502D01*
X2898Y4512D01*
X2892Y4513D01*
X2871Y4514D01*
X2840Y4515D01*
X2801Y4516D01*
X2762Y4515D01*
X2723Y4515D01*
X2689Y4513D01*
X2665Y4512D01*
X2655Y4510D01*
X2655Y4509D01*
X2651Y4496D01*
X2646Y4470D01*
X2638Y4433D01*
X2630Y4389D01*
X2628Y4382D01*
X2620Y4340D01*
X2613Y4305D01*
X2608Y4281D01*
X2606Y4272D01*
X2602Y4270D01*
X2584Y4262D01*
X2556Y4251D01*
X2521Y4237D01*
X2440Y4204D01*
X2341Y4272D01*
X2332Y4278D01*
X2296Y4302D01*
X2266Y4322D01*
X2246Y4335D01*
X2238Y4340D01*
X2237Y4340D01*
X2227Y4331D01*
X2207Y4313D01*
X2180Y4286D01*
X2149Y4255D01*
X2126Y4232D01*
X2098Y4204D01*
X2081Y4185D01*
X2072Y4173D01*
X2068Y4166D01*
X2069Y4161D01*
X2075Y4151D01*
X2090Y4129D01*
X2111Y4099D01*
X2135Y4064D01*
X2155Y4034D01*
X2176Y4001D01*
X2190Y3977D01*
X2195Y3966D01*
X2194Y3961D01*
X2187Y3941D01*
X2175Y3912D01*
X2160Y3877D01*
X2126Y3798D01*
X2074Y3788D01*
X2043Y3782D01*
X1999Y3774D01*
X1957Y3766D01*
X1892Y3753D01*
X1890Y3514D01*
X1900Y3509D01*
X1909Y3507D01*
X1934Y3501D01*
X1968Y3494D01*
X2009Y3487D01*
X2044Y3480D01*
X2079Y3474D01*
X2104Y3469D01*
X2115Y3466D01*
X2118Y3463D01*
X2126Y3446D01*
X2139Y3419D01*
X2153Y3386D01*
X2167Y3353D01*
X2179Y3322D01*
X2188Y3298D01*
X2191Y3286D01*
X2186Y3277D01*
X2173Y3256D01*
X2154Y3227D01*
X2130Y3192D01*
X2106Y3157D01*
X2086Y3127D01*
X2072Y3106D01*
X2066Y3096D01*
X2069Y3090D01*
X2083Y3073D01*
X2109Y3046D01*
X2148Y3007D01*
X2155Y3001D01*
X2186Y2971D01*
X2212Y2947D01*
X2230Y2931D01*
X2238Y2925D01*
X2238Y2925D01*
G37*
G54D15*
X659Y1385D02*
X859Y1385D01*
X859Y1385D02*
X859Y1685D01*
X859Y1685D02*
X659Y1685D01*
X459Y1385D02*
X259Y1385D01*
X259Y1385D02*
X259Y1685D01*
X259Y1685D02*
X459Y1685D01*
M02*
