M48
;DRILL file {Pcbnew (2013-mar-13)-testing} date Tue 22 Oct 2013 13:23:16 EST
;FORMAT={-:-/ absolute / metric / decimal}
FMAT,2
METRIC,TZ
T1C0.635
T2C0.700
T3C0.813
T4C1.016
%
G90
G05
M71
T1
X4.075Y18.602
X4.41Y9.54
X4.88Y11.5
X4.98Y16.84
X5.411Y17.942
X6.7Y9.13
X8.69Y26.94
X9.11Y26.14
X9.11Y24.36
X9.11Y22.58
X9.37Y20.433
X9.59Y26.91
X9.75Y8.83
X10.09Y21.27
X10.54Y9.59
X10.688Y7.91
X11.89Y9.93
X12.54Y10.9
X13.11Y22.49
X13.72Y9.98
X14.72Y20.57
X14.91Y22.49
X15.63Y19.8
X15.95Y11.99
X16.31Y20.71
X16.36Y16.85
X16.6Y14.38
X16.71Y22.49
X16.81Y19.7
X16.93Y10.83
X17.41Y20.7
X17.94Y19.73
X18.51Y22.49
X18.85Y1.84
X18.87Y3.348
X19.41Y12.03
X20.31Y22.49
X24.24Y1.33
T2
X11.12Y15.88
X12.96Y2.77
X12.97Y0.97
T3
X1.959Y20.98
X1.959Y18.981
X1.959Y16.979
X1.959Y14.981
X1.959Y12.979
X1.959Y10.98
X1.959Y8.981
X1.959Y6.98
X1.959Y4.981
X1.959Y2.979
X23.961Y20.98
X23.961Y18.981
X23.961Y16.979
X23.961Y14.981
X23.961Y12.979
X23.961Y10.98
X23.961Y8.981
X23.961Y6.98
X23.961Y4.981
X23.961Y2.979
T4
X4.88Y7.91
X4.88Y5.37
X4.88Y2.83
X7.42Y7.91
X7.42Y5.37
X7.42Y2.83
T0
M30
