G04 (created by PCBNEW (2013-mar-13)-testing) date Tue 22 Oct 2013 13:23:14 EST*
%MOIN*%
G04 Gerber Fmt 3.4, Leading zero omitted, Abs format*
%FSLAX34Y34*%
G01*
G70*
G90*
G04 APERTURE LIST*
%ADD10C,0.003937*%
%ADD11C,0.060000*%
%ADD12R,0.045000X0.025000*%
%ADD13R,0.025000X0.045000*%
%ADD14R,0.039370X0.137795*%
%ADD15R,0.031496X0.031496*%
%ADD16R,0.035433X0.051181*%
%ADD17R,0.027559X0.027559*%
%ADD18R,0.035433X0.019685*%
%ADD19R,0.008000X0.059055*%
%ADD20R,0.019685X0.035433*%
%ADD21R,0.059055X0.008000*%
%ADD22O,0.011614X0.033500*%
%ADD23O,0.033500X0.011614*%
%ADD24R,0.060000X0.060000*%
%ADD25R,0.039370X0.078740*%
%ADD26R,0.110236X0.027559*%
%ADD27R,0.039370X0.011811*%
%ADD28R,0.039370X0.070866*%
%ADD29C,0.029134*%
%ADD30C,0.035000*%
%ADD31C,0.010000*%
%ADD32C,0.008000*%
%ADD33C,0.012000*%
%ADD34C,0.014000*%
G04 APERTURE END LIST*
G54D10*
G54D11*
X9433Y8259D03*
X9433Y5109D03*
X9433Y3535D03*
X9433Y4322D03*
X9433Y6684D03*
X9433Y5897D03*
X9433Y7472D03*
X9433Y1960D03*
X9433Y1172D03*
X9433Y2747D03*
X771Y2747D03*
X771Y1172D03*
X771Y1960D03*
X771Y7472D03*
X771Y5897D03*
X771Y6684D03*
X771Y4322D03*
X771Y3535D03*
X771Y5109D03*
X771Y8259D03*
G54D12*
X2354Y9097D03*
X2354Y9697D03*
X4681Y9355D03*
X4681Y8755D03*
X4070Y9355D03*
X4070Y8755D03*
X2964Y9097D03*
X2964Y9697D03*
X5712Y3461D03*
X5712Y2861D03*
G54D13*
X7621Y8212D03*
X8221Y8212D03*
G54D12*
X7429Y3461D03*
X7429Y2861D03*
X7055Y5851D03*
X7055Y5251D03*
X7055Y6259D03*
X7055Y6859D03*
X6322Y3461D03*
X6322Y2861D03*
X5102Y3461D03*
X5102Y2861D03*
G54D14*
X8177Y4972D03*
X8177Y7137D03*
G54D12*
X8602Y2861D03*
X8602Y3461D03*
G54D15*
X8059Y3456D03*
X8059Y2866D03*
X6877Y3456D03*
X6877Y2866D03*
G54D16*
X5909Y736D03*
X4295Y736D03*
G54D17*
X5102Y1090D03*
X5106Y381D03*
G54D18*
X4598Y3417D03*
X4598Y2905D03*
G54D19*
X4598Y3161D03*
G54D20*
X8751Y2370D03*
X8240Y2370D03*
G54D21*
X8496Y2370D03*
G54D22*
X5460Y7609D03*
X5263Y7609D03*
X5066Y7609D03*
X4870Y7609D03*
X4673Y7609D03*
X4476Y7609D03*
X4279Y7609D03*
X4082Y7609D03*
X3885Y7609D03*
X3688Y7609D03*
X3492Y7609D03*
X3295Y7609D03*
X3295Y4893D03*
X3492Y4893D03*
X3688Y4893D03*
X3885Y4893D03*
X4082Y4893D03*
X4279Y4893D03*
X4476Y4893D03*
X4673Y4893D03*
X4870Y4893D03*
X5066Y4893D03*
X5263Y4893D03*
X5460Y4893D03*
G54D23*
X3019Y7334D03*
X3019Y7137D03*
X3019Y6940D03*
X3019Y6744D03*
X3019Y6547D03*
X3019Y6350D03*
X3019Y6153D03*
X3019Y5956D03*
X3019Y5759D03*
X3019Y5562D03*
X3019Y5366D03*
X3019Y5169D03*
X5735Y5169D03*
X5735Y5366D03*
X5735Y5562D03*
X5735Y5759D03*
X5735Y5956D03*
X5735Y6153D03*
X5735Y6350D03*
X5735Y6547D03*
X5735Y6744D03*
X5735Y6940D03*
X5735Y7137D03*
X5735Y7334D03*
G54D24*
X4377Y6251D03*
G54D11*
X3777Y5651D03*
X4977Y5651D03*
X4977Y6851D03*
X3777Y6851D03*
X4377Y6940D03*
X4377Y5562D03*
X3688Y6251D03*
X5066Y6251D03*
G54D25*
X5637Y9870D03*
X7685Y9870D03*
G54D26*
X6661Y10210D03*
X6661Y9529D03*
G54D27*
X4053Y10244D03*
X4053Y9988D03*
X4053Y9732D03*
X4702Y9732D03*
X4702Y9988D03*
X4702Y10244D03*
G54D28*
X3125Y8452D03*
X2141Y8452D03*
G54D24*
X1921Y3114D03*
G54D11*
X2921Y3114D03*
X1921Y2114D03*
X2921Y2114D03*
X1921Y1114D03*
X2921Y1114D03*
G54D29*
X1354Y9078D03*
X1106Y397D03*
X8948Y8952D03*
G54D30*
X6440Y6633D03*
X6279Y4720D03*
X4208Y3114D03*
X2130Y7063D03*
X3586Y9590D03*
X7641Y4736D03*
X7429Y1318D03*
X5161Y8854D03*
X5870Y8854D03*
X6578Y8854D03*
X7287Y8854D03*
X3586Y8889D03*
X7996Y8854D03*
X3775Y10594D03*
X3586Y10291D03*
X3421Y10606D03*
X6535Y5661D03*
X3972Y8374D03*
X3838Y3476D03*
X6665Y4263D03*
X1604Y7323D03*
X2637Y3594D03*
X4149Y3775D03*
X4681Y3909D03*
X7421Y724D03*
X6854Y8149D03*
X7062Y7767D03*
X6618Y7755D03*
X6153Y7795D03*
X5795Y8098D03*
X6421Y8153D03*
X4937Y4291D03*
X1736Y3755D03*
X3688Y8044D03*
X9543Y523D03*
X1960Y6629D03*
X5401Y3929D03*
X1921Y4527D03*
G54D31*
X3019Y6744D02*
X2450Y6744D01*
X2450Y6744D02*
X2130Y7063D01*
G54D32*
X5735Y6547D02*
X6354Y6547D01*
X6354Y6547D02*
X6440Y6633D01*
G54D31*
X5874Y4723D02*
X6276Y4723D01*
X6276Y4723D02*
X6279Y4720D01*
X4511Y3417D02*
X5058Y3417D01*
X5058Y3417D02*
X5102Y3461D01*
X4208Y3114D02*
X4511Y3417D01*
X5102Y3461D02*
X5712Y3461D01*
X3019Y6743D02*
X2450Y6743D01*
X2450Y6743D02*
X2130Y7063D01*
X5102Y3461D02*
X5712Y3461D01*
X5712Y3461D02*
X5712Y4561D01*
X5712Y4561D02*
X5874Y4723D01*
X6352Y6545D02*
X6440Y6633D01*
X6352Y6545D02*
X6440Y6633D01*
X1291Y8577D02*
X1491Y8577D01*
X1921Y9264D02*
X2354Y9697D01*
X1921Y9007D02*
X1921Y9264D01*
X1491Y8577D02*
X1921Y9007D01*
X2964Y9697D02*
X2354Y9697D01*
X4377Y6940D02*
X3866Y6940D01*
X3866Y6940D02*
X3688Y6762D01*
X3688Y6762D02*
X3688Y5740D01*
X3688Y5740D02*
X3866Y5562D01*
X3866Y5562D02*
X4888Y5562D01*
X4888Y5562D02*
X5066Y5740D01*
X5066Y5740D02*
X5066Y6762D01*
X5066Y6762D02*
X4888Y6940D01*
X4888Y6940D02*
X4377Y6940D01*
X3019Y7137D02*
X2716Y7137D01*
X2716Y7137D02*
X2248Y7606D01*
G54D32*
X3295Y4893D02*
X3295Y4677D01*
X3295Y4677D02*
X3165Y4547D01*
X5066Y6251D02*
X5165Y6350D01*
X5165Y6350D02*
X5735Y6350D01*
X5735Y6349D02*
X5164Y6349D01*
G54D31*
X6182Y6349D02*
X6208Y6323D01*
X6208Y6323D02*
X6562Y6323D01*
X5735Y6349D02*
X6182Y6349D01*
X7055Y6814D02*
X7055Y6859D01*
X6564Y6323D02*
X7055Y6814D01*
X6562Y6323D02*
X6564Y6323D01*
G54D32*
X5164Y6349D02*
X5066Y6251D01*
G54D31*
X4787Y8370D02*
X4948Y8370D01*
X4948Y8370D02*
X5161Y8582D01*
G54D32*
X4673Y7609D02*
X4673Y8255D01*
X4673Y8255D02*
X4787Y8370D01*
X4082Y7609D02*
X4082Y8000D01*
X4082Y8000D02*
X4082Y8000D01*
X3885Y7609D02*
X3885Y7803D01*
X3885Y7803D02*
X4082Y8000D01*
X3688Y6251D02*
X3688Y6762D01*
X3688Y6762D02*
X3866Y6940D01*
X3866Y6940D02*
X4888Y6940D01*
X4888Y6940D02*
X5066Y6762D01*
X5066Y6762D02*
X5066Y5740D01*
X5066Y5740D02*
X4888Y5562D01*
X4888Y5562D02*
X3866Y5562D01*
X3866Y5562D02*
X3688Y5740D01*
X3688Y5740D02*
X3688Y6251D01*
X3688Y6251D02*
X3688Y5740D01*
X3688Y5740D02*
X3866Y5562D01*
X3866Y5562D02*
X4888Y5562D01*
X4888Y5562D02*
X5066Y5740D01*
X5066Y5740D02*
X5066Y6762D01*
X5066Y6762D02*
X4888Y6940D01*
X4888Y6940D02*
X3866Y6940D01*
X3866Y6940D02*
X3777Y6851D01*
X3885Y7609D02*
X3885Y7803D01*
X3885Y7803D02*
X4082Y8000D01*
X3777Y6851D02*
X4377Y6251D01*
X3688Y6251D02*
X4377Y6251D01*
X3777Y5651D02*
X4377Y6251D01*
X4377Y5562D02*
X4377Y6251D01*
X4977Y5651D02*
X4377Y6251D01*
X5066Y6251D02*
X4377Y6251D01*
X4977Y6851D02*
X4377Y6251D01*
X4377Y6940D02*
X4377Y6251D01*
G54D31*
X5909Y736D02*
X6664Y736D01*
X6664Y736D02*
X6755Y644D01*
X3679Y356D02*
X3795Y240D01*
X4992Y736D02*
X5909Y736D01*
X4496Y240D02*
X4992Y736D01*
X4456Y240D02*
X4496Y240D01*
X4437Y240D02*
X4456Y240D01*
X3795Y240D02*
X4437Y240D01*
G54D33*
X2921Y1114D02*
X3679Y356D01*
G54D31*
X5712Y2861D02*
X5712Y2724D01*
X5712Y2724D02*
X5866Y2570D01*
X6755Y644D02*
X6983Y417D01*
X7949Y2756D02*
X7949Y889D01*
X8059Y2866D02*
X7949Y2756D01*
X7949Y889D02*
X7949Y811D01*
X6983Y417D02*
X7555Y417D01*
X7555Y417D02*
X7949Y811D01*
G54D32*
X2779Y4547D02*
X2594Y4547D01*
X2342Y2720D02*
X2231Y2608D01*
X2342Y4295D02*
X2342Y2720D01*
X2594Y4547D02*
X2342Y4295D01*
X3294Y4893D02*
X3294Y4676D01*
G54D31*
X1472Y1873D02*
X1472Y2314D01*
G54D33*
X1068Y1470D02*
X771Y1172D01*
G54D31*
X1068Y1470D02*
X1472Y1873D01*
X1766Y2608D02*
X2231Y2608D01*
X1472Y2314D02*
X1766Y2608D01*
G54D32*
X3294Y4676D02*
X3165Y4547D01*
X3165Y4547D02*
X2779Y4547D01*
G54D31*
X7641Y4736D02*
X7641Y4433D01*
X8507Y7925D02*
X8221Y8212D01*
X8507Y4161D02*
X8507Y7925D01*
X8492Y4145D02*
X8507Y4161D01*
X7929Y4145D02*
X8492Y4145D01*
X7641Y4433D02*
X7929Y4145D01*
X7055Y5251D02*
X7126Y5251D01*
X7126Y5251D02*
X7641Y4736D01*
X7429Y2861D02*
X7429Y1318D01*
X7429Y1318D02*
X6755Y644D01*
G54D34*
X7287Y8854D02*
X6933Y8854D01*
X6578Y8854D02*
X6224Y8854D01*
G54D31*
X5870Y8854D02*
X5515Y8854D01*
X5511Y8858D02*
X5515Y8854D01*
X5161Y8854D02*
X5161Y8854D01*
X5161Y8854D02*
X5511Y8858D01*
G54D34*
X6224Y8854D02*
X5870Y8854D01*
X6933Y8854D02*
X6578Y8854D01*
X7641Y8854D02*
X7287Y8854D01*
X7641Y8854D02*
X7996Y8854D01*
G54D31*
X5161Y8582D02*
X5161Y8854D01*
X3586Y8582D02*
X3972Y8196D01*
X3586Y9240D02*
X3586Y8889D01*
G54D32*
X3586Y8582D02*
X4082Y8086D01*
G54D31*
X7748Y7551D02*
X7748Y7787D01*
X7748Y7787D02*
X8173Y8212D01*
X8173Y8212D02*
X8221Y8212D01*
X7748Y7551D02*
X7055Y6859D01*
X3586Y10291D02*
X3586Y10405D01*
X3586Y10405D02*
X3775Y10594D01*
X3586Y9240D02*
X3586Y9590D01*
X3586Y9590D02*
X3586Y9940D01*
X3586Y9940D02*
X3586Y10291D01*
X3586Y10291D02*
X3586Y10440D01*
X3586Y10440D02*
X3421Y10606D01*
X2964Y9697D02*
X3479Y9697D01*
X3479Y9697D02*
X3586Y9590D01*
G54D33*
X454Y1489D02*
X771Y1172D01*
G54D31*
X1291Y8577D02*
X1176Y8692D01*
X338Y1605D02*
X454Y1489D01*
X338Y8437D02*
X338Y1605D01*
X594Y8692D02*
X338Y8437D01*
X1176Y8692D02*
X594Y8692D01*
X1791Y7913D02*
X2098Y7606D01*
X2098Y7606D02*
X2248Y7606D01*
X7055Y5251D02*
X6945Y5251D01*
X6945Y5251D02*
X6535Y5661D01*
X3019Y7137D02*
X2716Y7137D01*
X2716Y7137D02*
X2248Y7606D01*
X1791Y7913D02*
X1291Y8412D01*
X1291Y8412D02*
X1291Y8577D01*
X4082Y8086D02*
X3972Y8196D01*
X3972Y8196D02*
X3972Y8374D01*
X4082Y8000D02*
X4082Y8086D01*
X4053Y9988D02*
X3633Y9988D01*
X3633Y9988D02*
X3586Y9940D01*
X3586Y8582D02*
X3586Y8889D01*
X4053Y9988D02*
X4702Y9988D01*
X5866Y2570D02*
X6582Y2570D01*
X6582Y2570D02*
X6877Y2866D01*
X7429Y2861D02*
X6882Y2861D01*
X6882Y2861D02*
X6877Y2866D01*
G54D32*
X4082Y4893D02*
X4082Y4488D01*
X4082Y4488D02*
X3838Y4244D01*
X4082Y4489D02*
X3838Y4244D01*
X3838Y4244D02*
X3838Y3476D01*
X4082Y4893D02*
X4082Y4489D01*
G54D33*
X2921Y2114D02*
X3501Y2694D01*
G54D32*
X3885Y4518D02*
X3885Y4893D01*
X3501Y2694D02*
X3501Y3354D01*
X3501Y3354D02*
X3415Y3440D01*
X3415Y3440D02*
X3415Y4048D01*
X3415Y4048D02*
X3885Y4518D01*
X7554Y7917D02*
X7554Y8145D01*
X7554Y8145D02*
X7621Y8212D01*
X7073Y7118D02*
X6829Y7118D01*
X7554Y7598D02*
X7073Y7118D01*
X7554Y7598D02*
X7554Y7917D01*
X6598Y6933D02*
X6783Y7118D01*
X6829Y7118D02*
X6783Y7118D01*
X6091Y6743D02*
X6280Y6932D01*
X6280Y6932D02*
X6281Y6933D01*
X5735Y6743D02*
X6091Y6743D01*
X6281Y6933D02*
X6598Y6933D01*
X4279Y7609D02*
X4279Y8546D01*
X4279Y8546D02*
X4070Y8755D01*
X4279Y7609D02*
X4279Y8546D01*
X4279Y8546D02*
X4070Y8755D01*
X4476Y7609D02*
X4476Y8550D01*
X4476Y8550D02*
X4681Y8755D01*
X6322Y3216D02*
X6322Y3461D01*
X6213Y3106D02*
X6322Y3216D01*
X4720Y3106D02*
X6213Y3106D01*
X4598Y2984D02*
X4720Y3106D01*
X6322Y3461D02*
X6322Y3216D01*
X6933Y3461D02*
X6933Y3216D01*
X6677Y3216D02*
X6933Y3216D01*
X6322Y2861D02*
X6677Y3216D01*
X8059Y3456D02*
X8597Y3456D01*
X8597Y3456D02*
X8602Y3461D01*
X8240Y2370D02*
X8240Y2499D01*
X8240Y2499D02*
X8602Y2861D01*
X2354Y9097D02*
X2354Y9019D01*
X3019Y7334D02*
X2791Y7334D01*
X2791Y7334D02*
X2141Y7984D01*
X2141Y8807D02*
X2141Y8452D01*
X2354Y9019D02*
X2141Y8807D01*
X2141Y7984D02*
X2141Y8452D01*
X3125Y8838D02*
X3125Y8452D01*
X3125Y8094D02*
X3125Y8452D01*
X2964Y9097D02*
X2964Y9000D01*
X2964Y9000D02*
X3125Y8838D01*
X3295Y7924D02*
X3125Y8094D01*
X3295Y7609D02*
X3295Y7924D01*
X5735Y6153D02*
X6949Y6153D01*
X6949Y6153D02*
X7055Y6259D01*
X7298Y6259D02*
X8177Y7137D01*
X7055Y6259D02*
X7298Y6259D01*
X5735Y6153D02*
X5735Y6153D01*
X6950Y6153D02*
X7055Y6259D01*
X5735Y6153D02*
X6950Y6153D01*
X5735Y6153D02*
X5735Y6153D01*
X5735Y5956D02*
X6949Y5956D01*
X6949Y5956D02*
X7055Y5851D01*
X7298Y5851D02*
X8177Y4972D01*
X7055Y5851D02*
X7298Y5851D01*
X5735Y5957D02*
X5736Y5957D01*
X6949Y5957D02*
X7055Y5851D01*
X5736Y5957D02*
X6949Y5957D01*
X5736Y5957D02*
X5735Y5956D01*
G54D34*
X5637Y9870D02*
X5637Y9996D01*
X5440Y10192D02*
X5228Y10192D01*
X5637Y9996D02*
X5440Y10192D01*
X4265Y10456D02*
X4053Y10244D01*
X4964Y10456D02*
X4265Y10456D01*
X5228Y10192D02*
X4964Y10456D01*
G54D31*
X4070Y9714D02*
X4053Y9732D01*
X4070Y9355D02*
X4070Y9714D01*
X4681Y9355D02*
X4681Y9710D01*
X4681Y9710D02*
X4702Y9732D01*
G54D32*
X3019Y6940D02*
X2672Y6940D01*
X2253Y7360D02*
X2253Y7359D01*
X2672Y6940D02*
X2253Y7360D01*
X6807Y4263D02*
X7429Y3641D01*
X6665Y4263D02*
X6807Y4263D01*
G54D31*
X7429Y3641D02*
X7429Y3461D01*
G54D32*
X1639Y7359D02*
X1604Y7323D01*
X2252Y7359D02*
X2253Y7359D01*
X2253Y7359D02*
X1639Y7359D01*
X2522Y7088D02*
X2252Y7359D01*
X2524Y7088D02*
X2522Y7088D01*
X2672Y6940D02*
X2524Y7088D01*
X3019Y6940D02*
X2672Y6940D01*
X3492Y4893D02*
X3492Y4641D01*
X3492Y4641D02*
X3086Y4236D01*
X3491Y4641D02*
X3086Y4236D01*
X3086Y4236D02*
X3086Y4043D01*
X3086Y4043D02*
X2637Y3594D01*
X3491Y4893D02*
X3491Y4641D01*
X4279Y4893D02*
X4279Y3905D01*
X4279Y3905D02*
X4149Y3775D01*
X4279Y3905D02*
X4149Y3775D01*
X4279Y3905D02*
X4279Y4893D01*
X4149Y3775D02*
X4279Y3905D01*
X4476Y4893D02*
X4476Y4114D01*
X4476Y4114D02*
X4681Y3909D01*
X4475Y4114D02*
X4475Y4893D01*
X4681Y3909D02*
X4475Y4114D01*
X7421Y724D02*
X7429Y724D01*
X7429Y724D02*
X7779Y1074D01*
X7779Y1074D02*
X7779Y1169D01*
X7779Y3716D02*
X7779Y1169D01*
X6129Y5365D02*
X7779Y3716D01*
X5735Y5365D02*
X6129Y5365D01*
X5735Y5562D02*
X6216Y5562D01*
X6216Y5562D02*
X6216Y5562D01*
X7618Y4161D02*
X7909Y3870D01*
X7909Y3870D02*
X9099Y3870D01*
X6216Y5562D02*
X7618Y4161D01*
G54D33*
X9433Y3535D02*
X9099Y3870D01*
G54D32*
X5735Y5562D02*
X6216Y5562D01*
X5735Y6940D02*
X6060Y6940D01*
X6060Y6940D02*
X6214Y7094D01*
X7114Y8149D02*
X6854Y8149D01*
X7385Y7870D02*
X7385Y7877D01*
X7385Y7877D02*
X7114Y8149D01*
X7385Y7767D02*
X7385Y7870D01*
X7385Y7877D02*
X7114Y8149D01*
X5735Y6940D02*
X6060Y6940D01*
X7385Y7656D02*
X7385Y7767D01*
X7007Y7278D02*
X7385Y7656D01*
X6715Y7278D02*
X7007Y7278D01*
X6531Y7094D02*
X6715Y7278D01*
X6214Y7094D02*
X6531Y7094D01*
X6060Y6940D02*
X6214Y7094D01*
X5735Y7137D02*
X6031Y7137D01*
X6031Y7137D02*
X6152Y7258D01*
X5735Y7137D02*
X6031Y7137D01*
X7066Y7568D02*
X7062Y7767D01*
X6939Y7440D02*
X7066Y7568D01*
X6633Y7440D02*
X6939Y7440D01*
X6451Y7258D02*
X6633Y7440D01*
X6152Y7258D02*
X6451Y7258D01*
X6031Y7137D02*
X6152Y7258D01*
X7062Y7767D02*
X7059Y7763D01*
X5735Y7334D02*
X5994Y7334D01*
X5994Y7334D02*
X6159Y7500D01*
X6342Y7500D02*
X6342Y7503D01*
X6338Y7500D02*
X6342Y7500D01*
X6159Y7500D02*
X6338Y7500D01*
X6618Y7755D02*
X6594Y7755D01*
X6594Y7755D02*
X6342Y7503D01*
X6153Y7795D02*
X6145Y7803D01*
X5484Y7803D02*
X5460Y7779D01*
X6145Y7803D02*
X5484Y7803D01*
X5460Y7609D02*
X5460Y7779D01*
X5527Y8098D02*
X5795Y8098D01*
X5263Y7834D02*
X5527Y8098D01*
X5263Y7609D02*
X5263Y7834D01*
X5066Y7609D02*
X5066Y7966D01*
X5066Y7966D02*
X5066Y7966D01*
X6070Y8393D02*
X6311Y8153D01*
X6311Y8153D02*
X6421Y8153D01*
X5493Y8393D02*
X6070Y8393D01*
X5066Y7609D02*
X5066Y7966D01*
X5066Y7966D02*
X5493Y8393D01*
X4870Y7609D02*
X4870Y7996D01*
X4870Y7996D02*
X4869Y7996D01*
X9602Y8685D02*
X9232Y8685D01*
X9232Y8685D02*
X9106Y8559D01*
X9106Y8559D02*
X5432Y8559D01*
X4869Y7996D02*
X5432Y8559D01*
X4869Y7996D02*
X4869Y7609D01*
X4869Y7609D02*
X4869Y7609D01*
X9106Y8559D02*
X9226Y8679D01*
X7594Y8559D02*
X5432Y8559D01*
X9106Y8559D02*
X7594Y8559D01*
X9226Y8679D02*
X9106Y8559D01*
X9226Y8679D02*
X9220Y8679D01*
X9220Y8679D02*
X9220Y8685D01*
X9863Y8424D02*
X9863Y2390D01*
X9220Y8685D02*
X9602Y8685D01*
X9602Y8685D02*
X9863Y8424D01*
X9602Y8685D02*
X9863Y8424D01*
X9863Y8424D02*
X9602Y8685D01*
G54D33*
X9863Y2390D02*
X9433Y1960D01*
G54D32*
X5066Y4893D02*
X5066Y4421D01*
X5066Y4421D02*
X4937Y4291D01*
X5066Y4893D02*
X5066Y4421D01*
X5066Y4421D02*
X4937Y4291D01*
X3019Y6153D02*
X2503Y6153D01*
X2503Y6153D02*
X2090Y5740D01*
X1736Y3755D02*
X1606Y3885D01*
X1606Y3885D02*
X1606Y5574D01*
X1606Y5574D02*
X1772Y5740D01*
X1772Y5740D02*
X2090Y5740D01*
X2090Y5740D02*
X2504Y6153D01*
X2504Y6153D02*
X3019Y6153D01*
X3688Y7609D02*
X3688Y8044D01*
X3688Y8044D02*
X3688Y8044D01*
X3688Y7609D02*
X3688Y8044D01*
X4295Y1346D02*
X4062Y1578D01*
X4062Y1578D02*
X3820Y1578D01*
X5102Y2861D02*
X5102Y2153D01*
X4295Y1346D02*
X4295Y736D01*
X5102Y2153D02*
X4295Y1346D01*
X2259Y1452D02*
X2389Y1582D01*
G54D33*
X1921Y1114D02*
X2259Y1452D01*
G54D32*
X2389Y1582D02*
X3816Y1582D01*
X3816Y1582D02*
X3820Y1578D01*
X3688Y4893D02*
X3688Y4606D01*
X3688Y4606D02*
X3688Y4606D01*
X9480Y523D02*
X8751Y1251D01*
X9543Y523D02*
X9480Y523D01*
X8751Y2370D02*
X8751Y1251D01*
G54D33*
X2365Y2315D02*
X2164Y2114D01*
X2164Y2114D02*
X1921Y2114D01*
G54D32*
X2744Y2694D02*
X2365Y2315D01*
X3688Y4893D02*
X3688Y4606D01*
X3247Y4164D02*
X3688Y4606D01*
X3247Y3382D02*
X3247Y4164D01*
X3341Y3288D02*
X3247Y3382D01*
X3341Y2940D02*
X3341Y3288D01*
X3095Y2694D02*
X3341Y2940D01*
X2744Y2694D02*
X3095Y2694D01*
X3019Y6547D02*
X2043Y6547D01*
X2043Y6547D02*
X1960Y6629D01*
X3019Y6546D02*
X2043Y6546D01*
X2043Y6546D02*
X1960Y6629D01*
X2043Y6546D02*
X1960Y6629D01*
X3019Y6350D02*
X2137Y6350D01*
X2137Y6350D02*
X1716Y5929D01*
X1434Y5646D02*
X1434Y2557D01*
G54D33*
X1174Y2297D02*
X837Y1960D01*
G54D32*
X1434Y2557D02*
X1174Y2297D01*
G54D33*
X837Y1960D02*
X771Y1960D01*
G54D32*
X1434Y5646D02*
X1716Y5929D01*
X5263Y4893D02*
X5263Y4066D01*
X5263Y4066D02*
X5401Y3929D01*
X5263Y4066D02*
X5401Y3929D01*
X5263Y4893D02*
X5263Y4066D01*
X3019Y5956D02*
X2712Y5956D01*
X2712Y5956D02*
X1921Y5165D01*
X1921Y4527D02*
X1921Y5165D01*
G54D10*
G36*
X4877Y10626D02*
X4265Y10626D01*
X4200Y10613D01*
X4145Y10576D01*
X4136Y10566D01*
X3677Y10566D01*
X3673Y9913D01*
X2155Y9913D01*
X3137Y10763D01*
X4748Y10763D01*
X4767Y10763D01*
X4877Y10763D01*
X4877Y10626D01*
X4877Y10626D01*
G37*
X4877Y10626D02*
X4265Y10626D01*
X4200Y10613D01*
X4145Y10576D01*
X4136Y10566D01*
X3677Y10566D01*
X3673Y9913D01*
X2155Y9913D01*
X3137Y10763D01*
X4748Y10763D01*
X4767Y10763D01*
X4877Y10763D01*
X4877Y10626D01*
G36*
X8709Y8721D02*
X5028Y8721D01*
X5028Y8834D01*
X5028Y8991D01*
X5157Y8991D01*
X8615Y8991D01*
X8615Y8886D01*
X8666Y8764D01*
X8709Y8721D01*
X8709Y8721D01*
G37*
G54D32*
X8709Y8721D02*
X5028Y8721D01*
X5028Y8834D01*
X5028Y8991D01*
X5157Y8991D01*
X8615Y8991D01*
X8615Y8886D01*
X8666Y8764D01*
X8709Y8721D01*
M02*
