G04 (created by PCBNEW (2013-mar-13)-testing) date Fri 18 Oct 2013 08:49:45 EST*
%MOIN*%
G04 Gerber Fmt 3.4, Leading zero omitted, Abs format*
%FSLAX34Y34*%
G01*
G70*
G90*
G04 APERTURE LIST*
%ADD10C,0.005000*%
%ADD11C,0.005906*%
%ADD12C,0.007874*%
%ADD13C,0.011811*%
G04 APERTURE END LIST*
G54D10*
G54D11*
X110Y94D02*
X47Y94D01*
X7161Y11019D02*
X7204Y11019D01*
X10114Y94D02*
X10161Y94D01*
X3019Y11019D02*
X47Y8456D01*
X47Y8456D02*
X47Y94D01*
X10161Y8468D02*
X10161Y94D01*
X78Y94D02*
X10122Y94D01*
X7204Y11019D02*
X10161Y8468D01*
X3015Y11019D02*
X7165Y11019D01*
G54D12*
X1487Y7503D02*
X1737Y7253D01*
X1737Y7503D02*
X1487Y7253D01*
X1619Y3936D02*
X1869Y3686D01*
X1869Y3936D02*
X1619Y3686D01*
X1804Y4707D02*
X2054Y4457D01*
X2054Y4707D02*
X1804Y4457D01*
X1843Y6810D02*
X2093Y6560D01*
X2093Y6810D02*
X1843Y6560D01*
X2013Y7244D02*
X2263Y6994D01*
X2263Y7244D02*
X2013Y6994D01*
X2520Y3774D02*
X2770Y3524D01*
X2770Y3774D02*
X2520Y3524D01*
X3304Y10786D02*
X3554Y10536D01*
X3554Y10786D02*
X3304Y10536D01*
X3469Y10471D02*
X3719Y10221D01*
X3719Y10471D02*
X3469Y10221D01*
X3469Y9770D02*
X3719Y9520D01*
X3719Y9770D02*
X3469Y9520D01*
X3469Y9069D02*
X3719Y8819D01*
X3719Y9069D02*
X3469Y8819D01*
X3571Y8224D02*
X3821Y7974D01*
X3821Y8224D02*
X3571Y7974D01*
X3658Y10774D02*
X3908Y10524D01*
X3908Y10774D02*
X3658Y10524D01*
X3721Y3656D02*
X3971Y3406D01*
X3971Y3656D02*
X3721Y3406D01*
X3855Y8554D02*
X4105Y8304D01*
X4105Y8554D02*
X3855Y8304D01*
X4032Y3955D02*
X4282Y3705D01*
X4282Y3955D02*
X4032Y3705D01*
X4090Y3294D02*
X4340Y3044D01*
X4340Y3294D02*
X4090Y3044D01*
X4563Y4089D02*
X4813Y3839D01*
X4813Y4089D02*
X4563Y3839D01*
X4819Y4471D02*
X5069Y4221D01*
X5069Y4471D02*
X4819Y4221D01*
X5044Y9034D02*
X5294Y8784D01*
X5294Y9034D02*
X5044Y8784D01*
X5284Y4109D02*
X5534Y3859D01*
X5534Y4109D02*
X5284Y3859D01*
X5678Y8278D02*
X5928Y8028D01*
X5928Y8278D02*
X5678Y8028D01*
X5752Y9034D02*
X6002Y8784D01*
X6002Y9034D02*
X5752Y8784D01*
X6036Y7975D02*
X6286Y7725D01*
X6286Y7975D02*
X6036Y7725D01*
X6162Y4900D02*
X6412Y4650D01*
X6412Y4900D02*
X6162Y4650D01*
X6304Y8333D02*
X6554Y8083D01*
X6554Y8333D02*
X6304Y8083D01*
X6323Y6813D02*
X6573Y6563D01*
X6573Y6813D02*
X6323Y6563D01*
X6418Y5841D02*
X6668Y5591D01*
X6668Y5841D02*
X6418Y5591D01*
X6461Y9034D02*
X6711Y8784D01*
X6711Y9034D02*
X6461Y8784D01*
X6500Y7936D02*
X6750Y7686D01*
X6750Y7936D02*
X6500Y7686D01*
X6548Y4443D02*
X6798Y4193D01*
X6798Y4443D02*
X6548Y4193D01*
X6737Y8329D02*
X6987Y8079D01*
X6987Y8329D02*
X6737Y8079D01*
X6945Y7947D02*
X7195Y7697D01*
X7195Y7947D02*
X6945Y7697D01*
X7170Y9034D02*
X7420Y8784D01*
X7420Y9034D02*
X7170Y8784D01*
X7304Y904D02*
X7554Y654D01*
X7554Y904D02*
X7304Y654D01*
X7312Y1498D02*
X7562Y1248D01*
X7562Y1498D02*
X7312Y1248D01*
X7524Y4916D02*
X7774Y4666D01*
X7774Y4916D02*
X7524Y4666D01*
X7878Y9034D02*
X8128Y8784D01*
X8128Y9034D02*
X7878Y8784D01*
X8587Y9034D02*
X8837Y8784D01*
X8837Y9034D02*
X8587Y8784D01*
X9426Y703D02*
X9676Y453D01*
X9676Y703D02*
X9426Y453D01*
X4523Y6307D02*
G75*
G03X4523Y6307I-137J0D01*
G74*
G01*
X5248Y1145D02*
G75*
G03X5248Y1145I-137J0D01*
G74*
G01*
X5251Y437D02*
G75*
G03X5251Y437I-137J0D01*
G74*
G01*
X779Y8474D02*
X779Y8154D01*
X619Y8314D02*
X939Y8314D01*
X779Y7687D02*
X779Y7367D01*
X619Y7527D02*
X939Y7527D01*
X779Y6899D02*
X779Y6579D01*
X619Y6739D02*
X939Y6739D01*
X779Y6112D02*
X779Y5792D01*
X619Y5952D02*
X939Y5952D01*
X779Y5324D02*
X779Y5004D01*
X619Y5164D02*
X939Y5164D01*
X779Y4537D02*
X779Y4217D01*
X619Y4377D02*
X939Y4377D01*
X779Y3750D02*
X779Y3430D01*
X619Y3590D02*
X939Y3590D01*
X779Y2962D02*
X779Y2642D01*
X619Y2802D02*
X939Y2802D01*
X779Y2175D02*
X779Y1855D01*
X619Y2015D02*
X939Y2015D01*
X779Y1387D02*
X779Y1067D01*
X619Y1227D02*
X939Y1227D01*
X9441Y8474D02*
X9441Y8154D01*
X9281Y8314D02*
X9601Y8314D01*
X9441Y7687D02*
X9441Y7367D01*
X9281Y7527D02*
X9601Y7527D01*
X9441Y6899D02*
X9441Y6579D01*
X9281Y6739D02*
X9601Y6739D01*
X9441Y6112D02*
X9441Y5792D01*
X9281Y5952D02*
X9601Y5952D01*
X9441Y5324D02*
X9441Y5004D01*
X9281Y5164D02*
X9601Y5164D01*
X9441Y4537D02*
X9441Y4217D01*
X9281Y4377D02*
X9601Y4377D01*
X9441Y3750D02*
X9441Y3430D01*
X9281Y3590D02*
X9601Y3590D01*
X9441Y2962D02*
X9441Y2642D01*
X9281Y2802D02*
X9601Y2802D01*
X9441Y2175D02*
X9441Y1855D01*
X9281Y2015D02*
X9601Y2015D01*
X9441Y1387D02*
X9441Y1067D01*
X9281Y1227D02*
X9601Y1227D01*
X2070Y3027D02*
X2070Y3310D01*
X1787Y3310D01*
X1787Y3027D01*
X2070Y3027D01*
X2070Y2027D02*
X2070Y2310D01*
X1787Y2310D01*
X1787Y2027D01*
X2070Y2027D01*
X2070Y1027D02*
X2070Y1310D01*
X1787Y1310D01*
X1787Y1027D01*
X2070Y1027D01*
X3070Y3027D02*
X3070Y3310D01*
X2787Y3310D01*
X2787Y3027D01*
X3070Y3027D01*
X3070Y2027D02*
X3070Y2310D01*
X2787Y2310D01*
X2787Y2027D01*
X3070Y2027D01*
X3070Y1027D02*
X3070Y1310D01*
X2787Y1310D01*
X2787Y1027D01*
X3070Y1027D01*
G54D13*
X1086Y-1768D02*
X1086Y-587D01*
X1367Y-587D01*
X1536Y-643D01*
X1648Y-756D01*
X1705Y-868D01*
X1761Y-1093D01*
X1761Y-1262D01*
X1705Y-1487D01*
X1648Y-1599D01*
X1536Y-1712D01*
X1367Y-1768D01*
X1086Y-1768D01*
X2267Y-1768D02*
X2267Y-981D01*
X2267Y-1206D02*
X2323Y-1093D01*
X2379Y-1037D01*
X2492Y-981D01*
X2604Y-981D01*
X2998Y-1768D02*
X2998Y-981D01*
X2998Y-587D02*
X2942Y-643D01*
X2998Y-699D01*
X3054Y-643D01*
X2998Y-587D01*
X2998Y-699D01*
X3729Y-1768D02*
X3617Y-1712D01*
X3561Y-1599D01*
X3561Y-587D01*
X4348Y-1768D02*
X4235Y-1712D01*
X4179Y-1599D01*
X4179Y-587D01*
X5698Y-1768D02*
X5698Y-587D01*
X6091Y-1431D01*
X6485Y-587D01*
X6485Y-1768D01*
X7554Y-1768D02*
X7554Y-1149D01*
X7498Y-1037D01*
X7385Y-981D01*
X7160Y-981D01*
X7048Y-1037D01*
X7554Y-1712D02*
X7441Y-1768D01*
X7160Y-1768D01*
X7048Y-1712D01*
X6991Y-1599D01*
X6991Y-1487D01*
X7048Y-1374D01*
X7160Y-1318D01*
X7441Y-1318D01*
X7554Y-1262D01*
X8116Y-981D02*
X8116Y-2162D01*
X8116Y-1037D02*
X8229Y-981D01*
X8454Y-981D01*
X8566Y-1037D01*
X8622Y-1093D01*
X8679Y-1206D01*
X8679Y-1543D01*
X8622Y-1656D01*
X8566Y-1712D01*
X8454Y-1768D01*
X8229Y-1768D01*
X8116Y-1712D01*
X9185Y-1656D02*
X9241Y-1712D01*
X9185Y-1768D01*
X9129Y-1712D01*
X9185Y-1656D01*
X9185Y-1768D01*
X9185Y-1037D02*
X9241Y-1093D01*
X9185Y-1149D01*
X9129Y-1093D01*
X9185Y-1037D01*
X9185Y-1149D01*
X-232Y-3589D02*
X17Y-3839D01*
X17Y-3589D02*
X-232Y-3839D01*
X1311Y-3067D02*
X1423Y-3067D01*
X1536Y-3124D01*
X1592Y-3180D01*
X1648Y-3292D01*
X1705Y-3517D01*
X1705Y-3798D01*
X1648Y-4023D01*
X1592Y-4136D01*
X1536Y-4192D01*
X1423Y-4248D01*
X1311Y-4248D01*
X1198Y-4192D01*
X1142Y-4136D01*
X1086Y-4023D01*
X1030Y-3798D01*
X1030Y-3517D01*
X1086Y-3292D01*
X1142Y-3180D01*
X1198Y-3124D01*
X1311Y-3067D01*
X2211Y-4136D02*
X2267Y-4192D01*
X2211Y-4248D01*
X2154Y-4192D01*
X2211Y-4136D01*
X2211Y-4248D01*
X3279Y-3067D02*
X3054Y-3067D01*
X2942Y-3124D01*
X2886Y-3180D01*
X2773Y-3348D01*
X2717Y-3573D01*
X2717Y-4023D01*
X2773Y-4136D01*
X2829Y-4192D01*
X2942Y-4248D01*
X3167Y-4248D01*
X3279Y-4192D01*
X3336Y-4136D01*
X3392Y-4023D01*
X3392Y-3742D01*
X3336Y-3630D01*
X3279Y-3573D01*
X3167Y-3517D01*
X2942Y-3517D01*
X2829Y-3573D01*
X2773Y-3630D01*
X2717Y-3742D01*
X4404Y-3461D02*
X4404Y-4248D01*
X4123Y-3011D02*
X3842Y-3855D01*
X4573Y-3855D01*
X5023Y-4248D02*
X5023Y-3461D01*
X5023Y-3573D02*
X5079Y-3517D01*
X5192Y-3461D01*
X5360Y-3461D01*
X5473Y-3517D01*
X5529Y-3630D01*
X5529Y-4248D01*
X5529Y-3630D02*
X5585Y-3517D01*
X5698Y-3461D01*
X5866Y-3461D01*
X5979Y-3517D01*
X6035Y-3630D01*
X6035Y-4248D01*
X6598Y-4248D02*
X6598Y-3461D01*
X6598Y-3573D02*
X6654Y-3517D01*
X6766Y-3461D01*
X6935Y-3461D01*
X7048Y-3517D01*
X7104Y-3630D01*
X7104Y-4248D01*
X7104Y-3630D02*
X7160Y-3517D01*
X7273Y-3461D01*
X7441Y-3461D01*
X7554Y-3517D01*
X7610Y-3630D01*
X7610Y-4248D01*
X9916Y-3011D02*
X8904Y-4530D01*
X11435Y-3067D02*
X11547Y-3067D01*
X11660Y-3124D01*
X11716Y-3180D01*
X11772Y-3292D01*
X11828Y-3517D01*
X11828Y-3798D01*
X11772Y-4023D01*
X11716Y-4136D01*
X11660Y-4192D01*
X11547Y-4248D01*
X11435Y-4248D01*
X11322Y-4192D01*
X11266Y-4136D01*
X11210Y-4023D01*
X11153Y-3798D01*
X11153Y-3517D01*
X11210Y-3292D01*
X11266Y-3180D01*
X11322Y-3124D01*
X11435Y-3067D01*
X12334Y-4136D02*
X12391Y-4192D01*
X12334Y-4248D01*
X12278Y-4192D01*
X12334Y-4136D01*
X12334Y-4248D01*
X13122Y-3067D02*
X13234Y-3067D01*
X13347Y-3124D01*
X13403Y-3180D01*
X13459Y-3292D01*
X13516Y-3517D01*
X13516Y-3798D01*
X13459Y-4023D01*
X13403Y-4136D01*
X13347Y-4192D01*
X13234Y-4248D01*
X13122Y-4248D01*
X13009Y-4192D01*
X12953Y-4136D01*
X12897Y-4023D01*
X12841Y-3798D01*
X12841Y-3517D01*
X12897Y-3292D01*
X12953Y-3180D01*
X13009Y-3124D01*
X13122Y-3067D01*
X13965Y-3180D02*
X14022Y-3124D01*
X14134Y-3067D01*
X14415Y-3067D01*
X14528Y-3124D01*
X14584Y-3180D01*
X14640Y-3292D01*
X14640Y-3405D01*
X14584Y-3573D01*
X13909Y-4248D01*
X14640Y-4248D01*
X15709Y-3067D02*
X15147Y-3067D01*
X15090Y-3630D01*
X15147Y-3573D01*
X15259Y-3517D01*
X15540Y-3517D01*
X15653Y-3573D01*
X15709Y-3630D01*
X15765Y-3742D01*
X15765Y-4023D01*
X15709Y-4136D01*
X15653Y-4192D01*
X15540Y-4248D01*
X15259Y-4248D01*
X15147Y-4192D01*
X15090Y-4136D01*
X16215Y-3067D02*
X16215Y-3292D01*
X16665Y-3067D02*
X16665Y-3292D01*
X18409Y-4698D02*
X18352Y-4642D01*
X18240Y-4473D01*
X18184Y-4361D01*
X18127Y-4192D01*
X18071Y-3911D01*
X18071Y-3686D01*
X18127Y-3405D01*
X18184Y-3236D01*
X18240Y-3124D01*
X18352Y-2955D01*
X18409Y-2899D01*
X18746Y-3067D02*
X19477Y-3067D01*
X19084Y-3517D01*
X19252Y-3517D01*
X19365Y-3573D01*
X19421Y-3630D01*
X19477Y-3742D01*
X19477Y-4023D01*
X19421Y-4136D01*
X19365Y-4192D01*
X19252Y-4248D01*
X18915Y-4248D01*
X18802Y-4192D01*
X18746Y-4136D01*
X20040Y-4248D02*
X20265Y-4248D01*
X20377Y-4192D01*
X20433Y-4136D01*
X20546Y-3967D01*
X20602Y-3742D01*
X20602Y-3292D01*
X20546Y-3180D01*
X20490Y-3124D01*
X20377Y-3067D01*
X20152Y-3067D01*
X20040Y-3124D01*
X19983Y-3180D01*
X19927Y-3292D01*
X19927Y-3573D01*
X19983Y-3686D01*
X20040Y-3742D01*
X20152Y-3798D01*
X20377Y-3798D01*
X20490Y-3742D01*
X20546Y-3686D01*
X20602Y-3573D01*
X22008Y-4248D02*
X22008Y-3067D01*
X22514Y-4248D02*
X22514Y-3630D01*
X22458Y-3517D01*
X22346Y-3461D01*
X22177Y-3461D01*
X22064Y-3517D01*
X22008Y-3573D01*
X23246Y-4248D02*
X23133Y-4192D01*
X23077Y-4136D01*
X23021Y-4023D01*
X23021Y-3686D01*
X23077Y-3573D01*
X23133Y-3517D01*
X23246Y-3461D01*
X23414Y-3461D01*
X23527Y-3517D01*
X23583Y-3573D01*
X23639Y-3686D01*
X23639Y-4023D01*
X23583Y-4136D01*
X23527Y-4192D01*
X23414Y-4248D01*
X23246Y-4248D01*
X24314Y-4248D02*
X24202Y-4192D01*
X24145Y-4080D01*
X24145Y-3067D01*
X25214Y-4192D02*
X25102Y-4248D01*
X24877Y-4248D01*
X24764Y-4192D01*
X24708Y-4080D01*
X24708Y-3630D01*
X24764Y-3517D01*
X24877Y-3461D01*
X25102Y-3461D01*
X25214Y-3517D01*
X25270Y-3630D01*
X25270Y-3742D01*
X24708Y-3855D01*
X25720Y-4192D02*
X25833Y-4248D01*
X26058Y-4248D01*
X26170Y-4192D01*
X26226Y-4080D01*
X26226Y-4023D01*
X26170Y-3911D01*
X26058Y-3855D01*
X25889Y-3855D01*
X25776Y-3798D01*
X25720Y-3686D01*
X25720Y-3630D01*
X25776Y-3517D01*
X25889Y-3461D01*
X26058Y-3461D01*
X26170Y-3517D01*
X26620Y-4698D02*
X26676Y-4642D01*
X26789Y-4473D01*
X26845Y-4361D01*
X26901Y-4192D01*
X26958Y-3911D01*
X26958Y-3686D01*
X26901Y-3405D01*
X26845Y-3236D01*
X26789Y-3124D01*
X26676Y-2955D01*
X26620Y-2899D01*
G54D12*
X17Y-5273D02*
G75*
G03X17Y-5273I-137J0D01*
G74*
G01*
G54D13*
X1311Y-4626D02*
X1423Y-4626D01*
X1536Y-4683D01*
X1592Y-4739D01*
X1648Y-4851D01*
X1705Y-5076D01*
X1705Y-5357D01*
X1648Y-5582D01*
X1592Y-5695D01*
X1536Y-5751D01*
X1423Y-5807D01*
X1311Y-5807D01*
X1198Y-5751D01*
X1142Y-5695D01*
X1086Y-5582D01*
X1030Y-5357D01*
X1030Y-5076D01*
X1086Y-4851D01*
X1142Y-4739D01*
X1198Y-4683D01*
X1311Y-4626D01*
X2211Y-5695D02*
X2267Y-5751D01*
X2211Y-5807D01*
X2154Y-5751D01*
X2211Y-5695D01*
X2211Y-5807D01*
X2661Y-4626D02*
X3448Y-4626D01*
X2942Y-5807D01*
X4123Y-4626D02*
X4235Y-4626D01*
X4348Y-4683D01*
X4404Y-4739D01*
X4460Y-4851D01*
X4517Y-5076D01*
X4517Y-5357D01*
X4460Y-5582D01*
X4404Y-5695D01*
X4348Y-5751D01*
X4235Y-5807D01*
X4123Y-5807D01*
X4010Y-5751D01*
X3954Y-5695D01*
X3898Y-5582D01*
X3842Y-5357D01*
X3842Y-5076D01*
X3898Y-4851D01*
X3954Y-4739D01*
X4010Y-4683D01*
X4123Y-4626D01*
X5023Y-5807D02*
X5023Y-5020D01*
X5023Y-5133D02*
X5079Y-5076D01*
X5192Y-5020D01*
X5360Y-5020D01*
X5473Y-5076D01*
X5529Y-5189D01*
X5529Y-5807D01*
X5529Y-5189D02*
X5585Y-5076D01*
X5698Y-5020D01*
X5866Y-5020D01*
X5979Y-5076D01*
X6035Y-5189D01*
X6035Y-5807D01*
X6598Y-5807D02*
X6598Y-5020D01*
X6598Y-5133D02*
X6654Y-5076D01*
X6766Y-5020D01*
X6935Y-5020D01*
X7048Y-5076D01*
X7104Y-5189D01*
X7104Y-5807D01*
X7104Y-5189D02*
X7160Y-5076D01*
X7273Y-5020D01*
X7441Y-5020D01*
X7554Y-5076D01*
X7610Y-5189D01*
X7610Y-5807D01*
X9916Y-4570D02*
X8904Y-6089D01*
X11435Y-4626D02*
X11547Y-4626D01*
X11660Y-4683D01*
X11716Y-4739D01*
X11772Y-4851D01*
X11828Y-5076D01*
X11828Y-5357D01*
X11772Y-5582D01*
X11716Y-5695D01*
X11660Y-5751D01*
X11547Y-5807D01*
X11435Y-5807D01*
X11322Y-5751D01*
X11266Y-5695D01*
X11210Y-5582D01*
X11153Y-5357D01*
X11153Y-5076D01*
X11210Y-4851D01*
X11266Y-4739D01*
X11322Y-4683D01*
X11435Y-4626D01*
X12334Y-5695D02*
X12391Y-5751D01*
X12334Y-5807D01*
X12278Y-5751D01*
X12334Y-5695D01*
X12334Y-5807D01*
X13122Y-4626D02*
X13234Y-4626D01*
X13347Y-4683D01*
X13403Y-4739D01*
X13459Y-4851D01*
X13516Y-5076D01*
X13516Y-5357D01*
X13459Y-5582D01*
X13403Y-5695D01*
X13347Y-5751D01*
X13234Y-5807D01*
X13122Y-5807D01*
X13009Y-5751D01*
X12953Y-5695D01*
X12897Y-5582D01*
X12841Y-5357D01*
X12841Y-5076D01*
X12897Y-4851D01*
X12953Y-4739D01*
X13009Y-4683D01*
X13122Y-4626D01*
X13965Y-4739D02*
X14022Y-4683D01*
X14134Y-4626D01*
X14415Y-4626D01*
X14528Y-4683D01*
X14584Y-4739D01*
X14640Y-4851D01*
X14640Y-4964D01*
X14584Y-5133D01*
X13909Y-5807D01*
X14640Y-5807D01*
X15315Y-5133D02*
X15203Y-5076D01*
X15147Y-5020D01*
X15090Y-4908D01*
X15090Y-4851D01*
X15147Y-4739D01*
X15203Y-4683D01*
X15315Y-4626D01*
X15540Y-4626D01*
X15653Y-4683D01*
X15709Y-4739D01*
X15765Y-4851D01*
X15765Y-4908D01*
X15709Y-5020D01*
X15653Y-5076D01*
X15540Y-5133D01*
X15315Y-5133D01*
X15203Y-5189D01*
X15147Y-5245D01*
X15090Y-5357D01*
X15090Y-5582D01*
X15147Y-5695D01*
X15203Y-5751D01*
X15315Y-5807D01*
X15540Y-5807D01*
X15653Y-5751D01*
X15709Y-5695D01*
X15765Y-5582D01*
X15765Y-5357D01*
X15709Y-5245D01*
X15653Y-5189D01*
X15540Y-5133D01*
X16215Y-4626D02*
X16215Y-4851D01*
X16665Y-4626D02*
X16665Y-4851D01*
X18409Y-6257D02*
X18352Y-6201D01*
X18240Y-6032D01*
X18184Y-5920D01*
X18127Y-5751D01*
X18071Y-5470D01*
X18071Y-5245D01*
X18127Y-4964D01*
X18184Y-4795D01*
X18240Y-4683D01*
X18352Y-4514D01*
X18409Y-4458D01*
X18746Y-4626D02*
X19477Y-4626D01*
X19084Y-5076D01*
X19252Y-5076D01*
X19365Y-5133D01*
X19421Y-5189D01*
X19477Y-5301D01*
X19477Y-5582D01*
X19421Y-5695D01*
X19365Y-5751D01*
X19252Y-5807D01*
X18915Y-5807D01*
X18802Y-5751D01*
X18746Y-5695D01*
X20883Y-5807D02*
X20883Y-4626D01*
X21390Y-5807D02*
X21390Y-5189D01*
X21333Y-5076D01*
X21221Y-5020D01*
X21052Y-5020D01*
X20940Y-5076D01*
X20883Y-5133D01*
X22121Y-5807D02*
X22008Y-5751D01*
X21952Y-5695D01*
X21896Y-5582D01*
X21896Y-5245D01*
X21952Y-5133D01*
X22008Y-5076D01*
X22121Y-5020D01*
X22289Y-5020D01*
X22402Y-5076D01*
X22458Y-5133D01*
X22514Y-5245D01*
X22514Y-5582D01*
X22458Y-5695D01*
X22402Y-5751D01*
X22289Y-5807D01*
X22121Y-5807D01*
X23189Y-5807D02*
X23077Y-5751D01*
X23021Y-5639D01*
X23021Y-4626D01*
X24089Y-5751D02*
X23977Y-5807D01*
X23752Y-5807D01*
X23639Y-5751D01*
X23583Y-5639D01*
X23583Y-5189D01*
X23639Y-5076D01*
X23752Y-5020D01*
X23977Y-5020D01*
X24089Y-5076D01*
X24145Y-5189D01*
X24145Y-5301D01*
X23583Y-5414D01*
X24595Y-5751D02*
X24708Y-5807D01*
X24933Y-5807D01*
X25045Y-5751D01*
X25102Y-5639D01*
X25102Y-5582D01*
X25045Y-5470D01*
X24933Y-5414D01*
X24764Y-5414D01*
X24652Y-5357D01*
X24595Y-5245D01*
X24595Y-5189D01*
X24652Y-5076D01*
X24764Y-5020D01*
X24933Y-5020D01*
X25045Y-5076D01*
X25495Y-6257D02*
X25552Y-6201D01*
X25664Y-6032D01*
X25720Y-5920D01*
X25776Y-5751D01*
X25833Y-5470D01*
X25833Y-5245D01*
X25776Y-4964D01*
X25720Y-4795D01*
X25664Y-4683D01*
X25552Y-4514D01*
X25495Y-4458D01*
X-142Y-6672D02*
X-142Y-6992D01*
X-302Y-6832D02*
X17Y-6832D01*
X1311Y-6185D02*
X1423Y-6185D01*
X1536Y-6242D01*
X1592Y-6298D01*
X1648Y-6410D01*
X1705Y-6635D01*
X1705Y-6917D01*
X1648Y-7142D01*
X1592Y-7254D01*
X1536Y-7310D01*
X1423Y-7366D01*
X1311Y-7366D01*
X1198Y-7310D01*
X1142Y-7254D01*
X1086Y-7142D01*
X1030Y-6917D01*
X1030Y-6635D01*
X1086Y-6410D01*
X1142Y-6298D01*
X1198Y-6242D01*
X1311Y-6185D01*
X2211Y-7254D02*
X2267Y-7310D01*
X2211Y-7366D01*
X2154Y-7310D01*
X2211Y-7254D01*
X2211Y-7366D01*
X2942Y-6692D02*
X2829Y-6635D01*
X2773Y-6579D01*
X2717Y-6467D01*
X2717Y-6410D01*
X2773Y-6298D01*
X2829Y-6242D01*
X2942Y-6185D01*
X3167Y-6185D01*
X3279Y-6242D01*
X3336Y-6298D01*
X3392Y-6410D01*
X3392Y-6467D01*
X3336Y-6579D01*
X3279Y-6635D01*
X3167Y-6692D01*
X2942Y-6692D01*
X2829Y-6748D01*
X2773Y-6804D01*
X2717Y-6917D01*
X2717Y-7142D01*
X2773Y-7254D01*
X2829Y-7310D01*
X2942Y-7366D01*
X3167Y-7366D01*
X3279Y-7310D01*
X3336Y-7254D01*
X3392Y-7142D01*
X3392Y-6917D01*
X3336Y-6804D01*
X3279Y-6748D01*
X3167Y-6692D01*
X4517Y-7366D02*
X3842Y-7366D01*
X4179Y-7366D02*
X4179Y-6185D01*
X4067Y-6354D01*
X3954Y-6467D01*
X3842Y-6523D01*
X5023Y-7366D02*
X5023Y-6579D01*
X5023Y-6692D02*
X5079Y-6635D01*
X5192Y-6579D01*
X5360Y-6579D01*
X5473Y-6635D01*
X5529Y-6748D01*
X5529Y-7366D01*
X5529Y-6748D02*
X5585Y-6635D01*
X5698Y-6579D01*
X5866Y-6579D01*
X5979Y-6635D01*
X6035Y-6748D01*
X6035Y-7366D01*
X6598Y-7366D02*
X6598Y-6579D01*
X6598Y-6692D02*
X6654Y-6635D01*
X6766Y-6579D01*
X6935Y-6579D01*
X7048Y-6635D01*
X7104Y-6748D01*
X7104Y-7366D01*
X7104Y-6748D02*
X7160Y-6635D01*
X7273Y-6579D01*
X7441Y-6579D01*
X7554Y-6635D01*
X7610Y-6748D01*
X7610Y-7366D01*
X9916Y-6129D02*
X8904Y-7648D01*
X11435Y-6185D02*
X11547Y-6185D01*
X11660Y-6242D01*
X11716Y-6298D01*
X11772Y-6410D01*
X11828Y-6635D01*
X11828Y-6917D01*
X11772Y-7142D01*
X11716Y-7254D01*
X11660Y-7310D01*
X11547Y-7366D01*
X11435Y-7366D01*
X11322Y-7310D01*
X11266Y-7254D01*
X11210Y-7142D01*
X11153Y-6917D01*
X11153Y-6635D01*
X11210Y-6410D01*
X11266Y-6298D01*
X11322Y-6242D01*
X11435Y-6185D01*
X12334Y-7254D02*
X12391Y-7310D01*
X12334Y-7366D01*
X12278Y-7310D01*
X12334Y-7254D01*
X12334Y-7366D01*
X13122Y-6185D02*
X13234Y-6185D01*
X13347Y-6242D01*
X13403Y-6298D01*
X13459Y-6410D01*
X13516Y-6635D01*
X13516Y-6917D01*
X13459Y-7142D01*
X13403Y-7254D01*
X13347Y-7310D01*
X13234Y-7366D01*
X13122Y-7366D01*
X13009Y-7310D01*
X12953Y-7254D01*
X12897Y-7142D01*
X12841Y-6917D01*
X12841Y-6635D01*
X12897Y-6410D01*
X12953Y-6298D01*
X13009Y-6242D01*
X13122Y-6185D01*
X13909Y-6185D02*
X14640Y-6185D01*
X14247Y-6635D01*
X14415Y-6635D01*
X14528Y-6692D01*
X14584Y-6748D01*
X14640Y-6860D01*
X14640Y-7142D01*
X14584Y-7254D01*
X14528Y-7310D01*
X14415Y-7366D01*
X14078Y-7366D01*
X13965Y-7310D01*
X13909Y-7254D01*
X15090Y-6298D02*
X15147Y-6242D01*
X15259Y-6185D01*
X15540Y-6185D01*
X15653Y-6242D01*
X15709Y-6298D01*
X15765Y-6410D01*
X15765Y-6523D01*
X15709Y-6692D01*
X15034Y-7366D01*
X15765Y-7366D01*
X16215Y-6185D02*
X16215Y-6410D01*
X16665Y-6185D02*
X16665Y-6410D01*
X18409Y-7816D02*
X18352Y-7760D01*
X18240Y-7591D01*
X18184Y-7479D01*
X18127Y-7310D01*
X18071Y-7029D01*
X18071Y-6804D01*
X18127Y-6523D01*
X18184Y-6354D01*
X18240Y-6242D01*
X18352Y-6073D01*
X18409Y-6017D01*
X18802Y-6298D02*
X18859Y-6242D01*
X18971Y-6185D01*
X19252Y-6185D01*
X19365Y-6242D01*
X19421Y-6298D01*
X19477Y-6410D01*
X19477Y-6523D01*
X19421Y-6692D01*
X18746Y-7366D01*
X19477Y-7366D01*
X20208Y-6185D02*
X20321Y-6185D01*
X20433Y-6242D01*
X20490Y-6298D01*
X20546Y-6410D01*
X20602Y-6635D01*
X20602Y-6917D01*
X20546Y-7142D01*
X20490Y-7254D01*
X20433Y-7310D01*
X20321Y-7366D01*
X20208Y-7366D01*
X20096Y-7310D01*
X20040Y-7254D01*
X19983Y-7142D01*
X19927Y-6917D01*
X19927Y-6635D01*
X19983Y-6410D01*
X20040Y-6298D01*
X20096Y-6242D01*
X20208Y-6185D01*
X22008Y-7366D02*
X22008Y-6185D01*
X22514Y-7366D02*
X22514Y-6748D01*
X22458Y-6635D01*
X22346Y-6579D01*
X22177Y-6579D01*
X22064Y-6635D01*
X22008Y-6692D01*
X23246Y-7366D02*
X23133Y-7310D01*
X23077Y-7254D01*
X23021Y-7142D01*
X23021Y-6804D01*
X23077Y-6692D01*
X23133Y-6635D01*
X23246Y-6579D01*
X23414Y-6579D01*
X23527Y-6635D01*
X23583Y-6692D01*
X23639Y-6804D01*
X23639Y-7142D01*
X23583Y-7254D01*
X23527Y-7310D01*
X23414Y-7366D01*
X23246Y-7366D01*
X24314Y-7366D02*
X24202Y-7310D01*
X24145Y-7198D01*
X24145Y-6185D01*
X25214Y-7310D02*
X25102Y-7366D01*
X24877Y-7366D01*
X24764Y-7310D01*
X24708Y-7198D01*
X24708Y-6748D01*
X24764Y-6635D01*
X24877Y-6579D01*
X25102Y-6579D01*
X25214Y-6635D01*
X25270Y-6748D01*
X25270Y-6860D01*
X24708Y-6973D01*
X25720Y-7310D02*
X25833Y-7366D01*
X26058Y-7366D01*
X26170Y-7310D01*
X26226Y-7198D01*
X26226Y-7142D01*
X26170Y-7029D01*
X26058Y-6973D01*
X25889Y-6973D01*
X25776Y-6917D01*
X25720Y-6804D01*
X25720Y-6748D01*
X25776Y-6635D01*
X25889Y-6579D01*
X26058Y-6579D01*
X26170Y-6635D01*
X26620Y-7816D02*
X26676Y-7760D01*
X26789Y-7591D01*
X26845Y-7479D01*
X26901Y-7310D01*
X26958Y-7029D01*
X26958Y-6804D01*
X26901Y-6523D01*
X26845Y-6354D01*
X26789Y-6242D01*
X26676Y-6073D01*
X26620Y-6017D01*
G54D12*
X-40Y-8533D02*
X-40Y-8250D01*
X-323Y-8250D01*
X-323Y-8533D01*
X-40Y-8533D01*
G54D13*
X1705Y-8926D02*
X1030Y-8926D01*
X1367Y-8926D02*
X1367Y-7744D01*
X1255Y-7913D01*
X1142Y-8026D01*
X1030Y-8082D01*
X2211Y-8813D02*
X2267Y-8869D01*
X2211Y-8926D01*
X2154Y-8869D01*
X2211Y-8813D01*
X2211Y-8926D01*
X2998Y-7744D02*
X3111Y-7744D01*
X3223Y-7801D01*
X3279Y-7857D01*
X3336Y-7969D01*
X3392Y-8194D01*
X3392Y-8476D01*
X3336Y-8701D01*
X3279Y-8813D01*
X3223Y-8869D01*
X3111Y-8926D01*
X2998Y-8926D01*
X2886Y-8869D01*
X2829Y-8813D01*
X2773Y-8701D01*
X2717Y-8476D01*
X2717Y-8194D01*
X2773Y-7969D01*
X2829Y-7857D01*
X2886Y-7801D01*
X2998Y-7744D01*
X3842Y-7857D02*
X3898Y-7801D01*
X4010Y-7744D01*
X4292Y-7744D01*
X4404Y-7801D01*
X4460Y-7857D01*
X4517Y-7969D01*
X4517Y-8082D01*
X4460Y-8251D01*
X3785Y-8926D01*
X4517Y-8926D01*
X5023Y-8926D02*
X5023Y-8138D01*
X5023Y-8251D02*
X5079Y-8194D01*
X5192Y-8138D01*
X5360Y-8138D01*
X5473Y-8194D01*
X5529Y-8307D01*
X5529Y-8926D01*
X5529Y-8307D02*
X5585Y-8194D01*
X5698Y-8138D01*
X5866Y-8138D01*
X5979Y-8194D01*
X6035Y-8307D01*
X6035Y-8926D01*
X6598Y-8926D02*
X6598Y-8138D01*
X6598Y-8251D02*
X6654Y-8194D01*
X6766Y-8138D01*
X6935Y-8138D01*
X7048Y-8194D01*
X7104Y-8307D01*
X7104Y-8926D01*
X7104Y-8307D02*
X7160Y-8194D01*
X7273Y-8138D01*
X7441Y-8138D01*
X7554Y-8194D01*
X7610Y-8307D01*
X7610Y-8926D01*
X9916Y-7688D02*
X8904Y-9207D01*
X11435Y-7744D02*
X11547Y-7744D01*
X11660Y-7801D01*
X11716Y-7857D01*
X11772Y-7969D01*
X11828Y-8194D01*
X11828Y-8476D01*
X11772Y-8701D01*
X11716Y-8813D01*
X11660Y-8869D01*
X11547Y-8926D01*
X11435Y-8926D01*
X11322Y-8869D01*
X11266Y-8813D01*
X11210Y-8701D01*
X11153Y-8476D01*
X11153Y-8194D01*
X11210Y-7969D01*
X11266Y-7857D01*
X11322Y-7801D01*
X11435Y-7744D01*
X12334Y-8813D02*
X12391Y-8869D01*
X12334Y-8926D01*
X12278Y-8869D01*
X12334Y-8813D01*
X12334Y-8926D01*
X13122Y-7744D02*
X13234Y-7744D01*
X13347Y-7801D01*
X13403Y-7857D01*
X13459Y-7969D01*
X13516Y-8194D01*
X13516Y-8476D01*
X13459Y-8701D01*
X13403Y-8813D01*
X13347Y-8869D01*
X13234Y-8926D01*
X13122Y-8926D01*
X13009Y-8869D01*
X12953Y-8813D01*
X12897Y-8701D01*
X12841Y-8476D01*
X12841Y-8194D01*
X12897Y-7969D01*
X12953Y-7857D01*
X13009Y-7801D01*
X13122Y-7744D01*
X14528Y-8138D02*
X14528Y-8926D01*
X14247Y-7688D02*
X13965Y-8532D01*
X14697Y-8532D01*
X15372Y-7744D02*
X15484Y-7744D01*
X15597Y-7801D01*
X15653Y-7857D01*
X15709Y-7969D01*
X15765Y-8194D01*
X15765Y-8476D01*
X15709Y-8701D01*
X15653Y-8813D01*
X15597Y-8869D01*
X15484Y-8926D01*
X15372Y-8926D01*
X15259Y-8869D01*
X15203Y-8813D01*
X15147Y-8701D01*
X15090Y-8476D01*
X15090Y-8194D01*
X15147Y-7969D01*
X15203Y-7857D01*
X15259Y-7801D01*
X15372Y-7744D01*
X16215Y-7744D02*
X16215Y-7969D01*
X16665Y-7744D02*
X16665Y-7969D01*
X18409Y-9375D02*
X18352Y-9319D01*
X18240Y-9151D01*
X18184Y-9038D01*
X18127Y-8869D01*
X18071Y-8588D01*
X18071Y-8363D01*
X18127Y-8082D01*
X18184Y-7913D01*
X18240Y-7801D01*
X18352Y-7632D01*
X18409Y-7576D01*
X19365Y-7744D02*
X19140Y-7744D01*
X19027Y-7801D01*
X18971Y-7857D01*
X18859Y-8026D01*
X18802Y-8251D01*
X18802Y-8701D01*
X18859Y-8813D01*
X18915Y-8869D01*
X19027Y-8926D01*
X19252Y-8926D01*
X19365Y-8869D01*
X19421Y-8813D01*
X19477Y-8701D01*
X19477Y-8419D01*
X19421Y-8307D01*
X19365Y-8251D01*
X19252Y-8194D01*
X19027Y-8194D01*
X18915Y-8251D01*
X18859Y-8307D01*
X18802Y-8419D01*
X20883Y-8926D02*
X20883Y-7744D01*
X21390Y-8926D02*
X21390Y-8307D01*
X21333Y-8194D01*
X21221Y-8138D01*
X21052Y-8138D01*
X20940Y-8194D01*
X20883Y-8251D01*
X22121Y-8926D02*
X22008Y-8869D01*
X21952Y-8813D01*
X21896Y-8701D01*
X21896Y-8363D01*
X21952Y-8251D01*
X22008Y-8194D01*
X22121Y-8138D01*
X22289Y-8138D01*
X22402Y-8194D01*
X22458Y-8251D01*
X22514Y-8363D01*
X22514Y-8701D01*
X22458Y-8813D01*
X22402Y-8869D01*
X22289Y-8926D01*
X22121Y-8926D01*
X23189Y-8926D02*
X23077Y-8869D01*
X23021Y-8757D01*
X23021Y-7744D01*
X24089Y-8869D02*
X23977Y-8926D01*
X23752Y-8926D01*
X23639Y-8869D01*
X23583Y-8757D01*
X23583Y-8307D01*
X23639Y-8194D01*
X23752Y-8138D01*
X23977Y-8138D01*
X24089Y-8194D01*
X24145Y-8307D01*
X24145Y-8419D01*
X23583Y-8532D01*
X24595Y-8869D02*
X24708Y-8926D01*
X24933Y-8926D01*
X25045Y-8869D01*
X25102Y-8757D01*
X25102Y-8701D01*
X25045Y-8588D01*
X24933Y-8532D01*
X24764Y-8532D01*
X24652Y-8476D01*
X24595Y-8363D01*
X24595Y-8307D01*
X24652Y-8194D01*
X24764Y-8138D01*
X24933Y-8138D01*
X25045Y-8194D01*
X25495Y-9375D02*
X25552Y-9319D01*
X25664Y-9151D01*
X25720Y-9038D01*
X25776Y-8869D01*
X25833Y-8588D01*
X25833Y-8363D01*
X25776Y-8082D01*
X25720Y-7913D01*
X25664Y-7801D01*
X25552Y-7632D01*
X25495Y-7576D01*
M02*
