%FSLAX34Y34*%
G04 Gerber Fmt 3.4, Leading zero omitted, Abs format*
G04 (created by PCBNEW (2013-12-14 BZR 4555)-product) date Wed 05 Mar 2014 16:54:14 EST*
%MOIN*%
G01*
G70*
G90*
G04 APERTURE LIST*
%ADD10C,0.003937*%
%ADD11R,0.060000X0.060000*%
%ADD12R,0.027559X0.039370*%
%ADD13R,0.039370X0.027559*%
%ADD14C,0.035000*%
%ADD15C,0.008000*%
%ADD16C,0.014000*%
%ADD17C,0.008087*%
G04 APERTURE END LIST*
G54D10*
G54D11*
X-433Y-1594D03*
G54D12*
X2750Y-4793D03*
X2250Y-4793D03*
G54D10*
G36*
X-3897Y1362D02*
X-3897Y1637D01*
X-3503Y1637D01*
X-3503Y1362D01*
X-3897Y1362D01*
X-3897Y1362D01*
G37*
G36*
X-3897Y-3637D02*
X-3897Y-3362D01*
X-3503Y-3362D01*
X-3503Y-3637D01*
X-3897Y-3637D01*
X-3897Y-3637D01*
G37*
G36*
X-3897Y862D02*
X-3897Y1137D01*
X-3503Y1137D01*
X-3503Y862D01*
X-3897Y862D01*
X-3897Y862D01*
G37*
G36*
X-3897Y362D02*
X-3897Y637D01*
X-3503Y637D01*
X-3503Y362D01*
X-3897Y362D01*
X-3897Y362D01*
G37*
G36*
X-3897Y-137D02*
X-3897Y137D01*
X-3503Y137D01*
X-3503Y-137D01*
X-3897Y-137D01*
X-3897Y-137D01*
G37*
G36*
X-3897Y-637D02*
X-3897Y-362D01*
X-3503Y-362D01*
X-3503Y-637D01*
X-3897Y-637D01*
X-3897Y-637D01*
G37*
G36*
X-3897Y-1137D02*
X-3897Y-862D01*
X-3503Y-862D01*
X-3503Y-1137D01*
X-3897Y-1137D01*
X-3897Y-1137D01*
G37*
G36*
X-3897Y-1637D02*
X-3897Y-1362D01*
X-3503Y-1362D01*
X-3503Y-1637D01*
X-3897Y-1637D01*
X-3897Y-1637D01*
G37*
G36*
X-3897Y-2137D02*
X-3897Y-1862D01*
X-3503Y-1862D01*
X-3503Y-2137D01*
X-3897Y-2137D01*
X-3897Y-2137D01*
G37*
G36*
X-3897Y-2637D02*
X-3897Y-2362D01*
X-3503Y-2362D01*
X-3503Y-2637D01*
X-3897Y-2637D01*
X-3897Y-2637D01*
G37*
G36*
X-3897Y-3137D02*
X-3897Y-2862D01*
X-3503Y-2862D01*
X-3503Y-3137D01*
X-3897Y-3137D01*
X-3897Y-3137D01*
G37*
G54D12*
X-2750Y-4793D03*
X-2250Y-4793D03*
X-1750Y-4793D03*
X-1250Y-4793D03*
X-750Y-4793D03*
X-250Y-4793D03*
X250Y-4793D03*
X750Y-4793D03*
X1250Y-4793D03*
X1750Y-4793D03*
G54D13*
X3700Y1500D03*
X3700Y-3500D03*
X3700Y-3000D03*
X3700Y-2500D03*
X3700Y-2000D03*
X3700Y-1500D03*
X3700Y-1000D03*
X3700Y-500D03*
X3700Y0D03*
X3700Y500D03*
X3700Y1000D03*
G54D14*
X-2377Y267D03*
X1964Y-937D03*
X1355Y1778D03*
X1897Y2555D03*
X-1196Y2555D03*
X-1224Y1321D03*
X-421Y2555D03*
X354Y2555D03*
X1137Y2555D03*
X2677Y2555D03*
X-3460Y2555D03*
X-3027Y2555D03*
X-2149Y2555D03*
X-2618Y2763D03*
X2024Y-2909D03*
X2755Y-617D03*
X-1228Y-3677D03*
X1011Y1196D03*
X-2078Y-242D03*
X1643Y879D03*
X1969Y-484D03*
X-2192Y-3523D03*
X-338Y-3852D03*
X173Y-3862D03*
X-2755Y-2830D03*
X-2751Y-3314D03*
X963Y-3364D03*
X1381Y-3636D03*
X2751Y-3362D03*
X2358Y-3185D03*
X1562Y-2193D03*
X2540Y-187D03*
X1378Y-461D03*
X1399Y128D03*
X969Y-1D03*
X459Y1077D03*
X-1270Y612D03*
X-2690Y-1437D03*
X-1026Y192D03*
X1699Y1483D03*
X-1834Y-3866D03*
X-2956Y-64D03*
X1760Y-3866D03*
X-2684Y-1875D03*
G54D15*
X-2377Y267D02*
X-2377Y-730D01*
X-2377Y-730D02*
X-2171Y-937D01*
X-2377Y267D02*
X-2084Y267D01*
X-2084Y267D02*
X-1875Y58D01*
G54D16*
X-3759Y1500D02*
X-3751Y1507D01*
X-3751Y1507D02*
X-3383Y1507D01*
G54D15*
X-2171Y-937D02*
X1964Y-937D01*
X-3759Y1507D02*
X-3383Y1507D01*
X-1714Y-102D02*
X-1875Y58D01*
X-903Y-102D02*
X-1714Y-102D01*
X-719Y82D02*
X-903Y-102D01*
X-719Y985D02*
X-719Y82D01*
X-2861Y985D02*
X-3383Y1507D01*
X-719Y985D02*
X-2861Y985D01*
X102Y1807D02*
X-719Y985D01*
X1327Y1807D02*
X102Y1807D01*
X1355Y1778D02*
X1327Y1807D01*
X-447Y-262D02*
X1011Y1196D01*
X-2058Y-262D02*
X-447Y-262D01*
X-2078Y-242D02*
X-2058Y-262D01*
G54D16*
X2250Y-4852D02*
X2250Y-4468D01*
G54D15*
X2250Y-4844D02*
X2250Y-4468D01*
X963Y-3636D02*
X963Y-3364D01*
X1795Y-4468D02*
X963Y-3636D01*
X2250Y-4468D02*
X1795Y-4468D01*
G54D16*
X3759Y-1500D02*
X3214Y-1500D01*
X3214Y-1500D02*
X3206Y-1492D01*
G54D15*
X3206Y-1492D02*
X3759Y-1492D01*
X2264Y-549D02*
X3206Y-1492D01*
X2264Y-332D02*
X2264Y-549D01*
X2106Y-175D02*
X2264Y-332D01*
X1739Y-175D02*
X2106Y-175D01*
X1453Y-461D02*
X1739Y-175D01*
X1378Y-461D02*
X1453Y-461D01*
G54D16*
X3759Y-500D02*
X3391Y-500D01*
X3391Y-500D02*
X3383Y-492D01*
G54D15*
X3759Y-492D02*
X3383Y-492D01*
X2781Y110D02*
X3383Y-492D01*
X1798Y110D02*
X2781Y110D01*
X1521Y-166D02*
X1798Y110D01*
X1133Y-166D02*
X1521Y-166D01*
X969Y-1D02*
X1133Y-166D01*
X459Y1077D02*
X463Y1077D01*
X463Y1077D02*
X897Y1511D01*
G54D16*
X3759Y1000D02*
X3391Y1000D01*
X3391Y1000D02*
X3217Y1174D01*
G54D15*
X3759Y1007D02*
X3383Y1007D01*
X1113Y1511D02*
X897Y1511D01*
X1451Y1174D02*
X1113Y1511D01*
X3217Y1174D02*
X1451Y1174D01*
X3383Y1007D02*
X3217Y1174D01*
G54D16*
X-3759Y500D02*
X-3391Y500D01*
X-3391Y500D02*
X-3383Y507D01*
G54D15*
X-3759Y507D02*
X-3383Y507D01*
X-3278Y612D02*
X-1270Y612D01*
X-3383Y507D02*
X-3278Y612D01*
G54D10*
G36*
X755Y1597D02*
X527Y1369D01*
X518Y1373D01*
X400Y1373D01*
X291Y1328D01*
X208Y1245D01*
X163Y1136D01*
X162Y1018D01*
X207Y909D01*
X291Y826D01*
X377Y790D01*
X-514Y-101D01*
X-963Y-101D01*
X-858Y-58D01*
X-775Y24D01*
X-730Y133D01*
X-730Y251D01*
X-775Y360D01*
X-858Y443D01*
X-967Y489D01*
X-1001Y489D01*
X-974Y553D01*
X-974Y671D01*
X-1019Y780D01*
X-1102Y864D01*
X-1211Y909D01*
X-1329Y909D01*
X-1438Y864D01*
X-1521Y781D01*
X-1524Y774D01*
X-3278Y774D01*
X-3340Y762D01*
X-3392Y727D01*
X-3407Y712D01*
X-3435Y740D01*
X-3457Y750D01*
X-3435Y759D01*
X-3401Y793D01*
X-3382Y838D01*
X-3382Y886D01*
X-3382Y1161D01*
X-3401Y1206D01*
X-3435Y1240D01*
X-3457Y1250D01*
X-3435Y1259D01*
X-3401Y1293D01*
X-3382Y1338D01*
X-3382Y1386D01*
X-3382Y1597D01*
X-1333Y1597D01*
X-1391Y1573D01*
X-1475Y1489D01*
X-1520Y1381D01*
X-1520Y1263D01*
X-1475Y1154D01*
X-1392Y1070D01*
X-1283Y1025D01*
X-1165Y1025D01*
X-1056Y1070D01*
X-973Y1153D01*
X-928Y1262D01*
X-927Y1380D01*
X-972Y1489D01*
X-1056Y1572D01*
X-1115Y1597D01*
X755Y1597D01*
X755Y1597D01*
G37*
G54D17*
X755Y1597D02*
X527Y1369D01*
X518Y1373D01*
X400Y1373D01*
X291Y1328D01*
X208Y1245D01*
X163Y1136D01*
X162Y1018D01*
X207Y909D01*
X291Y826D01*
X377Y790D01*
X-514Y-101D01*
X-963Y-101D01*
X-858Y-58D01*
X-775Y24D01*
X-730Y133D01*
X-730Y251D01*
X-775Y360D01*
X-858Y443D01*
X-967Y489D01*
X-1001Y489D01*
X-974Y553D01*
X-974Y671D01*
X-1019Y780D01*
X-1102Y864D01*
X-1211Y909D01*
X-1329Y909D01*
X-1438Y864D01*
X-1521Y781D01*
X-1524Y774D01*
X-3278Y774D01*
X-3340Y762D01*
X-3392Y727D01*
X-3407Y712D01*
X-3435Y740D01*
X-3457Y750D01*
X-3435Y759D01*
X-3401Y793D01*
X-3382Y838D01*
X-3382Y886D01*
X-3382Y1161D01*
X-3401Y1206D01*
X-3435Y1240D01*
X-3457Y1250D01*
X-3435Y1259D01*
X-3401Y1293D01*
X-3382Y1338D01*
X-3382Y1386D01*
X-3382Y1597D01*
X-1333Y1597D01*
X-1391Y1573D01*
X-1475Y1489D01*
X-1520Y1381D01*
X-1520Y1263D01*
X-1475Y1154D01*
X-1392Y1070D01*
X-1283Y1025D01*
X-1165Y1025D01*
X-1056Y1070D01*
X-973Y1153D01*
X-928Y1262D01*
X-927Y1380D01*
X-972Y1489D01*
X-1056Y1572D01*
X-1115Y1597D01*
X755Y1597D01*
G54D10*
G36*
X3585Y-4687D02*
X3048Y-4687D01*
X3048Y-3303D01*
X3003Y-3194D01*
X2920Y-3111D01*
X2811Y-3065D01*
X2693Y-3065D01*
X2638Y-3088D01*
X2609Y-3017D01*
X2526Y-2933D01*
X2417Y-2888D01*
X2320Y-2888D01*
X2320Y-2850D01*
X2275Y-2742D01*
X2192Y-2658D01*
X2083Y-2613D01*
X1965Y-2613D01*
X1858Y-2657D01*
X1858Y-2135D01*
X1813Y-2026D01*
X1730Y-1942D01*
X1621Y-1897D01*
X1503Y-1897D01*
X1394Y-1942D01*
X1311Y-2025D01*
X1266Y-2134D01*
X1266Y-2252D01*
X1311Y-2361D01*
X1394Y-2444D01*
X1503Y-2490D01*
X1621Y-2490D01*
X1730Y-2445D01*
X1813Y-2361D01*
X1858Y-2253D01*
X1858Y-2135D01*
X1858Y-2657D01*
X1856Y-2658D01*
X1773Y-2741D01*
X1728Y-2850D01*
X1728Y-2968D01*
X1773Y-3077D01*
X1856Y-3160D01*
X1965Y-3205D01*
X2061Y-3205D01*
X2061Y-3243D01*
X2106Y-3352D01*
X2190Y-3436D01*
X2299Y-3481D01*
X2416Y-3481D01*
X2471Y-3458D01*
X2500Y-3529D01*
X2583Y-3613D01*
X2692Y-3658D01*
X2810Y-3658D01*
X2919Y-3613D01*
X3003Y-3530D01*
X3048Y-3421D01*
X3048Y-3303D01*
X3048Y-4687D01*
X3009Y-4687D01*
X3009Y-4572D01*
X2990Y-4527D01*
X2956Y-4493D01*
X2911Y-4475D01*
X2863Y-4475D01*
X2588Y-4475D01*
X2543Y-4493D01*
X2509Y-4527D01*
X2500Y-4550D01*
X2490Y-4527D01*
X2456Y-4493D01*
X2441Y-4487D01*
X2441Y-4468D01*
X2426Y-4395D01*
X2385Y-4333D01*
X2323Y-4291D01*
X2250Y-4277D01*
X2176Y-4291D01*
X2153Y-4307D01*
X1862Y-4307D01*
X1717Y-4162D01*
X1818Y-4162D01*
X1927Y-4117D01*
X2011Y-4034D01*
X2056Y-3925D01*
X2056Y-3807D01*
X2011Y-3698D01*
X1928Y-3615D01*
X1819Y-3569D01*
X1701Y-3569D01*
X1677Y-3579D01*
X1677Y-3577D01*
X1632Y-3468D01*
X1549Y-3385D01*
X1440Y-3340D01*
X1322Y-3340D01*
X1260Y-3365D01*
X1260Y-3306D01*
X1215Y-3197D01*
X1131Y-3113D01*
X1023Y-3068D01*
X905Y-3068D01*
X796Y-3113D01*
X712Y-3196D01*
X667Y-3305D01*
X667Y-3423D01*
X712Y-3532D01*
X795Y-3615D01*
X802Y-3618D01*
X802Y-3636D01*
X814Y-3698D01*
X849Y-3750D01*
X1578Y-4479D01*
X1543Y-4493D01*
X1509Y-4527D01*
X1500Y-4550D01*
X1490Y-4527D01*
X1456Y-4493D01*
X1411Y-4475D01*
X1363Y-4475D01*
X1088Y-4475D01*
X1043Y-4493D01*
X1009Y-4527D01*
X1000Y-4550D01*
X990Y-4527D01*
X956Y-4493D01*
X911Y-4475D01*
X863Y-4475D01*
X588Y-4475D01*
X543Y-4493D01*
X509Y-4527D01*
X500Y-4550D01*
X490Y-4527D01*
X470Y-4507D01*
X470Y-3803D01*
X425Y-3694D01*
X341Y-3611D01*
X232Y-3566D01*
X115Y-3566D01*
X6Y-3611D01*
X-11Y-3628D01*
X-11Y-1918D01*
X-11Y-1870D01*
X-11Y-1270D01*
X-30Y-1225D01*
X-64Y-1191D01*
X-108Y-1173D01*
X-157Y-1173D01*
X-757Y-1173D01*
X-801Y-1191D01*
X-835Y-1225D01*
X-854Y-1270D01*
X-854Y-1318D01*
X-854Y-1918D01*
X-835Y-1963D01*
X-801Y-1997D01*
X-757Y-2015D01*
X-708Y-2015D01*
X-108Y-2015D01*
X-64Y-1997D01*
X-30Y-1963D01*
X-11Y-1918D01*
X-11Y-3628D01*
X-77Y-3694D01*
X-80Y-3701D01*
X-87Y-3684D01*
X-170Y-3601D01*
X-279Y-3556D01*
X-397Y-3556D01*
X-506Y-3601D01*
X-589Y-3684D01*
X-635Y-3793D01*
X-635Y-3911D01*
X-590Y-4020D01*
X-506Y-4103D01*
X-398Y-4148D01*
X-280Y-4148D01*
X-171Y-4103D01*
X-87Y-4020D01*
X-84Y-4012D01*
X-77Y-4029D01*
X5Y-4113D01*
X114Y-4158D01*
X232Y-4158D01*
X341Y-4113D01*
X424Y-4030D01*
X469Y-3921D01*
X470Y-3803D01*
X470Y-4507D01*
X456Y-4493D01*
X411Y-4475D01*
X363Y-4475D01*
X88Y-4475D01*
X43Y-4493D01*
X9Y-4527D01*
X0Y-4550D01*
X-9Y-4527D01*
X-43Y-4493D01*
X-88Y-4475D01*
X-136Y-4475D01*
X-411Y-4475D01*
X-456Y-4493D01*
X-490Y-4527D01*
X-500Y-4550D01*
X-509Y-4527D01*
X-543Y-4493D01*
X-588Y-4475D01*
X-636Y-4475D01*
X-911Y-4475D01*
X-931Y-4483D01*
X-931Y-3618D01*
X-977Y-3509D01*
X-1060Y-3426D01*
X-1169Y-3380D01*
X-1287Y-3380D01*
X-1395Y-3425D01*
X-1479Y-3509D01*
X-1524Y-3617D01*
X-1524Y-3735D01*
X-1479Y-3844D01*
X-1396Y-3928D01*
X-1287Y-3973D01*
X-1169Y-3973D01*
X-1060Y-3928D01*
X-977Y-3845D01*
X-932Y-3736D01*
X-931Y-3618D01*
X-931Y-4483D01*
X-956Y-4493D01*
X-990Y-4527D01*
X-1000Y-4550D01*
X-1009Y-4527D01*
X-1043Y-4493D01*
X-1088Y-4475D01*
X-1136Y-4475D01*
X-1411Y-4475D01*
X-1456Y-4493D01*
X-1490Y-4527D01*
X-1500Y-4550D01*
X-1509Y-4527D01*
X-1538Y-4498D01*
X-1538Y-3807D01*
X-1583Y-3698D01*
X-1666Y-3615D01*
X-1775Y-3569D01*
X-1893Y-3569D01*
X-1896Y-3571D01*
X-1896Y-3464D01*
X-1941Y-3356D01*
X-2024Y-3272D01*
X-2133Y-3227D01*
X-2251Y-3227D01*
X-2360Y-3272D01*
X-2388Y-3299D01*
X-2388Y-1817D01*
X-2433Y-1708D01*
X-2487Y-1653D01*
X-2438Y-1605D01*
X-2393Y-1496D01*
X-2393Y-1378D01*
X-2438Y-1269D01*
X-2521Y-1186D01*
X-2630Y-1140D01*
X-2660Y-1140D01*
X-2660Y-6D01*
X-2705Y102D01*
X-2788Y186D01*
X-2897Y231D01*
X-3015Y231D01*
X-3124Y186D01*
X-3207Y103D01*
X-3252Y-5D01*
X-3252Y-123D01*
X-3207Y-232D01*
X-3124Y-315D01*
X-3015Y-361D01*
X-2897Y-361D01*
X-2788Y-316D01*
X-2705Y-232D01*
X-2660Y-123D01*
X-2660Y-6D01*
X-2660Y-1140D01*
X-2748Y-1140D01*
X-2857Y-1185D01*
X-2941Y-1269D01*
X-2986Y-1378D01*
X-2986Y-1495D01*
X-2941Y-1604D01*
X-2887Y-1659D01*
X-2935Y-1707D01*
X-2980Y-1816D01*
X-2980Y-1934D01*
X-2935Y-2043D01*
X-2852Y-2126D01*
X-2743Y-2172D01*
X-2625Y-2172D01*
X-2516Y-2127D01*
X-2433Y-2043D01*
X-2388Y-1935D01*
X-2388Y-1817D01*
X-2388Y-3299D01*
X-2443Y-3355D01*
X-2455Y-3383D01*
X-2455Y-3256D01*
X-2500Y-3147D01*
X-2577Y-3070D01*
X-2504Y-2998D01*
X-2459Y-2889D01*
X-2459Y-2772D01*
X-2504Y-2663D01*
X-2587Y-2579D01*
X-2696Y-2534D01*
X-2814Y-2534D01*
X-2923Y-2579D01*
X-3006Y-2662D01*
X-3052Y-2771D01*
X-3052Y-2889D01*
X-3007Y-2998D01*
X-2930Y-3074D01*
X-3003Y-3146D01*
X-3048Y-3255D01*
X-3048Y-3373D01*
X-3003Y-3482D01*
X-2920Y-3566D01*
X-2811Y-3611D01*
X-2693Y-3611D01*
X-2584Y-3566D01*
X-2500Y-3483D01*
X-2455Y-3374D01*
X-2455Y-3256D01*
X-2455Y-3383D01*
X-2489Y-3464D01*
X-2489Y-3582D01*
X-2444Y-3691D01*
X-2360Y-3774D01*
X-2252Y-3819D01*
X-2134Y-3819D01*
X-2130Y-3818D01*
X-2130Y-3924D01*
X-2085Y-4033D01*
X-2002Y-4117D01*
X-1893Y-4162D01*
X-1775Y-4162D01*
X-1667Y-4117D01*
X-1583Y-4034D01*
X-1538Y-3925D01*
X-1538Y-3807D01*
X-1538Y-4498D01*
X-1543Y-4493D01*
X-1588Y-4475D01*
X-1636Y-4475D01*
X-1911Y-4475D01*
X-1956Y-4493D01*
X-1990Y-4527D01*
X-2000Y-4550D01*
X-2009Y-4527D01*
X-2043Y-4493D01*
X-2088Y-4475D01*
X-2136Y-4475D01*
X-2411Y-4475D01*
X-2456Y-4493D01*
X-2490Y-4527D01*
X-2500Y-4550D01*
X-2509Y-4527D01*
X-2543Y-4493D01*
X-2588Y-4475D01*
X-2636Y-4475D01*
X-2911Y-4475D01*
X-2956Y-4493D01*
X-2990Y-4527D01*
X-3009Y-4572D01*
X-3009Y-4620D01*
X-3009Y-4687D01*
X-3597Y-4687D01*
X-3597Y-3759D01*
X-3479Y-3759D01*
X-3435Y-3740D01*
X-3401Y-3706D01*
X-3382Y-3661D01*
X-3382Y-3613D01*
X-3382Y-3338D01*
X-3401Y-3293D01*
X-3435Y-3259D01*
X-3457Y-3250D01*
X-3435Y-3240D01*
X-3401Y-3206D01*
X-3382Y-3161D01*
X-3382Y-3113D01*
X-3382Y-2838D01*
X-3401Y-2793D01*
X-3435Y-2759D01*
X-3457Y-2750D01*
X-3435Y-2740D01*
X-3401Y-2706D01*
X-3382Y-2661D01*
X-3382Y-2613D01*
X-3382Y-2338D01*
X-3401Y-2293D01*
X-3435Y-2259D01*
X-3457Y-2250D01*
X-3435Y-2240D01*
X-3401Y-2206D01*
X-3382Y-2161D01*
X-3382Y-2113D01*
X-3382Y-1838D01*
X-3401Y-1793D01*
X-3435Y-1759D01*
X-3457Y-1750D01*
X-3435Y-1740D01*
X-3401Y-1706D01*
X-3382Y-1661D01*
X-3382Y-1613D01*
X-3382Y-1338D01*
X-3401Y-1293D01*
X-3435Y-1259D01*
X-3457Y-1250D01*
X-3435Y-1240D01*
X-3401Y-1206D01*
X-3382Y-1161D01*
X-3382Y-1113D01*
X-3382Y-838D01*
X-3401Y-793D01*
X-3435Y-759D01*
X-3457Y-750D01*
X-3435Y-740D01*
X-3401Y-706D01*
X-3382Y-661D01*
X-3382Y-613D01*
X-3382Y-338D01*
X-3401Y-293D01*
X-3435Y-259D01*
X-3457Y-250D01*
X-3435Y-240D01*
X-3401Y-206D01*
X-3382Y-161D01*
X-3382Y-113D01*
X-3382Y161D01*
X-3401Y206D01*
X-3435Y240D01*
X-3457Y250D01*
X-3435Y259D01*
X-3401Y293D01*
X-3394Y308D01*
X-3391Y308D01*
X-3318Y323D01*
X-3256Y364D01*
X-3248Y372D01*
X-3207Y434D01*
X-3203Y451D01*
X-1524Y451D01*
X-1521Y445D01*
X-1438Y361D01*
X-1329Y316D01*
X-1295Y316D01*
X-1322Y252D01*
X-1322Y134D01*
X-1277Y25D01*
X-1194Y-58D01*
X-1089Y-101D01*
X-1816Y-101D01*
X-1827Y-74D01*
X-1910Y8D01*
X-2019Y53D01*
X-2137Y53D01*
X-2246Y8D01*
X-2329Y-74D01*
X-2374Y-183D01*
X-2375Y-301D01*
X-2330Y-410D01*
X-2246Y-493D01*
X-2137Y-538D01*
X-2020Y-538D01*
X-1911Y-493D01*
X-1841Y-424D01*
X-447Y-424D01*
X-386Y-411D01*
X-333Y-377D01*
X946Y902D01*
X952Y900D01*
X1070Y900D01*
X1179Y945D01*
X1262Y1028D01*
X1293Y1103D01*
X1337Y1060D01*
X1385Y1028D01*
X1347Y938D01*
X1347Y820D01*
X1392Y711D01*
X1475Y628D01*
X1584Y582D01*
X1702Y582D01*
X1811Y627D01*
X1894Y711D01*
X1940Y820D01*
X1940Y937D01*
X1909Y1013D01*
X3108Y1013D01*
X3256Y864D01*
X3318Y823D01*
X3391Y808D01*
X3394Y808D01*
X3401Y793D01*
X3435Y759D01*
X3457Y750D01*
X3435Y740D01*
X3401Y706D01*
X3382Y661D01*
X3382Y613D01*
X3382Y338D01*
X3401Y293D01*
X3435Y259D01*
X3457Y250D01*
X3435Y240D01*
X3401Y206D01*
X3382Y161D01*
X3382Y113D01*
X3382Y-161D01*
X3401Y-206D01*
X3435Y-240D01*
X3457Y-250D01*
X3435Y-259D01*
X3407Y-287D01*
X2895Y224D01*
X2842Y259D01*
X2781Y271D01*
X1798Y271D01*
X1798Y271D01*
X1736Y259D01*
X1684Y224D01*
X1681Y221D01*
X1650Y296D01*
X1567Y379D01*
X1458Y425D01*
X1340Y425D01*
X1231Y380D01*
X1148Y296D01*
X1129Y252D01*
X1028Y294D01*
X910Y294D01*
X801Y249D01*
X718Y166D01*
X673Y57D01*
X672Y-60D01*
X717Y-169D01*
X801Y-252D01*
X910Y-298D01*
X1027Y-298D01*
X1039Y-293D01*
X1071Y-315D01*
X1115Y-323D01*
X1082Y-402D01*
X1082Y-520D01*
X1127Y-629D01*
X1210Y-712D01*
X1319Y-757D01*
X1437Y-757D01*
X1546Y-712D01*
X1629Y-629D01*
X1672Y-526D01*
X1672Y-542D01*
X1717Y-651D01*
X1800Y-735D01*
X1909Y-780D01*
X2027Y-780D01*
X2136Y-735D01*
X2179Y-692D01*
X3024Y-1538D01*
X3029Y-1565D01*
X3071Y-1627D01*
X3079Y-1635D01*
X3141Y-1676D01*
X3214Y-1691D01*
X3394Y-1691D01*
X3401Y-1706D01*
X3435Y-1740D01*
X3457Y-1750D01*
X3435Y-1759D01*
X3401Y-1793D01*
X3382Y-1838D01*
X3382Y-1886D01*
X3382Y-2161D01*
X3401Y-2206D01*
X3435Y-2240D01*
X3457Y-2250D01*
X3435Y-2259D01*
X3401Y-2293D01*
X3382Y-2338D01*
X3382Y-2386D01*
X3382Y-2661D01*
X3401Y-2706D01*
X3435Y-2740D01*
X3457Y-2750D01*
X3435Y-2759D01*
X3401Y-2793D01*
X3382Y-2838D01*
X3382Y-2886D01*
X3382Y-3161D01*
X3401Y-3206D01*
X3435Y-3240D01*
X3457Y-3250D01*
X3435Y-3259D01*
X3401Y-3293D01*
X3382Y-3338D01*
X3382Y-3386D01*
X3382Y-3661D01*
X3401Y-3706D01*
X3435Y-3740D01*
X3479Y-3759D01*
X3528Y-3759D01*
X3585Y-3759D01*
X3585Y-4687D01*
X3585Y-4687D01*
G37*
G54D17*
X3585Y-4687D02*
X3048Y-4687D01*
X3048Y-3303D01*
X3003Y-3194D01*
X2920Y-3111D01*
X2811Y-3065D01*
X2693Y-3065D01*
X2638Y-3088D01*
X2609Y-3017D01*
X2526Y-2933D01*
X2417Y-2888D01*
X2320Y-2888D01*
X2320Y-2850D01*
X2275Y-2742D01*
X2192Y-2658D01*
X2083Y-2613D01*
X1965Y-2613D01*
X1858Y-2657D01*
X1858Y-2135D01*
X1813Y-2026D01*
X1730Y-1942D01*
X1621Y-1897D01*
X1503Y-1897D01*
X1394Y-1942D01*
X1311Y-2025D01*
X1266Y-2134D01*
X1266Y-2252D01*
X1311Y-2361D01*
X1394Y-2444D01*
X1503Y-2490D01*
X1621Y-2490D01*
X1730Y-2445D01*
X1813Y-2361D01*
X1858Y-2253D01*
X1858Y-2135D01*
X1858Y-2657D01*
X1856Y-2658D01*
X1773Y-2741D01*
X1728Y-2850D01*
X1728Y-2968D01*
X1773Y-3077D01*
X1856Y-3160D01*
X1965Y-3205D01*
X2061Y-3205D01*
X2061Y-3243D01*
X2106Y-3352D01*
X2190Y-3436D01*
X2299Y-3481D01*
X2416Y-3481D01*
X2471Y-3458D01*
X2500Y-3529D01*
X2583Y-3613D01*
X2692Y-3658D01*
X2810Y-3658D01*
X2919Y-3613D01*
X3003Y-3530D01*
X3048Y-3421D01*
X3048Y-3303D01*
X3048Y-4687D01*
X3009Y-4687D01*
X3009Y-4572D01*
X2990Y-4527D01*
X2956Y-4493D01*
X2911Y-4475D01*
X2863Y-4475D01*
X2588Y-4475D01*
X2543Y-4493D01*
X2509Y-4527D01*
X2500Y-4550D01*
X2490Y-4527D01*
X2456Y-4493D01*
X2441Y-4487D01*
X2441Y-4468D01*
X2426Y-4395D01*
X2385Y-4333D01*
X2323Y-4291D01*
X2250Y-4277D01*
X2176Y-4291D01*
X2153Y-4307D01*
X1862Y-4307D01*
X1717Y-4162D01*
X1818Y-4162D01*
X1927Y-4117D01*
X2011Y-4034D01*
X2056Y-3925D01*
X2056Y-3807D01*
X2011Y-3698D01*
X1928Y-3615D01*
X1819Y-3569D01*
X1701Y-3569D01*
X1677Y-3579D01*
X1677Y-3577D01*
X1632Y-3468D01*
X1549Y-3385D01*
X1440Y-3340D01*
X1322Y-3340D01*
X1260Y-3365D01*
X1260Y-3306D01*
X1215Y-3197D01*
X1131Y-3113D01*
X1023Y-3068D01*
X905Y-3068D01*
X796Y-3113D01*
X712Y-3196D01*
X667Y-3305D01*
X667Y-3423D01*
X712Y-3532D01*
X795Y-3615D01*
X802Y-3618D01*
X802Y-3636D01*
X814Y-3698D01*
X849Y-3750D01*
X1578Y-4479D01*
X1543Y-4493D01*
X1509Y-4527D01*
X1500Y-4550D01*
X1490Y-4527D01*
X1456Y-4493D01*
X1411Y-4475D01*
X1363Y-4475D01*
X1088Y-4475D01*
X1043Y-4493D01*
X1009Y-4527D01*
X1000Y-4550D01*
X990Y-4527D01*
X956Y-4493D01*
X911Y-4475D01*
X863Y-4475D01*
X588Y-4475D01*
X543Y-4493D01*
X509Y-4527D01*
X500Y-4550D01*
X490Y-4527D01*
X470Y-4507D01*
X470Y-3803D01*
X425Y-3694D01*
X341Y-3611D01*
X232Y-3566D01*
X115Y-3566D01*
X6Y-3611D01*
X-11Y-3628D01*
X-11Y-1918D01*
X-11Y-1870D01*
X-11Y-1270D01*
X-30Y-1225D01*
X-64Y-1191D01*
X-108Y-1173D01*
X-157Y-1173D01*
X-757Y-1173D01*
X-801Y-1191D01*
X-835Y-1225D01*
X-854Y-1270D01*
X-854Y-1318D01*
X-854Y-1918D01*
X-835Y-1963D01*
X-801Y-1997D01*
X-757Y-2015D01*
X-708Y-2015D01*
X-108Y-2015D01*
X-64Y-1997D01*
X-30Y-1963D01*
X-11Y-1918D01*
X-11Y-3628D01*
X-77Y-3694D01*
X-80Y-3701D01*
X-87Y-3684D01*
X-170Y-3601D01*
X-279Y-3556D01*
X-397Y-3556D01*
X-506Y-3601D01*
X-589Y-3684D01*
X-635Y-3793D01*
X-635Y-3911D01*
X-590Y-4020D01*
X-506Y-4103D01*
X-398Y-4148D01*
X-280Y-4148D01*
X-171Y-4103D01*
X-87Y-4020D01*
X-84Y-4012D01*
X-77Y-4029D01*
X5Y-4113D01*
X114Y-4158D01*
X232Y-4158D01*
X341Y-4113D01*
X424Y-4030D01*
X469Y-3921D01*
X470Y-3803D01*
X470Y-4507D01*
X456Y-4493D01*
X411Y-4475D01*
X363Y-4475D01*
X88Y-4475D01*
X43Y-4493D01*
X9Y-4527D01*
X0Y-4550D01*
X-9Y-4527D01*
X-43Y-4493D01*
X-88Y-4475D01*
X-136Y-4475D01*
X-411Y-4475D01*
X-456Y-4493D01*
X-490Y-4527D01*
X-500Y-4550D01*
X-509Y-4527D01*
X-543Y-4493D01*
X-588Y-4475D01*
X-636Y-4475D01*
X-911Y-4475D01*
X-931Y-4483D01*
X-931Y-3618D01*
X-977Y-3509D01*
X-1060Y-3426D01*
X-1169Y-3380D01*
X-1287Y-3380D01*
X-1395Y-3425D01*
X-1479Y-3509D01*
X-1524Y-3617D01*
X-1524Y-3735D01*
X-1479Y-3844D01*
X-1396Y-3928D01*
X-1287Y-3973D01*
X-1169Y-3973D01*
X-1060Y-3928D01*
X-977Y-3845D01*
X-932Y-3736D01*
X-931Y-3618D01*
X-931Y-4483D01*
X-956Y-4493D01*
X-990Y-4527D01*
X-1000Y-4550D01*
X-1009Y-4527D01*
X-1043Y-4493D01*
X-1088Y-4475D01*
X-1136Y-4475D01*
X-1411Y-4475D01*
X-1456Y-4493D01*
X-1490Y-4527D01*
X-1500Y-4550D01*
X-1509Y-4527D01*
X-1538Y-4498D01*
X-1538Y-3807D01*
X-1583Y-3698D01*
X-1666Y-3615D01*
X-1775Y-3569D01*
X-1893Y-3569D01*
X-1896Y-3571D01*
X-1896Y-3464D01*
X-1941Y-3356D01*
X-2024Y-3272D01*
X-2133Y-3227D01*
X-2251Y-3227D01*
X-2360Y-3272D01*
X-2388Y-3299D01*
X-2388Y-1817D01*
X-2433Y-1708D01*
X-2487Y-1653D01*
X-2438Y-1605D01*
X-2393Y-1496D01*
X-2393Y-1378D01*
X-2438Y-1269D01*
X-2521Y-1186D01*
X-2630Y-1140D01*
X-2660Y-1140D01*
X-2660Y-6D01*
X-2705Y102D01*
X-2788Y186D01*
X-2897Y231D01*
X-3015Y231D01*
X-3124Y186D01*
X-3207Y103D01*
X-3252Y-5D01*
X-3252Y-123D01*
X-3207Y-232D01*
X-3124Y-315D01*
X-3015Y-361D01*
X-2897Y-361D01*
X-2788Y-316D01*
X-2705Y-232D01*
X-2660Y-123D01*
X-2660Y-6D01*
X-2660Y-1140D01*
X-2748Y-1140D01*
X-2857Y-1185D01*
X-2941Y-1269D01*
X-2986Y-1378D01*
X-2986Y-1495D01*
X-2941Y-1604D01*
X-2887Y-1659D01*
X-2935Y-1707D01*
X-2980Y-1816D01*
X-2980Y-1934D01*
X-2935Y-2043D01*
X-2852Y-2126D01*
X-2743Y-2172D01*
X-2625Y-2172D01*
X-2516Y-2127D01*
X-2433Y-2043D01*
X-2388Y-1935D01*
X-2388Y-1817D01*
X-2388Y-3299D01*
X-2443Y-3355D01*
X-2455Y-3383D01*
X-2455Y-3256D01*
X-2500Y-3147D01*
X-2577Y-3070D01*
X-2504Y-2998D01*
X-2459Y-2889D01*
X-2459Y-2772D01*
X-2504Y-2663D01*
X-2587Y-2579D01*
X-2696Y-2534D01*
X-2814Y-2534D01*
X-2923Y-2579D01*
X-3006Y-2662D01*
X-3052Y-2771D01*
X-3052Y-2889D01*
X-3007Y-2998D01*
X-2930Y-3074D01*
X-3003Y-3146D01*
X-3048Y-3255D01*
X-3048Y-3373D01*
X-3003Y-3482D01*
X-2920Y-3566D01*
X-2811Y-3611D01*
X-2693Y-3611D01*
X-2584Y-3566D01*
X-2500Y-3483D01*
X-2455Y-3374D01*
X-2455Y-3256D01*
X-2455Y-3383D01*
X-2489Y-3464D01*
X-2489Y-3582D01*
X-2444Y-3691D01*
X-2360Y-3774D01*
X-2252Y-3819D01*
X-2134Y-3819D01*
X-2130Y-3818D01*
X-2130Y-3924D01*
X-2085Y-4033D01*
X-2002Y-4117D01*
X-1893Y-4162D01*
X-1775Y-4162D01*
X-1667Y-4117D01*
X-1583Y-4034D01*
X-1538Y-3925D01*
X-1538Y-3807D01*
X-1538Y-4498D01*
X-1543Y-4493D01*
X-1588Y-4475D01*
X-1636Y-4475D01*
X-1911Y-4475D01*
X-1956Y-4493D01*
X-1990Y-4527D01*
X-2000Y-4550D01*
X-2009Y-4527D01*
X-2043Y-4493D01*
X-2088Y-4475D01*
X-2136Y-4475D01*
X-2411Y-4475D01*
X-2456Y-4493D01*
X-2490Y-4527D01*
X-2500Y-4550D01*
X-2509Y-4527D01*
X-2543Y-4493D01*
X-2588Y-4475D01*
X-2636Y-4475D01*
X-2911Y-4475D01*
X-2956Y-4493D01*
X-2990Y-4527D01*
X-3009Y-4572D01*
X-3009Y-4620D01*
X-3009Y-4687D01*
X-3597Y-4687D01*
X-3597Y-3759D01*
X-3479Y-3759D01*
X-3435Y-3740D01*
X-3401Y-3706D01*
X-3382Y-3661D01*
X-3382Y-3613D01*
X-3382Y-3338D01*
X-3401Y-3293D01*
X-3435Y-3259D01*
X-3457Y-3250D01*
X-3435Y-3240D01*
X-3401Y-3206D01*
X-3382Y-3161D01*
X-3382Y-3113D01*
X-3382Y-2838D01*
X-3401Y-2793D01*
X-3435Y-2759D01*
X-3457Y-2750D01*
X-3435Y-2740D01*
X-3401Y-2706D01*
X-3382Y-2661D01*
X-3382Y-2613D01*
X-3382Y-2338D01*
X-3401Y-2293D01*
X-3435Y-2259D01*
X-3457Y-2250D01*
X-3435Y-2240D01*
X-3401Y-2206D01*
X-3382Y-2161D01*
X-3382Y-2113D01*
X-3382Y-1838D01*
X-3401Y-1793D01*
X-3435Y-1759D01*
X-3457Y-1750D01*
X-3435Y-1740D01*
X-3401Y-1706D01*
X-3382Y-1661D01*
X-3382Y-1613D01*
X-3382Y-1338D01*
X-3401Y-1293D01*
X-3435Y-1259D01*
X-3457Y-1250D01*
X-3435Y-1240D01*
X-3401Y-1206D01*
X-3382Y-1161D01*
X-3382Y-1113D01*
X-3382Y-838D01*
X-3401Y-793D01*
X-3435Y-759D01*
X-3457Y-750D01*
X-3435Y-740D01*
X-3401Y-706D01*
X-3382Y-661D01*
X-3382Y-613D01*
X-3382Y-338D01*
X-3401Y-293D01*
X-3435Y-259D01*
X-3457Y-250D01*
X-3435Y-240D01*
X-3401Y-206D01*
X-3382Y-161D01*
X-3382Y-113D01*
X-3382Y161D01*
X-3401Y206D01*
X-3435Y240D01*
X-3457Y250D01*
X-3435Y259D01*
X-3401Y293D01*
X-3394Y308D01*
X-3391Y308D01*
X-3318Y323D01*
X-3256Y364D01*
X-3248Y372D01*
X-3207Y434D01*
X-3203Y451D01*
X-1524Y451D01*
X-1521Y445D01*
X-1438Y361D01*
X-1329Y316D01*
X-1295Y316D01*
X-1322Y252D01*
X-1322Y134D01*
X-1277Y25D01*
X-1194Y-58D01*
X-1089Y-101D01*
X-1816Y-101D01*
X-1827Y-74D01*
X-1910Y8D01*
X-2019Y53D01*
X-2137Y53D01*
X-2246Y8D01*
X-2329Y-74D01*
X-2374Y-183D01*
X-2375Y-301D01*
X-2330Y-410D01*
X-2246Y-493D01*
X-2137Y-538D01*
X-2020Y-538D01*
X-1911Y-493D01*
X-1841Y-424D01*
X-447Y-424D01*
X-386Y-411D01*
X-333Y-377D01*
X946Y902D01*
X952Y900D01*
X1070Y900D01*
X1179Y945D01*
X1262Y1028D01*
X1293Y1103D01*
X1337Y1060D01*
X1385Y1028D01*
X1347Y938D01*
X1347Y820D01*
X1392Y711D01*
X1475Y628D01*
X1584Y582D01*
X1702Y582D01*
X1811Y627D01*
X1894Y711D01*
X1940Y820D01*
X1940Y937D01*
X1909Y1013D01*
X3108Y1013D01*
X3256Y864D01*
X3318Y823D01*
X3391Y808D01*
X3394Y808D01*
X3401Y793D01*
X3435Y759D01*
X3457Y750D01*
X3435Y740D01*
X3401Y706D01*
X3382Y661D01*
X3382Y613D01*
X3382Y338D01*
X3401Y293D01*
X3435Y259D01*
X3457Y250D01*
X3435Y240D01*
X3401Y206D01*
X3382Y161D01*
X3382Y113D01*
X3382Y-161D01*
X3401Y-206D01*
X3435Y-240D01*
X3457Y-250D01*
X3435Y-259D01*
X3407Y-287D01*
X2895Y224D01*
X2842Y259D01*
X2781Y271D01*
X1798Y271D01*
X1798Y271D01*
X1736Y259D01*
X1684Y224D01*
X1681Y221D01*
X1650Y296D01*
X1567Y379D01*
X1458Y425D01*
X1340Y425D01*
X1231Y380D01*
X1148Y296D01*
X1129Y252D01*
X1028Y294D01*
X910Y294D01*
X801Y249D01*
X718Y166D01*
X673Y57D01*
X672Y-60D01*
X717Y-169D01*
X801Y-252D01*
X910Y-298D01*
X1027Y-298D01*
X1039Y-293D01*
X1071Y-315D01*
X1115Y-323D01*
X1082Y-402D01*
X1082Y-520D01*
X1127Y-629D01*
X1210Y-712D01*
X1319Y-757D01*
X1437Y-757D01*
X1546Y-712D01*
X1629Y-629D01*
X1672Y-526D01*
X1672Y-542D01*
X1717Y-651D01*
X1800Y-735D01*
X1909Y-780D01*
X2027Y-780D01*
X2136Y-735D01*
X2179Y-692D01*
X3024Y-1538D01*
X3029Y-1565D01*
X3071Y-1627D01*
X3079Y-1635D01*
X3141Y-1676D01*
X3214Y-1691D01*
X3394Y-1691D01*
X3401Y-1706D01*
X3435Y-1740D01*
X3457Y-1750D01*
X3435Y-1759D01*
X3401Y-1793D01*
X3382Y-1838D01*
X3382Y-1886D01*
X3382Y-2161D01*
X3401Y-2206D01*
X3435Y-2240D01*
X3457Y-2250D01*
X3435Y-2259D01*
X3401Y-2293D01*
X3382Y-2338D01*
X3382Y-2386D01*
X3382Y-2661D01*
X3401Y-2706D01*
X3435Y-2740D01*
X3457Y-2750D01*
X3435Y-2759D01*
X3401Y-2793D01*
X3382Y-2838D01*
X3382Y-2886D01*
X3382Y-3161D01*
X3401Y-3206D01*
X3435Y-3240D01*
X3457Y-3250D01*
X3435Y-3259D01*
X3401Y-3293D01*
X3382Y-3338D01*
X3382Y-3386D01*
X3382Y-3661D01*
X3401Y-3706D01*
X3435Y-3740D01*
X3479Y-3759D01*
X3528Y-3759D01*
X3585Y-3759D01*
X3585Y-4687D01*
M02*
