G04 (created by PCBNEW (2013-mar-13)-testing) date Thu 04 Jul 2013 13:06:12 EST*
%MOIN*%
G04 Gerber Fmt 3.4, Leading zero omitted, Abs format*
%FSLAX34Y34*%
G01*
G70*
G90*
G04 APERTURE LIST*
%ADD10C,0.003937*%
%ADD11R,0.045000X0.025000*%
%ADD12R,0.025000X0.045000*%
%ADD13R,0.035433X0.019685*%
%ADD14R,0.008000X0.059055*%
%ADD15R,0.078700X0.055100*%
%ADD16R,0.031496X0.031496*%
%ADD17R,0.039370X0.078740*%
%ADD18R,0.110236X0.027559*%
%ADD19R,0.043307X0.074803*%
%ADD20R,0.039370X0.011811*%
%ADD21C,0.060000*%
%ADD22R,0.060000X0.060000*%
%ADD23R,0.039370X0.137795*%
%ADD24O,0.011800X0.033500*%
%ADD25O,0.033500X0.011800*%
%ADD26R,0.220472X0.220472*%
%ADD27R,0.019685X0.035433*%
%ADD28R,0.059055X0.008000*%
%ADD29C,0.035000*%
%ADD30C,0.010000*%
%ADD31C,0.014000*%
%ADD32C,0.008000*%
%ADD33C,0.012000*%
G04 APERTURE END LIST*
G54D10*
G54D11*
X2362Y9152D03*
X2362Y9752D03*
X4688Y9410D03*
X4688Y8810D03*
X4078Y9410D03*
X4078Y8810D03*
X2972Y9152D03*
X2972Y9752D03*
X5720Y3516D03*
X5720Y2916D03*
G54D12*
X7629Y8267D03*
X8229Y8267D03*
G54D11*
X7437Y3516D03*
X7437Y2916D03*
X7062Y5906D03*
X7062Y5306D03*
X7062Y6314D03*
X7062Y6914D03*
G54D13*
X4606Y3472D03*
X4606Y2960D03*
G54D14*
X4606Y3216D03*
G54D15*
X4763Y700D03*
X4763Y2300D03*
X6763Y700D03*
X6763Y2300D03*
G54D11*
X6330Y3516D03*
X6330Y2916D03*
X5110Y3516D03*
X5110Y2916D03*
G54D16*
X6885Y3511D03*
X6885Y2921D03*
G54D17*
X7692Y9925D03*
X5645Y9925D03*
G54D18*
X6669Y9584D03*
X6669Y10265D03*
G54D19*
X2145Y8488D03*
X3129Y8488D03*
G54D20*
X4061Y10299D03*
X4061Y10043D03*
X4061Y9787D03*
X4710Y9787D03*
X4710Y10043D03*
X4710Y10299D03*
G54D21*
X9441Y8314D03*
X9441Y5164D03*
X9441Y3590D03*
X9441Y4377D03*
X9441Y6739D03*
X9441Y5952D03*
X9441Y7527D03*
X9441Y2015D03*
X9441Y1227D03*
X9441Y2802D03*
X779Y2802D03*
X779Y1227D03*
X779Y2015D03*
X779Y7527D03*
X779Y5952D03*
X779Y6739D03*
X779Y4377D03*
X779Y3590D03*
X779Y5164D03*
X779Y8314D03*
G54D22*
X1929Y3169D03*
G54D21*
X2929Y3169D03*
X1929Y2169D03*
X2929Y2169D03*
X1929Y1169D03*
X2929Y1169D03*
G54D23*
X8185Y5027D03*
X8185Y7192D03*
G54D16*
X8066Y3511D03*
X8066Y2921D03*
G54D11*
X8610Y2916D03*
X8610Y3516D03*
G54D24*
X5468Y7665D03*
X5271Y7665D03*
X5074Y7665D03*
X4877Y7665D03*
X4680Y7665D03*
X4483Y7665D03*
X4287Y7665D03*
X4090Y7665D03*
X3893Y7665D03*
X3696Y7665D03*
X3499Y7665D03*
X3302Y7665D03*
X3302Y4949D03*
X3499Y4949D03*
X3696Y4949D03*
X3893Y4949D03*
X4090Y4949D03*
X4287Y4949D03*
X4483Y4949D03*
X4680Y4949D03*
X4877Y4949D03*
X5074Y4949D03*
X5271Y4949D03*
X5468Y4949D03*
G54D25*
X3027Y7390D03*
X3027Y7193D03*
X3027Y6996D03*
X3027Y6799D03*
X3027Y6602D03*
X3027Y6405D03*
X3027Y6209D03*
X3027Y6012D03*
X3027Y5815D03*
X3027Y5618D03*
X3027Y5421D03*
X3027Y5224D03*
X5743Y5224D03*
X5743Y5421D03*
X5743Y5618D03*
X5743Y5815D03*
X5743Y6012D03*
X5743Y6209D03*
X5743Y6405D03*
X5743Y6602D03*
X5743Y6799D03*
X5743Y6996D03*
X5743Y7193D03*
X5743Y7390D03*
G54D26*
X4385Y6307D03*
G54D22*
X4385Y6307D03*
X3785Y5707D03*
X4985Y5707D03*
X4985Y6907D03*
X3785Y6907D03*
G54D27*
X8759Y2425D03*
X8248Y2425D03*
G54D28*
X8503Y2425D03*
G54D29*
X4215Y3169D03*
X5882Y4778D03*
X2138Y7119D03*
X6448Y6688D03*
X3594Y9645D03*
X7649Y4791D03*
X7437Y1373D03*
X5169Y8909D03*
X4795Y8425D03*
X5877Y8909D03*
X6586Y8909D03*
X7295Y8909D03*
X3594Y8944D03*
X8712Y8909D03*
X8003Y8909D03*
X3783Y10649D03*
X3594Y10346D03*
X3429Y10661D03*
X6543Y5716D03*
X3980Y8429D03*
X3721Y3812D03*
X7062Y4070D03*
X1612Y7378D03*
X4240Y4062D03*
X4583Y4345D03*
X5038Y4520D03*
X3807Y2539D03*
X7503Y885D03*
X6862Y8204D03*
X7070Y7822D03*
X6625Y7811D03*
X6161Y7850D03*
X5803Y8153D03*
X6429Y8208D03*
X1787Y5500D03*
X3696Y8099D03*
X1968Y6685D03*
X2157Y5133D03*
G54D30*
X4519Y3472D02*
X5066Y3472D01*
X5066Y3472D02*
X5110Y3516D01*
X4215Y3169D02*
X4519Y3472D01*
X5110Y3516D02*
X5720Y3516D01*
X3027Y6799D02*
X2458Y6799D01*
X2458Y6799D02*
X2138Y7119D01*
X5110Y3516D02*
X5720Y3516D01*
X5720Y3516D02*
X5720Y4616D01*
X5720Y4616D02*
X5882Y4778D01*
X5743Y6602D02*
X6360Y6600D01*
X6360Y6600D02*
X6448Y6688D01*
X6360Y6600D02*
X6448Y6688D01*
X7649Y4791D02*
X7649Y4488D01*
X8515Y7981D02*
X8229Y8267D01*
X8515Y4216D02*
X8515Y7981D01*
X8500Y4200D02*
X8515Y4216D01*
X7937Y4200D02*
X8500Y4200D01*
X7649Y4488D02*
X7937Y4200D01*
X8066Y2921D02*
X7957Y2811D01*
X6885Y578D02*
X6763Y700D01*
X7637Y578D02*
X6885Y578D01*
X7957Y898D02*
X7637Y578D01*
X7957Y2811D02*
X7957Y898D01*
X7062Y5306D02*
X7134Y5306D01*
X7134Y5306D02*
X7649Y4791D01*
X7437Y2916D02*
X6890Y2916D01*
X6890Y2916D02*
X6885Y2921D01*
X7437Y2916D02*
X7437Y1373D01*
X7437Y1373D02*
X6763Y700D01*
X5743Y6405D02*
X4483Y6405D01*
X4483Y6405D02*
X4385Y6307D01*
X4795Y8263D02*
X4795Y8264D01*
X4795Y8264D02*
X4795Y8425D01*
X4686Y8155D02*
X4795Y8263D01*
X4795Y8263D02*
X5169Y8638D01*
G54D31*
X7295Y8909D02*
X6940Y8909D01*
X6586Y8909D02*
X6232Y8909D01*
G54D30*
X5877Y8909D02*
X5523Y8909D01*
X5519Y8913D02*
X5523Y8909D01*
X5169Y8909D02*
X5169Y8909D01*
X5169Y8909D02*
X5519Y8913D01*
G54D31*
X6232Y8909D02*
X5877Y8909D01*
X6940Y8909D02*
X6586Y8909D01*
X7649Y8909D02*
X7295Y8909D01*
X7649Y8909D02*
X8003Y8909D01*
G54D30*
X5169Y8638D02*
X5169Y8909D01*
X3594Y8637D02*
X3980Y8251D01*
X3594Y9295D02*
X3594Y8944D01*
G54D31*
X8712Y8909D02*
X8358Y8909D01*
X8358Y8909D02*
X8003Y8909D01*
G54D32*
X3594Y8637D02*
X4090Y8141D01*
G54D30*
X7755Y7607D02*
X7755Y7842D01*
X7755Y7842D02*
X8181Y8267D01*
X8181Y8267D02*
X8229Y8267D01*
X7755Y7607D02*
X7062Y6914D01*
X4680Y8149D02*
X4686Y8155D01*
X3594Y10346D02*
X3594Y10460D01*
X3594Y10460D02*
X3783Y10649D01*
X3594Y9295D02*
X3594Y9645D01*
X3594Y9645D02*
X3594Y9996D01*
X3594Y9996D02*
X3594Y10346D01*
X3594Y10346D02*
X3594Y10496D01*
X3594Y10496D02*
X3429Y10661D01*
G54D33*
X1076Y1525D02*
X779Y1227D01*
G54D30*
X3302Y4949D02*
X3302Y4728D01*
X3302Y4728D02*
X2448Y3874D01*
X2448Y2877D02*
X2448Y2853D01*
X2448Y2853D02*
X2259Y2664D01*
X1076Y1525D02*
X1480Y1929D01*
X2448Y2877D02*
X2448Y3874D01*
X1774Y2664D02*
X2259Y2664D01*
X1480Y2370D02*
X1774Y2664D01*
X1480Y1929D02*
X1480Y2370D01*
X5720Y1314D02*
X5925Y1110D01*
X5925Y1110D02*
X5925Y700D01*
X2972Y9752D02*
X3487Y9752D01*
X3487Y9752D02*
X3594Y9645D01*
G54D33*
X3202Y895D02*
X2929Y1169D01*
X462Y1544D02*
X779Y1227D01*
G54D30*
X1299Y8632D02*
X1184Y8748D01*
X346Y1660D02*
X462Y1544D01*
X346Y8492D02*
X346Y1660D01*
X602Y8748D02*
X346Y8492D01*
X1184Y8748D02*
X602Y8748D01*
X1799Y7968D02*
X2106Y7661D01*
X2106Y7661D02*
X2255Y7661D01*
X3202Y895D02*
X3398Y700D01*
X3398Y700D02*
X4763Y700D01*
X7062Y5306D02*
X6953Y5306D01*
X6953Y5306D02*
X6543Y5716D01*
X4680Y8149D02*
X4680Y7665D01*
X5720Y2916D02*
X5720Y1314D01*
X5527Y1122D02*
X5527Y700D01*
X5720Y1314D02*
X5527Y1122D01*
X6763Y700D02*
X5925Y700D01*
X5925Y700D02*
X5527Y700D01*
X5527Y700D02*
X4763Y700D01*
X3893Y7665D02*
X3893Y7858D01*
X4090Y7952D02*
X4090Y7665D01*
X3893Y7858D02*
X4000Y7964D01*
X2358Y9752D02*
X2972Y9752D01*
X2358Y9752D02*
X2358Y9691D01*
X2358Y9691D02*
X1299Y8632D01*
X3027Y7193D02*
X2724Y7193D01*
X2724Y7193D02*
X2255Y7661D01*
X1799Y7968D02*
X1299Y8467D01*
X1299Y8467D02*
X1299Y8632D01*
X6570Y6379D02*
X6571Y6379D01*
X6571Y6379D02*
X7062Y6870D01*
X7062Y6870D02*
X7062Y6914D01*
X5743Y6405D02*
X6190Y6405D01*
X6216Y6379D02*
X6570Y6379D01*
X6190Y6405D02*
X6216Y6379D01*
X4090Y8141D02*
X3980Y8251D01*
X3980Y8251D02*
X3980Y8429D01*
X4090Y7952D02*
X4090Y8141D01*
X4078Y7964D02*
X4090Y7952D01*
X4000Y7964D02*
X4078Y7964D01*
X4061Y10043D02*
X3641Y10043D01*
X3641Y10043D02*
X3594Y9996D01*
X3594Y8637D02*
X3594Y8944D01*
X4061Y10043D02*
X4710Y10043D01*
G54D32*
X4090Y4949D02*
X4090Y4544D01*
X4090Y4544D02*
X3721Y4175D01*
X3721Y4175D02*
X3721Y3812D01*
G54D33*
X2929Y2169D02*
X3509Y2749D01*
G54D32*
X3893Y4573D02*
X3893Y4949D01*
X3509Y2749D02*
X3509Y3409D01*
X3509Y3409D02*
X3423Y3495D01*
X3423Y3495D02*
X3423Y4103D01*
X3423Y4103D02*
X3893Y4573D01*
G54D31*
X5645Y9925D02*
X5645Y10051D01*
X4273Y10511D02*
X4061Y10299D01*
X4972Y10511D02*
X4273Y10511D01*
X5236Y10248D02*
X4972Y10511D01*
X5448Y10248D02*
X5236Y10248D01*
X5645Y10051D02*
X5448Y10248D01*
G54D30*
X4688Y9410D02*
X4688Y9765D01*
X4688Y9765D02*
X4710Y9787D01*
X7437Y3696D02*
X7437Y3516D01*
X7062Y4070D02*
X7437Y3696D01*
G54D32*
X1647Y7414D02*
X1612Y7378D01*
X2260Y7414D02*
X1647Y7414D01*
X2530Y7144D02*
X2260Y7414D01*
X2532Y7144D02*
X2530Y7144D01*
X2680Y6996D02*
X2532Y7144D01*
X3027Y6996D02*
X2680Y6996D01*
X7562Y7972D02*
X7562Y8200D01*
X7562Y8200D02*
X7629Y8267D01*
X7081Y7173D02*
X6837Y7173D01*
X7562Y7653D02*
X7081Y7173D01*
X7562Y7653D02*
X7562Y7972D01*
X6606Y6988D02*
X6791Y7173D01*
X6837Y7173D02*
X6791Y7173D01*
X6099Y6799D02*
X6288Y6988D01*
X5743Y6799D02*
X6099Y6799D01*
X6288Y6988D02*
X6606Y6988D01*
X6330Y3271D02*
X6330Y3516D01*
X6220Y3161D02*
X6330Y3271D01*
X4728Y3161D02*
X6220Y3161D01*
X4606Y3039D02*
X4728Y3161D01*
X6330Y3516D02*
X6330Y3271D01*
X6685Y3271D02*
X6940Y3271D01*
X6330Y2916D02*
X6685Y3271D01*
X6940Y3516D02*
X6940Y3271D01*
X8248Y2425D02*
X8248Y2554D01*
X8248Y2554D02*
X8610Y2916D01*
X8066Y3511D02*
X8605Y3511D01*
X8605Y3511D02*
X8610Y3516D01*
X2358Y9152D02*
X2358Y8907D01*
X2145Y8488D02*
X2358Y8700D01*
X2358Y8700D02*
X2358Y8907D01*
X3027Y7390D02*
X3027Y7606D01*
X3027Y7606D02*
X2145Y8488D01*
G54D30*
X3302Y7665D02*
X3302Y7980D01*
X3302Y7980D02*
X3129Y8153D01*
X3129Y8153D02*
X3129Y8488D01*
X3129Y8153D02*
X3129Y8488D01*
G54D32*
X3129Y8750D02*
X2972Y8907D01*
X2972Y9152D02*
X2972Y8907D01*
X3129Y8488D02*
X3129Y8750D01*
X7306Y6314D02*
X8185Y7192D01*
X7062Y6314D02*
X7306Y6314D01*
X5743Y6209D02*
X5743Y6209D01*
X6957Y6209D02*
X7062Y6314D01*
X5743Y6209D02*
X6957Y6209D01*
X5743Y6209D02*
X5743Y6209D01*
X7306Y5906D02*
X8185Y5027D01*
X7062Y5906D02*
X7306Y5906D01*
X5743Y6012D02*
X5743Y6012D01*
X6957Y6012D02*
X7062Y5906D01*
X5743Y6012D02*
X6957Y6012D01*
X5743Y6012D02*
X5743Y6012D01*
X4287Y7665D02*
X4287Y8601D01*
X4287Y8601D02*
X4078Y8810D01*
X4483Y7665D02*
X4483Y8605D01*
X4483Y8605D02*
X4688Y8810D01*
G54D30*
X4078Y9410D02*
X4078Y9769D01*
X4078Y9769D02*
X4061Y9787D01*
G54D32*
X4287Y4949D02*
X4287Y4661D01*
X4287Y4661D02*
X4287Y4109D01*
X4287Y4109D02*
X4240Y4062D01*
X4483Y4445D02*
X4583Y4345D01*
X4483Y4949D02*
X4483Y4445D01*
X4680Y4661D02*
X4898Y4661D01*
X4898Y4661D02*
X5038Y4520D01*
X4680Y4949D02*
X4680Y4661D01*
X4566Y3954D02*
X3807Y3194D01*
X3807Y3194D02*
X3807Y2539D01*
X5468Y4949D02*
X5468Y4522D01*
X5468Y4522D02*
X4900Y3954D01*
X4900Y3954D02*
X4566Y3954D01*
X7787Y3771D02*
X7787Y1169D01*
X7787Y1169D02*
X7503Y885D01*
X6137Y5421D02*
X7787Y3771D01*
X7787Y1169D02*
X7503Y885D01*
X5743Y5421D02*
X6137Y5421D01*
X7625Y4216D02*
X7917Y3925D01*
X7917Y3925D02*
X9107Y3925D01*
G54D33*
X9441Y3590D02*
X9107Y3925D01*
G54D32*
X5743Y5618D02*
X6224Y5618D01*
X6224Y5618D02*
X7625Y4216D01*
X7122Y8204D02*
X6862Y8204D01*
X7393Y7925D02*
X7393Y7933D01*
X7393Y7933D02*
X7122Y8204D01*
X7393Y7822D02*
X7393Y7925D01*
X7393Y7933D02*
X7122Y8204D01*
X5743Y6996D02*
X6068Y6996D01*
X7393Y7711D02*
X7393Y7822D01*
X7015Y7333D02*
X7393Y7711D01*
X6722Y7333D02*
X7015Y7333D01*
X6539Y7149D02*
X6722Y7333D01*
X6222Y7149D02*
X6539Y7149D01*
X6068Y6996D02*
X6222Y7149D01*
X5743Y7193D02*
X6039Y7193D01*
X7074Y7623D02*
X7070Y7822D01*
X6947Y7496D02*
X7074Y7623D01*
X6641Y7496D02*
X6947Y7496D01*
X6459Y7313D02*
X6641Y7496D01*
X6159Y7313D02*
X6459Y7313D01*
X6039Y7193D02*
X6159Y7313D01*
X7070Y7822D02*
X7066Y7818D01*
X6086Y7474D02*
X6167Y7555D01*
X6350Y7555D02*
X6350Y7559D01*
X6346Y7555D02*
X6350Y7555D01*
X6167Y7555D02*
X6346Y7555D01*
X6625Y7811D02*
X6602Y7811D01*
X6602Y7811D02*
X6350Y7559D01*
X6002Y7390D02*
X6086Y7474D01*
X5743Y7390D02*
X6002Y7390D01*
X6161Y7850D02*
X6153Y7858D01*
X5492Y7858D02*
X5468Y7834D01*
X6153Y7858D02*
X5492Y7858D01*
X5468Y7665D02*
X5468Y7834D01*
X5271Y7665D02*
X5271Y7889D01*
X5271Y7889D02*
X5535Y8153D01*
X5535Y8153D02*
X5803Y8153D01*
X6078Y8448D02*
X6318Y8208D01*
X6318Y8208D02*
X6429Y8208D01*
X5501Y8448D02*
X6078Y8448D01*
X5074Y7665D02*
X5074Y8022D01*
X5074Y8022D02*
X5501Y8448D01*
X9610Y8740D02*
X9240Y8740D01*
X9240Y8740D02*
X9114Y8614D01*
X9114Y8614D02*
X5440Y8614D01*
X4877Y8051D02*
X5440Y8614D01*
X4877Y8051D02*
X4877Y7665D01*
X4877Y7665D02*
X4877Y7665D01*
X9114Y8614D02*
X9234Y8734D01*
X7602Y8614D02*
X5440Y8614D01*
X9114Y8614D02*
X7602Y8614D01*
X9234Y8734D02*
X9114Y8614D01*
X9234Y8734D02*
X9228Y8734D01*
X9228Y8734D02*
X9228Y8740D01*
X9871Y8479D02*
X9871Y2445D01*
X9228Y8740D02*
X9610Y8740D01*
X9610Y8740D02*
X9871Y8479D01*
X9610Y8740D02*
X9871Y8479D01*
X9871Y8479D02*
X9610Y8740D01*
G54D33*
X9871Y2445D02*
X9441Y2015D01*
G54D32*
X3027Y6209D02*
X2496Y6209D01*
X2496Y6209D02*
X1787Y5500D01*
X2496Y6209D02*
X1787Y5500D01*
X5110Y2916D02*
X5110Y2646D01*
X5110Y2646D02*
X4763Y2300D01*
G54D33*
X1929Y1169D02*
X2267Y1507D01*
G54D32*
X5110Y2646D02*
X4763Y2300D01*
X3696Y7665D02*
X3696Y8099D01*
X4528Y1669D02*
X4763Y1904D01*
X2429Y1669D02*
X4528Y1669D01*
X2267Y1507D02*
X2429Y1669D01*
X4763Y2300D02*
X4763Y1904D01*
G54D33*
X2373Y2370D02*
X2172Y2169D01*
X2172Y2169D02*
X1929Y2169D01*
G54D32*
X2751Y2749D02*
X2373Y2370D01*
X3696Y4949D02*
X3696Y4661D01*
X3255Y4219D02*
X3696Y4661D01*
X3255Y3437D02*
X3255Y4219D01*
X3349Y3343D02*
X3255Y3437D01*
X3349Y2995D02*
X3349Y3343D01*
X3103Y2749D02*
X3349Y2995D01*
X2751Y2749D02*
X3103Y2749D01*
G54D33*
X9441Y2802D02*
X9063Y2425D01*
G54D32*
X8759Y2425D02*
X9063Y2425D01*
X3027Y6602D02*
X2051Y6602D01*
X2051Y6602D02*
X1968Y6685D01*
X2051Y6602D02*
X1968Y6685D01*
X1442Y5702D02*
X1442Y2612D01*
X3027Y6405D02*
X2466Y6405D01*
X2466Y6405D02*
X2466Y6405D01*
G54D33*
X1182Y2353D02*
X845Y2015D01*
G54D32*
X1442Y2612D02*
X1182Y2353D01*
G54D33*
X845Y2015D02*
X779Y2015D01*
G54D32*
X1442Y5702D02*
X1724Y5984D01*
X2045Y5984D02*
X1724Y5984D01*
X2466Y6405D02*
X2045Y5984D01*
X2157Y5133D02*
X2157Y5622D01*
X2157Y5622D02*
X2547Y6012D01*
X2547Y6012D02*
X3027Y6012D01*
G54D10*
G36*
X4885Y10681D02*
X4273Y10681D01*
X4208Y10668D01*
X4153Y10631D01*
X4143Y10622D01*
X3685Y10622D01*
X3681Y9968D01*
X2163Y9968D01*
X3145Y10818D01*
X4755Y10818D01*
X4775Y10818D01*
X4885Y10818D01*
X4885Y10681D01*
X4885Y10681D01*
G37*
X4885Y10681D02*
X4273Y10681D01*
X4208Y10668D01*
X4153Y10631D01*
X4143Y10622D01*
X3685Y10622D01*
X3681Y9968D01*
X2163Y9968D01*
X3145Y10818D01*
X4755Y10818D01*
X4775Y10818D01*
X4885Y10818D01*
X4885Y10681D01*
G36*
X9229Y8935D02*
X9215Y8921D01*
X9185Y8891D01*
X9167Y8887D01*
X9115Y8853D01*
X9091Y8817D01*
X9049Y8776D01*
X5036Y8776D01*
X5036Y8889D01*
X5036Y9046D01*
X5165Y9046D01*
X9102Y9046D01*
X9229Y8935D01*
X9229Y8935D01*
G37*
G54D32*
X9229Y8935D02*
X9215Y8921D01*
X9185Y8891D01*
X9167Y8887D01*
X9115Y8853D01*
X9091Y8817D01*
X9049Y8776D01*
X5036Y8776D01*
X5036Y8889D01*
X5036Y9046D01*
X5165Y9046D01*
X9102Y9046D01*
X9229Y8935D01*
M02*
