G04 (created by PCBNEW (2013-mar-13)-testing) date Thu 04 Jul 2013 13:06:12 EST*
%MOIN*%
G04 Gerber Fmt 3.4, Leading zero omitted, Abs format*
%FSLAX34Y34*%
G01*
G70*
G90*
G04 APERTURE LIST*
%ADD10C,0.003937*%
%ADD11C,0.007000*%
%ADD12C,0.008000*%
%ADD13C,0.003445*%
%ADD14C,0.002953*%
%ADD15C,0.004921*%
G04 APERTURE END LIST*
G54D10*
X8679Y9413D02*
X8679Y9570D01*
X8626Y9458D01*
X8574Y9570D01*
X8574Y9413D01*
X8439Y9420D02*
X8454Y9413D01*
X8484Y9413D01*
X8499Y9420D01*
X8506Y9435D01*
X8506Y9495D01*
X8499Y9510D01*
X8484Y9517D01*
X8454Y9517D01*
X8439Y9510D01*
X8431Y9495D01*
X8431Y9480D01*
X8506Y9465D01*
X8371Y9420D02*
X8356Y9413D01*
X8326Y9413D01*
X8311Y9420D01*
X8304Y9435D01*
X8304Y9443D01*
X8311Y9458D01*
X8326Y9465D01*
X8349Y9465D01*
X8364Y9473D01*
X8371Y9488D01*
X8371Y9495D01*
X8364Y9510D01*
X8349Y9517D01*
X8326Y9517D01*
X8311Y9510D01*
X8236Y9413D02*
X8236Y9570D01*
X8169Y9413D02*
X8169Y9495D01*
X8176Y9510D01*
X8191Y9517D01*
X8214Y9517D01*
X8229Y9510D01*
X8236Y9502D01*
X8116Y9570D02*
X8026Y9570D01*
X8071Y9413D02*
X8071Y9570D01*
X7974Y9413D02*
X7974Y9570D01*
X7906Y9413D02*
X7906Y9495D01*
X7914Y9510D01*
X7929Y9517D01*
X7951Y9517D01*
X7966Y9510D01*
X7974Y9502D01*
X7831Y9413D02*
X7831Y9517D01*
X7831Y9570D02*
X7839Y9562D01*
X7831Y9555D01*
X7824Y9562D01*
X7831Y9570D01*
X7831Y9555D01*
X7756Y9517D02*
X7756Y9413D01*
X7756Y9502D02*
X7749Y9510D01*
X7734Y9517D01*
X7711Y9517D01*
X7696Y9510D01*
X7689Y9495D01*
X7689Y9413D01*
X7546Y9517D02*
X7546Y9390D01*
X7554Y9375D01*
X7561Y9368D01*
X7576Y9360D01*
X7599Y9360D01*
X7614Y9368D01*
X7546Y9420D02*
X7561Y9413D01*
X7591Y9413D01*
X7606Y9420D01*
X7614Y9428D01*
X7621Y9443D01*
X7621Y9488D01*
X7614Y9502D01*
X7606Y9510D01*
X7591Y9517D01*
X7561Y9517D01*
X7546Y9510D01*
X7269Y9413D02*
X7359Y9413D01*
X7314Y9413D02*
X7314Y9570D01*
X7329Y9547D01*
X7344Y9532D01*
X7359Y9525D01*
X7201Y9428D02*
X7194Y9420D01*
X7201Y9413D01*
X7209Y9420D01*
X7201Y9428D01*
X7201Y9413D01*
X7096Y9570D02*
X7081Y9570D01*
X7066Y9562D01*
X7059Y9555D01*
X7051Y9540D01*
X7044Y9510D01*
X7044Y9473D01*
X7051Y9443D01*
X7059Y9428D01*
X7066Y9420D01*
X7081Y9413D01*
X7096Y9413D01*
X7111Y9420D01*
X7119Y9428D01*
X7126Y9443D01*
X7134Y9473D01*
X7134Y9510D01*
X7126Y9540D01*
X7119Y9555D01*
X7111Y9562D01*
X7096Y9570D01*
X8791Y9273D02*
X8806Y9280D01*
X8836Y9280D01*
X8851Y9273D01*
X8866Y9258D01*
X8874Y9243D01*
X8874Y9213D01*
X8866Y9198D01*
X8851Y9183D01*
X8836Y9175D01*
X8806Y9175D01*
X8791Y9183D01*
X8821Y9333D02*
X8859Y9325D01*
X8896Y9303D01*
X8919Y9265D01*
X8926Y9228D01*
X8919Y9190D01*
X8896Y9153D01*
X8859Y9130D01*
X8821Y9123D01*
X8784Y9130D01*
X8746Y9153D01*
X8724Y9190D01*
X8716Y9228D01*
X8724Y9265D01*
X8746Y9303D01*
X8784Y9325D01*
X8821Y9333D01*
X8596Y9235D02*
X8574Y9228D01*
X8566Y9220D01*
X8559Y9205D01*
X8559Y9183D01*
X8566Y9168D01*
X8574Y9160D01*
X8589Y9153D01*
X8649Y9153D01*
X8649Y9310D01*
X8596Y9310D01*
X8581Y9303D01*
X8574Y9295D01*
X8566Y9280D01*
X8566Y9265D01*
X8574Y9250D01*
X8581Y9243D01*
X8596Y9235D01*
X8649Y9235D01*
X8469Y9153D02*
X8484Y9160D01*
X8491Y9168D01*
X8499Y9183D01*
X8499Y9228D01*
X8491Y9243D01*
X8484Y9250D01*
X8469Y9258D01*
X8446Y9258D01*
X8431Y9250D01*
X8424Y9243D01*
X8416Y9228D01*
X8416Y9183D01*
X8424Y9168D01*
X8431Y9160D01*
X8446Y9153D01*
X8469Y9153D01*
X8349Y9153D02*
X8349Y9310D01*
X8349Y9250D02*
X8334Y9258D01*
X8304Y9258D01*
X8289Y9250D01*
X8281Y9243D01*
X8274Y9228D01*
X8274Y9183D01*
X8281Y9168D01*
X8289Y9160D01*
X8304Y9153D01*
X8334Y9153D01*
X8349Y9160D01*
X8206Y9153D02*
X8206Y9310D01*
X8146Y9310D01*
X8131Y9303D01*
X8124Y9295D01*
X8116Y9280D01*
X8116Y9258D01*
X8124Y9243D01*
X8131Y9235D01*
X8146Y9228D01*
X8206Y9228D01*
X8026Y9153D02*
X8041Y9160D01*
X8049Y9168D01*
X8056Y9183D01*
X8056Y9228D01*
X8049Y9243D01*
X8041Y9250D01*
X8026Y9258D01*
X8004Y9258D01*
X7989Y9250D01*
X7981Y9243D01*
X7974Y9228D01*
X7974Y9183D01*
X7981Y9168D01*
X7989Y9160D01*
X8004Y9153D01*
X8026Y9153D01*
X7921Y9258D02*
X7891Y9153D01*
X7861Y9228D01*
X7831Y9153D01*
X7801Y9258D01*
X7681Y9160D02*
X7696Y9153D01*
X7726Y9153D01*
X7741Y9160D01*
X7749Y9175D01*
X7749Y9235D01*
X7741Y9250D01*
X7726Y9258D01*
X7696Y9258D01*
X7681Y9250D01*
X7674Y9235D01*
X7674Y9220D01*
X7749Y9205D01*
X7606Y9153D02*
X7606Y9258D01*
X7606Y9228D02*
X7599Y9243D01*
X7591Y9250D01*
X7576Y9258D01*
X7561Y9258D01*
X7516Y9160D02*
X7501Y9153D01*
X7471Y9153D01*
X7456Y9160D01*
X7449Y9175D01*
X7449Y9183D01*
X7456Y9198D01*
X7471Y9205D01*
X7494Y9205D01*
X7509Y9213D01*
X7516Y9228D01*
X7516Y9235D01*
X7509Y9250D01*
X7494Y9258D01*
X7471Y9258D01*
X7456Y9250D01*
X7269Y9295D02*
X7261Y9303D01*
X7246Y9310D01*
X7209Y9310D01*
X7194Y9303D01*
X7186Y9295D01*
X7179Y9280D01*
X7179Y9265D01*
X7186Y9243D01*
X7276Y9153D01*
X7179Y9153D01*
X7081Y9310D02*
X7066Y9310D01*
X7051Y9303D01*
X7044Y9295D01*
X7036Y9280D01*
X7029Y9250D01*
X7029Y9213D01*
X7036Y9183D01*
X7044Y9168D01*
X7051Y9160D01*
X7066Y9153D01*
X7081Y9153D01*
X7096Y9160D01*
X7104Y9168D01*
X7111Y9183D01*
X7119Y9213D01*
X7119Y9250D01*
X7111Y9280D01*
X7104Y9295D01*
X7096Y9303D01*
X7081Y9310D01*
X6879Y9153D02*
X6969Y9153D01*
X6924Y9153D02*
X6924Y9310D01*
X6939Y9288D01*
X6954Y9273D01*
X6969Y9265D01*
X6826Y9310D02*
X6729Y9310D01*
X6781Y9250D01*
X6759Y9250D01*
X6744Y9243D01*
X6736Y9235D01*
X6729Y9220D01*
X6729Y9183D01*
X6736Y9168D01*
X6744Y9160D01*
X6759Y9153D01*
X6804Y9153D01*
X6819Y9160D01*
X6826Y9168D01*
G54D11*
X8854Y6401D02*
X8854Y1499D01*
X8893Y1480D02*
X8893Y6421D01*
X8992Y6401D02*
X8992Y1499D01*
X9051Y6421D02*
X8952Y6421D01*
X9051Y1480D02*
X9051Y6421D01*
X8814Y1480D02*
X8814Y6421D01*
X9051Y1480D02*
X8814Y1480D01*
X3874Y6421D02*
X3874Y6263D01*
X3381Y1047D02*
X3381Y6263D01*
X3381Y6263D02*
X3874Y6263D01*
X8480Y869D02*
X4543Y869D01*
X4543Y869D02*
X4208Y535D01*
X4208Y535D02*
X3874Y535D01*
X5507Y6421D02*
X3874Y6421D01*
X7791Y6421D02*
X6255Y6421D01*
X8952Y6421D02*
X8539Y6421D01*
X8952Y1480D02*
X8952Y6421D01*
G54D12*
X7840Y2679D02*
X7856Y2663D01*
X7904Y2647D01*
X7935Y2647D01*
X7983Y2663D01*
X8015Y2695D01*
X8031Y2727D01*
X8047Y2791D01*
X8047Y2839D01*
X8031Y2902D01*
X8015Y2934D01*
X7983Y2966D01*
X7935Y2982D01*
X7904Y2982D01*
X7856Y2966D01*
X7840Y2950D01*
X7553Y2647D02*
X7553Y2823D01*
X7569Y2854D01*
X7601Y2870D01*
X7665Y2870D01*
X7696Y2854D01*
X7553Y2663D02*
X7585Y2647D01*
X7665Y2647D01*
X7696Y2663D01*
X7712Y2695D01*
X7712Y2727D01*
X7696Y2759D01*
X7665Y2775D01*
X7585Y2775D01*
X7553Y2791D01*
X7394Y2647D02*
X7394Y2870D01*
X7394Y2807D02*
X7378Y2839D01*
X7362Y2854D01*
X7330Y2870D01*
X7298Y2870D01*
X7043Y2647D02*
X7043Y2982D01*
X7043Y2663D02*
X7075Y2647D01*
X7139Y2647D01*
X7171Y2663D01*
X7186Y2679D01*
X7202Y2711D01*
X7202Y2807D01*
X7186Y2839D01*
X7171Y2854D01*
X7139Y2870D01*
X7075Y2870D01*
X7043Y2854D01*
X6629Y2823D02*
X6517Y2823D01*
X6469Y2647D02*
X6629Y2647D01*
X6629Y2982D01*
X6469Y2982D01*
X6326Y2870D02*
X6326Y2647D01*
X6326Y2839D02*
X6310Y2854D01*
X6278Y2870D01*
X6230Y2870D01*
X6198Y2854D01*
X6183Y2823D01*
X6183Y2647D01*
X6071Y2870D02*
X5944Y2870D01*
X6023Y2982D02*
X6023Y2695D01*
X6007Y2663D01*
X5975Y2647D01*
X5944Y2647D01*
X5832Y2647D02*
X5832Y2870D01*
X5832Y2807D02*
X5816Y2839D01*
X5800Y2854D01*
X5768Y2870D01*
X5736Y2870D01*
X5481Y2647D02*
X5481Y2823D01*
X5497Y2854D01*
X5529Y2870D01*
X5593Y2870D01*
X5625Y2854D01*
X5481Y2663D02*
X5513Y2647D01*
X5593Y2647D01*
X5625Y2663D01*
X5641Y2695D01*
X5641Y2727D01*
X5625Y2759D01*
X5593Y2775D01*
X5513Y2775D01*
X5481Y2791D01*
X5322Y2870D02*
X5322Y2647D01*
X5322Y2839D02*
X5306Y2854D01*
X5274Y2870D01*
X5226Y2870D01*
X5195Y2854D01*
X5179Y2823D01*
X5179Y2647D01*
X4876Y2663D02*
X4908Y2647D01*
X4971Y2647D01*
X5003Y2663D01*
X5019Y2679D01*
X5035Y2711D01*
X5035Y2807D01*
X5019Y2839D01*
X5003Y2854D01*
X4971Y2870D01*
X4908Y2870D01*
X4876Y2854D01*
X4605Y2663D02*
X4637Y2647D01*
X4701Y2647D01*
X4732Y2663D01*
X4748Y2695D01*
X4748Y2823D01*
X4732Y2854D01*
X4701Y2870D01*
X4637Y2870D01*
X4605Y2854D01*
X4589Y2823D01*
X4589Y2791D01*
X4748Y2759D01*
G54D13*
X9011Y1395D02*
X9011Y1329D01*
X9050Y1408D02*
X8912Y1362D01*
X9050Y1316D01*
X9050Y1270D02*
X8912Y1270D01*
X8912Y1237D01*
X8919Y1218D01*
X8932Y1204D01*
X8945Y1198D01*
X8971Y1191D01*
X8991Y1191D01*
X9017Y1198D01*
X9030Y1204D01*
X9043Y1218D01*
X9050Y1237D01*
X9050Y1270D01*
X8958Y1073D02*
X9050Y1073D01*
X8906Y1106D02*
X9004Y1139D01*
X9004Y1054D01*
X9011Y6907D02*
X9011Y6841D01*
X9050Y6920D02*
X8912Y6874D01*
X9050Y6828D01*
X9050Y6782D02*
X8912Y6782D01*
X8912Y6749D01*
X8919Y6730D01*
X8932Y6716D01*
X8945Y6710D01*
X8971Y6703D01*
X8991Y6703D01*
X9017Y6710D01*
X9030Y6716D01*
X9043Y6730D01*
X9050Y6749D01*
X9050Y6782D01*
X8925Y6651D02*
X8919Y6644D01*
X8912Y6631D01*
X8912Y6598D01*
X8919Y6585D01*
X8925Y6579D01*
X8938Y6572D01*
X8952Y6572D01*
X8971Y6579D01*
X9050Y6657D01*
X9050Y6572D01*
G54D14*
X9011Y7695D02*
X9011Y7629D01*
X9050Y7708D02*
X8912Y7662D01*
X9050Y7616D01*
X9050Y7570D02*
X8912Y7570D01*
X8912Y7537D01*
X8919Y7518D01*
X8932Y7504D01*
X8945Y7498D01*
X8971Y7491D01*
X8991Y7491D01*
X9017Y7498D01*
X9030Y7504D01*
X9043Y7518D01*
X9050Y7537D01*
X9050Y7570D01*
X9050Y7360D02*
X9050Y7439D01*
X9050Y7400D02*
X8912Y7400D01*
X8932Y7413D01*
X8945Y7426D01*
X8952Y7439D01*
X9011Y8482D02*
X9011Y8416D01*
X9050Y8495D02*
X8912Y8449D01*
X9050Y8403D01*
X9050Y8357D02*
X8912Y8357D01*
X8912Y8324D01*
X8919Y8305D01*
X8932Y8291D01*
X8945Y8285D01*
X8971Y8278D01*
X8991Y8278D01*
X9017Y8285D01*
X9030Y8291D01*
X9043Y8305D01*
X9050Y8324D01*
X9050Y8357D01*
X8912Y8193D02*
X8912Y8180D01*
X8919Y8167D01*
X8925Y8160D01*
X8938Y8154D01*
X8965Y8147D01*
X8998Y8147D01*
X9024Y8154D01*
X9037Y8160D01*
X9043Y8167D01*
X9050Y8180D01*
X9050Y8193D01*
X9043Y8206D01*
X9037Y8213D01*
X9024Y8219D01*
X8998Y8226D01*
X8965Y8226D01*
X8938Y8219D01*
X8925Y8213D01*
X8919Y8206D01*
X8912Y8193D01*
G54D15*
X1124Y8605D02*
X1124Y8483D01*
X1199Y8549D01*
X1199Y8521D01*
X1208Y8502D01*
X1218Y8493D01*
X1236Y8483D01*
X1283Y8483D01*
X1302Y8493D01*
X1311Y8502D01*
X1321Y8521D01*
X1321Y8577D01*
X1311Y8596D01*
X1302Y8605D01*
X1302Y8399D02*
X1311Y8389D01*
X1321Y8399D01*
X1311Y8408D01*
X1302Y8399D01*
X1321Y8399D01*
X1124Y8324D02*
X1124Y8202D01*
X1199Y8268D01*
X1199Y8239D01*
X1208Y8221D01*
X1218Y8211D01*
X1236Y8202D01*
X1283Y8202D01*
X1302Y8211D01*
X1311Y8221D01*
X1321Y8239D01*
X1321Y8296D01*
X1311Y8314D01*
X1302Y8324D01*
X1124Y8146D02*
X1321Y8080D01*
X1124Y8014D01*
G54D13*
X1156Y7632D02*
X1156Y7554D01*
X1294Y7593D02*
X1156Y7593D01*
X1156Y7521D02*
X1294Y7429D01*
X1156Y7429D02*
X1294Y7521D01*
X1294Y6762D02*
X1229Y6808D01*
X1294Y6841D02*
X1156Y6841D01*
X1156Y6789D01*
X1163Y6776D01*
X1169Y6769D01*
X1183Y6762D01*
X1202Y6762D01*
X1215Y6769D01*
X1222Y6776D01*
X1229Y6789D01*
X1229Y6841D01*
X1156Y6716D02*
X1294Y6625D01*
X1156Y6625D02*
X1294Y6716D01*
X1294Y6120D02*
X1156Y6120D01*
X1156Y6087D01*
X1163Y6067D01*
X1176Y6054D01*
X1189Y6048D01*
X1215Y6041D01*
X1235Y6041D01*
X1261Y6048D01*
X1274Y6054D01*
X1288Y6067D01*
X1294Y6087D01*
X1294Y6120D01*
X1294Y5910D02*
X1294Y5989D01*
X1294Y5949D02*
X1156Y5949D01*
X1176Y5962D01*
X1189Y5975D01*
X1196Y5989D01*
X1169Y5857D02*
X1163Y5851D01*
X1156Y5838D01*
X1156Y5805D01*
X1163Y5792D01*
X1169Y5785D01*
X1183Y5779D01*
X1196Y5779D01*
X1215Y5785D01*
X1294Y5864D01*
X1294Y5779D01*
X1294Y5240D02*
X1229Y5286D01*
X1294Y5319D02*
X1156Y5319D01*
X1156Y5266D01*
X1163Y5253D01*
X1169Y5246D01*
X1183Y5240D01*
X1202Y5240D01*
X1215Y5246D01*
X1222Y5253D01*
X1229Y5266D01*
X1229Y5319D01*
X1288Y5187D02*
X1294Y5168D01*
X1294Y5135D01*
X1288Y5122D01*
X1281Y5115D01*
X1268Y5109D01*
X1255Y5109D01*
X1242Y5115D01*
X1235Y5122D01*
X1229Y5135D01*
X1222Y5161D01*
X1215Y5174D01*
X1209Y5181D01*
X1196Y5187D01*
X1183Y5187D01*
X1169Y5181D01*
X1163Y5174D01*
X1156Y5161D01*
X1156Y5128D01*
X1163Y5109D01*
X1156Y5069D02*
X1156Y4991D01*
X1294Y5030D02*
X1156Y5030D01*
X1133Y5351D02*
X1133Y4977D01*
X1294Y4499D02*
X1229Y4545D01*
X1294Y4578D02*
X1156Y4578D01*
X1156Y4525D01*
X1163Y4512D01*
X1169Y4505D01*
X1183Y4499D01*
X1202Y4499D01*
X1215Y4505D01*
X1222Y4512D01*
X1229Y4525D01*
X1229Y4578D01*
X1288Y4446D02*
X1294Y4427D01*
X1294Y4394D01*
X1288Y4381D01*
X1281Y4374D01*
X1268Y4368D01*
X1255Y4368D01*
X1242Y4374D01*
X1235Y4381D01*
X1229Y4394D01*
X1222Y4420D01*
X1215Y4433D01*
X1209Y4440D01*
X1196Y4446D01*
X1183Y4446D01*
X1169Y4440D01*
X1163Y4433D01*
X1156Y4420D01*
X1156Y4387D01*
X1163Y4368D01*
X1288Y4315D02*
X1294Y4295D01*
X1294Y4263D01*
X1288Y4250D01*
X1281Y4243D01*
X1268Y4236D01*
X1255Y4236D01*
X1242Y4243D01*
X1235Y4250D01*
X1229Y4263D01*
X1222Y4289D01*
X1215Y4302D01*
X1209Y4309D01*
X1196Y4315D01*
X1183Y4315D01*
X1169Y4309D01*
X1163Y4302D01*
X1156Y4289D01*
X1156Y4256D01*
X1163Y4236D01*
X1294Y4177D02*
X1156Y4177D01*
X1294Y3850D02*
X1156Y3850D01*
X1156Y3797D01*
X1163Y3784D01*
X1169Y3777D01*
X1183Y3771D01*
X1202Y3771D01*
X1215Y3777D01*
X1222Y3784D01*
X1229Y3797D01*
X1229Y3850D01*
X1156Y3725D02*
X1294Y3692D01*
X1196Y3666D01*
X1294Y3640D01*
X1156Y3607D01*
X1294Y3554D02*
X1156Y3554D01*
X1255Y3508D01*
X1156Y3463D01*
X1294Y3463D01*
X1294Y3325D02*
X1294Y3403D01*
X1294Y3364D02*
X1156Y3364D01*
X1176Y3377D01*
X1189Y3390D01*
X1196Y3403D01*
G54D15*
X1321Y2957D02*
X1124Y2957D01*
X1321Y2845D01*
X1124Y2845D01*
X1302Y2638D02*
X1311Y2648D01*
X1321Y2676D01*
X1321Y2695D01*
X1311Y2723D01*
X1293Y2742D01*
X1274Y2751D01*
X1236Y2760D01*
X1208Y2760D01*
X1171Y2751D01*
X1152Y2742D01*
X1133Y2723D01*
X1124Y2695D01*
X1124Y2676D01*
X1133Y2648D01*
X1143Y2638D01*
G54D13*
X1294Y2439D02*
X1156Y2439D01*
X1156Y2406D01*
X1163Y2386D01*
X1176Y2373D01*
X1189Y2367D01*
X1215Y2360D01*
X1235Y2360D01*
X1261Y2367D01*
X1274Y2373D01*
X1288Y2386D01*
X1294Y2406D01*
X1294Y2439D01*
X1156Y2321D02*
X1156Y2242D01*
X1294Y2281D02*
X1156Y2281D01*
X1294Y2117D02*
X1229Y2163D01*
X1294Y2196D02*
X1156Y2196D01*
X1156Y2143D01*
X1163Y2130D01*
X1169Y2124D01*
X1183Y2117D01*
X1202Y2117D01*
X1215Y2124D01*
X1222Y2130D01*
X1229Y2143D01*
X1229Y2196D01*
X1150Y1960D02*
X1327Y2078D01*
X1288Y1920D02*
X1294Y1901D01*
X1294Y1868D01*
X1288Y1855D01*
X1281Y1848D01*
X1268Y1842D01*
X1255Y1842D01*
X1242Y1848D01*
X1235Y1855D01*
X1229Y1868D01*
X1222Y1894D01*
X1215Y1907D01*
X1209Y1914D01*
X1196Y1920D01*
X1183Y1920D01*
X1169Y1914D01*
X1163Y1907D01*
X1156Y1894D01*
X1156Y1861D01*
X1163Y1842D01*
X1294Y1783D02*
X1156Y1783D01*
X1156Y1750D01*
X1163Y1730D01*
X1176Y1717D01*
X1189Y1710D01*
X1215Y1704D01*
X1235Y1704D01*
X1261Y1710D01*
X1274Y1717D01*
X1288Y1730D01*
X1294Y1750D01*
X1294Y1783D01*
X1255Y1651D02*
X1255Y1586D01*
X1294Y1664D02*
X1156Y1618D01*
X1294Y1573D01*
G54D15*
X1133Y1377D02*
X1124Y1396D01*
X1124Y1424D01*
X1133Y1452D01*
X1152Y1471D01*
X1171Y1481D01*
X1208Y1490D01*
X1236Y1490D01*
X1274Y1481D01*
X1293Y1471D01*
X1311Y1452D01*
X1321Y1424D01*
X1321Y1406D01*
X1311Y1377D01*
X1302Y1368D01*
X1236Y1368D01*
X1236Y1406D01*
X1321Y1284D02*
X1124Y1284D01*
X1321Y1171D01*
X1124Y1171D01*
X1321Y1077D02*
X1124Y1077D01*
X1124Y1031D01*
X1133Y1002D01*
X1152Y984D01*
X1171Y974D01*
X1208Y965D01*
X1236Y965D01*
X1274Y974D01*
X1293Y984D01*
X1311Y1002D01*
X1321Y1031D01*
X1321Y1077D01*
M02*
