G04 (created by PCBNEW (2013-mar-13)-testing) date Thu 04 Jul 2013 13:06:12 EST*
%MOIN*%
G04 Gerber Fmt 3.4, Leading zero omitted, Abs format*
%FSLAX34Y34*%
G01*
G70*
G90*
G04 APERTURE LIST*
%ADD10C,0.003937*%
%ADD11R,0.029500X0.059100*%
%ADD12R,0.055100X0.074800*%
%ADD13R,0.070900X0.055100*%
%ADD14C,0.060000*%
%ADD15R,0.060000X0.060000*%
%ADD16C,0.035000*%
%ADD17C,0.012000*%
%ADD18C,0.010000*%
%ADD19C,0.014000*%
%ADD20C,0.008000*%
G04 APERTURE END LIST*
G54D10*
G54D11*
X8066Y2208D03*
X8499Y2208D03*
X7633Y2129D03*
X7200Y2208D03*
X5468Y2208D03*
X5901Y2365D03*
X6334Y2208D03*
X6767Y2129D03*
G54D12*
X8775Y1086D03*
X3559Y653D03*
G54D13*
X8165Y6263D03*
X5881Y6263D03*
G54D14*
X9441Y8314D03*
X9441Y5164D03*
X9441Y3590D03*
X9441Y4377D03*
X9441Y6739D03*
X9441Y5952D03*
X9441Y7527D03*
X9441Y2015D03*
X9441Y1227D03*
X9441Y2802D03*
X779Y2802D03*
X779Y1227D03*
X779Y2015D03*
X779Y7527D03*
X779Y5952D03*
X779Y6739D03*
X779Y4377D03*
X779Y3590D03*
X779Y5164D03*
X779Y8314D03*
G54D15*
X1929Y3169D03*
G54D14*
X2929Y3169D03*
X1929Y2169D03*
X2929Y2169D03*
X1929Y1169D03*
X2929Y1169D03*
G54D15*
X4385Y6307D03*
X3785Y5707D03*
X4985Y5707D03*
X4985Y6907D03*
X3785Y6907D03*
G54D16*
X4215Y3169D03*
X5882Y4778D03*
X2138Y7119D03*
X6448Y6688D03*
X3594Y9645D03*
X7649Y4791D03*
X7437Y1373D03*
X5169Y8909D03*
X4795Y8425D03*
X5877Y8909D03*
X6586Y8909D03*
X7295Y8909D03*
X3594Y8944D03*
X8712Y8909D03*
X8003Y8909D03*
X3783Y10649D03*
X3594Y10346D03*
X3429Y10661D03*
X6543Y5716D03*
X3980Y8429D03*
X3721Y3812D03*
X7062Y4070D03*
X1612Y7378D03*
X4240Y4062D03*
X4583Y4345D03*
X5038Y4520D03*
X3807Y2539D03*
X7503Y885D03*
X6862Y8204D03*
X7070Y7822D03*
X6625Y7811D03*
X6161Y7850D03*
X5803Y8153D03*
X6429Y8208D03*
X1787Y5500D03*
X3696Y8099D03*
X1968Y6685D03*
X2157Y5133D03*
G54D17*
X2929Y3169D02*
X4215Y3169D01*
G54D18*
X2138Y7119D02*
X2138Y6952D01*
X5495Y5165D02*
X5882Y4778D01*
X2877Y5165D02*
X5495Y5165D01*
X2819Y5224D02*
X2877Y5165D01*
X2819Y5896D02*
X2819Y5224D01*
X2318Y6397D02*
X2819Y5896D01*
X2318Y6771D02*
X2318Y6397D01*
X2138Y6952D02*
X2318Y6771D01*
X6448Y6688D02*
X6448Y6677D01*
X6448Y6677D02*
X7110Y6015D01*
X7110Y6015D02*
X7110Y5417D01*
X7110Y5417D02*
X6471Y4778D01*
X6471Y4778D02*
X5882Y4778D01*
G54D17*
X1269Y8198D02*
X1153Y8314D01*
X1153Y8314D02*
X779Y8314D01*
G54D18*
X6767Y2129D02*
X6767Y2452D01*
X6767Y2452D02*
X6051Y3169D01*
X6051Y3169D02*
X4215Y3169D01*
X2138Y7119D02*
X2138Y7330D01*
X2138Y7330D02*
X1269Y8198D01*
X5881Y6263D02*
X5996Y6263D01*
X5996Y6263D02*
X6543Y5716D01*
X3594Y9645D02*
X3610Y9645D01*
X8429Y4590D02*
X8429Y3940D01*
X8228Y4791D02*
X8429Y4590D01*
X7649Y4791D02*
X8228Y4791D01*
X8779Y2078D02*
X8779Y1850D01*
X8302Y1373D02*
X7437Y1373D01*
X8779Y1850D02*
X8302Y1373D01*
X8779Y1771D02*
X8779Y1090D01*
X8779Y1090D02*
X8775Y1086D01*
X7633Y2129D02*
X7633Y1569D01*
X7633Y1569D02*
X7437Y1373D01*
X5173Y8913D02*
X5169Y8909D01*
X5169Y8909D02*
X5169Y8909D01*
X3598Y8940D02*
X3602Y8940D01*
X3594Y8944D02*
X3598Y8940D01*
G54D19*
X8003Y8909D02*
X8007Y8909D01*
G54D18*
X3598Y10342D02*
X3614Y10342D01*
X3594Y10346D02*
X3598Y10342D01*
G54D17*
X779Y1227D02*
X1189Y1637D01*
X2929Y1169D02*
X3444Y653D01*
X3444Y653D02*
X3559Y653D01*
X2629Y1468D02*
X2929Y1169D01*
G54D18*
X2629Y1468D02*
X2460Y1637D01*
X2460Y1637D02*
X1189Y1637D01*
X6543Y5716D02*
X5996Y6263D01*
X8429Y3570D02*
X8429Y3940D01*
X8779Y3220D02*
X8429Y3570D01*
X8779Y3208D02*
X8779Y3220D01*
X8779Y2078D02*
X8779Y3208D01*
X8779Y1771D02*
X8779Y2078D01*
X8429Y3940D02*
X8429Y3956D01*
G54D20*
X2716Y3589D02*
X2357Y3229D01*
X2716Y3589D02*
X3498Y3589D01*
X3498Y3589D02*
X3721Y3812D01*
X3498Y3589D02*
X3721Y3812D01*
G54D17*
X1929Y3169D02*
X2296Y3169D01*
X2357Y3229D02*
X2296Y3169D01*
G54D20*
X4330Y3673D02*
X3860Y3673D01*
X3860Y3673D02*
X3721Y3812D01*
X4330Y3673D02*
X6070Y3673D01*
X6070Y3673D02*
X6858Y2885D01*
X6858Y2885D02*
X7578Y2885D01*
X7578Y2885D02*
X8066Y2398D01*
X8066Y2398D02*
X8066Y2208D01*
X3740Y2169D02*
X4283Y1625D01*
X6334Y1830D02*
X6334Y2208D01*
X6129Y1625D02*
X6334Y1830D01*
X4283Y1625D02*
X6129Y1625D01*
G54D17*
X2929Y2169D02*
X3740Y2169D01*
G54D18*
X5764Y4213D02*
X5777Y4200D01*
X6933Y4200D02*
X7062Y4070D01*
X5777Y4200D02*
X6933Y4200D01*
G54D20*
X1612Y7002D02*
X1612Y6435D01*
X1612Y6435D02*
X2476Y5570D01*
X5764Y4213D02*
X5142Y4835D01*
X2566Y4835D02*
X2476Y4925D01*
X2476Y4925D02*
X2476Y5570D01*
X5142Y4835D02*
X2566Y4835D01*
X1612Y7002D02*
X1612Y7378D01*
G54D17*
X1212Y3933D02*
X870Y3590D01*
X870Y3590D02*
X779Y3590D01*
G54D20*
X1212Y3933D02*
X1386Y4107D01*
X4196Y4107D02*
X1386Y4107D01*
X4240Y4062D02*
X4196Y4107D01*
G54D17*
X779Y4377D02*
X779Y4377D01*
X779Y4377D02*
X1374Y4377D01*
G54D20*
X4551Y4377D02*
X4583Y4345D01*
X1374Y4377D02*
X4551Y4377D01*
X1133Y5598D02*
X1605Y5126D01*
X1605Y5126D02*
X1605Y5126D01*
G54D17*
X1133Y5598D02*
X779Y5952D01*
G54D20*
X4913Y4646D02*
X2086Y4646D01*
X4913Y4646D02*
X5038Y4520D01*
X2086Y4646D02*
X1605Y5126D01*
X3807Y2539D02*
X3807Y2360D01*
X4381Y1785D02*
X4381Y1787D01*
X3807Y2360D02*
X4381Y1785D01*
X4381Y1787D02*
X4381Y1787D01*
X4381Y1787D02*
X5685Y1787D01*
X5685Y1787D02*
X5901Y2003D01*
X5901Y2003D02*
X5901Y2365D01*
G54D17*
X9441Y1227D02*
X9441Y508D01*
G54D20*
X9303Y370D02*
X9441Y508D01*
X7692Y370D02*
X9303Y370D01*
X7503Y559D02*
X7692Y370D01*
X7503Y885D02*
X7503Y559D01*
X8751Y7692D02*
X8818Y7692D01*
X8929Y7803D02*
X8929Y7802D01*
X8818Y7692D02*
X8929Y7803D01*
G54D17*
X9098Y7972D02*
X9441Y8314D01*
G54D20*
X9098Y7972D02*
X8929Y7802D01*
X8929Y7802D02*
X8819Y7692D01*
X8819Y7692D02*
X8819Y7692D01*
X6862Y8204D02*
X6944Y8122D01*
X6944Y8122D02*
X7196Y8122D01*
X7196Y8122D02*
X7625Y7692D01*
X7625Y7692D02*
X8751Y7692D01*
X8751Y7692D02*
X8811Y7692D01*
X8811Y7692D02*
X8819Y7692D01*
G54D17*
X9441Y7527D02*
X8968Y7527D01*
G54D20*
X8968Y7527D02*
X7389Y7527D01*
X7389Y7527D02*
X7070Y7822D01*
X7086Y7350D02*
X8830Y7350D01*
X8830Y7350D02*
X9096Y7084D01*
X7086Y7350D02*
X6625Y7811D01*
G54D17*
X9096Y7084D02*
X9441Y6739D01*
X9134Y6260D02*
X9134Y6260D01*
X9134Y6260D02*
X9441Y5952D01*
G54D20*
X8880Y6513D02*
X8880Y6945D01*
X8688Y7137D02*
X6874Y7137D01*
X8880Y6945D02*
X8688Y7137D01*
X6874Y7137D02*
X6161Y7850D01*
X8880Y6513D02*
X9134Y6260D01*
X6625Y6940D02*
X5803Y7763D01*
G54D17*
X9067Y4752D02*
X9067Y4752D01*
X9067Y4752D02*
X9441Y4377D01*
G54D20*
X8701Y6245D02*
X8701Y6691D01*
X8452Y6940D02*
X6625Y6940D01*
X8701Y6691D02*
X8452Y6940D01*
X5803Y7763D02*
X5803Y8153D01*
X8939Y6007D02*
X8701Y6245D01*
X8939Y4879D02*
X8939Y6007D01*
X9067Y4752D02*
X8939Y4879D01*
X6429Y8208D02*
X6440Y8208D01*
X6440Y8208D02*
X6734Y8501D01*
X9295Y8763D02*
X9279Y8763D01*
X9279Y8763D02*
X9007Y8492D01*
X6734Y8501D02*
X7043Y8501D01*
X9007Y8145D02*
X9007Y8492D01*
X8715Y7852D02*
X9007Y8145D01*
X7692Y7852D02*
X8715Y7852D01*
X7043Y8501D02*
X7692Y7852D01*
X9862Y5585D02*
X9793Y5517D01*
X9295Y8763D02*
X9602Y8763D01*
X9602Y8763D02*
X9862Y8503D01*
X9862Y8503D02*
X9862Y5585D01*
G54D17*
X9793Y5517D02*
X9441Y5164D01*
X1131Y6387D02*
X779Y6739D01*
G54D20*
X1787Y5500D02*
X1787Y5731D01*
X1787Y5731D02*
X1131Y6387D01*
G54D17*
X359Y5585D02*
X779Y5164D01*
X779Y5164D02*
X779Y5164D01*
X1568Y809D02*
X1929Y1169D01*
X357Y4743D02*
X779Y5164D01*
X779Y5164D02*
X779Y5164D01*
X779Y5164D02*
X779Y5164D01*
G54D20*
X3041Y8754D02*
X3696Y8099D01*
X624Y8754D02*
X3041Y8754D01*
X359Y8489D02*
X624Y8754D01*
X359Y5585D02*
X359Y8489D01*
X1563Y804D02*
X1568Y809D01*
X602Y804D02*
X1563Y804D01*
X357Y1049D02*
X602Y804D01*
X357Y4743D02*
X357Y1049D01*
X3377Y1633D02*
X4043Y1633D01*
X6930Y1465D02*
X7200Y1735D01*
X6196Y1465D02*
X6930Y1465D01*
X4211Y1465D02*
X6196Y1465D01*
X4043Y1633D02*
X4211Y1465D01*
G54D17*
X2366Y2023D02*
X2220Y2169D01*
X2220Y2169D02*
X1929Y2169D01*
G54D20*
X3377Y1633D02*
X3374Y1637D01*
X7200Y2208D02*
X7200Y1735D01*
X2751Y1637D02*
X2366Y2023D01*
X3374Y1637D02*
X2751Y1637D01*
X8763Y3476D02*
X8602Y3638D01*
X8173Y5094D02*
X7027Y5094D01*
X8602Y4665D02*
X8173Y5094D01*
X8602Y3638D02*
X8602Y4665D01*
X9019Y3220D02*
X8763Y3476D01*
X5763Y4480D02*
X6413Y4480D01*
X6413Y4480D02*
X7027Y5094D01*
X5247Y4995D02*
X5763Y4480D01*
X1968Y6503D02*
X1968Y6685D01*
X5247Y4995D02*
X2763Y4995D01*
X2649Y5110D02*
X2649Y5822D01*
X2763Y4995D02*
X2649Y5110D01*
X2649Y5822D02*
X1968Y6503D01*
X9023Y3220D02*
X9019Y3220D01*
G54D17*
X9023Y3220D02*
X9023Y3220D01*
X9023Y3220D02*
X9441Y2802D01*
G54D20*
X2157Y5625D02*
X2157Y5133D01*
X1342Y6440D02*
X2157Y5625D01*
X1342Y6440D02*
X1342Y6964D01*
X1342Y6964D02*
X1147Y7159D01*
G54D17*
X1147Y7159D02*
X779Y7527D01*
G54D10*
G36*
X9098Y8780D02*
X8909Y8590D01*
X8878Y8545D01*
X8868Y8492D01*
X8868Y8203D01*
X8657Y7992D01*
X7750Y7992D01*
X7141Y8600D01*
X7096Y8631D01*
X7043Y8641D01*
X6734Y8641D01*
X6680Y8631D01*
X6635Y8600D01*
X6508Y8473D01*
X6484Y8483D01*
X6374Y8483D01*
X6273Y8441D01*
X6269Y8437D01*
X5680Y8437D01*
X5543Y8299D01*
X5543Y8244D01*
X5528Y8208D01*
X5528Y8099D01*
X5543Y8063D01*
X5543Y7842D01*
X5673Y7711D01*
X5674Y7709D01*
X5704Y7664D01*
X6232Y7136D01*
X6232Y6860D01*
X6216Y6844D01*
X6174Y6743D01*
X6174Y6634D01*
X6215Y6533D01*
X6232Y6517D01*
X6232Y6440D01*
X6329Y6440D01*
X6393Y6414D01*
X6500Y6414D01*
X6933Y5981D01*
X6933Y5480D01*
X6432Y4980D01*
X6069Y4980D01*
X6038Y5011D01*
X5937Y5053D01*
X5828Y5053D01*
X5821Y5050D01*
X5601Y5271D01*
X5552Y5304D01*
X5495Y5315D01*
X2969Y5315D01*
X2969Y5896D01*
X2957Y5954D01*
X2937Y5985D01*
X2937Y6012D01*
X2488Y6460D01*
X2488Y6842D01*
X2385Y6945D01*
X2385Y6998D01*
X2412Y7064D01*
X2413Y7173D01*
X2385Y7239D01*
X2385Y7323D01*
X1271Y8437D01*
X1271Y8615D01*
X2971Y8615D01*
X3425Y8161D01*
X3422Y8154D01*
X3422Y8045D01*
X3437Y8008D01*
X3437Y7858D01*
X3561Y7858D01*
X3641Y7824D01*
X3751Y7824D01*
X3832Y7858D01*
X3964Y7858D01*
X3964Y8027D01*
X3971Y8044D01*
X3971Y8153D01*
X3964Y8170D01*
X3964Y8224D01*
X3838Y8350D01*
X3808Y8350D01*
X3751Y8374D01*
X3642Y8374D01*
X3626Y8367D01*
X3140Y8853D01*
X3094Y8883D01*
X3041Y8894D01*
X912Y8894D01*
X3125Y10800D01*
X3125Y10842D01*
X3149Y10818D01*
X4885Y10818D01*
X4885Y9066D01*
X9098Y9066D01*
X9098Y8780D01*
X9098Y8780D01*
G37*
X9098Y8780D02*
X8909Y8590D01*
X8878Y8545D01*
X8868Y8492D01*
X8868Y8203D01*
X8657Y7992D01*
X7750Y7992D01*
X7141Y8600D01*
X7096Y8631D01*
X7043Y8641D01*
X6734Y8641D01*
X6680Y8631D01*
X6635Y8600D01*
X6508Y8473D01*
X6484Y8483D01*
X6374Y8483D01*
X6273Y8441D01*
X6269Y8437D01*
X5680Y8437D01*
X5543Y8299D01*
X5543Y8244D01*
X5528Y8208D01*
X5528Y8099D01*
X5543Y8063D01*
X5543Y7842D01*
X5673Y7711D01*
X5674Y7709D01*
X5704Y7664D01*
X6232Y7136D01*
X6232Y6860D01*
X6216Y6844D01*
X6174Y6743D01*
X6174Y6634D01*
X6215Y6533D01*
X6232Y6517D01*
X6232Y6440D01*
X6329Y6440D01*
X6393Y6414D01*
X6500Y6414D01*
X6933Y5981D01*
X6933Y5480D01*
X6432Y4980D01*
X6069Y4980D01*
X6038Y5011D01*
X5937Y5053D01*
X5828Y5053D01*
X5821Y5050D01*
X5601Y5271D01*
X5552Y5304D01*
X5495Y5315D01*
X2969Y5315D01*
X2969Y5896D01*
X2957Y5954D01*
X2937Y5985D01*
X2937Y6012D01*
X2488Y6460D01*
X2488Y6842D01*
X2385Y6945D01*
X2385Y6998D01*
X2412Y7064D01*
X2413Y7173D01*
X2385Y7239D01*
X2385Y7323D01*
X1271Y8437D01*
X1271Y8615D01*
X2971Y8615D01*
X3425Y8161D01*
X3422Y8154D01*
X3422Y8045D01*
X3437Y8008D01*
X3437Y7858D01*
X3561Y7858D01*
X3641Y7824D01*
X3751Y7824D01*
X3832Y7858D01*
X3964Y7858D01*
X3964Y8027D01*
X3971Y8044D01*
X3971Y8153D01*
X3964Y8170D01*
X3964Y8224D01*
X3838Y8350D01*
X3808Y8350D01*
X3751Y8374D01*
X3642Y8374D01*
X3626Y8367D01*
X3140Y8853D01*
X3094Y8883D01*
X3041Y8894D01*
X912Y8894D01*
X3125Y10800D01*
X3125Y10842D01*
X3149Y10818D01*
X4885Y10818D01*
X4885Y9066D01*
X9098Y9066D01*
X9098Y8780D01*
M02*
