<?xml version="1.0" encoding="UTF-8" standalone="no"?>
<svg
   xmlns:dc="http://purl.org/dc/elements/1.1/"
   xmlns:cc="http://creativecommons.org/ns#"
   xmlns:rdf="http://www.w3.org/1999/02/22-rdf-syntax-ns#"
   xmlns:svg="http://www.w3.org/2000/svg"
   xmlns="http://www.w3.org/2000/svg"
   xmlns:sodipodi="http://sodipodi.sourceforge.net/DTD/sodipodi-0.dtd"
   xmlns:inkscape="http://www.inkscape.org/namespaces/inkscape"
   version="1.1"
   width="2.58572cm"
   height="2.8575cm"
   viewBox="0 0 10180 11250 "
   id="svg4860"
   inkscape:version="0.48.4 r9939"
   sodipodi:docname="MeshWasp--brd.svg">
  <metadata
     id="metadata5970">
    <rdf:RDF>
      <cc:Work
         rdf:about="">
        <dc:format>image/svg+xml</dc:format>
        <dc:type
           rdf:resource="http://purl.org/dc/dcmitype/StillImage" />
      </cc:Work>
    </rdf:RDF>
  </metadata>
  <defs
     id="defs5968" />
  <sodipodi:namedview
     pagecolor="#ffffff"
     bordercolor="#666666"
     borderopacity="1"
     objecttolerance="10"
     gridtolerance="10"
     guidetolerance="10"
     inkscape:pageopacity="0"
     inkscape:pageshadow="2"
     inkscape:window-width="640"
     inkscape:window-height="480"
     id="namedview5966"
     showgrid="false"
     inkscape:zoom="3.2963398"
     inkscape:cx="30.787047"
     inkscape:cy="53.158821"
     inkscape:window-x="0"
     inkscape:window-y="0"
     inkscape:window-maximized="0"
     inkscape:current-layer="svg4860" />
  <title
     id="title4862">SVG Picture created as MeshWasp--brd.svg date 2014/01/09 11:56:56 </title>
  <desc
     id="desc4864">Picture generated by PCBNEW </desc>
  <g
     style="fill:#000000; fill-opacity:1;stroke:#000000; stroke-opacity:1; stroke-linecap:round; stroke-linejoin:round; "
     transform="translate(0 0) scale(1 1)"
     id="g4866" />
  <g
     style="fill:#008484; fill-opacity:0.0;  stroke:#008484; stroke-width:63.9764; stroke-opacity:1;  stroke-linecap:round; stroke-linejoin:round;"
     id="g4868">
    <path
       d="M4084 10892 L3962 10978 "
       id="path4870" />
    <path
       d="M4084 11039 L3828 11039 L3828 10941 L3840 10917 L3852 10905 L3877 10892 L3913 10892 L3938 10905 L3950 10917 L3962 10941 L3962 11039 "
       id="path4872" />
    <path
       d="M4072 10685 L4084 10710 L4084 10758 L4072 10783 L4047 10795 L3950 10795 L3925 10783 L3913 10758 L3913 10710 L3925 10685 L3950 10673 L3974 10673 L3998 10795 "
       id="path4874" />
    <path
       d="M4072 10576 L4084 10551 L4084 10502 L4072 10478 L4047 10466 L4035 10466 L4011 10478 L3998 10502 L3998 10539 L3986 10563 L3962 10576 L3950 10576 L3925 10563 L3913 10539 L3913 10502 L3925 10478 "
       id="path4876" />
    <path
       d="M4072 10259 L4084 10283 L4084 10332 L4072 10356 L4047 10368 L3950 10368 L3925 10356 L3913 10332 L3913 10283 L3925 10259 L3950 10247 L3974 10247 L3998 10368 "
       id="path4878" />
    <path
       d="M3913 10173 L3913 10076 "
       id="path4880" />
    <path
       d="M3828 10137 L4047 10137 L4072 10125 L4084 10100 L4084 10076 "
       id="path4882" />
  </g>
  <g
     style="fill:#008484; fill-opacity:0.0;  stroke:#008484; stroke-width:93.5039; stroke-opacity:1;  stroke-linecap:round; stroke-linejoin:round;"
     id="g4884">
    <path
       d="M8803 11070 L8429 11070 L8429 10928 L8446 10892 L8464 10874 L8500 10857 L8553 10857 L8589 10874 L8607 10892 L8624 10928 L8624 11070 "
       id="path4886" />
    <path
       d="M8429 10732 L8803 10643 L8535 10572 L8803 10500 L8429 10411 "
       id="path4888" />
    <path
       d="M8803 10055 L8624 10180 "
       id="path4890" />
    <path
       d="M8803 10269 L8429 10269 L8429 10126 L8446 10091 L8464 10073 L8500 10055 L8553 10055 L8589 10073 L8607 10091 L8624 10126 L8624 10269 "
       id="path4892" />
    <path
       d="M1698 11053 L1716 10999 L1716 10910 L1698 10874 L1680 10857 L1645 10839 L1609 10839 L1573 10857 L1556 10874 L1538 10910 L1520 10981 L1502 11017 L1484 11035 L1449 11053 L1413 11053 L1378 11035 L1360 11017 L1342 10981 L1342 10892 L1360 10839 "
       id="path4894" />
    <path
       d="M1680 10465 L1698 10483 L1716 10536 L1716 10572 L1698 10625 L1663 10661 L1627 10678 L1556 10696 L1502 10696 L1431 10678 L1395 10661 L1360 10625 L1342 10572 L1342 10536 L1360 10483 L1378 10465 "
       id="path4896" />
    <path
       d="M1716 10304 L1342 10304 "
       id="path4898" />
    <path
       d="M1716 10091 L1502 10251 "
       id="path4900" />
    <path
       d="M1342 10091 L1556 10304 "
       id="path4902" />
  </g>
  <g
     style="fill:#008484; fill-opacity:0.0;  stroke:#008484; stroke-width:73.8189; stroke-opacity:1;  stroke-linecap:round; stroke-linejoin:round;"
     id="g4904">
    <path
       d="M3484 572 L3484 277 L3582 488 L3681 277 L3681 572 "
       id="path4906" />
    <path
       d="M3934 558 L3906 572 L3850 572 L3821 558 L3807 530 L3807 418 L3821 390 L3850 375 L3906 375 L3934 390 L3948 418 L3948 446 L3807 474 "
       id="path4908" />
    <path
       d="M4061 558 L4089 572 L4145 572 L4173 558 L4187 530 L4187 516 L4173 488 L4145 474 L4103 474 L4075 460 L4061 432 L4061 418 L4075 390 L4103 375 L4145 375 L4173 390 "
       id="path4910" />
    <path
       d="M4314 572 L4314 277 "
       id="path4912" />
    <path
       d="M4440 572 L4440 418 L4426 390 L4398 375 L4356 375 L4328 390 L4314 404 "
       id="path4914" />
    <path
       d="M4553 277 L4623 572 L4679 361 L4735 572 L4806 277 "
       id="path4916" />
    <path
       d="M5045 572 L5045 418 L5031 390 L5003 375 L4946 375 L4918 390 "
       id="path4918" />
    <path
       d="M5045 558 L5017 572 L4946 572 L4918 558 L4904 530 L4904 502 L4918 474 L4946 460 L5017 460 L5045 446 "
       id="path4920" />
    <path
       d="M5171 558 L5199 572 L5256 572 L5284 558 L5298 530 L5298 516 L5284 488 L5256 474 L5214 474 L5185 460 L5171 432 L5171 418 L5185 390 L5214 375 L5256 375 L5284 390 "
       id="path4922" />
    <path
       d="M5424 375 L5424 671 "
       id="path4924" />
    <path
       d="M5424 390 L5453 375 L5509 375 L5537 390 L5551 404 L5565 432 L5565 516 L5551 544 L5537 558 L5509 572 L5453 572 L5424 558 "
       id="path4926" />
    <path
       d="M5888 375 L5959 572 L6029 375 "
       id="path4928" />
    <path
       d="M6296 572 L6127 572 "
       id="path4930" />
    <path
       d="M6212 572 L6212 277 L6184 319 L6156 347 L6127 361 "
       id="path4932" />
    <path
       d="M6423 544 L6437 558 L6423 572 L6409 558 L6423 544 L6423 572 "
       id="path4934" />
    <path
       d="M6620 277 L6648 277 L6676 291 L6690 305 L6704 333 L6718 390 L6718 460 L6704 516 L6690 544 L6676 558 L6648 572 L6620 572 L6591 558 L6577 544 L6563 516 L6549 460 L6549 390 L6563 333 L6577 305 L6591 291 L6620 277 "
       id="path4936" />
    <path
       d="M3667 835 L3639 821 L3582 821 L3554 835 L3526 863 L3512 891 L3512 947 L3526 975 L3554 1003 L3582 1017 L3639 1017 L3667 1003 "
       id="path4938" />
    <path
       d="M3611 722 L3540 736 L3470 778 L3428 849 L3414 919 L3428 989 L3470 1060 L3540 1102 L3611 1116 L3681 1102 L3751 1060 L3793 989 L3807 919 L3793 849 L3751 778 L3681 736 L3611 722 "
       id="path4940" />
    <path
       d="M3934 1060 L3934 764 L4032 975 L4131 764 L4131 1060 "
       id="path4942" />
    <path
       d="M4285 1060 L4342 1060 L4370 1045 L4384 1031 L4412 989 L4426 933 L4426 821 L4412 792 L4398 778 L4370 764 L4314 764 L4285 778 L4271 792 L4257 821 L4257 891 L4271 919 L4285 933 L4314 947 L4370 947 L4398 933 L4412 919 L4426 891 "
       id="path4944" />
    <path
       d="M4553 1060 L4553 764 L4623 764 L4665 778 L4693 806 L4707 835 L4721 891 L4721 933 L4707 989 L4693 1017 L4665 1045 L4623 1060 L4553 1060 "
       id="path4946" />
    <path
       d="M4960 1045 L4932 1060 L4876 1060 L4848 1045 L4834 1017 L4834 905 L4848 877 L4876 863 L4932 863 L4960 877 L4974 905 L4974 933 L4834 961 "
       id="path4948" />
    <path
       d="M5087 1045 L5115 1060 L5171 1060 L5199 1045 L5214 1017 L5214 1003 L5199 975 L5171 961 L5129 961 L5101 947 L5087 919 L5087 905 L5101 877 L5129 863 L5171 863 L5199 877 "
       id="path4950" />
    <path
       d="M5340 1060 L5340 863 "
       id="path4952" />
    <path
       d="M5340 764 L5326 778 L5340 792 L5354 778 L5340 764 L5340 792 "
       id="path4954" />
    <path
       d="M5607 863 L5607 1102 L5593 1130 L5579 1144 L5551 1158 L5509 1158 L5481 1144 "
       id="path4956" />
    <path
       d="M5607 1045 L5579 1060 L5523 1060 L5495 1045 L5481 1031 L5467 1003 L5467 919 L5481 891 L5495 877 L5523 863 L5579 863 L5607 877 "
       id="path4958" />
    <path
       d="M5748 863 L5748 1060 "
       id="path4960" />
    <path
       d="M5748 891 L5762 877 L5790 863 L5832 863 L5860 877 L5874 905 L5874 1060 "
       id="path4962" />
    <path
       d="M6015 1031 L6029 1045 L6015 1060 L6001 1045 L6015 1031 L6015 1060 "
       id="path4964" />
    <path
       d="M6282 1045 L6254 1060 L6198 1060 L6170 1045 L6156 1031 L6142 1003 L6142 919 L6156 891 L6170 877 L6198 863 L6254 863 L6282 877 "
       id="path4966" />
    <path
       d="M6451 1060 L6423 1045 L6409 1031 L6395 1003 L6395 919 L6409 891 L6423 877 L6451 863 L6493 863 L6521 877 L6535 891 L6549 919 L6549 1003 L6535 1031 L6521 1045 L6493 1060 L6451 1060 "
       id="path4968" />
    <path
       d="M4588 1280 L4602 1266 L4630 1251 L4700 1251 L4728 1266 L4742 1280 L4757 1308 L4757 1336 L4742 1378 L4574 1547 L4757 1547 "
       id="path4970" />
    <path
       d="M4939 1251 L4967 1251 L4996 1266 L5010 1280 L5024 1308 L5038 1364 L5038 1434 L5024 1490 L5010 1519 L4996 1533 L4967 1547 L4939 1547 L4911 1533 L4897 1519 L4883 1490 L4869 1434 L4869 1364 L4883 1308 L4897 1280 L4911 1266 L4939 1251 "
       id="path4972" />
    <path
       d="M5319 1547 L5150 1547 "
       id="path4974" />
    <path
       d="M5235 1547 L5235 1251 L5206 1294 L5178 1322 L5150 1336 "
       id="path4976" />
    <path
       d="M5417 1251 L5600 1251 L5502 1364 L5544 1364 L5572 1378 L5586 1392 L5600 1420 L5600 1490 L5586 1519 L5572 1533 L5544 1547 L5460 1547 L5431 1533 L5417 1519 "
       id="path4978" />
  </g>
  <g
     style="fill:#C2C200; fill-opacity:0.0;  stroke:#C2C200; stroke-width:39.3701; stroke-opacity:1;  stroke-linecap:round; stroke-linejoin:round;"
     id="g4980">
    <path
       d="M7216 127 L10165 2662 "
       id="path4982" />
    <path
       d="M2960 123 L7216 127 "
       id="path4984" />
    <path
       d="M2960 123 L19 2662 "
       id="path4986" />
    <path
       d="M10165 11166 L10165 2662 "
       id="path4988" />
    <path
       d="M19 11166 L19 2662 "
       id="path4990" />
    <path
       d="M19 11166 L10165 11166 "
       id="path4992" />
  </g>
  <g
     style="fill:#008484; fill-opacity:0.0;  stroke:#008484; stroke-width:34.4488; stroke-opacity:1;  stroke-linecap:round; stroke-linejoin:round;"
     id="g4994">
    <path
       d="M7941 10929 L7941 10791 L7974 10791 L7994 10798 L8007 10811 L8013 10824 L8020 10850 L8020 10870 L8013 10896 L8007 10910 L7994 10923 L7974 10929 L7941 10929 "
       id="path4996" />
    <path
       d="M8151 10929 L8072 10929 "
       id="path4998" />
    <path
       d="M8112 10929 L8112 10791 L8099 10811 L8085 10824 L8072 10831 "
       id="path5000" />
    <path
       d="M2036 10929 L2036 10791 L2068 10791 L2088 10798 L2101 10811 L2108 10824 L2114 10850 L2114 10870 L2108 10896 L2101 10910 L2088 10923 L2068 10929 L2036 10929 "
       id="path5002" />
    <path
       d="M2167 10805 L2173 10798 L2187 10791 L2219 10791 L2232 10798 L2239 10805 L2246 10818 L2246 10831 L2239 10850 L2160 10929 L2246 10929 "
       id="path5004" />
    <path
       d="M7429 10934 L7383 10868 "
       id="path5006" />
    <path
       d="M7351 10934 L7351 10796 L7403 10796 L7416 10803 L7423 10809 L7429 10822 L7429 10842 L7423 10855 L7416 10862 L7403 10868 L7351 10868 "
       id="path5008" />
    <path
       d="M7482 10809 L7488 10803 L7501 10796 L7534 10796 L7547 10803 L7554 10809 L7561 10822 L7561 10836 L7554 10855 L7475 10934 L7561 10934 "
       id="path5010" />
    <path
       d="M7282 10209 L7288 10203 L7301 10196 L7334 10196 L7347 10203 L7354 10209 L7360 10222 L7360 10236 L7354 10255 L7275 10334 L7360 10334 "
       id="path5012" />
    <path
       d="M7406 10196 L7498 10196 L7439 10334 "
       id="path5014" />
    <path
       d="M7577 10196 L7590 10196 L7603 10203 L7610 10209 L7616 10222 L7623 10249 L7623 10281 L7616 10308 L7610 10321 L7603 10327 L7590 10334 L7577 10334 L7564 10327 L7557 10321 L7551 10308 L7544 10281 L7544 10249 L7551 10222 L7557 10209 L7564 10203 L7577 10196 "
       id="path5016" />
    <path
       d="M2705 10934 L2659 10868 "
       id="path5018" />
    <path
       d="M2626 10934 L2626 10796 L2679 10796 L2692 10803 L2698 10809 L2705 10822 L2705 10842 L2698 10855 L2692 10862 L2679 10868 L2626 10868 "
       id="path5020" />
    <path
       d="M2751 10796 L2836 10796 L2790 10849 L2810 10849 L2823 10855 L2830 10862 L2836 10875 L2836 10908 L2830 10921 L2823 10927 L2810 10934 L2770 10934 L2757 10927 L2751 10921 "
       id="path5022" />
    <path
       d="M2557 10209 L2564 10203 L2577 10196 L2610 10196 L2623 10203 L2629 10209 L2636 10222 L2636 10236 L2629 10255 L2551 10334 L2636 10334 "
       id="path5024" />
    <path
       d="M2682 10196 L2774 10196 L2715 10334 "
       id="path5026" />
    <path
       d="M2853 10196 L2866 10196 L2879 10203 L2885 10209 L2892 10222 L2898 10249 L2898 10281 L2892 10308 L2885 10321 L2879 10327 L2866 10334 L2853 10334 L2839 10327 L2833 10321 L2826 10308 L2820 10281 L2820 10249 L2826 10222 L2833 10209 L2839 10203 L2853 10196 "
       id="path5028" />
  </g>
  <g
     style="fill:#008484; fill-opacity:0.0;  stroke:#008484; stroke-width:29.5276; stroke-opacity:1;  stroke-linecap:round; stroke-linejoin:round;"
     id="g5040">
    <path
       d="M9916 3993 L9916 3871 "
       id="path5042" />
    <path
       d="M9989 4017 L9733 3932 L9989 3846 "
       id="path5044" />
    <path
       d="M9989 3761 L9733 3761 L9733 3700 L9746 3664 L9770 3639 L9794 3627 L9843 3615 L9880 3615 L9928 3627 L9953 3639 L9977 3664 L9989 3700 L9989 3761 "
       id="path5046" />
    <path
       d="M9989 3371 L9989 3517 "
       id="path5048" />
    <path
       d="M9989 3444 L9733 3444 L9770 3469 L9794 3493 L9806 3517 "
       id="path5050" />
    <path
       d="M9916 4780 L9916 4658 "
       id="path5052" />
    <path
       d="M9989 4804 L9733 4719 L9989 4634 "
       id="path5054" />
    <path
       d="M9989 4548 L9733 4548 L9733 4488 L9746 4451 L9770 4427 L9794 4414 L9843 4402 L9880 4402 L9928 4414 L9953 4427 L9977 4451 L9989 4488 L9989 4548 "
       id="path5056" />
    <path
       d="M9758 4305 L9746 4293 L9733 4268 L9733 4207 L9746 4183 L9758 4171 L9782 4159 L9806 4159 L9843 4171 L9989 4317 L9989 4159 "
       id="path5058" />
    <path
       d="M9916 5567 L9916 5446 "
       id="path5060" />
    <path
       d="M9989 5592 L9733 5506 L9989 5421 "
       id="path5062" />
    <path
       d="M9989 5336 L9733 5336 L9733 5275 L9746 5238 L9770 5214 L9794 5202 L9843 5190 L9880 5190 L9928 5202 L9953 5214 L9977 5238 L9989 5275 L9989 5336 "
       id="path5064" />
    <path
       d="M9733 5104 L9733 4946 L9831 5031 L9831 4995 L9843 4970 L9855 4958 L9880 4946 L9941 4946 L9965 4958 L9977 4970 L9989 4995 L9989 5068 L9977 5092 L9965 5104 "
       id="path5066" />
    <path
       d="M9980 6415 L9744 6415 L9913 6337 L9744 6258 L9980 6258 "
       id="path5068" />
    <path
       d="M9980 6145 L9744 6145 "
       id="path5070" />
    <path
       d="M9969 6044 L9980 6010 L9980 5954 L9969 5932 L9958 5920 L9935 5909 L9913 5909 L9890 5920 L9879 5932 L9868 5954 L9857 5999 L9845 6022 L9834 6033 L9812 6044 L9789 6044 L9767 6033 L9755 6022 L9744 5999 L9744 5943 L9755 5909 "
       id="path5072" />
    <path
       d="M9744 5763 L9744 5718 L9755 5695 L9778 5673 L9823 5662 L9902 5662 L9947 5673 L9969 5695 L9980 5718 L9980 5763 L9969 5785 L9947 5808 L9902 5819 L9823 5819 L9778 5808 L9755 5785 L9744 5763 "
       id="path5074" />
  </g>
  <g
     style="fill:#008484; fill-opacity:0.0;  stroke:#008484; stroke-width:34.4488; stroke-opacity:1;  stroke-linecap:round; stroke-linejoin:round;"
     id="g5076">
    <path
       d="M9989 7923 L9733 7923 L9733 7826 L9746 7801 L9758 7789 L9782 7777 L9819 7777 L9843 7789 L9855 7801 L9867 7826 L9867 7923 "
       id="path5078" />
    <path
       d="M9855 7667 L9855 7582 "
       id="path5080" />
    <path
       d="M9989 7545 L9989 7667 L9733 7667 L9733 7545 "
       id="path5082" />
    <path
       d="M9733 7314 L9733 7436 L9855 7448 L9843 7436 L9831 7411 L9831 7350 L9843 7326 L9855 7314 L9880 7302 L9941 7302 L9965 7314 L9977 7326 L9989 7350 L9989 7411 L9977 7436 L9965 7448 "
       id="path5084" />
    <path
       d="M9916 10292 L9916 10170 "
       id="path5086" />
    <path
       d="M9989 10317 L9733 10231 L9989 10146 "
       id="path5088" />
    <path
       d="M9989 10061 L9733 10061 L9733 10000 L9746 9963 L9770 9939 L9794 9927 L9843 9914 L9880 9914 L9928 9927 L9953 9939 L9977 9963 L9989 10000 L9989 10061 "
       id="path5090" />
    <path
       d="M9819 9695 L9989 9695 "
       id="path5092" />
    <path
       d="M9721 9756 L9904 9817 L9904 9659 "
       id="path5094" />
    <path
       d="M9977 9522 L9989 9486 L9989 9425 L9977 9401 L9965 9388 L9941 9376 L9916 9376 L9892 9388 L9880 9401 L9867 9425 L9855 9474 L9843 9498 L9831 9510 L9806 9522 L9782 9522 L9758 9510 L9746 9498 L9733 9474 L9733 9413 L9746 9376 "
       id="path5096" />
    <path
       d="M9965 9120 L9977 9133 L9989 9169 L9989 9193 L9977 9230 L9953 9254 L9928 9267 L9880 9279 L9843 9279 L9794 9267 L9770 9254 L9746 9230 L9733 9193 L9733 9169 L9746 9133 L9758 9120 "
       id="path5098" />
    <path
       d="M9989 9011 L9733 9011 "
       id="path5100" />
    <path
       d="M9989 8864 L9843 8974 "
       id="path5102" />
    <path
       d="M9733 8864 L9880 9011 "
       id="path5104" />
    <path
       d="M9977 8711 L9989 8675 L9989 8614 L9977 8589 L9965 8577 L9941 8565 L9916 8565 L9892 8577 L9880 8589 L9867 8614 L9855 8662 L9843 8687 L9831 8699 L9806 8711 L9782 8711 L9758 8699 L9746 8687 L9733 8662 L9733 8601 L9746 8565 "
       id="path5106" />
    <path
       d="M9965 8309 L9977 8321 L9989 8358 L9989 8382 L9977 8419 L9953 8443 L9928 8455 L9880 8467 L9843 8467 L9794 8455 L9770 8443 L9746 8419 L9733 8382 L9733 8358 L9746 8321 L9758 8309 "
       id="path5108" />
    <path
       d="M9989 8077 L9989 8199 L9733 8199 "
       id="path5110" />
  </g>
  <g
     style="fill:#008484; fill-opacity:0.0;  stroke:#008484; stroke-width:29.5276; stroke-opacity:1;  stroke-linecap:round; stroke-linejoin:round;"
     id="g5112">
    <path
       d="M9980 7203 L9744 7203 L9913 7124 L9744 7045 L9980 7045 "
       id="path5114" />
    <path
       d="M9744 6888 L9744 6843 L9755 6820 L9778 6798 L9823 6786 L9902 6786 L9947 6798 L9969 6820 L9980 6843 L9980 6888 L9969 6910 L9947 6933 L9902 6944 L9823 6944 L9778 6933 L9755 6910 L9744 6888 "
       id="path5116" />
    <path
       d="M9969 6696 L9980 6663 L9980 6606 L9969 6584 L9958 6573 L9935 6561 L9913 6561 L9890 6573 L9879 6584 L9868 6606 L9857 6651 L9845 6674 L9834 6685 L9812 6696 L9789 6696 L9767 6685 L9755 6674 L9744 6651 L9744 6595 L9755 6561 "
       id="path5118" />
    <path
       d="M9980 6460 L9744 6460 "
       id="path5120" />
    <path
       d="M9916 3205 L9916 3083 "
       id="path5122" />
    <path
       d="M9989 3230 L9733 3144 L9989 3059 "
       id="path5124" />
    <path
       d="M9989 2974 L9733 2974 L9733 2913 L9746 2876 L9770 2852 L9794 2840 L9843 2827 L9880 2827 L9928 2840 L9953 2852 L9977 2876 L9989 2913 L9989 2974 "
       id="path5126" />
    <path
       d="M9733 2669 L9733 2645 L9746 2620 L9758 2608 L9782 2596 L9831 2584 L9892 2584 L9941 2596 L9965 2608 L9977 2620 L9989 2645 L9989 2669 L9977 2693 L9965 2706 L9941 2718 L9892 2730 L9831 2730 L9782 2718 L9758 2706 L9746 2693 L9733 2669 "
       id="path5128" />
  </g>
  <g
     style="fill:#008484; fill-opacity:0.0;  stroke:#008484; stroke-width:49.2126; stroke-opacity:1;  stroke-linecap:round; stroke-linejoin:round;"
     id="g5130">
    <path
       d="M166 3211 L166 3053 L264 3138 L264 3102 L276 3077 L288 3065 L313 3053 L374 3053 L398 3065 L410 3077 L422 3102 L422 3175 L410 3199 L398 3211 "
       id="path5132" />
    <path
       d="M166 2980 L422 2894 L166 2809 "
       id="path5134" />
    <path
       d="M166 2748 L166 2590 L264 2675 L264 2639 L276 2614 L288 2602 L313 2590 L374 2590 L398 2602 L410 2614 L422 2639 L422 2712 L410 2736 L398 2748 "
       id="path5136" />
  </g>
  <g
     style="fill:#008484; fill-opacity:0.0;  stroke:#008484; stroke-width:34.4488; stroke-opacity:1;  stroke-linecap:round; stroke-linejoin:round;"
     id="g5138">
    <path
       d="M166 3998 L166 3852 "
       id="path5140" />
    <path
       d="M422 3925 L166 3925 "
       id="path5142" />
    <path
       d="M166 3791 L422 3621 "
       id="path5144" />
    <path
       d="M166 3621 L422 3791 "
       id="path5146" />
    <path
       d="M166 3474 L166 3450 L179 3426 L191 3413 L215 3401 L264 3389 L325 3389 L374 3401 L398 3413 L410 3426 L422 3450 L422 3474 L410 3499 L398 3511 L374 3523 L325 3535 L264 3535 L215 3523 L191 3511 L179 3499 L166 3474 "
       id="path5148" />
    <path
       d="M422 4634 L300 4719 "
       id="path5150" />
    <path
       d="M422 4780 L166 4780 L166 4683 L179 4658 L191 4646 L215 4634 L252 4634 L276 4646 L288 4658 L300 4683 L300 4780 "
       id="path5152" />
    <path
       d="M166 4549 L422 4378 "
       id="path5154" />
    <path
       d="M166 4378 L422 4549 "
       id="path5156" />
    <path
       d="M166 4232 L166 4207 L179 4183 L191 4171 L215 4159 L264 4147 L325 4147 L374 4159 L398 4171 L410 4183 L422 4207 L422 4232 L410 4256 L398 4268 L374 4281 L325 4293 L264 4293 L215 4281 L191 4268 L179 4256 L166 4232 "
       id="path5158" />
    <path
       d="M166 5573 L166 5427 "
       id="path5160" />
    <path
       d="M422 5500 L166 5500 "
       id="path5162" />
    <path
       d="M166 5366 L422 5196 "
       id="path5164" />
    <path
       d="M166 5196 L422 5366 "
       id="path5166" />
    <path
       d="M422 4964 L422 5110 "
       id="path5168" />
    <path
       d="M422 5037 L166 5037 L203 5061 L227 5086 L240 5110 "
       id="path5170" />
    <path
       d="M422 6185 L300 6270 "
       id="path5172" />
    <path
       d="M422 6331 L166 6331 L166 6233 L179 6209 L191 6197 L215 6185 L252 6185 L276 6197 L288 6209 L300 6233 L300 6331 "
       id="path5174" />
    <path
       d="M410 6087 L422 6051 L422 5990 L410 5965 L398 5953 L374 5941 L349 5941 L325 5953 L313 5965 L300 5990 L288 6038 L276 6063 L264 6075 L240 6087 L215 6087 L191 6075 L179 6063 L166 6038 L166 5977 L179 5941 "
       id="path5176" />
    <path
       d="M166 5868 L166 5722 "
       id="path5178" />
    <path
       d="M422 5795 L166 5795 "
       id="path5180" />
    <path
       d="M122 6392 L122 5697 "
       id="path5182" />
    <path
       d="M422 7057 L300 7142 "
       id="path5184" />
    <path
       d="M422 7203 L166 7203 L166 7106 L179 7081 L191 7069 L215 7057 L252 7057 L276 7069 L288 7081 L300 7106 L300 7203 "
       id="path5186" />
    <path
       d="M410 6959 L422 6923 L422 6862 L410 6838 L398 6825 L374 6813 L349 6813 L325 6825 L313 6838 L300 6862 L288 6911 L276 6935 L264 6947 L240 6959 L215 6959 L191 6947 L179 6935 L166 6911 L166 6850 L179 6813 "
       id="path5188" />
    <path
       d="M410 6716 L422 6679 L422 6618 L410 6594 L398 6582 L374 6569 L349 6569 L325 6582 L313 6594 L300 6618 L288 6667 L276 6691 L264 6704 L240 6716 L215 6716 L191 6704 L179 6691 L166 6667 L166 6606 L179 6569 "
       id="path5190" />
    <path
       d="M422 6460 L166 6460 "
       id="path5192" />
    <path
       d="M422 7935 L166 7935 L166 7838 L179 7813 L191 7801 L215 7789 L252 7789 L276 7801 L288 7813 L300 7838 L300 7935 "
       id="path5194" />
    <path
       d="M288 7594 L300 7558 L313 7545 L337 7533 L374 7533 L398 7545 L410 7558 L422 7582 L422 7679 L166 7679 L166 7594 L179 7570 L191 7558 L215 7545 L240 7545 L264 7558 L276 7570 L288 7594 L288 7679 "
       id="path5196" />
    <path
       d="M252 7314 L422 7314 "
       id="path5198" />
    <path
       d="M154 7375 L337 7436 L337 7277 "
       id="path5200" />
  </g>
  <g
     style="fill:#008484; fill-opacity:0.0;  stroke:#008484; stroke-width:44.2913; stroke-opacity:1;  stroke-linecap:round; stroke-linejoin:round;"
     id="g5202">
    <path
       d="M422 8571 L300 8656 "
       id="path5204" />
    <path
       d="M422 8717 L166 8717 L166 8620 L179 8595 L191 8583 L215 8571 L252 8571 L276 8583 L288 8595 L300 8620 L300 8717 "
       id="path5206" />
    <path
       d="M166 8486 L422 8315 "
       id="path5208" />
    <path
       d="M166 8315 L422 8486 "
       id="path5210" />
    <path
       d="M422 8084 L422 8230 "
       id="path5212" />
    <path
       d="M422 8157 L166 8157 L203 8181 L227 8205 L240 8230 "
       id="path5214" />
  </g>
  <g
     style="fill:#008484; fill-opacity:0.0;  stroke:#008484; stroke-width:34.4488; stroke-opacity:1;  stroke-linecap:round; stroke-linejoin:round;"
     id="g5216">
    <path
       d="M410 9504 L422 9468 L422 9407 L410 9382 L398 9370 L374 9358 L349 9358 L325 9370 L313 9382 L300 9407 L288 9455 L276 9480 L264 9492 L240 9504 L215 9504 L191 9492 L179 9480 L166 9455 L166 9395 L179 9358 "
       id="path5218" />
    <path
       d="M422 9248 L166 9248 L166 9187 L179 9151 L203 9126 L227 9114 L276 9102 L313 9102 L361 9114 L386 9126 L410 9151 L422 9187 L422 9248 "
       id="path5220" />
    <path
       d="M349 9005 L349 8883 "
       id="path5222" />
    <path
       d="M422 9029 L166 8944 L422 8858 "
       id="path5224" />
  </g>
  <g
     style="fill:#008484; fill-opacity:0.0;  stroke:#008484; stroke-width:49.2126; stroke-opacity:1;  stroke-linecap:round; stroke-linejoin:round;"
     id="g5226">
    <path
       d="M179 10176 L166 10201 L166 10237 L179 10274 L203 10298 L227 10310 L276 10323 L313 10323 L361 10310 L386 10298 L410 10274 L422 10237 L422 10213 L410 10176 L398 10164 L313 10164 L313 10213 "
       id="path5228" />
    <path
       d="M422 10055 L166 10055 L422 9908 L166 9908 "
       id="path5230" />
    <path
       d="M422 9786 L166 9786 L166 9726 L179 9689 L203 9665 L227 9652 L276 9640 L313 9640 L361 9652 L386 9665 L410 9689 L422 9726 L422 9786 "
       id="path5232" />
  </g>
  <g
     style="fill:#008484; fill-opacity:0.0;  stroke:#008484; stroke-width:59.0551; stroke-opacity:1;  stroke-linecap:round; stroke-linejoin:round;"
     id="g5234">
    <path
       d="M8074 10615 L8015 10615 "
       id="path5236" />
    <path
       d="M8015 10615 L8011 10599 "
       id="path5238" />
    <path
       d="M8011 10662 L8070 10662 "
       id="path5240" />
    <path
       d="M8192 10674 L8192 10603 "
       id="path5242" />
    <path
       d="M7897 10674 L7897 10603 "
       id="path5244" />
  </g>
  <g
     style="fill:#008484; fill-opacity:0.0;  stroke:#008484; stroke-width:40; stroke-opacity:1;  stroke-linecap:round; stroke-linejoin:round;"
     id="g5246">
    <path
       d="M7885 10686 L7885 10461 "
       id="path5248" />
    <path
       d="M8200 10682 L8200 10465 "
       id="path5250" />
  </g>
  <g
     style="fill:#008484; fill-opacity:0.0;  stroke:#008484; stroke-width:26; stroke-opacity:1;  stroke-linecap:round; stroke-linejoin:round;"
     id="g5252">
    <path
       d="M8220 10395 L8220 10238 "
       id="path5254" />
    <path
       d="M7866 10395 L7866 10238 "
       id="path5256" />
    <path
       d="M8220 10906 L8220 10749 "
       id="path5258" />
    <path
       d="M7866 10906 L7866 10749 "
       id="path5260" />
    <path
       d="M7866 10572 L7925 10572 "
       id="path5262" />
    <path
       d="M7925 10694 L7925 10576 "
       id="path5264" />
    <path
       d="M7866 10694 L7925 10694 "
       id="path5266" />
    <path
       d="M7866 10694 L7866 10576 "
       id="path5268" />
    <path
       d="M8161 10572 L8220 10572 "
       id="path5270" />
    <path
       d="M8220 10694 L8220 10576 "
       id="path5272" />
    <path
       d="M8161 10694 L8220 10694 "
       id="path5274" />
    <path
       d="M8161 10694 L8161 10576 "
       id="path5276" />
    <path
       d="M7984 10694 L8102 10694 "
       id="path5278" />
    <path
       d="M8102 10694 L8102 10576 "
       id="path5280" />
    <path
       d="M7984 10576 L8102 10576 "
       id="path5282" />
    <path
       d="M7984 10694 L7984 10576 "
       id="path5284" />
  </g>
  <g
     style="fill:#008484; fill-opacity:0.0;  stroke:#008484; stroke-width:59.0551; stroke-opacity:1;  stroke-linecap:round; stroke-linejoin:round;"
     id="g5286">
    <path
       d="M2169 10615 L2110 10615 "
       id="path5288" />
    <path
       d="M2110 10615 L2106 10599 "
       id="path5290" />
    <path
       d="M2106 10662 L2165 10662 "
       id="path5292" />
    <path
       d="M2287 10674 L2287 10603 "
       id="path5294" />
    <path
       d="M1992 10674 L1992 10603 "
       id="path5296" />
  </g>
  <g
     style="fill:#008484; fill-opacity:0.0;  stroke:#008484; stroke-width:40; stroke-opacity:1;  stroke-linecap:round; stroke-linejoin:round;"
     id="g5298">
    <path
       d="M1980 10686 L1980 10461 "
       id="path5300" />
    <path
       d="M2295 10682 L2295 10465 "
       id="path5302" />
  </g>
  <g
     style="fill:#008484; fill-opacity:0.0;  stroke:#008484; stroke-width:26; stroke-opacity:1;  stroke-linecap:round; stroke-linejoin:round;"
     id="g5304">
    <path
       d="M2314 10395 L2314 10238 "
       id="path5306" />
    <path
       d="M1960 10395 L1960 10238 "
       id="path5308" />
    <path
       d="M2314 10906 L2314 10749 "
       id="path5310" />
    <path
       d="M1960 10906 L1960 10749 "
       id="path5312" />
    <path
       d="M1960 10572 L2019 10572 "
       id="path5314" />
    <path
       d="M2019 10694 L2019 10576 "
       id="path5316" />
    <path
       d="M1960 10694 L2019 10694 "
       id="path5318" />
    <path
       d="M1960 10694 L1960 10576 "
       id="path5320" />
    <path
       d="M2255 10572 L2314 10572 "
       id="path5322" />
    <path
       d="M2314 10694 L2314 10576 "
       id="path5324" />
    <path
       d="M2255 10694 L2314 10694 "
       id="path5326" />
    <path
       d="M2255 10694 L2255 10576 "
       id="path5328" />
    <path
       d="M2078 10694 L2196 10694 "
       id="path5330" />
    <path
       d="M2196 10694 L2196 10576 "
       id="path5332" />
    <path
       d="M2078 10576 L2196 10576 "
       id="path5334" />
    <path
       d="M2078 10694 L2078 10576 "
       id="path5336" />
  </g>
  <g
     style="fill:#000084; fill-opacity:0.0;  stroke:#000084; stroke-width:59.0551; stroke-opacity:1;  stroke-linecap:round; stroke-linejoin:round;"
     id="g5338">
    <path
       d="M1330 9814 L1330 109 "
       id="path5340" />
    <path
       d="M2019 109 L8161 109 "
       id="path5342" />
    <path
       d="M8850 109 L8850 9814 "
       id="path5344" />
    <path
       d="M2019 9814 L8161 9814 "
       id="path5346" />
  </g>
  <g
     style="fill:#008484; fill-opacity:0.0;  stroke:#008484; stroke-width:50; stroke-opacity:1;  stroke-linecap:round; stroke-linejoin:round;"
     id="g5348">
    <path
       d="M7177 10769 L7177 11047 "
       id="path5350" />
    <path
       d="M7177 11047 L7727 11047 "
       id="path5352" />
    <path
       d="M7727 11047 L7727 10769 "
       id="path5354" />
    <path
       d="M7177 10097 L7177 10375 "
       id="path5356" />
    <path
       d="M7177 10097 L7727 10097 "
       id="path5358" />
    <path
       d="M7727 10097 L7727 10375 "
       id="path5360" />
    <path
       d="M2453 10769 L2453 11047 "
       id="path5362" />
    <path
       d="M2453 11047 L3003 11047 "
       id="path5364" />
    <path
       d="M3003 11047 L3003 10769 "
       id="path5366" />
    <path
       d="M2453 10097 L2453 10375 "
       id="path5368" />
    <path
       d="M2453 10097 L3003 10097 "
       id="path5370" />
    <path
       d="M3003 10097 L3003 10375 "
       id="path5372" />
  </g>
  <g
     style="fill:#008484; fill-opacity:0.0;  stroke:#008484; stroke-width:59.0551; stroke-opacity:1;  stroke-linecap:round; stroke-linejoin:round;"
     id="g5374">
    <path
       d="M4322 11142 L4322 10859 "
       id="path5376" />
    <path
       d="M5858 11142 L5858 10859 "
       id="path5378" />
    <path
       d="M4322 11142 L5858 11142 "
       id="path5380" />
    <path
       d="M4322 10005 L4322 10284 "
       id="path5382" />
    <path
       d="M4322 10001 L5858 10001 "
       id="path5384" />
    <path
       d="M5858 10001 L5858 10284 "
       id="path5386" />
  </g>
  <g
     style="fill:#840000; fill-opacity:0.0;  stroke:#840000; stroke-width:39.3701; stroke-opacity:1;  stroke-linecap:round; stroke-linejoin:round;"
     id="g5408" />
  <g
     style="fill:#840000; fill-opacity:1.0;  stroke:#840000; stroke-width:39.3701; stroke-opacity:1;  stroke-linecap:round; stroke-linejoin:round;"
     id="g5410">
    <polyline
       style="fill-rule:evenodd;"
       points="8181,10414 7905,10414 7905,10139 8181,10139 8181,10414 "
       id="polyline5412" />
    <polyline
       style="fill-rule:evenodd;"
       points="8181,11005 7905,11005 7905,10729 8181,10729 8181,11005 "
       id="polyline5414" />
    <polyline
       style="fill-rule:evenodd;"
       points="2275,10414 2000,10414 2000,10139 2275,10139 2275,10414 "
       id="polyline5416" />
    <polyline
       style="fill-rule:evenodd;"
       points="2275,11005 2000,11005 2000,10729 2275,10729 2275,11005 "
       id="polyline5418" />
    <polyline
       style="fill-rule:evenodd;"
       points="7722,9932 7722,9420 7958,9420 7958,9932 7722,9932 "
       id="polyline5420" />
    <polyline
       style="fill-rule:evenodd;"
       points="7222,9932 7222,9420 7458,9420 7458,9932 7222,9932 "
       id="polyline5422" />
    <polyline
       style="fill-rule:evenodd;"
       points="1212,3580 1212,3343 1724,3343 1724,3580 1212,3580 "
       id="polyline5424" />
  </g>
  <g
     style="fill:#840000; fill-opacity:1.0;  stroke:#840000; stroke-width:0; stroke-opacity:1;  stroke-linecap:round; stroke-linejoin:round;"
     id="g5426" />
  <g
     style="fill:#840000; fill-opacity:1.0;  stroke:#840000; stroke-width:39.3701; stroke-opacity:1;  stroke-linecap:round; stroke-linejoin:round;"
     id="g5428">
    <polyline
       style="fill-rule:evenodd;"
       points="1192,8599 1192,8324 1744,8324 1744,8599 1192,8599 "
       id="polyline5430" />
    <polyline
       style="fill-rule:evenodd;"
       points="1212,4080 1212,3843 1724,3843 1724,4080 1212,4080 "
       id="polyline5432" />
  </g>
  <g
     style="fill:#840000; fill-opacity:1.0;  stroke:#840000; stroke-width:0; stroke-opacity:1;  stroke-linecap:round; stroke-linejoin:round;"
     id="g5434" />
  <g
     style="fill:#840000; fill-opacity:1.0;  stroke:#840000; stroke-width:39.3701; stroke-opacity:1;  stroke-linecap:round; stroke-linejoin:round;"
     id="g5436">
    <polyline
       style="fill-rule:evenodd;"
       points="1192,4599 1192,4324 1744,4324 1744,4599 1192,4599 "
       id="polyline5438" />
  </g>
  <g
     style="fill:#840000; fill-opacity:1.0;  stroke:#840000; stroke-width:0; stroke-opacity:1;  stroke-linecap:round; stroke-linejoin:round;"
     id="g5440" />
  <g
     style="fill:#840000; fill-opacity:1.0;  stroke:#840000; stroke-width:39.3701; stroke-opacity:1;  stroke-linecap:round; stroke-linejoin:round;"
     id="g5442">
    <polyline
       style="fill-rule:evenodd;"
       points="1192,5099 1192,4824 1744,4824 1744,5099 1192,5099 "
       id="polyline5444" />
  </g>
  <g
     style="fill:#840000; fill-opacity:1.0;  stroke:#840000; stroke-width:0; stroke-opacity:1;  stroke-linecap:round; stroke-linejoin:round;"
     id="g5446" />
  <g
     style="fill:#840000; fill-opacity:1.0;  stroke:#840000; stroke-width:39.3701; stroke-opacity:1;  stroke-linecap:round; stroke-linejoin:round;"
     id="g5448">
    <polyline
       style="fill-rule:evenodd;"
       points="1192,5599 1192,5324 1744,5324 1744,5599 1192,5599 "
       id="polyline5450" />
  </g>
  <g
     style="fill:#840000; fill-opacity:1.0;  stroke:#840000; stroke-width:0; stroke-opacity:1;  stroke-linecap:round; stroke-linejoin:round;"
     id="g5452" />
  <g
     style="fill:#840000; fill-opacity:1.0;  stroke:#840000; stroke-width:39.3701; stroke-opacity:1;  stroke-linecap:round; stroke-linejoin:round;"
     id="g5454">
    <polyline
       style="fill-rule:evenodd;"
       points="1192,6099 1192,5824 1744,5824 1744,6099 1192,6099 "
       id="polyline5456" />
  </g>
  <g
     style="fill:#840000; fill-opacity:1.0;  stroke:#840000; stroke-width:0; stroke-opacity:1;  stroke-linecap:round; stroke-linejoin:round;"
     id="g5458" />
  <g
     style="fill:#840000; fill-opacity:1.0;  stroke:#840000; stroke-width:39.3701; stroke-opacity:1;  stroke-linecap:round; stroke-linejoin:round;"
     id="g5460">
    <polyline
       style="fill-rule:evenodd;"
       points="1192,6599 1192,6324 1744,6324 1744,6599 1192,6599 "
       id="polyline5462" />
  </g>
  <g
     style="fill:#840000; fill-opacity:1.0;  stroke:#840000; stroke-width:0; stroke-opacity:1;  stroke-linecap:round; stroke-linejoin:round;"
     id="g5464" />
  <g
     style="fill:#840000; fill-opacity:1.0;  stroke:#840000; stroke-width:39.3701; stroke-opacity:1;  stroke-linecap:round; stroke-linejoin:round;"
     id="g5466">
    <polyline
       style="fill-rule:evenodd;"
       points="1192,7099 1192,6824 1744,6824 1744,7099 1192,7099 "
       id="polyline5468" />
  </g>
  <g
     style="fill:#840000; fill-opacity:1.0;  stroke:#840000; stroke-width:0; stroke-opacity:1;  stroke-linecap:round; stroke-linejoin:round;"
     id="g5470" />
  <g
     style="fill:#840000; fill-opacity:1.0;  stroke:#840000; stroke-width:39.3701; stroke-opacity:1;  stroke-linecap:round; stroke-linejoin:round;"
     id="g5472">
    <polyline
       style="fill-rule:evenodd;"
       points="1192,7599 1192,7324 1744,7324 1744,7599 1192,7599 "
       id="polyline5474" />
  </g>
  <g
     style="fill:#840000; fill-opacity:1.0;  stroke:#840000; stroke-width:0; stroke-opacity:1;  stroke-linecap:round; stroke-linejoin:round;"
     id="g5476" />
  <g
     style="fill:#840000; fill-opacity:1.0;  stroke:#840000; stroke-width:39.3701; stroke-opacity:1;  stroke-linecap:round; stroke-linejoin:round;"
     id="g5478">
    <polyline
       style="fill-rule:evenodd;"
       points="1192,8099 1192,7824 1744,7824 1744,8099 1192,8099 "
       id="polyline5480" />
    <polyline
       style="fill-rule:evenodd;"
       points="2222,9932 2222,9420 2458,9420 2458,9932 2222,9932 "
       id="polyline5482" />
    <polyline
       style="fill-rule:evenodd;"
       points="2722,9932 2722,9420 2958,9420 2958,9932 2722,9932 "
       id="polyline5484" />
    <polyline
       style="fill-rule:evenodd;"
       points="3222,9932 3222,9420 3458,9420 3458,9932 3222,9932 "
       id="polyline5486" />
    <polyline
       style="fill-rule:evenodd;"
       points="3722,9932 3722,9420 3958,9420 3958,9932 3722,9932 "
       id="polyline5488" />
    <polyline
       style="fill-rule:evenodd;"
       points="4222,9932 4222,9420 4458,9420 4458,9932 4222,9932 "
       id="polyline5490" />
    <polyline
       style="fill-rule:evenodd;"
       points="4722,9932 4722,9420 4958,9420 4958,9932 4722,9932 "
       id="polyline5492" />
    <polyline
       style="fill-rule:evenodd;"
       points="5222,9932 5222,9420 5458,9420 5458,9932 5222,9932 "
       id="polyline5494" />
    <polyline
       style="fill-rule:evenodd;"
       points="5722,9932 5722,9420 5958,9420 5958,9932 5722,9932 "
       id="polyline5496" />
    <polyline
       style="fill-rule:evenodd;"
       points="6222,9932 6222,9420 6458,9420 6458,9932 6222,9932 "
       id="polyline5498" />
    <polyline
       style="fill-rule:evenodd;"
       points="6722,9932 6722,9420 6958,9420 6958,9932 6722,9932 "
       id="polyline5500" />
    <polyline
       style="fill-rule:evenodd;"
       points="8456,3580 8456,3343 8968,3343 8968,3580 8456,3580 "
       id="polyline5502" />
    <polyline
       style="fill-rule:evenodd;"
       points="8456,8580 8456,8343 8968,8343 8968,8580 8456,8580 "
       id="polyline5504" />
    <polyline
       style="fill-rule:evenodd;"
       points="8456,8080 8456,7843 8968,7843 8968,8080 8456,8080 "
       id="polyline5506" />
    <polyline
       style="fill-rule:evenodd;"
       points="8456,7580 8456,7343 8968,7343 8968,7580 8456,7580 "
       id="polyline5508" />
    <polyline
       style="fill-rule:evenodd;"
       points="8456,7080 8456,6843 8968,6843 8968,7080 8456,7080 "
       id="polyline5510" />
    <polyline
       style="fill-rule:evenodd;"
       points="8456,6580 8456,6343 8968,6343 8968,6580 8456,6580 "
       id="polyline5512" />
    <polyline
       style="fill-rule:evenodd;"
       points="8456,6080 8456,5843 8968,5843 8968,6080 8456,6080 "
       id="polyline5514" />
    <polyline
       style="fill-rule:evenodd;"
       points="8456,5580 8456,5343 8968,5343 8968,5580 8456,5580 "
       id="polyline5516" />
    <polyline
       style="fill-rule:evenodd;"
       points="8456,5080 8456,4843 8968,4843 8968,5080 8456,5080 "
       id="polyline5518" />
    <polyline
       style="fill-rule:evenodd;"
       points="8456,4580 8456,4343 8968,4343 8968,4580 8456,4580 "
       id="polyline5520" />
    <polyline
       style="fill-rule:evenodd;"
       points="8456,4080 8456,3843 8968,3843 8968,4080 8456,4080 "
       id="polyline5522" />
    <polyline
       style="fill-rule:evenodd;"
       points="7658,10977 7247,10977 7247,10766 7658,10766 7658,10977 "
       id="polyline5524" />
    <polyline
       style="fill-rule:evenodd;"
       points="7658,10377 7247,10377 7247,10166 7658,10166 7658,10377 "
       id="polyline5526" />
    <polyline
       style="fill-rule:evenodd;"
       points="2933,10977 2523,10977 2523,10766 2933,10766 2933,10977 "
       id="polyline5528" />
    <polyline
       style="fill-rule:evenodd;"
       points="2933,10377 2523,10377 2523,10166 2933,10166 2933,10377 "
       id="polyline5530" />
    <polyline
       style="fill-rule:evenodd;"
       points="4125,10808 4125,10335 4440,10335 4440,10808 4125,10808 "
       id="polyline5532" />
    <polyline
       style="fill-rule:evenodd;"
       points="5740,10808 5740,10335 6055,10335 6055,10808 5740,10808 "
       id="polyline5534" />
    <polyline
       style="fill-rule:evenodd;"
       points="4972,11044 4972,10808 5208,10808 5208,11044 4972,11044 "
       id="polyline5536" />
    <polyline
       style="fill-rule:evenodd;"
       points="4968,10335 4968,10099 5204,10099 5204,10335 4968,10335 "
       id="polyline5538" />
    <polyline
       style="fill-rule:evenodd;"
       points="3161,10237 3476,10237 3476,10394 3161,10394 3161,10237 "
       id="polyline5540" />
    <polyline
       style="fill-rule:evenodd;"
       points="3161,10749 3476,10749 3476,10906 3161,10906 3161,10749 "
       id="polyline5542" />
    <polyline
       style="fill-rule:evenodd;"
       points="3298,10434 3339,10434 3339,10709 3298,10709 3298,10434 "
       id="polyline5544" />
    <polyline
       style="fill-rule:evenodd;"
       points="6704,10237 7019,10237 7019,10394 6704,10394 6704,10237 "
       id="polyline5546" />
    <polyline
       style="fill-rule:evenodd;"
       points="6704,10749 7019,10749 7019,10906 6704,10906 6704,10749 "
       id="polyline5548" />
    <polyline
       style="fill-rule:evenodd;"
       points="6841,10434 6882,10434 6882,10709 6841,10709 6841,10434 "
       id="polyline5550" />
    <circle
       cx="9421.55"
       cy="2894.96"
       r="280.315"
       id="circle5552" />
    <circle
       cx="9421.55"
       cy="6044.96"
       r="280.315"
       id="circle5554" />
    <circle
       cx="9421.55"
       cy="7618.96"
       r="280.315"
       id="circle5556" />
    <circle
       cx="9421.55"
       cy="6831.96"
       r="280.315"
       id="circle5558" />
    <circle
       cx="9421.55"
       cy="4469.96"
       r="280.315"
       id="circle5560" />
    <circle
       cx="9421.55"
       cy="5256.96"
       r="280.315"
       id="circle5562" />
    <circle
       cx="9421.55"
       cy="3681.96"
       r="280.315"
       id="circle5564" />
    <circle
       cx="9421.55"
       cy="9193.96"
       r="280.315"
       id="circle5566" />
    <circle
       cx="9421.55"
       cy="9981.96"
       r="280.315"
       id="circle5568" />
    <circle
       cx="9421.55"
       cy="8406.96"
       r="280.315"
       id="circle5570" />
    <circle
       cx="759.552"
       cy="8406.96"
       r="280.315"
       id="circle5572" />
    <circle
       cx="759.552"
       cy="9981.96"
       r="280.315"
       id="circle5574" />
    <circle
       cx="759.552"
       cy="9193.96"
       r="280.315"
       id="circle5576" />
    <circle
       cx="759.552"
       cy="3681.96"
       r="280.315"
       id="circle5578" />
    <circle
       cx="759.552"
       cy="5256.96"
       r="280.315"
       id="circle5580" />
    <circle
       cx="759.552"
       cy="4469.96"
       r="280.315"
       id="circle5582" />
    <circle
       cx="759.552"
       cy="6831.96"
       r="280.315"
       id="circle5584" />
    <circle
       cx="759.552"
       cy="7618.96"
       r="280.315"
       id="circle5586" />
    <circle
       cx="759.552"
       cy="6044.96"
       r="280.315"
       id="circle5588" />
    <circle
       cx="759.552"
       cy="2894.96"
       r="280.315"
       id="circle5590" />
  </g>
  <g
     style="fill:#C2C2C2; fill-opacity:1.0;  stroke:#C2C2C2; stroke-width:39.3701; stroke-opacity:1;  stroke-linecap:round; stroke-linejoin:round;"
     id="g5592">
    <circle
       cx="7258.46"
       cy="8077.48"
       r="155.315"
       id="circle5594" />
    <circle
       cx="9200.79"
       cy="10737.5"
       r="155.315"
       id="circle5596" />
    <circle
       cx="6330.35"
       cy="10572.1"
       r="155.315"
       id="circle5598" />
    <circle
       cx="3739.65"
       cy="5309.29"
       r="155.315"
       id="circle5600" />
    <circle
       cx="3566.3"
       cy="9137.17"
       r="155.315"
       id="circle5602" />
    <circle
       cx="3632.84"
       cy="8638.27"
       r="155.315"
       id="circle5604" />
    <circle
       cx="3312.68"
       cy="7660.98"
       r="155.315"
       id="circle5606" />
    <circle
       cx="3315.2"
       cy="7223.7"
       r="155.315"
       id="circle5608" />
    <circle
       cx="8165.28"
       cy="5150.12"
       r="155.315"
       id="circle5610" />
    <circle
       cx="8173.54"
       cy="5642.17"
       r="155.315"
       id="circle5612" />
    <circle
       cx="3556.3"
       cy="5990.28"
       r="155.315"
       id="circle5614" />
    <circle
       cx="3700.79"
       cy="10572.1"
       r="155.315"
       id="circle5616" />
    <circle
       cx="2012.52"
       cy="4685.39"
       r="155.315"
       id="circle5618" />
    <circle
       cx="3136.14"
       cy="8983.23"
       r="155.315"
       id="circle5620" />
    <circle
       cx="6469.13"
       cy="7782.32"
       r="155.315"
       id="circle5622" />
    <circle
       cx="3885.43"
       cy="6275.75"
       r="155.315"
       id="circle5624" />
    <circle
       cx="2005.43"
       cy="6502.84"
       r="155.315"
       id="circle5626" />
  </g>
  <g
     style="fill:#840000; fill-opacity:1.0;  stroke:#840000; stroke-width:100; stroke-opacity:1;  stroke-linecap:round; stroke-linejoin:round;"
     id="g5734">
    <path
       d="M7408 10828 L7452 10872 "
       id="path5736" />
    <path
       d="M7408 10828 L7452 10872 "
       id="path5738" />
  </g>
  <g
     style="fill:#840000; fill-opacity:1.0;  stroke:#840000; stroke-width:80; stroke-opacity:1;  stroke-linecap:round; stroke-linejoin:round;"
     id="g5740">
    <path
       d="M6862 10828 L7408 10828 "
       id="path5742" />
    <path
       d="M7408 10828 L7452 10872 "
       id="path5744" />
  </g>
  <g
     style="fill:#840000; fill-opacity:1.0;  stroke:#840000; stroke-width:100; stroke-opacity:1;  stroke-linecap:round; stroke-linejoin:round;"
     id="g5746">
    <path
       d="M2772 10828 L2728 10872 "
       id="path5748" />
    <path
       d="M3318 10828 L2772 10828 "
       id="path5750" />
  </g>
  <g
     style="fill:#FFFFFF; fill-opacity:1.0;  stroke:#FFFFFF; stroke-width:39.3701; stroke-opacity:1;  stroke-linecap:round; stroke-linejoin:round;"
     id="g5886">
    <circle
       cx="7258.46"
       cy="8077.48"
       r="105.315"
       id="circle5888" />
    <circle
       cx="9200.79"
       cy="10737.5"
       r="105.315"
       id="circle5890" />
    <circle
       cx="6330.35"
       cy="10572.1"
       r="105.315"
       id="circle5892" />
    <circle
       cx="3739.65"
       cy="5309.29"
       r="105.315"
       id="circle5894" />
    <circle
       cx="3566.3"
       cy="9137.17"
       r="105.315"
       id="circle5896" />
    <circle
       cx="3632.84"
       cy="8638.27"
       r="105.315"
       id="circle5898" />
    <circle
       cx="3312.68"
       cy="7660.98"
       r="105.315"
       id="circle5900" />
    <circle
       cx="3315.2"
       cy="7223.7"
       r="105.315"
       id="circle5902" />
    <circle
       cx="8165.28"
       cy="5150.12"
       r="105.315"
       id="circle5904" />
    <circle
       cx="8173.54"
       cy="5642.17"
       r="105.315"
       id="circle5906" />
    <circle
       cx="3556.3"
       cy="5990.28"
       r="105.315"
       id="circle5908" />
    <circle
       cx="3700.79"
       cy="10572.1"
       r="105.315"
       id="circle5910" />
    <circle
       cx="2012.52"
       cy="4685.39"
       r="105.315"
       id="circle5912" />
    <circle
       cx="3136.14"
       cy="8983.23"
       r="105.315"
       id="circle5914" />
    <circle
       cx="6469.13"
       cy="7782.32"
       r="105.315"
       id="circle5916" />
    <circle
       cx="3885.43"
       cy="6275.75"
       r="105.315"
       id="circle5918" />
    <circle
       cx="2005.43"
       cy="6502.84"
       r="105.315"
       id="circle5920" />
    <circle
       cx="5090.55"
       cy="10926.5"
       r="118.11"
       id="circle5922" />
    <circle
       cx="5086.61"
       cy="10217.8"
       r="118.11"
       id="circle5924" />
    <circle
       cx="9421.55"
       cy="2894.96"
       r="140.315"
       id="circle5926" />
    <circle
       cx="9421.55"
       cy="6044.96"
       r="140.315"
       id="circle5928" />
    <circle
       cx="9421.55"
       cy="7618.96"
       r="140.315"
       id="circle5930" />
    <circle
       cx="9421.55"
       cy="6831.96"
       r="140.315"
       id="circle5932" />
    <circle
       cx="9421.55"
       cy="4469.96"
       r="140.315"
       id="circle5934" />
    <circle
       cx="9421.55"
       cy="5256.96"
       r="140.315"
       id="circle5936" />
    <circle
       cx="9421.55"
       cy="3681.96"
       r="140.315"
       id="circle5938" />
    <circle
       cx="9421.55"
       cy="9193.96"
       r="140.315"
       id="circle5940" />
    <circle
       cx="9421.55"
       cy="9981.96"
       r="140.315"
       id="circle5942" />
    <circle
       cx="9421.55"
       cy="8406.96"
       r="140.315"
       id="circle5944" />
    <circle
       cx="759.552"
       cy="8406.96"
       r="140.315"
       id="circle5946" />
    <circle
       cx="759.552"
       cy="9981.96"
       r="140.315"
       id="circle5948" />
    <circle
       cx="759.552"
       cy="9193.96"
       r="140.315"
       id="circle5950" />
    <circle
       cx="759.552"
       cy="3681.96"
       r="140.315"
       id="circle5952" />
    <circle
       cx="759.552"
       cy="5256.96"
       r="140.315"
       id="circle5954" />
    <circle
       cx="759.552"
       cy="4469.96"
       r="140.315"
       id="circle5956" />
    <circle
       cx="759.552"
       cy="6831.96"
       r="140.315"
       id="circle5958" />
    <circle
       cx="759.552"
       cy="7618.96"
       r="140.315"
       id="circle5960" />
    <circle
       cx="759.552"
       cy="6044.96"
       r="140.315"
       id="circle5962" />
    <circle
       cx="759.552"
       cy="2894.96"
       r="140.315"
       id="circle5964" />
  </g>
</svg>
